<?xml version="1.0" encoding="UTF-8"?>
<!DOCTYPE svg PUBLIC "-//W3C//DTD SVG 1.1//EN" "http://www.w3.org/Graphics/SVG/1.1/DTD/svg11.dtd">
<svg version="1.1" xmlns="http://www.w3.org/2000/svg" xmlns:xlink="http://www.w3.org/1999/xlink" x="0px" y="0px" width="841.89" height="595.276" viewBox="0, 0, 841.89, 595.276">
  <g id="Layer_x0020_1">
    <text transform="matrix(2.835, 0, 0, 2.835, 31.261, 373.728)">
      <tspan x="-3.039" y="3.5" font-family=".LucidaGrandeUI" font-size="9.878" fill="#1F1A17">y</tspan>
    </text>
    <text transform="matrix(2.835, 0, 0, 2.835, 149.9, 490.156)">
      <tspan x="-3.324" y="3.5" font-family=".LucidaGrandeUI" font-size="9.878" fill="#1F1A17">x</tspan>
    </text>
    <text transform="matrix(2.835, 0, 0, 2.835, 88.848, 468.556)">
      <tspan x="-2.106" y="3.5" font-family=".LucidaGrandeUI" font-size="9.878" fill="#1F1A17">(</tspan>
    </text>
    <text transform="matrix(2.835, 0, 0, 2.835, 112.049, 468.556)">
      <tspan x="-2.063" y="3.5" font-family=".LucidaGrandeUI" font-size="9.878" fill="#1F1A17">,</tspan>
    </text>
    <text transform="matrix(2.835, 0, 0, 2.835, 133.172, 468.556)">
      <tspan x="-2.106" y="3.5" font-family=".LucidaGrandeUI" font-size="9.878" fill="#1F1A17">)</tspan>
    </text>
    <text transform="matrix(2.835, 0, 0, 2.835, 101.624, 468.556)">
      <tspan x="-3.324" y="3.5" font-family=".LucidaGrandeUI" font-size="9.878" fill="#1F1A17">x</tspan>
    </text>
    <text transform="matrix(2.835, 0, 0, 2.835, 121.817, 468.556)">
      <tspan x="-3.039" y="3.5" font-family=".LucidaGrandeUI" font-size="9.878" fill="#1F1A17">y</tspan>
    </text>
    <text transform="matrix(2.835, 0, 0, 2.835, 84.832, 420.262)">
      <tspan x="-3.042" y="3.5" font-family=".LucidaGrandeUI" font-size="9.878" fill="#1F1A17">v</tspan>
    </text>
    <path d="M76.21,432.728 L91.783,432.728 L91.783,434.001 L76.21,434.001 z" fill="#1F1A17"/>
    <text transform="matrix(2.835, 0, 0, 2.835, 27.037, 469.216)">
      <tspan x="-2.521" y="3.5" font-family=".LucidaGrandeUI" font-size="9.878" fill="#1F1A17">r</tspan>
    </text>
    <path d="M19.891,481.683 L30.787,481.683 L30.787,482.956 L19.891,482.956 z" fill="#1F1A17"/>
    <text transform="matrix(2.835, 0, 0, 2.835, 750.951, 491.981)">
      <tspan x="-3.042" y="3.5" font-family=".LucidaGrandeUI" font-size="9.878" fill="#1F1A17">v</tspan>
    </text>
    <text transform="matrix(2.835, 0, 0, 2.835, 699.851, 445.754)">
      <tspan x="-3.042" y="3.5" font-family=".LucidaGrandeUI" font-size="9.878" fill="#1F1A17">v</tspan>
    </text>
    <path d="M691.228,458.22 L706.802,458.22 L706.802,459.493 L691.228,459.493 z" fill="#1F1A17"/>
    <text transform="matrix(2.835, 0, 0, 2.835, 275.75, 505.358)">
      <tspan x="-3.042" y="3.5" font-family=".LucidaGrandeUI" font-size="9.878" fill="#1F1A17">v</tspan>
    </text>
    <path d="M267.128,517.825 L282.7,517.825 L282.7,519.097 L267.128,519.097 z" fill="#1F1A17"/>
    <text transform="matrix(2.835, 0, 0, 2.835, 517.846, 505.358)">
      <tspan x="-3.358" y="3.5" font-family=".LucidaGrandeUI" font-size="9.878" fill="#1F1A17">-</tspan>
    </text>
    <text transform="matrix(2.835, 0, 0, 2.835, 526.274, 505.358)">
      <tspan x="-3.042" y="3.5" font-family=".LucidaGrandeUI" font-size="9.878" fill="#1F1A17">v</tspan>
    </text>
    <path d="M517.652,517.825 L533.225,517.825 L533.225,519.097 L517.652,519.097 z" fill="#1F1A17"/>
    <text transform="matrix(2.835, 0, 0, 2.835, 581.124, 416.778)">
      <tspan x="-3.358" y="3.5" font-family=".LucidaGrandeUI" font-size="9.878" fill="#1F1A17">-</tspan>
    </text>
    <text transform="matrix(2.835, 0, 0, 2.835, 589.552, 416.778)">
      <tspan x="-3.042" y="3.5" font-family=".LucidaGrandeUI" font-size="9.878" fill="#1F1A17">v</tspan>
    </text>
    <path d="M580.929,429.245 L596.503,429.245 L596.503,430.517 L580.929,430.517 z" fill="#1F1A17"/>
    <text transform="matrix(2.835, 0, 0, 2.835, 360.952, 422.033)">
      <tspan x="-3.042" y="3.5" font-family=".LucidaGrandeUI" font-size="9.878" fill="#1F1A17">v</tspan>
    </text>
    <path d="M352.329,434.5 L367.903,434.5 L367.903,435.773 L352.329,435.773 z" fill="#1F1A17"/>
    <text transform="matrix(2.835, 0, 0, 2.835, 221.246, 453.9)">
      <tspan x="-3.565" y="3.5" font-family=".LucidaGrandeUI" font-size="9.878" fill="#1F1A17">u</tspan>
    </text>
    <path d="M211.141,466.367 L226.713,466.367 L226.713,467.64 L211.141,467.64 z" fill="#1F1A17"/>
    <text transform="matrix(2.835, 0, 0, 2.835, 462.447, 453.9)">
      <tspan x="-3.565" y="3.5" font-family=".LucidaGrandeUI" font-size="9.878" fill="#1F1A17">u</tspan>
    </text>
    <path d="M452.341,466.367 L467.912,466.367 L467.912,467.64 L452.341,467.64 z" fill="#1F1A17"/>
    <text transform="matrix(2.835, 0, 0, 2.835, 369.754, 477.184)">
      <tspan x="-3.565" y="3.5" font-family=".LucidaGrandeUI" font-size="9.878" fill="#1F1A17">u</tspan>
    </text>
    <path d="M359.649,489.651 L375.222,489.651 L375.222,490.924 L359.649,490.924 z" fill="#1F1A17"/>
    <text transform="matrix(2.835, 0, 0, 2.835, 610.954, 477.184)">
      <tspan x="-3.565" y="3.5" font-family=".LucidaGrandeUI" font-size="9.878" fill="#1F1A17">u</tspan>
    </text>
    <path d="M600.849,489.651 L616.422,489.651 L616.422,490.924 L600.849,490.924 z" fill="#1F1A17"/>
    <text transform="matrix(2.835, 0, 0, 2.835, 249.773, 407.911)">
      <tspan x="-3.042" y="3.5" font-family=".LucidaGrandeUI" font-size="9.878" fill="#1F1A17">v</tspan>
    </text>
    <text transform="matrix(2.835, 0, 0, 2.835, 282.829, 407.911)">
      <tspan x="-3.565" y="3.5" font-family=".LucidaGrandeUI" font-size="9.878" fill="#1F1A17">u</tspan>
    </text>
    <text transform="matrix(2.835, 0, 0, 2.835, 267.269, 407.911)">
      <tspan x="-4.426" y="3.5" font-family=".LucidaGrandeUI" font-size="9.878" fill="#1F1A17">+</tspan>
    </text>
    <path d="M243.15,420.378 L258.723,420.378 L258.723,421.651 L243.15,421.651 L243.15,420.378 z M272.723,420.378 L288.296,420.378 L288.296,421.651 L272.723,421.651 L272.723,420.378 z" fill="#1F1A17"/>
    <text transform="matrix(2.835, 0, 0, 2.835, 470.829, 409.844)">
      <tspan x="-3.358" y="3.5" font-family=".LucidaGrandeUI" font-size="9.878" fill="#1F1A17">-</tspan>
    </text>
    <text transform="matrix(2.835, 0, 0, 2.835, 497.751, 409.844)">
      <tspan x="-4.426" y="3.5" font-family=".LucidaGrandeUI" font-size="9.878" fill="#1F1A17">+</tspan>
    </text>
    <text transform="matrix(2.835, 0, 0, 2.835, 480.256, 409.844)">
      <tspan x="-3.042" y="3.5" font-family=".LucidaGrandeUI" font-size="9.878" fill="#1F1A17">v</tspan>
    </text>
    <text transform="matrix(2.835, 0, 0, 2.835, 514.311, 409.844)">
      <tspan x="-3.565" y="3.5" font-family=".LucidaGrandeUI" font-size="9.878" fill="#1F1A17">u</tspan>
    </text>
    <path d="M473.634,422.311 L489.207,422.311 L489.207,423.584 L473.634,423.584 L473.634,422.311 z M503.207,422.311 L518.779,422.311 L518.779,423.584 L503.207,423.584 L503.207,422.311 z" fill="#1F1A17"/>
    <text transform="matrix(2.835, 0, 0, 2.835, 39.865, 519.165)">
      <tspan x="-5.591" y="2.5" font-family=".LucidaGrandeUI" font-size="8.467" fill="#1F1A17">(a)</tspan>
    </text>
    <text transform="matrix(2.835, 0, 0, 2.835, 201.798, 519.707)">
      <tspan x="-5.918" y="2.5" font-family=".LucidaGrandeUI" font-size="8.467" fill="#1F1A17">(b)</tspan>
    </text>
    <text transform="matrix(2.835, 0, 0, 2.835, 450.345, 519.165)">
      <tspan x="-5.422" y="2.5" font-family=".LucidaGrandeUI" font-size="8.467" fill="#1F1A17">(c)</tspan>
    </text>
    <text transform="matrix(2.835, 0, 0, 2.835, 692.951, 519.165)">
      <tspan x="-5.918" y="2.5" font-family=".LucidaGrandeUI" font-size="8.467" fill="#1F1A17">(d)</tspan>
    </text>
    <path d="M12.605,385.608 L18.557,399.498 L18.557,399.498 L18.185,399.318 L17.813,399.149 L17.441,398.992 L17.069,398.847 L16.697,398.713 L16.325,398.591 L15.953,398.481 L15.581,398.382 L15.209,398.295 L14.837,398.219 L14.465,398.155 L14.093,398.103 L13.721,398.062 L13.349,398.033 L12.977,398.016 L12.605,398.01 L12.232,398.016 L11.86,398.033 L11.488,398.062 L11.116,398.103 L10.744,398.155 L10.372,398.219 L10,398.295 L9.628,398.382 L9.256,398.481 L8.884,398.591 L8.512,398.713 L8.14,398.847 L7.768,398.992 L7.396,399.149 L7.024,399.318 L6.652,399.498 L12.605,385.608 z M12.605,500.271 L11.612,499.279 L11.612,392.589 L13.597,392.589 L13.597,499.279 L12.605,500.271 z M12.605,500.271 L11.612,500.271 L11.612,499.279 L12.605,500.271 z M124.237,500.271 L12.605,500.271 L12.605,498.286 L124.237,498.286 L124.237,500.271 z M131.217,499.279 L117.328,505.231 L117.508,504.859 L117.676,504.487 L117.833,504.115 L117.979,503.743 L118.113,503.371 L118.234,502.999 L118.345,502.627 L118.444,502.255 L118.531,501.883 L118.607,501.511 L118.67,501.139 L118.723,500.767 L118.763,500.395 L118.793,500.023 L118.81,499.651 L118.816,499.279 L118.81,498.906 L118.793,498.534 L118.763,498.162 L118.723,497.79 L118.67,497.418 L118.607,497.046 L118.531,496.674 L118.444,496.302 L118.345,495.93 L118.234,495.558 L118.113,495.186 L117.979,494.814 L117.833,494.442 L117.676,494.07 L117.508,493.698 L117.328,493.326 L117.328,493.326 L131.217,499.279 z" fill="#1F1A17"/>
    <path d="M65.455,420.718 L38.379,451.777 L36.253,449.917 L63.329,418.858 L65.455,420.718 z M70.923,412.298 L64.317,432.771 L64.086,432.23 L63.844,431.701 L63.592,431.184 L63.329,430.68 L63.055,430.189 L62.77,429.71 L62.474,429.243 L62.167,428.789 L61.849,428.347 L61.521,427.918 L61.181,427.501 L60.831,427.097 L60.47,426.705 L60.098,426.326 L59.715,425.96 L59.321,425.605 L58.916,425.263 L58.501,424.934 L58.075,424.617 L57.637,424.313 L57.189,424.021 L56.73,423.742 L56.26,423.475 L55.779,423.22 L55.287,422.978 L54.785,422.749 L54.272,422.532 L53.747,422.327 L53.212,422.135 L52.666,421.955 L52.109,421.788 L51.542,421.633 L51.542,421.633 L70.923,412.298 z" fill="#1F1A17"/>
    <path d="M64.999,469.162 L12.15,499.766 L10.733,497.319 L63.582,466.715 L64.999,469.162 z M72.899,462.953 L60.021,480.214 L59.977,479.627 L59.919,479.048 L59.847,478.477 L59.761,477.914 L59.66,477.36 L59.545,476.814 L59.415,476.276 L59.272,475.747 L59.113,475.225 L58.941,474.713 L58.754,474.208 L58.553,473.712 L58.337,473.224 L58.107,472.745 L57.863,472.273 L57.605,471.81 L57.332,471.356 L57.045,470.909 L56.743,470.471 L56.427,470.041 L56.097,469.62 L55.752,469.207 L55.394,468.802 L55.02,468.405 L54.633,468.017 L54.231,467.637 L53.815,467.266 L53.384,466.902 L52.939,466.547 L52.48,466.2 L52.006,465.862 L51.518,465.532 L51.518,465.532 L72.899,462.953 z" fill="#1F1A17"/>
    <path d="M187.167,495.363 L280.047,441.578" fill-opacity="0" stroke="#1F1A17" stroke-width="1"/>
    <path d="M428.366,495.363 L521.246,441.578" fill-opacity="0" stroke="#1F1A17" stroke-width="1"/>
    <path d="M242.755,464.374 L205.983,485.669 L204.991,483.956 L241.763,462.662 L242.755,464.374 z M248.285,460.029 L239.27,472.111 L239.24,471.7 L239.199,471.294 L239.149,470.895 L239.088,470.501 L239.018,470.113 L238.937,469.731 L238.846,469.354 L238.746,468.984 L238.635,468.619 L238.514,468.26 L238.383,467.907 L238.243,467.559 L238.092,467.218 L237.931,466.882 L237.76,466.552 L237.579,466.228 L237.388,465.91 L237.187,465.598 L236.976,465.291 L236.755,464.99 L236.523,464.695 L236.282,464.406 L236.031,464.122 L235.77,463.845 L235.499,463.573 L235.217,463.307 L234.926,463.047 L234.624,462.793 L234.313,462.544 L233.992,462.301 L233.66,462.065 L233.319,461.833 L233.319,461.833 L248.285,460.029 z" fill="#1F1A17"/>
    <path d="M483.956,464.374 L447.184,485.669 L446.192,483.956 L482.964,462.662 L483.956,464.374 z M489.486,460.029 L480.471,472.111 L480.441,471.7 L480.4,471.294 L480.35,470.895 L480.29,470.501 L480.219,470.113 L480.139,469.731 L480.048,469.354 L479.947,468.984 L479.836,468.619 L479.716,468.26 L479.585,467.907 L479.444,467.559 L479.293,467.218 L479.132,466.882 L478.961,466.552 L478.78,466.228 L478.589,465.91 L478.388,465.598 L478.177,465.291 L477.956,464.99 L477.725,464.695 L477.484,464.406 L477.232,464.122 L476.971,463.845 L476.7,463.573 L476.419,463.307 L476.127,463.047 L475.826,462.793 L475.514,462.544 L475.193,462.301 L474.861,462.065 L474.52,461.833 L474.52,461.833 L489.486,460.029 z" fill="#1F1A17"/>
    <path d="M376.523,461.237 L339.751,482.531 L338.759,480.818 L375.531,459.524 L376.523,461.237 z M382.053,456.891 L373.038,468.973 L373.008,468.562 L372.967,468.156 L372.917,467.757 L372.857,467.363 L372.786,466.975 L372.705,466.593 L372.615,466.216 L372.514,465.846 L372.403,465.481 L372.283,465.122 L372.152,464.769 L372.011,464.422 L371.86,464.08 L371.699,463.744 L371.528,463.414 L371.347,463.09 L371.156,462.772 L370.955,462.46 L370.744,462.153 L370.523,461.852 L370.292,461.557 L370.051,461.268 L369.799,460.984 L369.538,460.707 L369.267,460.435 L368.986,460.169 L368.694,459.909 L368.393,459.655 L368.081,459.406 L367.76,459.164 L367.428,458.927 L367.087,458.696 L367.087,458.696 L382.053,456.891 z" fill="#1F1A17"/>
    <path d="M617.723,461.237 L580.951,482.531 L579.959,480.818 L616.731,459.524 L617.723,461.237 z M623.253,456.891 L614.238,468.973 L614.208,468.562 L614.167,468.156 L614.117,467.757 L614.057,467.363 L613.986,466.975 L613.905,466.593 L613.815,466.216 L613.714,465.846 L613.603,465.481 L613.483,465.122 L613.352,464.769 L613.211,464.422 L613.06,464.08 L612.899,463.744 L612.728,463.414 L612.547,463.09 L612.356,462.772 L612.155,462.46 L611.944,462.153 L611.723,461.852 L611.492,461.557 L611.251,461.268 L610.999,460.984 L610.738,460.707 L610.467,460.435 L610.186,460.169 L609.894,459.909 L609.593,459.655 L609.281,459.406 L608.96,459.164 L608.628,458.927 L608.287,458.696 L608.287,458.696 L623.253,456.891 z" fill="#1F1A17"/>
    <path d="M314.969,495.745 L407.849,441.961" fill-opacity="0" stroke="#1F1A17" stroke-width="1"/>
    <path d="M556.169,495.745 L649.049,441.961" fill-opacity="0" stroke="#1F1A17" stroke-width="1"/>
    <path d="M126.655,388.318 L99.579,419.377 L97.453,417.517 L124.529,386.458 L126.655,388.318 z M132.123,379.898 L125.517,400.371 L125.286,399.83 L125.044,399.301 L124.792,398.784 L124.529,398.28 L124.255,397.789 L123.97,397.31 L123.674,396.843 L123.367,396.389 L123.049,395.947 L122.721,395.518 L122.381,395.101 L122.031,394.697 L121.67,394.305 L121.298,393.926 L120.915,393.56 L120.521,393.205 L120.116,392.863 L119.701,392.534 L119.275,392.217 L118.837,391.913 L118.389,391.621 L117.93,391.342 L117.46,391.074 L116.979,390.82 L116.488,390.578 L115.985,390.349 L115.472,390.132 L114.947,389.927 L114.412,389.735 L113.866,389.555 L113.309,389.388 L112.742,389.233 L112.742,389.233 L132.123,379.898 z" fill="#1F1A17"/>
    <path d="M140.983,413.518 L113.906,444.577 L111.78,442.717 L138.857,411.658 L140.983,413.518 z M146.45,405.098 L139.844,425.571 L139.613,425.03 L139.372,424.501 L139.119,423.984 L138.856,423.48 L138.582,422.989 L138.297,422.51 L138.001,422.043 L137.694,421.589 L137.376,421.147 L137.048,420.718 L136.708,420.301 L136.358,419.897 L135.997,419.505 L135.625,419.126 L135.242,418.76 L134.848,418.405 L134.444,418.063 L134.028,417.734 L133.602,417.417 L133.164,417.113 L132.716,416.821 L132.257,416.542 L131.787,416.274 L131.306,416.02 L130.815,415.778 L130.312,415.549 L129.799,415.332 L129.275,415.127 L128.739,414.935 L128.193,414.755 L127.636,414.588 L127.069,414.433 L127.069,414.433 L146.45,405.098 z" fill="#1F1A17"/>
    <g>
      <path d="M79.819,460.732 C79.819,462.916 78.048,464.686 75.865,464.686 C73.681,464.686 71.911,462.916 71.911,460.732 C71.911,458.548 73.681,456.778 75.865,456.778 C78.048,456.778 79.819,458.548 79.819,460.732 z" fill="#000000"/>
      <path d="M79.819,460.732 C79.819,462.916 78.048,464.686 75.865,464.686 C73.681,464.686 71.911,462.916 71.911,460.732 C71.911,458.548 73.681,456.778 75.865,456.778 C78.048,456.778 79.819,458.548 79.819,460.732 z" fill-opacity="0" stroke="#000000" stroke-width="0.076"/>
    </g>
    <path d="M186.862,496.315 L315.36,496.315" fill-opacity="0" stroke="#1F1A17" stroke-width="1"/>
    <path d="M428.063,496.315 L556.56,496.315" fill-opacity="0" stroke="#1F1A17" stroke-width="1"/>
    <path d="M260.986,497.307 L204.862,497.307 L204.862,495.323 L260.986,495.323 L260.986,497.307 z M267.967,496.315 L254.077,502.268 L254.257,501.896 L254.426,501.524 L254.583,501.152 L254.728,500.78 L254.862,500.408 L254.984,500.036 L255.094,499.664 L255.193,499.292 L255.28,498.92 L255.356,498.548 L255.42,498.176 L255.472,497.803 L255.513,497.432 L255.542,497.059 L255.559,496.687 L255.565,496.315 L255.559,495.943 L255.542,495.571 L255.513,495.199 L255.472,494.827 L255.42,494.455 L255.356,494.083 L255.28,493.711 L255.193,493.339 L255.094,492.967 L254.984,492.595 L254.862,492.223 L254.728,491.851 L254.583,491.478 L254.426,491.107 L254.257,490.734 L254.077,490.362 L254.077,490.362 L267.967,496.315 z" fill="#1F1A17"/>
    <path d="M503.663,496.315 L517.552,490.362 L517.552,490.362 L517.372,490.734 L517.204,491.107 L517.047,491.478 L516.901,491.851 L516.768,492.223 L516.646,492.595 L516.535,492.967 L516.436,493.339 L516.349,493.711 L516.273,494.083 L516.21,494.455 L516.157,494.827 L516.117,495.199 L516.088,495.571 L516.07,495.943 L516.064,496.315 L516.07,496.687 L516.088,497.059 L516.117,497.432 L516.157,497.803 L516.21,498.176 L516.273,498.548 L516.349,498.92 L516.436,499.292 L516.535,499.664 L516.646,500.036 L516.768,500.408 L516.901,500.78 L517.047,501.152 L517.204,501.524 L517.372,501.896 L517.552,502.268 L503.663,496.315 z M535.131,497.307 L510.643,497.307 L510.643,495.323 L535.131,495.323 L535.131,497.307 z" fill="#1F1A17"/>
    <path d="M343.888,442.48 L287.763,442.48 L287.763,440.495 L343.888,440.495 L343.888,442.48 z M350.868,441.488 L336.979,447.44 L337.159,447.068 L337.327,446.696 L337.484,446.324 L337.63,445.952 L337.764,445.58 L337.886,445.208 L337.996,444.836 L338.095,444.464 L338.182,444.092 L338.258,443.72 L338.322,443.348 L338.374,442.976 L338.414,442.604 L338.444,442.232 L338.461,441.86 L338.467,441.488 L338.461,441.115 L338.444,440.743 L338.414,440.371 L338.374,439.999 L338.322,439.627 L338.258,439.255 L338.182,438.883 L338.095,438.511 L337.996,438.139 L337.886,437.767 L337.764,437.395 L337.63,437.023 L337.484,436.651 L337.327,436.279 L337.159,435.907 L336.979,435.535 L336.979,435.535 L350.868,441.488 z" fill="#1F1A17"/>
    <path d="M557.765,441.488 L571.599,435.559 L571.599,435.559 L571.419,435.929 L571.251,436.3 L571.095,436.67 L570.95,437.041 L570.817,437.411 L570.696,437.782 L570.586,438.153 L570.487,438.523 L570.4,438.894 L570.325,439.264 L570.262,439.635 L570.209,440.005 L570.169,440.376 L570.14,440.746 L570.122,441.117 L570.117,441.488 L570.122,441.858 L570.14,442.228 L570.169,442.599 L570.209,442.97 L570.262,443.34 L570.325,443.711 L570.4,444.082 L570.487,444.452 L570.586,444.822 L570.696,445.193 L570.817,445.564 L570.95,445.934 L571.095,446.305 L571.251,446.675 L571.419,447.046 L571.599,447.416 L557.765,441.488 z M591.896,442.476 L564.717,442.476 L564.717,440.499 L591.896,440.499 L591.896,442.476 z" fill="#1F1A17"/>
    <path d="M280.462,441.408 L408.96,441.408" fill-opacity="0" stroke="#1F1A17" stroke-width="1"/>
    <path d="M521.663,441.408 L650.16,441.408" fill-opacity="0" stroke="#1F1A17" stroke-width="1"/>
    <path d="M187.478,494.654 L406.721,441.196" fill-opacity="0" stroke="#1F1A17" stroke-width="1"/>
    <path d="M302.221,468.128 L263.311,477.615 L262.846,475.693 L301.757,466.205 L302.221,468.128 z M308.748,465.518 L296.704,474.562 L296.791,474.159 L296.866,473.759 L296.93,473.362 L296.983,472.967 L297.025,472.575 L297.055,472.186 L297.074,471.8 L297.082,471.417 L297.079,471.036 L297.064,470.657 L297.038,470.282 L297.001,469.909 L296.952,469.539 L296.893,469.172 L296.822,468.808 L296.74,468.446 L296.646,468.088 L296.541,467.731 L296.425,467.378 L296.298,467.027 L296.16,466.679 L296.01,466.334 L295.849,465.992 L295.677,465.652 L295.493,465.315 L295.298,464.981 L295.092,464.649 L294.875,464.321 L294.646,463.995 L294.406,463.672 L294.155,463.351 L293.893,463.033 L293.893,463.033 L308.748,465.518 z" fill="#1F1A17"/>
    <path d="M316.621,464.528 L277.711,474.015 L277.246,472.093 L316.157,462.605 L316.621,464.528 z M323.148,461.918 L311.104,470.962 L311.191,470.559 L311.266,470.159 L311.33,469.762 L311.383,469.367 L311.425,468.975 L311.455,468.586 L311.474,468.2 L311.482,467.817 L311.479,467.436 L311.464,467.057 L311.438,466.682 L311.401,466.309 L311.352,465.939 L311.293,465.572 L311.222,465.208 L311.139,464.846 L311.046,464.488 L310.941,464.131 L310.825,463.778 L310.698,463.427 L310.56,463.079 L310.41,462.734 L310.249,462.392 L310.077,462.052 L309.893,461.715 L309.698,461.381 L309.492,461.049 L309.275,460.721 L309.046,460.395 L308.806,460.072 L308.555,459.751 L308.293,459.433 L308.293,459.433 L323.148,461.918 z" fill="#1F1A17"/>
    <path d="M260.796,424.817 L283.435,465.435" fill-opacity="0" stroke="#1F1A17" stroke-width="0.076"/>
    <path d="M486.045,429.894 L519.959,461.71" fill-opacity="0" stroke="#1F1A17" stroke-width="0.076"/>
    <path d="M555.106,495.397 L520.481,441.462" fill-opacity="0" stroke="#1F1A17" stroke-width="1"/>
    <path d="M538.135,466.909 L547.21,481.045 L545.543,482.115 L536.469,467.978 L538.135,466.909 z M533.539,461.582 L546.025,470.037 L545.615,470.086 L545.212,470.145 L544.815,470.214 L544.424,470.292 L544.04,470.38 L543.661,470.478 L543.29,470.586 L542.924,470.704 L542.565,470.831 L542.211,470.968 L541.864,471.115 L541.524,471.272 L541.189,471.438 L540.861,471.614 L540.54,471.8 L540.224,471.996 L539.915,472.201 L539.612,472.416 L539.315,472.641 L539.025,472.876 L538.74,473.121 L538.462,473.375 L538.191,473.639 L537.925,473.913 L537.666,474.196 L537.413,474.49 L537.167,474.793 L536.926,475.106 L536.692,475.428 L536.464,475.76 L536.243,476.103 L536.028,476.455 L536.028,476.455 L533.539,461.582 z" fill="#1F1A17"/>
    <path d="M529.903,454.266 L538.978,468.402 L537.312,469.472 L528.237,455.336 L529.903,454.266 z M525.307,448.94 L537.793,457.394 L537.384,457.443 L536.98,457.502 L536.583,457.571 L536.193,457.65 L535.808,457.738 L535.43,457.836 L535.058,457.944 L534.692,458.061 L534.333,458.189 L533.979,458.326 L533.633,458.472 L533.292,458.629 L532.958,458.796 L532.63,458.972 L532.308,459.158 L531.992,459.353 L531.683,459.559 L531.38,459.774 L531.083,459.999 L530.793,460.234 L530.508,460.478 L530.231,460.733 L529.959,460.996 L529.693,461.27 L529.434,461.554 L529.182,461.847 L528.935,462.15 L528.695,462.463 L528.46,462.786 L528.233,463.118 L528.011,463.46 L527.796,463.812 L527.796,463.812 L525.307,448.94 z" fill="#1F1A17"/>
    <g>
      <g>
        <path d="M752.641,445.771 L815.63,409.294" fill-opacity="0" stroke="#1F1A17" stroke-width="1"/>
        <path d="M788.562,426.155 L765.564,439.473 L764.571,437.76 L787.57,424.442 L788.562,426.155 z M794.092,421.809 L785.077,433.892 L785.046,433.48 L785.006,433.075 L784.955,432.675 L784.895,432.281 L784.824,431.893 L784.744,431.511 L784.653,431.135 L784.553,430.764 L784.442,430.399 L784.321,430.04 L784.19,429.687 L784.049,429.34 L783.899,428.998 L783.738,428.663 L783.567,428.333 L783.386,428.009 L783.195,427.69 L782.994,427.378 L782.783,427.071 L782.562,426.771 L782.33,426.476 L782.089,426.186 L781.838,425.903 L781.577,425.625 L781.305,425.354 L781.024,425.087 L780.733,424.827 L780.431,424.573 L780.12,424.325 L779.798,424.082 L779.467,423.845 L779.125,423.614 L779.125,423.614 L794.092,421.809 z" fill="#1F1A17"/>
      </g>
      <g>
        <path d="M752.635,445.555 L681.049,432.394" fill-opacity="0" stroke="#1F1A17" stroke-width="1"/>
        <path d="M712.576,437.151 L738.719,441.957 L738.362,443.902 L712.219,439.096 L712.576,437.151 z M705.554,436.865 L720.245,433.533 L720.001,433.865 L719.768,434.199 L719.548,434.536 L719.338,434.874 L719.14,435.215 L718.953,435.558 L718.778,435.903 L718.614,436.25 L718.461,436.599 L718.32,436.95 L718.19,437.303 L718.072,437.658 L717.965,438.016 L717.87,438.375 L717.785,438.737 L717.713,439.1 L717.651,439.466 L717.601,439.834 L717.563,440.204 L717.536,440.576 L717.52,440.951 L717.515,441.327 L717.523,441.705 L717.541,442.086 L717.571,442.468 L717.612,442.853 L717.665,443.24 L717.729,443.629 L717.804,444.02 L717.891,444.413 L717.989,444.808 L718.099,445.205 L718.099,445.205 L705.554,436.865 z" fill="#1F1A17"/>
      </g>
      <g>
        <path d="M752.63,445.646 L714.475,507.631" fill-opacity="0" stroke="#1F1A17" stroke-width="1"/>
        <path d="M730.318,479.94 L744.242,457.318 L745.932,458.357 L732.008,480.978 L730.318,479.94 z M727.506,486.4 L729.716,471.46 L729.938,471.808 L730.167,472.146 L730.401,472.475 L730.642,472.793 L730.888,473.102 L731.141,473.401 L731.4,473.69 L731.665,473.969 L731.936,474.238 L732.213,474.497 L732.496,474.746 L732.785,474.986 L733.081,475.216 L733.382,475.435 L733.689,475.645 L734.003,475.845 L734.323,476.035 L734.648,476.215 L734.98,476.385 L735.318,476.545 L735.662,476.696 L736.013,476.836 L736.369,476.967 L736.731,477.088 L737.099,477.198 L737.474,477.299 L737.855,477.39 L738.241,477.471 L738.634,477.543 L739.033,477.604 L739.438,477.655 L739.849,477.697 L739.849,477.697 L727.506,486.4 z" fill="#1F1A17"/>
      </g>
      <g>
        <path d="M753.024,445.881 L806.499,495.258" fill-opacity="0" stroke="#1F1A17" stroke-width="1"/>
        <path d="M782.388,474.386 L762.864,456.359 L764.205,454.902 L783.729,472.929 L782.388,474.386 z M788.176,478.383 L773.963,473.345 L774.347,473.194 L774.723,473.036 L775.089,472.869 L775.448,472.695 L775.798,472.512 L776.139,472.322 L776.472,472.124 L776.796,471.919 L777.112,471.705 L777.419,471.483 L777.718,471.254 L778.008,471.016 L778.29,470.771 L778.563,470.518 L778.828,470.257 L779.084,469.988 L779.331,469.712 L779.57,469.427 L779.801,469.135 L780.023,468.834 L780.237,468.526 L780.441,468.21 L780.638,467.886 L780.826,467.554 L781.005,467.215 L781.176,466.867 L781.338,466.512 L781.492,466.148 L781.638,465.777 L781.774,465.398 L781.903,465.011 L782.022,464.617 L782.022,464.617 L788.176,478.383 z" fill="#1F1A17"/>
      </g>
      <g>
        <path d="M752.715,445.473 L729.261,376.571" fill-opacity="0" stroke="#1F1A17" stroke-width="1"/>
        <path d="M740.503,406.417 L749.066,431.572 L747.19,432.207 L738.627,407.053 L740.503,406.417 z M737.32,400.139 L747.412,411.349 L747.003,411.298 L746.597,411.259 L746.195,411.23 L745.797,411.212 L745.402,411.206 L745.011,411.21 L744.624,411.225 L744.241,411.251 L743.861,411.289 L743.485,411.337 L743.113,411.396 L742.745,411.467 L742.38,411.548 L742.019,411.64 L741.662,411.743 L741.309,411.857 L740.959,411.983 L740.613,412.119 L740.271,412.266 L739.933,412.424 L739.598,412.593 L739.267,412.773 L738.94,412.964 L738.616,413.166 L738.296,413.379 L737.98,413.603 L737.668,413.838 L737.359,414.084 L737.055,414.341 L736.754,414.609 L736.456,414.888 L736.163,415.178 L736.163,415.178 L737.32,400.139 z" fill="#1F1A17"/>
      </g>
      <g>
        <path d="M752.791,445.609 L769.688,374.811" fill-opacity="0" stroke="#1F1A17" stroke-width="1"/>
        <path d="M763.282,406.063 L757.116,431.899 L755.186,431.442 L761.352,405.605 L763.282,406.063 z M763.937,399.047 L766.502,413.933 L766.182,413.671 L765.859,413.421 L765.534,413.182 L765.206,412.955 L764.875,412.738 L764.542,412.533 L764.206,412.34 L763.867,412.157 L763.525,411.986 L763.181,411.826 L762.834,411.678 L762.485,411.541 L762.133,411.415 L761.778,411.3 L761.42,411.197 L761.059,411.105 L760.696,411.024 L760.331,410.955 L759.962,410.897 L759.591,410.85 L759.217,410.814 L758.841,410.79 L758.461,410.778 L758.079,410.776 L757.695,410.786 L757.307,410.807 L756.917,410.839 L756.524,410.883 L756.129,410.938 L755.731,411.004 L755.33,411.082 L754.927,411.17 L754.927,411.17 L763.937,399.047 z" fill="#1F1A17"/>
      </g>
      <path d="M825.51,445.612 C825.51,485.779 792.947,518.342 752.78,518.342 C712.612,518.342 680.05,485.779 680.05,445.612 C680.05,405.444 712.612,372.882 752.78,372.882 C792.947,372.882 825.51,405.444 825.51,445.612 z" fill-opacity="0" stroke="#1F1A17" stroke-width="0.076"/>
    </g>
    <path d="M752.596,444.495 L763.469,517.64" fill-opacity="0" stroke="#1F1A17" stroke-width="1" stroke-dasharray="2,0"/>
  </g>
  <defs/>
</svg>
