<?xml version="1.0" encoding="UTF-8"?>
<!DOCTYPE svg PUBLIC "-//W3C//DTD SVG 1.1//EN" "http://www.w3.org/Graphics/SVG/1.1/DTD/svg11.dtd">
<svg version="1.1" xmlns="http://www.w3.org/2000/svg" xmlns:xlink="http://www.w3.org/1999/xlink" x="0px" y="0px" width="841.89" height="595.276" viewBox="0, 0, 841.89, 595.276">
  <g id="Layer_x0020_1">
    <text transform="matrix(2.835, 0, 0, 2.835, 269.179, 234.16)">
      <tspan x="-3.964" y="5.5" font-family=".LucidaGrandeUI" font-size="16.933" fill="#1F1A17">r</tspan>
    </text>
    <text transform="matrix(2.835, 0, 0, 2.835, 183.026, 144.692)">
      <tspan x="-4.857" y="5.5" font-family=".LucidaGrandeUI" font-size="16.933" fill="#1F1A17">v</tspan>
    </text>
    <path d="M169.257,164.646 L193.257,164.646 L193.257,166.828 L169.257,166.828 z" fill="#1F1A17"/>
    <text transform="matrix(2.835, 0, 0, 2.835, 514.679, 308.154)">
      <tspan x="-5.399" y="5.5" font-family=".LucidaGrandeUI" font-size="16.933" fill="#1F1A17">-</tspan>
    </text>
    <text transform="matrix(2.835, 0, 0, 2.835, 535.128, 308.154)">
      <tspan x="-4.857" y="5.5" font-family=".LucidaGrandeUI" font-size="16.933" fill="#1F1A17">v</tspan>
    </text>
    <path d="M521.359,328.107 L545.36,328.107 L545.36,330.29 L521.359,330.29 z" fill="#1F1A17"/>
    <text transform="matrix(2.835, 0, 0, 2.835, 637.67, 236.224)">
      <tspan x="-5.829" y="5.5" font-family=".LucidaGrandeUI" font-size="16.933" fill="#1F1A17">d</tspan>
    </text>
    <text transform="matrix(2.835, 0, 0, 2.835, 664.238, 236.224)">
      <tspan x="-4.857" y="5.5" font-family=".LucidaGrandeUI" font-size="16.933" fill="#1F1A17">v</tspan>
    </text>
    <path d="M621.147,256.178 L650.467,256.178 L650.467,258.36 L621.147,258.36 L621.147,256.178 z M650.467,256.178 L674.467,256.178 L674.467,258.36 L650.467,258.36 L650.467,256.178 z" fill="#1F1A17"/>
    <text transform="matrix(2.82, 0, 0, 2.835, 91.71, 243.838)">
      <tspan x="-4.88" y="5.5" font-family=".LucidaGrandeUI" font-size="17.02" fill="#1F1A17">v</tspan>
    </text>
    <text transform="matrix(2.82, 0, 0, 2.835, 109.632, 243.989)">
      <tspan x="-1.88" y="4" font-family=".LucidaGrandeUI" font-size="12.056" fill="#1F1A17">’</tspan>
    </text>
    <path d="M77.948,263.815 L101.948,263.815 L101.948,266.008 L77.948,266.008 z" fill="#1F1A17"/>
    <text transform="matrix(2.835, 0, 0, 2.835, 515.212, 224.556)">
      <tspan x="-4.857" y="5.5" font-family=".LucidaGrandeUI" font-size="16.933" fill="#1F1A17">v</tspan>
    </text>
    <text transform="matrix(2.835, 0, 0, 2.835, 533.813, 224.728)">
      <tspan x="-1.873" y="4" font-family=".LucidaGrandeUI" font-size="11.994" fill="#1F1A17">’</tspan>
    </text>
    <path d="M501.443,244.51 L525.441,244.51 L525.441,246.692 L501.443,246.692 z" fill="#1F1A17"/>
    <path d="M142.716,170.691 L248.865,170.691 L248.865,174.66 L142.716,174.66 L142.716,170.691 z M128.755,172.676 L156.535,160.77 L156.175,161.514 L155.837,162.258 L155.523,163.002 L155.233,163.746 L154.965,164.491 L154.721,165.235 L154.5,165.979 L154.303,166.723 L154.128,167.467 L153.977,168.211 L153.849,168.955 L153.744,169.699 L153.663,170.443 L153.605,171.187 L153.57,171.931 L153.558,172.676 L153.57,173.42 L153.605,174.164 L153.663,174.908 L153.744,175.652 L153.849,176.396 L153.977,177.14 L154.128,177.884 L154.303,178.628 L154.5,179.372 L154.721,180.116 L154.965,180.861 L155.233,181.605 L155.523,182.349 L155.837,183.093 L156.175,183.837 L156.535,184.581 L156.535,184.581 L128.755,172.676 z" fill="#1F1A17"/>
    <path d="M627.194,291.475 L607.351,299.979 L607.351,299.979 L607.609,299.448 L607.85,298.916 L608.074,298.385 L608.281,297.853 L608.472,297.322 L608.647,296.79 L608.805,296.259 L608.946,295.727 L609.07,295.196 L609.178,294.664 L609.27,294.133 L609.344,293.601 L609.402,293.07 L609.444,292.538 L609.469,292.007 L609.477,291.475 L609.469,290.944 L609.444,290.412 L609.402,289.881 L609.344,289.349 L609.27,288.818 L609.178,288.286 L609.07,287.755 L608.946,287.223 L608.805,286.692 L608.647,286.16 L608.472,285.629 L608.281,285.097 L608.074,284.566 L607.85,284.034 L607.609,283.503 L607.351,282.971 L627.194,291.475 z M427.555,290.058 L617.221,290.058 L617.221,292.893 L427.555,292.893 L427.555,290.058 z" fill="#1F1A17"/>
    <path d="M91.426,219.293 L191.208,182.976 L192.557,186.696 L92.775,223.014 L91.426,219.293 z M79.017,225.916 L100.989,205.283 L100.905,206.103 L100.843,206.916 L100.803,207.72 L100.784,208.517 L100.787,209.305 L100.812,210.086 L100.859,210.858 L100.928,211.623 L101.018,212.38 L101.13,213.129 L101.264,213.87 L101.42,214.603 L101.597,215.328 L101.797,216.045 L102.018,216.754 L102.261,217.456 L102.525,218.149 L102.812,218.834 L103.12,219.512 L103.45,220.181 L103.802,220.843 L104.176,221.497 L104.571,222.142 L104.988,222.78 L105.428,223.41 L105.888,224.032 L106.371,224.646 L106.875,225.252 L107.402,225.85 L107.95,226.441 L108.519,227.023 L109.111,227.597 L109.111,227.597 L79.017,225.916 z" fill="#1F1A17"/>
    <path d="M435.291,285.248 L606.646,222.879 L607.61,225.537 L436.254,287.905 L435.291,285.248 z M426.427,289.978 L442.122,275.24 L442.062,275.826 L442.018,276.406 L441.989,276.981 L441.975,277.549 L441.978,278.113 L441.996,278.67 L442.029,279.222 L442.078,279.769 L442.143,280.309 L442.223,280.844 L442.318,281.373 L442.43,281.897 L442.556,282.415 L442.699,282.927 L442.857,283.434 L443.03,283.935 L443.219,284.43 L443.424,284.92 L443.644,285.403 L443.88,285.882 L444.131,286.354 L444.398,286.821 L444.68,287.283 L444.979,287.738 L445.292,288.188 L445.621,288.632 L445.966,289.071 L446.327,289.504 L446.702,289.931 L447.094,290.353 L447.501,290.769 L447.923,291.179 L447.923,291.179 L426.427,289.978 z" fill="#1F1A17"/>
    <path d="M383.533,307.344 C383.533,381.719 323.24,442.012 248.865,442.012 C174.49,442.012 114.197,381.719 114.197,307.344 C114.197,232.968 174.49,172.675 248.865,172.675 C323.24,172.675 383.533,232.968 383.533,307.344 z" fill-opacity="0" stroke="#1F1A17" stroke-width="1"/>
    <path d="M193.048,184.792 C210.557,176.818 229.613,172.675 248.865,172.675" fill-opacity="0" stroke="#1F1A17" stroke-width="1"/>
    <path d="M248.865,307.344 L248.865,172.676" fill-opacity="0" stroke="#1F1A17" stroke-width="1"/>
    <text transform="matrix(2.835, 0, 0, 2.835, 175.293, 300.773)">
      <tspan x="-5.829" y="5.5" font-family=".LucidaGrandeUI" font-size="16.933" fill="#1F1A17">d</tspan>
    </text>
    <text transform="matrix(2.835, 0, 0, 2.835, 203.021, 300.773)">
      <tspan x="-5.267" y="5.5" font-family=".LucidaGrandeUI" font-size="15.522" fill="#1F1A17">θ</tspan>
    </text>
    <text transform="matrix(2.835, 0, 0, 2.835, 438.094, 336.773)">
      <tspan x="-5.829" y="5.5" font-family=".LucidaGrandeUI" font-size="16.933" fill="#1F1A17">d</tspan>
    </text>
    <text transform="matrix(2.835, 0, 0, 2.835, 465.821, 336.773)">
      <tspan x="-5.267" y="5.5" font-family=".LucidaGrandeUI" font-size="15.522" fill="#1F1A17">θ</tspan>
    </text>
    <path d="M248.865,307.344 L193.048,184.792" fill-opacity="0" stroke="#1F1A17" stroke-width="1"/>
    <path d="M203.947,275.8 C241.557,263.667 241.557,263.667 241.557,263.667" fill-opacity="0" stroke="#1F1A17" stroke-width="0.7"/>
    <path d="M459.147,315.748 C474.945,279.525 474.945,279.525 474.945,279.525" fill-opacity="0" stroke="#1F1A17" stroke-width="0.7"/>
    <path d="M620.269,280.334 L605.022,224.049 L608.851,223.026 L624.098,279.311 L620.269,280.334 z M625.829,293.28 L607.098,269.611 L607.909,269.764 L608.715,269.894 L609.514,270.003 L610.307,270.088 L611.094,270.152 L611.875,270.193 L612.65,270.212 L613.419,270.208 L614.182,270.182 L614.939,270.133 L615.69,270.062 L616.434,269.969 L617.173,269.853 L617.905,269.715 L618.632,269.554 L619.352,269.371 L620.066,269.165 L620.774,268.937 L621.477,268.687 L622.172,268.414 L622.862,268.119 L623.546,267.801 L624.224,267.462 L624.896,267.099 L625.562,266.714 L626.221,266.307 L626.875,265.877 L627.522,265.425 L628.163,264.951 L628.799,264.454 L629.428,263.935 L630.051,263.393 L630.051,263.393 L625.829,293.28 z" fill="#1F1A17"/>
  </g>
  <defs/>
</svg>
