<?xml version="1.0" encoding="UTF-8"?>
<!DOCTYPE svg PUBLIC "-//W3C//DTD SVG 1.1//EN" "http://www.w3.org/Graphics/SVG/1.1/DTD/svg11.dtd">
<svg version="1.1" xmlns="http://www.w3.org/2000/svg" xmlns:xlink="http://www.w3.org/1999/xlink" x="0px" y="0px" width="98" height="136" viewBox="0, 0, 98, 136">
  <g id="Layer 1">
    <path d="M33.336,51.547 L97.336,51.547 L97.336,83.547 L33.336,83.547 z" fill-opacity="0" stroke="#090909" stroke-width="0.56"/>
    <path d="M65.336,67.547 L65.336,131.547" fill-opacity="0" stroke="#000000" stroke-width="0.8"/>
    <path d="M68.883,122.996 L65.348,132.609 L61.813,122.996 C63.898,124.531 66.758,124.523 68.883,122.996" fill="#000000"/>
    <path d="M76.79,124.491 L75.783,128.011 C76.23,127.179 76.615,126.555 76.935,126.139 C77.431,125.499 77.91,125.019 78.374,124.731 C78.662,124.571 78.951,124.491 79.255,124.491 C79.51,124.491 79.718,124.571 79.895,124.731 C80.071,124.907 80.15,125.115 80.15,125.371 C80.15,125.627 80.103,125.963 79.975,126.379 L79.414,128.363 C80.262,126.779 81.078,125.659 81.83,125.019 C82.262,124.667 82.678,124.491 83.078,124.491 C83.318,124.491 83.526,124.571 83.671,124.731 C83.83,124.891 83.91,125.147 83.91,125.499 C83.91,125.787 83.863,126.107 83.767,126.459 L82.902,129.499 C82.711,130.155 82.631,130.523 82.631,130.587 C82.631,130.667 82.646,130.731 82.695,130.779 C82.727,130.811 82.774,130.843 82.823,130.843 C82.87,130.843 82.966,130.779 83.094,130.683 C83.382,130.459 83.671,130.155 83.926,129.787 L84.183,129.947 C84.054,130.155 83.83,130.443 83.494,130.811 C83.159,131.163 82.886,131.419 82.646,131.547 C82.407,131.675 82.199,131.739 81.991,131.739 C81.814,131.739 81.671,131.675 81.543,131.547 C81.414,131.435 81.351,131.275 81.351,131.099 C81.351,130.843 81.463,130.347 81.671,129.579 L82.391,127.083 C82.55,126.507 82.631,126.187 82.646,126.123 C82.662,126.011 82.662,125.915 82.662,125.835 C82.662,125.691 82.646,125.595 82.582,125.531 C82.519,125.451 82.454,125.419 82.374,125.419 C82.15,125.419 81.926,125.531 81.671,125.755 C80.966,126.411 80.295,127.339 79.655,128.539 C79.255,129.323 78.87,130.331 78.503,131.547 L77.335,131.547 L78.662,126.827 C78.807,126.315 78.886,125.979 78.886,125.803 C78.886,125.659 78.854,125.563 78.79,125.499 C78.743,125.419 78.662,125.387 78.582,125.387 C78.407,125.387 78.23,125.451 78.038,125.579 C77.718,125.787 77.318,126.219 76.823,126.891 C76.342,127.547 75.959,128.187 75.687,128.795 C75.559,129.083 75.239,129.995 74.758,131.547 L73.606,131.547 L75.047,126.491 L75.239,125.835 C75.271,125.739 75.286,125.659 75.286,125.611 C75.286,125.499 75.239,125.403 75.127,125.307 C75.031,125.211 74.886,125.179 74.727,125.179 C74.662,125.179 74.47,125.211 74.166,125.259 L74.103,124.971 z" fill="#000000"/>
    <path d="M93.206,124.971 L92.982,125.787 L91.687,125.787 C91.783,126.059 91.83,126.331 91.83,126.571 C91.83,127.259 91.543,127.867 90.951,128.411 C90.374,128.939 89.559,129.243 88.535,129.291 C87.991,129.467 87.575,129.659 87.286,129.883 C87.19,129.979 87.143,130.059 87.143,130.155 C87.143,130.251 87.19,130.347 87.271,130.427 C87.367,130.523 87.606,130.603 87.991,130.699 L89.51,131.051 C90.342,131.243 90.902,131.483 91.174,131.755 C91.43,132.027 91.559,132.347 91.559,132.699 C91.559,133.131 91.414,133.515 91.094,133.883 C90.774,134.235 90.311,134.507 89.718,134.715 C89.11,134.907 88.438,135.003 87.702,135.003 C87.047,135.003 86.47,134.939 85.926,134.779 C85.398,134.619 85.015,134.411 84.79,134.155 C84.566,133.899 84.454,133.627 84.454,133.355 C84.454,133.131 84.519,132.891 84.678,132.651 C84.823,132.411 84.998,132.219 85.223,132.059 C85.367,131.963 85.767,131.723 86.423,131.355 C86.183,131.163 86.071,130.955 86.071,130.731 C86.071,130.523 86.166,130.299 86.374,130.075 C86.599,129.835 87.047,129.579 87.718,129.291 C87.143,129.195 86.695,128.955 86.358,128.571 C86.022,128.203 85.863,127.803 85.863,127.339 C85.863,126.603 86.183,125.947 86.823,125.355 C87.479,124.779 88.342,124.491 89.414,124.491 C89.814,124.491 90.134,124.523 90.374,124.603 C90.631,124.683 90.87,124.795 91.11,124.971 z M90.503,126.203 C90.503,125.771 90.391,125.451 90.15,125.211 C89.926,124.971 89.622,124.859 89.239,124.859 C88.662,124.859 88.166,125.147 87.783,125.739 C87.398,126.331 87.206,126.939 87.206,127.579 C87.206,127.995 87.335,128.315 87.575,128.571 C87.83,128.827 88.118,128.955 88.47,128.955 C88.743,128.955 89.015,128.875 89.271,128.731 C89.526,128.571 89.751,128.363 89.926,128.107 C90.103,127.835 90.246,127.499 90.342,127.083 C90.454,126.667 90.503,126.379 90.503,126.203 z M86.758,131.547 C86.342,131.755 86.022,131.995 85.799,132.299 C85.59,132.603 85.479,132.891 85.479,133.195 C85.479,133.531 85.638,133.819 85.942,134.043 C86.391,134.363 87.047,134.523 87.91,134.523 C88.662,134.523 89.302,134.395 89.83,134.139 C90.358,133.899 90.615,133.563 90.615,133.163 C90.615,132.955 90.519,132.763 90.326,132.587 C90.134,132.411 89.751,132.251 89.19,132.139 C88.886,132.075 88.071,131.883 86.758,131.547 z" fill="#000000"/>
    <path d="M65.336,67.547 L65.336,3.547" fill-opacity="0" stroke="#000000" stroke-width="0.8"/>
    <path d="M61.785,12.098 L65.32,2.484 L68.855,12.098 C66.77,10.562 63.914,10.57 61.785,12.098" fill="#000000"/>
    <path d="M65.336,67.547 L1.336,67.547" fill-opacity="0" stroke="#000000" stroke-width="0.8"/>
    <path d="M9.887,71.098 L0.273,67.562 L9.887,64.023 C8.352,66.113 8.359,68.969 9.887,71.098" fill="#000000"/>
    <path d="M77.91,0.955 L81.19,9.259 L82.966,3.067 C83.11,2.555 83.174,2.155 83.174,1.883 C83.174,1.675 83.11,1.531 82.982,1.419 C82.839,1.307 82.582,1.259 82.215,1.259 C82.15,1.259 82.087,1.259 82.022,1.243 L82.103,0.955 L85.51,0.955 L85.414,1.243 C85.062,1.243 84.807,1.275 84.631,1.355 C84.391,1.467 84.199,1.611 84.087,1.787 C83.91,2.027 83.751,2.459 83.575,3.067 L81.078,11.803 L80.807,11.803 L77.286,2.859 L75.398,9.467 C75.255,9.963 75.19,10.347 75.19,10.603 C75.19,10.811 75.255,10.955 75.382,11.051 C75.51,11.163 75.814,11.227 76.295,11.259 L76.215,11.547 L72.886,11.547 L72.998,11.259 C73.414,11.259 73.687,11.227 73.83,11.163 C74.038,11.067 74.199,10.939 74.311,10.795 C74.454,10.555 74.631,10.123 74.807,9.467 L76.919,2.091 C76.711,1.787 76.487,1.563 76.262,1.451 C76.022,1.339 75.671,1.259 75.174,1.243 L75.271,0.955 z" fill="#000000"/>
    <path d="M7.106,47.817 L5.858,52.009 L7.234,52.009 C7.874,52.009 8.338,51.913 8.642,51.721 C8.946,51.529 9.266,51.113 9.602,50.489 L9.906,50.489 L8.802,54.345 L8.482,54.345 C8.562,54.025 8.594,53.769 8.594,53.561 C8.594,53.257 8.498,53.001 8.29,52.825 C8.066,52.649 7.682,52.569 7.106,52.569 L5.698,52.569 L4.77,55.769 C4.61,56.329 4.53,56.713 4.53,56.889 C4.53,57.081 4.594,57.241 4.738,57.337 C4.882,57.449 5.234,57.513 5.794,57.545 L5.698,57.833 L1.506,57.833 L1.602,57.545 C2.018,57.545 2.29,57.513 2.418,57.449 C2.626,57.353 2.786,57.241 2.882,57.081 C3.026,56.873 3.186,56.425 3.378,55.769 L5.25,49.385 C5.394,48.857 5.474,48.457 5.474,48.169 C5.474,48.041 5.442,47.913 5.378,47.817 C5.314,47.721 5.202,47.657 5.074,47.609 C4.946,47.561 4.674,47.529 4.274,47.529 L4.37,47.241 L12.594,47.241 L11.81,49.929 L11.522,49.929 C11.57,49.609 11.602,49.337 11.602,49.129 C11.602,48.793 11.506,48.521 11.314,48.313 C11.122,48.121 10.882,47.977 10.578,47.881 C10.37,47.833 9.906,47.817 9.186,47.817 z" fill="#000000"/>
  </g>
  <defs/>
</svg>
