<?xml version="1.0" encoding="UTF-8"?>
<!DOCTYPE svg PUBLIC "-//W3C//DTD SVG 1.1//EN" "http://www.w3.org/Graphics/SVG/1.1/DTD/svg11.dtd">
<svg version="1.1" xmlns="http://www.w3.org/2000/svg" xmlns:xlink="http://www.w3.org/1999/xlink" x="0px" y="0px" width="283.465" height="167.244" viewBox="0, 0, 283.465, 167.244">
  <g id="Layer 1">
    <path d="M0.199,165.743 L247.615,17.293 L247.615,165.743 z M264.109,9.046 C264.109,13.607 260.423,17.293 255.862,17.293 C251.305,17.293 247.615,13.607 247.615,9.046 C247.615,4.49 251.305,0.799 255.862,0.799 C260.423,0.799 264.109,4.49 264.109,9.046 z M247.615,17.293 L254.221,10.708" fill-opacity="0" stroke="#000000" stroke-width="0.4"/>
    <path d="M46.412,137.991 C51.455,146.366 54.111,155.966 54.111,165.743" fill-opacity="0" stroke="#000000" stroke-width="0.4" stroke-linecap="square"/>
    <path d="M61.342,147.872 L61.342,147.595 C62.905,147.338 64.073,146.882 64.845,146.19 C65.399,145.695 65.676,145.121 65.676,144.448 C65.676,143.933 65.498,143.518 65.182,143.181 C64.865,142.845 64.469,142.686 64.014,142.686 C63.301,142.686 62.648,143.141 62.094,144.032 L61.737,143.913 C62.074,143.181 62.509,142.607 63.024,142.231 C63.558,141.835 64.132,141.657 64.746,141.657 C65.518,141.657 66.132,141.875 66.587,142.33 C67.062,142.785 67.299,143.359 67.299,144.052 C67.299,144.646 67.082,145.22 66.646,145.774 C66.191,146.308 65.439,146.803 64.37,147.239 C65.043,147.516 65.538,147.912 65.874,148.426 C66.231,148.941 66.389,149.574 66.389,150.307 C66.389,151.098 66.151,151.91 65.696,152.721 C65.241,153.533 64.588,154.146 63.796,154.602 C62.984,155.037 62.133,155.255 61.243,155.255 C60.431,155.255 59.818,155.116 59.402,154.839 C59.125,154.641 58.986,154.424 58.986,154.166 C58.986,153.929 59.065,153.731 59.224,153.572 C59.382,153.414 59.6,153.335 59.837,153.335 C59.996,153.335 60.174,153.355 60.332,153.414 C60.431,153.454 60.688,153.572 61.084,153.79 C61.5,154.028 61.817,154.166 62.034,154.245 C62.252,154.325 62.49,154.364 62.727,154.364 C63.301,154.364 63.796,154.028 64.172,153.355 C64.548,152.682 64.726,151.969 64.726,151.197 C64.726,150.584 64.608,150.029 64.35,149.554 C64.093,149.06 63.697,148.664 63.143,148.367 C62.589,148.07 61.995,147.912 61.342,147.872 z" fill="#000000"/>
    <path d="M75.056,141.657 C75.888,141.657 76.58,141.993 77.135,142.686 C77.709,143.379 77.986,144.468 77.986,145.952 C77.986,147.219 77.788,148.525 77.352,149.851 C76.937,151.178 76.343,152.326 75.591,153.315 C74.977,154.067 74.344,154.622 73.691,154.978 C73.295,155.156 72.859,155.255 72.345,155.255 C71.513,155.255 70.801,154.918 70.247,154.226 C69.673,153.533 69.396,152.444 69.396,150.94 C69.396,149.475 69.673,147.991 70.247,146.506 C70.92,144.764 71.751,143.438 72.78,142.548 C73.473,141.954 74.225,141.657 75.056,141.657 z M75.076,142.152 C74.7,142.152 74.324,142.31 73.928,142.587 C73.552,142.884 73.156,143.498 72.741,144.428 C72.345,145.358 71.949,146.546 71.573,148.011 C71.098,149.931 70.84,151.554 70.84,152.9 C70.84,153.572 70.999,154.067 71.276,154.404 C71.573,154.74 71.929,154.899 72.345,154.899 C72.721,154.899 73.057,154.78 73.334,154.523 C74.087,153.81 74.72,152.622 75.235,150.94 C76.105,148.189 76.521,145.952 76.521,144.25 C76.521,143.518 76.383,143.003 76.086,142.666 C75.809,142.33 75.472,142.152 75.076,142.152 z" fill="#000000"/>
    <path d="M83.13,141.637 C83.961,141.637 84.654,141.914 85.248,142.508 C85.822,143.082 86.099,143.775 86.099,144.606 C86.099,145.418 85.822,146.13 85.228,146.704 C84.654,147.278 83.961,147.575 83.13,147.575 C82.319,147.575 81.606,147.278 81.032,146.704 C80.458,146.13 80.161,145.418 80.161,144.606 C80.161,143.775 80.458,143.082 81.032,142.508 C81.606,141.914 82.299,141.637 83.13,141.637 z M83.13,142.449 C82.536,142.449 82.022,142.647 81.606,143.062 C81.19,143.498 80.973,143.993 80.973,144.606 C80.973,145.2 81.19,145.695 81.606,146.13 C82.022,146.546 82.536,146.764 83.13,146.764 C83.724,146.764 84.219,146.546 84.654,146.13 C85.07,145.695 85.288,145.2 85.288,144.606 C85.288,143.993 85.07,143.498 84.654,143.062 C84.238,142.647 83.724,142.449 83.13,142.449 z" fill="#000000"/>
    <path d="M251.578,46.319 L276.319,46.319 L276.319,71.061 L251.578,71.061 z" fill-opacity="0" stroke="#000000" stroke-width="0.4" stroke-linecap="square"/>
    <path d="M99.281,80.211 L118.513,68.096 L130.624,87.333 L111.392,99.444 z" fill-opacity="0" stroke="#000000" stroke-width="0.4" stroke-linecap="square"/>
    <path d="M125.569,79.968 L254.221,0.799 M264.109,7.356 L264.109,45.338" fill-opacity="0" stroke="#000000" stroke-width="0.2"/>
    <path d="M258.992,65.114 L253.005,65.114 L253.005,64.788 C256.053,62.121 258.067,60.034 259.047,58.51 C259.5,57.821 259.736,57.077 259.736,56.296 C259.736,55.68 259.537,55.19 259.155,54.79 C258.793,54.409 258.303,54.21 257.686,54.21 C256.869,54.21 256.18,54.609 255.636,55.407 L255.327,55.28 C255.636,54.518 256.071,53.92 256.652,53.502 C257.232,53.067 257.849,52.867 258.52,52.867 C259.283,52.867 259.936,53.121 260.444,53.647 C260.97,54.174 261.224,54.809 261.224,55.553 C261.224,56.061 261.133,56.55 260.952,56.986 C260.661,57.675 260.153,58.456 259.391,59.308 C258.23,60.615 256.688,62.139 254.747,63.844 L257.758,63.844 C258.248,63.844 258.647,63.735 258.956,63.536 C259.283,63.336 259.5,63.064 259.627,62.737 L259.99,62.737 z" fill="#000000"/>
    <path d="M265.724,57.113 L264.581,61.105 C265.089,60.161 265.524,59.453 265.887,58.982 C266.449,58.256 266.994,57.712 267.52,57.385 C267.846,57.204 268.173,57.113 268.518,57.113 C268.808,57.113 269.044,57.204 269.243,57.385 C269.443,57.585 269.534,57.821 269.534,58.111 C269.534,58.401 269.479,58.782 269.334,59.254 L268.699,61.504 C269.661,59.707 270.586,58.437 271.439,57.712 C271.929,57.312 272.401,57.113 272.854,57.113 C273.126,57.113 273.362,57.204 273.525,57.385 C273.707,57.566 273.798,57.857 273.798,58.256 C273.798,58.583 273.743,58.945 273.634,59.345 L272.655,62.792 C272.437,63.536 272.346,63.953 272.346,64.026 C272.346,64.116 272.364,64.189 272.419,64.243 C272.455,64.28 272.509,64.316 272.564,64.316 C272.618,64.316 272.727,64.243 272.872,64.135 C273.199,63.881 273.525,63.536 273.816,63.119 L274.106,63.3 C273.961,63.536 273.707,63.862 273.326,64.28 C272.945,64.679 272.636,64.969 272.364,65.114 C272.092,65.259 271.856,65.332 271.62,65.332 C271.421,65.332 271.257,65.259 271.112,65.114 C270.967,64.987 270.895,64.806 270.895,64.606 C270.895,64.316 271.022,63.754 271.257,62.883 L272.074,60.052 C272.255,59.399 272.346,59.036 272.364,58.964 C272.382,58.837 272.382,58.728 272.382,58.637 C272.382,58.474 272.364,58.365 272.292,58.292 C272.219,58.202 272.147,58.165 272.056,58.165 C271.802,58.165 271.548,58.292 271.257,58.546 C270.459,59.29 269.697,60.342 268.971,61.703 C268.518,62.592 268.082,63.735 267.665,65.114 L266.34,65.114 L267.846,59.762 C268.01,59.181 268.1,58.8 268.1,58.601 C268.1,58.437 268.064,58.329 267.992,58.256 C267.937,58.165 267.846,58.129 267.756,58.129 C267.556,58.129 267.357,58.202 267.139,58.347 C266.776,58.583 266.322,59.072 265.76,59.834 C265.216,60.578 264.78,61.304 264.472,61.994 C264.327,62.32 263.964,63.354 263.419,65.114 L262.113,65.114 L263.746,59.381 L263.964,58.637 C264,58.528 264.018,58.437 264.018,58.383 C264.018,58.256 263.964,58.147 263.837,58.038 C263.728,57.929 263.564,57.893 263.383,57.893 C263.31,57.893 263.093,57.929 262.748,57.984 L262.675,57.657 z" fill="#000000"/>
    <path d="M112.609,79.545 L111.362,83.899 C111.916,82.87 112.391,82.098 112.787,81.584 C113.4,80.792 113.994,80.198 114.568,79.842 C114.924,79.644 115.281,79.545 115.657,79.545 C115.974,79.545 116.231,79.644 116.449,79.842 C116.666,80.059 116.765,80.317 116.765,80.633 C116.765,80.95 116.706,81.366 116.548,81.88 L115.855,84.335 C116.904,82.375 117.913,80.99 118.844,80.198 C119.378,79.763 119.893,79.545 120.387,79.545 C120.684,79.545 120.942,79.644 121.12,79.842 C121.318,80.04 121.417,80.356 121.417,80.792 C121.417,81.148 121.357,81.544 121.239,81.979 L120.17,85.74 C119.932,86.552 119.833,87.007 119.833,87.086 C119.833,87.185 119.853,87.264 119.912,87.324 C119.952,87.363 120.011,87.403 120.071,87.403 C120.13,87.403 120.249,87.324 120.407,87.205 C120.763,86.928 121.12,86.552 121.436,86.096 L121.753,86.294 C121.595,86.552 121.318,86.908 120.902,87.363 C120.486,87.799 120.15,88.115 119.853,88.274 C119.556,88.432 119.299,88.511 119.041,88.511 C118.824,88.511 118.646,88.432 118.487,88.274 C118.329,88.135 118.25,87.937 118.25,87.719 C118.25,87.403 118.388,86.789 118.646,85.839 L119.536,82.751 C119.734,82.039 119.833,81.643 119.853,81.564 C119.873,81.425 119.873,81.306 119.873,81.207 C119.873,81.029 119.853,80.911 119.774,80.831 C119.695,80.732 119.615,80.693 119.517,80.693 C119.239,80.693 118.962,80.831 118.646,81.109 C117.775,81.92 116.943,83.068 116.152,84.553 C115.657,85.522 115.182,86.769 114.727,88.274 L113.282,88.274 L114.924,82.435 C115.103,81.801 115.202,81.386 115.202,81.168 C115.202,80.99 115.162,80.871 115.083,80.792 C115.023,80.693 114.924,80.653 114.826,80.653 C114.608,80.653 114.39,80.732 114.153,80.891 C113.757,81.148 113.262,81.683 112.648,82.514 C112.054,83.325 111.579,84.117 111.243,84.869 C111.085,85.226 110.689,86.354 110.095,88.274 L108.67,88.274 L110.451,82.019 L110.689,81.207 C110.728,81.089 110.748,80.99 110.748,80.93 C110.748,80.792 110.689,80.673 110.55,80.554 C110.431,80.436 110.253,80.396 110.055,80.396 C109.976,80.396 109.739,80.436 109.363,80.495 L109.283,80.139 z" fill="#000000"/>
    <path d="M264.109,73.416 L264.109,139.393" fill-opacity="0" stroke="#000000" stroke-width="0.2"/>
    <path d="M264.109,76.714 L265.771,78.36 L264.109,72.591 L262.468,78.36" fill="#000000"/>
    <path d="M264.109,76.714 L265.771,78.36 L264.109,72.591 L262.468,78.36 z" fill-opacity="0" stroke="#000000" stroke-width="0.1"/>
    <path d="M264.109,136.09 L262.468,134.445 L264.109,140.214 L265.771,134.445" fill="#000000"/>
    <path d="M264.109,136.09 L262.468,134.445 L264.109,140.214 L265.771,134.445 z" fill-opacity="0" stroke="#000000" stroke-width="0.1"/>
    <path d="M270.836,100.937 C271.153,101.274 271.391,101.59 271.549,101.927 C271.668,102.164 271.846,102.778 272.123,103.768 L272.974,102.481 C273.192,102.184 273.469,101.887 273.786,101.61 C274.122,101.313 274.399,101.135 274.637,101.016 C274.795,100.957 274.973,100.937 275.151,100.937 C275.428,100.937 275.646,100.997 275.824,101.155 C275.983,101.294 276.062,101.472 276.062,101.689 C276.062,101.947 276.022,102.105 275.923,102.204 C275.745,102.362 275.527,102.442 275.29,102.442 C275.171,102.442 275.013,102.402 274.854,102.343 C274.558,102.244 274.36,102.204 274.261,102.204 C274.102,102.204 273.924,102.283 273.706,102.461 C273.311,102.798 272.836,103.451 272.281,104.401 L273.073,107.726 C273.192,108.241 273.291,108.538 273.37,108.637 C273.449,108.756 273.548,108.795 273.627,108.795 C273.766,108.795 273.924,108.716 274.102,108.577 C274.459,108.281 274.755,107.885 275.013,107.41 L275.349,107.588 C274.934,108.34 274.419,108.973 273.805,109.488 C273.449,109.765 273.152,109.904 272.895,109.904 C272.539,109.904 272.262,109.706 272.044,109.29 C271.905,109.052 271.628,107.964 271.193,106.044 C270.203,107.806 269.392,108.914 268.778,109.429 C268.382,109.745 268.006,109.904 267.65,109.904 C267.392,109.904 267.155,109.805 266.937,109.626 C266.779,109.488 266.7,109.29 266.7,109.052 C266.7,108.855 266.779,108.676 266.917,108.518 C267.056,108.38 267.234,108.32 267.432,108.32 C267.65,108.32 267.867,108.419 268.105,108.617 C268.263,108.775 268.402,108.855 268.481,108.855 C268.56,108.855 268.659,108.795 268.778,108.696 C269.095,108.439 269.49,107.924 270.025,107.113 C270.54,106.301 270.876,105.707 271.054,105.351 C270.638,103.787 270.421,102.956 270.401,102.857 C270.243,102.442 270.064,102.145 269.827,101.966 C269.589,101.808 269.233,101.709 268.758,101.709 C268.62,101.709 268.441,101.709 268.243,101.729 L268.243,101.392 z" fill="#000000"/>
    <text transform="matrix(1, 0, -0, 1, 85.335, 83.271)">
      <tspan x="-5.174" y="-4.494" font-family="TimesNewRomanPSMT" font-size="14" fill="#000000">A</tspan>
    </text>
    <text transform="matrix(1, 0, -0, 1, 278.885, 40.619)">
      <tspan x="-4.779" y="-4.494" font-family="TimesNewRomanPSMT" font-size="14" fill="#000000">B</tspan>
    </text>
  </g>
  <defs/>
</svg>
