<?xml version="1.0" encoding="UTF-8"?>
<!DOCTYPE svg PUBLIC "-//W3C//DTD SVG 1.1//EN" "http://www.w3.org/Graphics/SVG/1.1/DTD/svg11.dtd">
<svg version="1.1" xmlns="http://www.w3.org/2000/svg" xmlns:xlink="http://www.w3.org/1999/xlink" x="0px" y="0px" width="283.465" height="294.803" viewBox="0, 0, 283.465, 294.803">
  <g id="Layer 1">
    <path d="M0.199,220.898 L283.664,220.898" fill-opacity="0" stroke="#000000" stroke-width="0.571"/>
    <path d="M224.137,220.898 L215.179,229.856 M206.222,220.898 L197.264,229.856 M188.307,220.898 L179.349,229.856 M170.392,220.898 L161.434,229.856 M152.477,220.898 L143.519,229.856 M134.562,220.898 L125.604,229.856 M116.647,220.898 L107.689,229.856 M98.732,220.898 L89.774,229.856 M80.817,220.898 L71.859,229.856 M62.902,220.898 L53.944,229.856 M44.987,220.898 L36.029,229.856 M27.072,220.898 L18.114,229.856" fill-opacity="0" stroke="#000000" stroke-width="0.581"/>
    <path d="M143.519,170.73 L143.519,134.9 M143.519,179.687 L143.519,220.898 L143.519,179.687 M44.986,220.898 L44.986,0.537 M143.519,81.155 L143.519,0.537" fill-opacity="0" stroke="#000000" stroke-width="0.678"/>
    <path d="M143.519,179.687 L152.477,179.687 M143.519,170.73 L152.477,170.73 M143.519,134.9 L152.477,134.9 M143.519,125.942 L152.477,125.942" fill-opacity="0" stroke="#000000" stroke-width="0.678" stroke-linecap="square"/>
    <path d="M48.52,39.954 L139.889,39.954 M48.574,39.954 C46.606,39.981 44.978,38.414 44.944,36.445" fill-opacity="0" stroke="#000000" stroke-width="0.484"/>
    <path d="M139.837,39.954 C141.806,39.981 143.432,38.414 143.468,36.445" fill-opacity="0" stroke="#000000" stroke-width="0.484"/>
    <path d="M30.659,219.104 L30.659,176.111" fill-opacity="0" stroke="#000000" stroke-width="0.352"/>
    <path d="M34.157,210.68 L30.668,220.155 L27.186,210.68 C29.241,212.194 32.059,212.185 34.157,210.68" fill="#000000"/>
    <path d="M27.159,184.535 L30.641,175.06 L34.123,184.535 C32.068,183.021 29.259,183.03 27.159,184.535" fill="#000000"/>
    <path d="M242.052,220.898 L233.094,229.856 M259.967,220.898 L251.009,229.856" fill-opacity="0" stroke="#000000" stroke-width="0.581"/>
    <path d="M22.935,195.081 L21.233,201.011 L21.036,201.799 C21.018,201.87 21.001,201.942 21.001,201.996 C21.001,202.085 21.036,202.175 21.09,202.247 C21.144,202.283 21.198,202.318 21.269,202.318 C21.341,202.318 21.448,202.265 21.574,202.175 C21.789,202.014 22.093,201.656 22.47,201.118 L22.774,201.333 C22.362,201.942 21.95,202.408 21.538,202.73 C21.108,203.035 20.714,203.196 20.356,203.196 C20.105,203.196 19.908,203.142 19.782,203.017 C19.657,202.892 19.603,202.712 19.603,202.462 C19.603,202.175 19.657,201.799 19.782,201.333 L19.979,200.688 C19.209,201.673 18.51,202.372 17.865,202.766 C17.4,203.053 16.952,203.196 16.504,203.196 C16.092,203.196 15.716,203.017 15.411,202.677 C15.107,202.318 14.945,201.835 14.945,201.208 C14.945,200.294 15.214,199.309 15.787,198.287 C16.343,197.248 17.041,196.424 17.901,195.815 C18.564,195.314 19.209,195.081 19.8,195.081 C20.159,195.081 20.445,195.17 20.678,195.349 C20.929,195.546 21.108,195.851 21.233,196.281 L21.538,195.278 z M19.818,195.529 C19.442,195.529 19.048,195.708 18.636,196.048 C18.027,196.55 17.507,197.284 17.041,198.252 C16.576,199.237 16.343,200.115 16.343,200.903 C16.343,201.297 16.45,201.602 16.647,201.835 C16.844,202.068 17.059,202.193 17.328,202.193 C17.955,202.193 18.654,201.709 19.388,200.778 C20.391,199.524 20.893,198.252 20.893,196.944 C20.893,196.442 20.803,196.084 20.606,195.869 C20.409,195.636 20.141,195.529 19.818,195.529 z" fill="#000000"/>
    <path d="M164.536,245.243 C164.822,245.547 165.037,245.834 165.18,246.138 C165.288,246.353 165.449,246.909 165.7,247.805 L166.47,246.64 C166.667,246.371 166.918,246.103 167.205,245.852 C167.509,245.583 167.76,245.422 167.975,245.314 C168.119,245.261 168.28,245.243 168.441,245.243 C168.692,245.243 168.889,245.296 169.05,245.44 C169.193,245.565 169.265,245.726 169.265,245.923 C169.265,246.156 169.229,246.3 169.14,246.389 C168.978,246.533 168.781,246.604 168.566,246.604 C168.459,246.604 168.316,246.568 168.172,246.515 C167.904,246.425 167.724,246.389 167.635,246.389 C167.492,246.389 167.33,246.461 167.133,246.622 C166.775,246.927 166.345,247.518 165.843,248.378 L166.56,251.388 C166.667,251.853 166.757,252.122 166.829,252.212 C166.9,252.319 166.99,252.355 167.062,252.355 C167.187,252.355 167.33,252.283 167.492,252.158 C167.814,251.889 168.083,251.531 168.316,251.101 L168.62,251.262 C168.244,251.943 167.778,252.516 167.223,252.982 C166.9,253.233 166.632,253.358 166.399,253.358 C166.076,253.358 165.825,253.179 165.628,252.803 C165.503,252.588 165.252,251.603 164.858,249.865 C163.962,251.459 163.228,252.462 162.672,252.928 C162.314,253.215 161.974,253.358 161.651,253.358 C161.418,253.358 161.203,253.269 161.006,253.107 C160.863,252.982 160.791,252.803 160.791,252.588 C160.791,252.409 160.863,252.247 160.988,252.104 C161.114,251.979 161.275,251.925 161.454,251.925 C161.651,251.925 161.848,252.015 162.063,252.194 C162.207,252.337 162.332,252.409 162.404,252.409 C162.475,252.409 162.565,252.355 162.672,252.265 C162.959,252.032 163.317,251.567 163.801,250.832 C164.267,250.098 164.571,249.56 164.733,249.238 C164.356,247.822 164.159,247.07 164.141,246.98 C163.998,246.604 163.837,246.336 163.622,246.174 C163.407,246.031 163.084,245.941 162.654,245.941 C162.529,245.941 162.368,245.941 162.189,245.959 L162.189,245.655 z" fill="#000000"/>
    <path d="M174.235,248.866 L172.407,255.236 C172.302,255.608 172.244,255.888 172.244,256.051 C172.244,256.191 172.29,256.295 172.395,256.365 C172.488,256.447 172.71,256.493 173.071,256.517 L173.012,256.726 L170.089,256.726 L170.159,256.517 C170.474,256.517 170.683,256.493 170.776,256.447 C170.94,256.377 171.056,256.284 171.137,256.179 C171.266,256.004 171.394,255.69 171.522,255.236 L172.838,250.659 C172.919,250.38 172.954,250.228 172.966,250.182 C172.977,250.1 172.989,250.03 172.989,249.96 C172.989,249.832 172.942,249.728 172.873,249.646 C172.803,249.576 172.71,249.53 172.581,249.53 C172.477,249.53 172.325,249.553 172.116,249.599 L172.046,249.402 L173.967,248.866 z" fill="#000000"/>
    <path d="M9.157,220.898 L0.199,229.856" fill-opacity="0" stroke="#000000" stroke-width="0.581"/>
    <path d="M143.519,125.942 L143.519,90.112" fill-opacity="0" stroke="#000000" stroke-width="0.678"/>
    <path d="M143.519,90.112 L152.477,90.112 M143.519,81.155 L152.477,81.155" fill-opacity="0" stroke="#000000" stroke-width="0.678" stroke-linecap="square"/>
    <path d="M30.659,174.317 L30.659,131.323" fill-opacity="0" stroke="#000000" stroke-width="0.352"/>
    <path d="M34.157,165.892 L30.668,175.367 L27.186,165.892 C29.241,167.406 32.059,167.397 34.157,165.892" fill="#000000"/>
    <path d="M27.159,139.748 L30.641,130.273 L34.123,139.748 C32.068,138.234 29.259,138.243 27.159,139.748" fill="#000000"/>
    <path d="M30.659,129.529 L30.659,86.536" fill-opacity="0" stroke="#000000" stroke-width="0.352"/>
    <path d="M34.157,121.105 L30.668,130.58 L27.186,121.105 C29.241,122.619 32.059,122.61 34.157,121.105" fill="#000000"/>
    <path d="M27.159,94.96 L30.641,85.485 L34.123,94.96 C32.068,93.446 29.259,93.455 27.159,94.96" fill="#000000"/>
    <path d="M30.659,84.742 L30.659,41.748" fill-opacity="0" stroke="#000000" stroke-width="0.352"/>
    <path d="M34.157,76.317 L30.668,85.792 L27.186,76.317 C29.241,77.831 32.059,77.822 34.157,76.317" fill="#000000"/>
    <path d="M27.159,50.173 L30.641,40.698 L34.123,50.173 C32.068,48.659 29.259,48.668 27.159,50.173" fill="#000000"/>
    <path d="M21.144,148.502 L19.442,154.432 L19.245,155.22 C19.227,155.291 19.209,155.363 19.209,155.417 C19.209,155.506 19.245,155.596 19.299,155.668 C19.352,155.704 19.406,155.739 19.478,155.739 C19.549,155.739 19.657,155.686 19.782,155.596 C19.997,155.435 20.302,155.076 20.678,154.539 L20.983,154.754 C20.571,155.363 20.159,155.829 19.747,156.151 C19.317,156.456 18.922,156.617 18.564,156.617 C18.313,156.617 18.116,156.563 17.991,156.438 C17.865,156.313 17.812,156.133 17.812,155.883 C17.812,155.596 17.865,155.22 17.991,154.754 L18.188,154.109 C17.418,155.094 16.719,155.793 16.074,156.187 C15.608,156.474 15.16,156.617 14.712,156.617 C14.3,156.617 13.924,156.438 13.62,156.098 C13.315,155.739 13.154,155.256 13.154,154.629 C13.154,153.715 13.423,152.73 13.996,151.708 C14.551,150.669 15.25,149.845 16.11,149.236 C16.773,148.735 17.418,148.502 18.009,148.502 C18.367,148.502 18.654,148.591 18.887,148.77 C19.137,148.967 19.317,149.272 19.442,149.702 L19.747,148.699 z M18.027,148.95 C17.65,148.95 17.256,149.129 16.844,149.469 C16.235,149.971 15.716,150.705 15.25,151.673 C14.784,152.658 14.551,153.536 14.551,154.324 C14.551,154.718 14.659,155.023 14.856,155.256 C15.053,155.489 15.268,155.614 15.536,155.614 C16.164,155.614 16.862,155.13 17.597,154.199 C18.6,152.945 19.102,151.673 19.102,150.365 C19.102,149.863 19.012,149.505 18.815,149.29 C18.618,149.057 18.349,148.95 18.027,148.95 z" fill="#000000"/>
    <path d="M21.144,103.714 L19.442,109.644 L19.245,110.432 C19.227,110.504 19.209,110.576 19.209,110.629 C19.209,110.719 19.245,110.809 19.299,110.88 C19.352,110.916 19.406,110.952 19.478,110.952 C19.549,110.952 19.657,110.898 19.782,110.809 C19.997,110.647 20.302,110.289 20.678,109.752 L20.983,109.967 C20.571,110.576 20.159,111.041 19.747,111.364 C19.317,111.668 18.922,111.83 18.564,111.83 C18.313,111.83 18.116,111.776 17.991,111.651 C17.865,111.525 17.812,111.346 17.812,111.095 C17.812,110.809 17.865,110.432 17.991,109.967 L18.188,109.322 C17.418,110.307 16.719,111.006 16.074,111.4 C15.608,111.686 15.16,111.83 14.712,111.83 C14.3,111.83 13.924,111.651 13.62,111.31 C13.315,110.952 13.154,110.468 13.154,109.841 C13.154,108.927 13.423,107.942 13.996,106.921 C14.551,105.882 15.25,105.058 16.11,104.449 C16.773,103.947 17.418,103.714 18.009,103.714 C18.367,103.714 18.654,103.804 18.887,103.983 C19.137,104.18 19.317,104.485 19.442,104.914 L19.747,103.911 z M18.027,104.162 C17.65,104.162 17.256,104.341 16.844,104.682 C16.235,105.183 15.716,105.918 15.25,106.885 C14.784,107.87 14.551,108.748 14.551,109.537 C14.551,109.931 14.659,110.235 14.856,110.468 C15.053,110.701 15.268,110.826 15.536,110.826 C16.164,110.826 16.862,110.343 17.597,109.411 C18.6,108.157 19.102,106.885 19.102,105.577 C19.102,105.076 19.012,104.717 18.815,104.502 C18.618,104.27 18.349,104.162 18.027,104.162 z" fill="#000000"/>
    <path d="M21.144,64.301 L19.442,70.231 L19.245,71.019 C19.227,71.091 19.209,71.163 19.209,71.216 C19.209,71.306 19.245,71.396 19.299,71.467 C19.352,71.503 19.406,71.539 19.478,71.539 C19.549,71.539 19.657,71.485 19.782,71.396 C19.997,71.234 20.302,70.876 20.678,70.339 L20.983,70.554 C20.571,71.163 20.159,71.628 19.747,71.951 C19.317,72.255 18.922,72.417 18.564,72.417 C18.313,72.417 18.116,72.363 17.991,72.238 C17.865,72.112 17.812,71.933 17.812,71.682 C17.812,71.396 17.865,71.019 17.991,70.554 L18.188,69.909 C17.418,70.894 16.719,71.593 16.074,71.987 C15.608,72.273 15.16,72.417 14.712,72.417 C14.3,72.417 13.924,72.238 13.62,71.897 C13.315,71.539 13.154,71.055 13.154,70.428 C13.154,69.514 13.423,68.529 13.996,67.508 C14.551,66.469 15.25,65.645 16.11,65.036 C16.773,64.534 17.418,64.301 18.009,64.301 C18.367,64.301 18.654,64.391 18.887,64.57 C19.137,64.767 19.317,65.072 19.442,65.501 L19.747,64.498 z M18.027,64.749 C17.65,64.749 17.256,64.928 16.844,65.269 C16.235,65.77 15.716,66.505 15.25,67.472 C14.784,68.457 14.551,69.335 14.551,70.124 C14.551,70.518 14.659,70.822 14.856,71.055 C15.053,71.288 15.268,71.413 15.536,71.413 C16.164,71.413 16.862,70.93 17.597,69.998 C18.6,68.744 19.102,67.472 19.102,66.164 C19.102,65.663 19.012,65.304 18.815,65.089 C18.618,64.857 18.349,64.749 18.027,64.749 z" fill="#000000"/>
    <path d="M21.701,39.954 L44.986,39.954 M21.701,84.742 L154.27,84.742 M21.701,129.529 L154.27,129.529 M154.27,174.317 L21.701,174.317" fill-opacity="0" stroke="#000000" stroke-width="0.32" stroke-dasharray="1.28,2.56"/>
    <path d="M143.519,174.317 C198.787,174.955 237.268,197.024 272.512,220.898" fill-opacity="0" stroke="#000000" stroke-width="0.48"/>
    <path d="M277.882,220.898 L268.924,229.856" fill-opacity="0" stroke="#000000" stroke-width="0.581"/>
    <path d="M143.519,129.529 C173.077,132.214 192.34,145.651 204.885,163.12 C217.418,180.589 223.245,202.081 225.93,220.898 M143.519,84.742 C186.513,91.906 184.73,170.73 186.513,220.898" fill-opacity="0" stroke="#000000" stroke-width="0.48"/>
    <path d="M143.519,39.954 L154.27,39.954" fill-opacity="0" stroke="#000000" stroke-width="0.32" stroke-dasharray="1.28,2.56"/>
    <path d="M143.519,242.39 L186.513,242.39 M143.519,247.253 L143.519,237.535 M186.513,247.253 L186.513,237.535 M143.519,260.305 L225.93,260.305 M143.519,265.168 L143.519,255.45 M225.93,265.168 L225.93,255.45 M143.519,278.22 L272.512,278.22 M143.519,283.083 L143.519,273.365 M272.512,283.083 L272.512,273.365" fill-opacity="0" stroke="#000000" stroke-width="0.48"/>
    <path d="M143.519,220.898 L143.519,278.22 M186.513,220.898 L186.513,242.389 M225.93,220.898 L225.93,260.305 M272.512,220.898 L272.512,278.22" fill-opacity="0" stroke="#000000" stroke-width="0.32" stroke-dasharray="1.28,2.56"/>
    <path d="M184.242,263.158 C184.529,263.462 184.744,263.749 184.887,264.053 C184.994,264.268 185.156,264.824 185.407,265.72 L186.177,264.555 C186.374,264.286 186.625,264.018 186.911,263.767 C187.216,263.498 187.467,263.337 187.682,263.229 C187.825,263.176 187.986,263.158 188.148,263.158 C188.398,263.158 188.595,263.211 188.757,263.355 C188.9,263.48 188.972,263.641 188.972,263.838 C188.972,264.071 188.936,264.215 188.846,264.304 C188.685,264.448 188.488,264.519 188.273,264.519 C188.165,264.519 188.022,264.483 187.879,264.43 C187.61,264.34 187.431,264.304 187.341,264.304 C187.198,264.304 187.037,264.376 186.84,264.537 C186.481,264.842 186.051,265.433 185.55,266.293 L186.266,269.303 C186.374,269.768 186.464,270.037 186.535,270.127 C186.607,270.234 186.696,270.27 186.768,270.27 C186.893,270.27 187.037,270.198 187.198,270.073 C187.52,269.804 187.789,269.446 188.022,269.016 L188.327,269.177 C187.95,269.858 187.485,270.431 186.929,270.897 C186.607,271.148 186.338,271.273 186.105,271.273 C185.783,271.273 185.532,271.094 185.335,270.718 C185.209,270.503 184.959,269.518 184.565,267.78 C183.669,269.374 182.934,270.377 182.379,270.843 C182.021,271.13 181.68,271.273 181.358,271.273 C181.125,271.273 180.91,271.184 180.713,271.022 C180.569,270.897 180.498,270.718 180.498,270.503 C180.498,270.324 180.569,270.162 180.695,270.019 C180.82,269.894 180.982,269.84 181.161,269.84 C181.358,269.84 181.555,269.93 181.77,270.109 C181.913,270.252 182.038,270.324 182.11,270.324 C182.182,270.324 182.271,270.27 182.379,270.18 C182.666,269.947 183.024,269.482 183.508,268.747 C183.973,268.013 184.278,267.475 184.439,267.153 C184.063,265.737 183.866,264.985 183.848,264.895 C183.705,264.519 183.543,264.251 183.328,264.089 C183.113,263.946 182.791,263.856 182.361,263.856 C182.236,263.856 182.074,263.856 181.895,263.874 L181.895,263.57 z" fill="#000000"/>
    <path d="M193.103,274.641 L189.26,274.641 L189.26,274.432 C191.217,272.72 192.509,271.381 193.138,270.402 C193.429,269.96 193.581,269.482 193.581,268.982 C193.581,268.586 193.452,268.271 193.208,268.015 C192.975,267.771 192.661,267.643 192.265,267.643 C191.741,267.643 191.298,267.899 190.949,268.411 L190.751,268.33 C190.949,267.841 191.228,267.456 191.601,267.188 C191.974,266.909 192.369,266.781 192.8,266.781 C193.289,266.781 193.709,266.944 194.035,267.282 C194.372,267.619 194.535,268.027 194.535,268.504 C194.535,268.83 194.477,269.145 194.361,269.424 C194.174,269.867 193.848,270.367 193.359,270.915 C192.614,271.753 191.624,272.731 190.378,273.826 L192.311,273.826 C192.626,273.826 192.882,273.756 193.08,273.628 C193.289,273.5 193.429,273.325 193.511,273.116 L193.744,273.116 z" fill="#000000"/>
    <path d="M209.323,281.073 C209.61,281.377 209.825,281.664 209.968,281.968 C210.075,282.183 210.237,282.739 210.488,283.635 L211.258,282.47 C211.455,282.201 211.706,281.933 211.992,281.682 C212.297,281.413 212.548,281.252 212.763,281.144 C212.906,281.091 213.067,281.073 213.229,281.073 C213.479,281.073 213.676,281.126 213.838,281.27 C213.981,281.395 214.053,281.556 214.053,281.753 C214.053,281.986 214.017,282.13 213.927,282.219 C213.766,282.363 213.569,282.434 213.354,282.434 C213.246,282.434 213.103,282.398 212.96,282.345 C212.691,282.255 212.512,282.219 212.422,282.219 C212.279,282.219 212.118,282.291 211.921,282.452 C211.562,282.757 211.132,283.348 210.631,284.208 L211.347,287.218 C211.455,287.683 211.545,287.952 211.616,288.042 C211.688,288.149 211.777,288.185 211.849,288.185 C211.974,288.185 212.118,288.113 212.279,287.988 C212.601,287.719 212.87,287.361 213.103,286.931 L213.408,287.092 C213.031,287.773 212.566,288.346 212.01,288.812 C211.688,289.063 211.419,289.188 211.186,289.188 C210.864,289.188 210.613,289.009 210.416,288.633 C210.29,288.418 210.04,287.433 209.646,285.695 C208.75,287.289 208.015,288.292 207.46,288.758 C207.102,289.045 206.761,289.188 206.439,289.188 C206.206,289.188 205.991,289.099 205.794,288.937 C205.65,288.812 205.579,288.633 205.579,288.418 C205.579,288.239 205.65,288.077 205.776,287.934 C205.901,287.809 206.063,287.755 206.242,287.755 C206.439,287.755 206.636,287.845 206.851,288.024 C206.994,288.167 207.119,288.239 207.191,288.239 C207.263,288.239 207.352,288.185 207.46,288.095 C207.747,287.862 208.105,287.397 208.589,286.662 C209.054,285.928 209.359,285.39 209.52,285.068 C209.144,283.652 208.947,282.9 208.929,282.81 C208.786,282.434 208.624,282.166 208.409,282.004 C208.194,281.861 207.872,281.771 207.442,281.771 C207.317,281.771 207.155,281.771 206.976,281.789 L206.976,281.485 z" fill="#000000"/>
    <path d="M215.937,288.352 L215.937,288.189 C216.857,288.038 217.544,287.77 217.998,287.363 C218.324,287.071 218.487,286.734 218.487,286.338 C218.487,286.035 218.382,285.79 218.196,285.593 C218.009,285.395 217.777,285.301 217.509,285.301 C217.089,285.301 216.705,285.569 216.379,286.093 L216.17,286.023 C216.367,285.593 216.624,285.255 216.926,285.034 C217.241,284.801 217.579,284.696 217.94,284.696 C218.394,284.696 218.755,284.824 219.023,285.092 C219.302,285.36 219.442,285.697 219.442,286.105 C219.442,286.454 219.314,286.792 219.057,287.118 C218.79,287.432 218.347,287.724 217.718,287.98 C218.114,288.143 218.405,288.376 218.603,288.678 C218.813,288.981 218.906,289.354 218.906,289.785 C218.906,290.251 218.766,290.728 218.499,291.205 C218.231,291.683 217.846,292.044 217.381,292.312 C216.903,292.568 216.402,292.696 215.878,292.696 C215.401,292.696 215.04,292.614 214.795,292.451 C214.632,292.335 214.551,292.207 214.551,292.055 C214.551,291.916 214.597,291.799 214.691,291.706 C214.784,291.613 214.912,291.566 215.052,291.566 C215.145,291.566 215.25,291.578 215.343,291.613 C215.401,291.636 215.552,291.706 215.785,291.834 C216.03,291.974 216.216,292.055 216.344,292.102 C216.472,292.149 216.612,292.172 216.752,292.172 C217.089,292.172 217.381,291.974 217.602,291.578 C217.823,291.182 217.928,290.763 217.928,290.309 C217.928,289.948 217.858,289.622 217.707,289.342 C217.555,289.051 217.322,288.818 216.996,288.643 C216.67,288.469 216.321,288.376 215.937,288.352 z" fill="#000000"/>
    <path d="M172.185,109.821 L173.227,112.13" fill-opacity="0" stroke="#000000" stroke-width="0.32"/>
    <path d="M170.286,105.597 L166.491,104.162 L173.227,112.132 L171.722,101.808" fill="#000000"/>
    <path d="M170.286,105.595 L166.491,104.162 L173.227,112.132 L171.722,101.808 z" fill-opacity="0" stroke="#000000" stroke-width="0.32"/>
    <path d="M207.858,167.292 L209.292,169.384" fill-opacity="0" stroke="#000000" stroke-width="0.32"/>
    <path d="M205.234,163.469 L201.246,162.735 L209.292,169.384 L205.977,159.49" fill="#000000"/>
    <path d="M205.234,163.472 L201.246,162.737 L209.292,169.384 L205.977,159.49 z" fill-opacity="0" stroke="#000000" stroke-width="0.32"/>
    <path d="M249.549,206.201 L251.779,207.408" fill-opacity="0" stroke="#000000" stroke-width="0.32"/>
    <path d="M245.48,203.989 L241.597,205.135 L251.779,207.41 L244.327,200.097" fill="#000000"/>
    <path d="M245.48,203.991 L241.599,205.135 L251.779,207.408 L244.327,200.097 z" fill-opacity="0" stroke="#000000" stroke-width="0.32"/>
  </g>
  <defs/>
</svg>
