<?xml version="1.0" encoding="UTF-8"?>
<!DOCTYPE svg PUBLIC "-//W3C//DTD SVG 1.1//EN" "http://www.w3.org/Graphics/SVG/1.1/DTD/svg11.dtd">
<svg version="1.1" xmlns="http://www.w3.org/2000/svg" xmlns:xlink="http://www.w3.org/1999/xlink" x="0px" y="0px" width="141.732" height="113.386" viewBox="0, 0, 141.732, 113.386">
  <g id="Layer 1">
    <path d="M30.249,31.441 C47.01,31.441 60.59,45.021 60.59,61.782 C60.59,78.542 47.01,92.122 30.249,92.122 C19.183,91.925 8.891,86.075 3.569,76.246 C1.013,71.522 1.128,70.102 0.065,64.884 L0.06,64.789 L0.06,58.774 L0.065,58.679 C0.467,56.705 0.678,54.682 1.272,52.758 C3.582,45.269 8.898,38.83 15.785,35.102 C20.508,32.545 21.929,32.661 27.146,31.598 z" fill="#000000"/>
    <path d="M111.157,61.782 C111.157,67.362 106.634,71.895 101.044,71.895 C95.453,71.895 90.93,67.362 90.93,61.782 C90.93,56.191 95.453,51.668 101.044,51.668 C106.634,51.668 111.157,56.191 111.157,61.782" fill="#000000"/>
    <path d="M29.294,101.637 L30.281,110.278 L36.511,101.637 L39.116,101.637 L39.116,101.928 C38.55,101.977 38.21,102.009 38.113,102.042 C37.951,102.123 37.79,102.252 37.644,102.462 C37.498,102.657 37.336,103.061 37.175,103.644 L35.184,110.44 C35.071,110.828 35.006,111.136 35.006,111.362 C35.006,111.573 35.087,111.734 35.233,111.831 C35.427,111.993 35.751,112.058 36.171,112.058 L36.366,112.058 L36.301,112.349 L31.786,112.349 L31.867,112.058 L32.077,112.058 C32.482,112.058 32.773,112.009 32.984,111.896 C33.162,111.799 33.307,111.654 33.437,111.411 C33.55,111.184 33.744,110.666 33.971,109.857 L35.734,103.644 L29.488,112.349 L29.181,112.349 L28.178,103.644 L26.252,110.278 C26.09,110.828 26.009,111.217 26.009,111.411 C26.009,111.605 26.09,111.751 26.22,111.848 C26.365,111.961 26.721,112.026 27.255,112.058 L27.174,112.349 L23.647,112.349 L23.728,112.058 L23.938,112.058 C24.472,112.058 24.844,111.929 25.071,111.67 C25.249,111.476 25.411,111.071 25.605,110.44 L27.935,102.446 C27.757,102.268 27.595,102.155 27.433,102.09 C27.271,102.025 26.98,101.977 26.559,101.928 L26.64,101.637 z" fill="#000000"/>
    <path d="M98.471,84.986 L97.451,88.546 C97.904,87.705 98.293,87.074 98.616,86.653 C99.118,86.006 99.603,85.52 100.073,85.229 C100.364,85.067 100.655,84.986 100.963,84.986 C101.222,84.986 101.432,85.067 101.61,85.229 C101.788,85.407 101.869,85.617 101.869,85.876 C101.869,86.135 101.82,86.475 101.691,86.896 L101.125,88.902 C101.982,87.3 102.807,86.167 103.568,85.52 C104.005,85.164 104.426,84.986 104.83,84.986 C105.073,84.986 105.283,85.067 105.429,85.229 C105.591,85.391 105.672,85.65 105.672,86.006 C105.672,86.297 105.623,86.62 105.526,86.976 L104.652,90.051 C104.458,90.714 104.377,91.087 104.377,91.151 C104.377,91.232 104.393,91.297 104.442,91.346 C104.474,91.378 104.523,91.41 104.571,91.41 C104.62,91.41 104.717,91.346 104.846,91.248 C105.138,91.022 105.429,90.714 105.688,90.342 L105.947,90.504 C105.817,90.714 105.591,91.006 105.251,91.378 C104.911,91.734 104.636,91.993 104.393,92.122 C104.151,92.252 103.94,92.316 103.73,92.316 C103.552,92.316 103.406,92.252 103.277,92.122 C103.147,92.009 103.083,91.847 103.083,91.669 C103.083,91.41 103.196,90.909 103.406,90.132 L104.134,87.608 C104.296,87.025 104.377,86.701 104.393,86.637 C104.409,86.523 104.409,86.426 104.409,86.345 C104.409,86.2 104.393,86.103 104.329,86.038 C104.264,85.957 104.199,85.925 104.118,85.925 C103.892,85.925 103.665,86.038 103.406,86.264 C102.694,86.928 102.015,87.866 101.367,89.08 C100.963,89.873 100.574,90.892 100.202,92.122 L99.021,92.122 L100.364,87.349 C100.51,86.831 100.591,86.491 100.591,86.313 C100.591,86.167 100.558,86.07 100.493,86.006 C100.445,85.925 100.364,85.892 100.283,85.892 C100.105,85.892 99.927,85.957 99.733,86.086 C99.409,86.297 99.005,86.734 98.503,87.413 C98.018,88.077 97.629,88.724 97.354,89.339 C97.225,89.63 96.901,90.553 96.416,92.122 L95.251,92.122 L96.707,87.009 L96.901,86.345 C96.933,86.248 96.95,86.167 96.95,86.119 C96.95,86.006 96.901,85.908 96.788,85.811 C96.691,85.714 96.545,85.682 96.383,85.682 C96.319,85.682 96.124,85.714 95.817,85.763 L95.752,85.472 z" fill="#000000"/>
    <path d="M40.165,21.328 L10.219,21.328" fill-opacity="0" stroke="#000000" stroke-width="0.156"/>
    <path d="M14.161,21.328 L15.741,19.747 L10.219,21.328 L15.741,22.908" fill="#000000"/>
    <path d="M14.161,21.328 L15.741,19.747 L10.219,21.328 L15.741,22.908 z" fill-opacity="0" stroke="#000000" stroke-width="0.156"/>
    <path d="M23.43,11.714 L25.712,11.228 C25.874,11.617 26.003,12.005 26.117,12.41 C26.246,13.008 26.359,13.72 26.456,14.529 C26.505,14.95 26.553,15.808 26.634,17.135 C27.282,16.407 27.686,15.97 27.799,15.792 C28.495,14.853 28.9,14.287 29.013,14.125 C29.175,13.85 29.304,13.607 29.369,13.397 C29.434,13.235 29.466,13.089 29.466,12.944 C29.466,12.814 29.337,12.652 29.094,12.474 C28.851,12.296 28.722,12.086 28.722,11.876 C28.722,11.698 28.786,11.552 28.932,11.423 C29.062,11.293 29.223,11.228 29.401,11.228 C29.628,11.228 29.822,11.309 29.984,11.487 C30.162,11.681 30.243,11.908 30.243,12.167 C30.243,12.442 30.194,12.701 30.113,12.944 C29.984,13.348 29.725,13.834 29.353,14.416 C28.981,14.983 28.366,15.759 27.54,16.73 C27.427,16.843 26.845,17.458 25.777,18.559 L25.485,18.559 C25.372,15.225 25.097,13.154 24.709,12.313 C24.563,12.054 24.353,11.924 24.045,11.924 C23.916,11.924 23.722,11.94 23.479,11.989 z" fill="#000000"/>
    <path d="M91.325,21.328 L121.271,21.328" fill-opacity="0" stroke="#000000" stroke-width="0.156"/>
    <path d="M117.329,21.328 L115.749,22.908 L121.271,21.328 L115.749,19.747" fill="#000000"/>
    <path d="M117.329,21.328 L115.749,22.908 L121.271,21.328 L115.749,19.747 z" fill-opacity="0" stroke="#000000" stroke-width="0.156"/>
    <path d="M82.399,5.492 L81.024,10.201 C80.829,10.913 80.716,11.35 80.716,11.528 C80.716,11.625 80.732,11.706 80.765,11.738 C80.797,11.787 80.846,11.803 80.91,11.803 C80.991,11.803 81.104,11.771 81.202,11.69 C81.315,11.609 81.59,11.285 82.027,10.719 L82.253,10.897 C81.849,11.56 81.412,12.03 80.975,12.353 C80.684,12.547 80.409,12.644 80.15,12.644 C79.939,12.644 79.778,12.596 79.664,12.466 C79.551,12.353 79.486,12.208 79.486,12.03 C79.486,11.852 79.519,11.609 79.583,11.318 C79.68,10.929 79.907,10.072 80.312,8.761 C79.405,10.233 78.661,11.253 78.062,11.803 C77.464,12.369 76.897,12.644 76.379,12.644 C76.137,12.644 75.926,12.564 75.765,12.402 C75.603,12.224 75.506,12.013 75.506,11.754 C75.506,11.366 75.635,10.751 75.862,9.942 L76.541,7.499 C76.719,6.916 76.8,6.544 76.8,6.398 C76.8,6.35 76.784,6.285 76.735,6.237 C76.687,6.204 76.638,6.172 76.59,6.172 C76.476,6.172 76.363,6.22 76.25,6.301 C76.137,6.382 75.894,6.673 75.506,7.175 L75.263,6.997 C75.651,6.382 76.072,5.945 76.509,5.654 C76.849,5.427 77.156,5.314 77.447,5.314 C77.642,5.314 77.803,5.363 77.933,5.492 C78.046,5.622 78.111,5.783 78.111,5.978 C78.111,6.253 78.014,6.771 77.803,7.499 L77.059,10.055 C76.849,10.751 76.752,11.188 76.752,11.366 C76.752,11.463 76.784,11.544 76.849,11.609 C76.913,11.674 76.994,11.706 77.108,11.706 C77.286,11.706 77.512,11.609 77.787,11.447 C78.062,11.269 78.434,10.881 78.904,10.282 C79.373,9.683 79.761,9.117 80.053,8.599 C80.36,8.081 80.684,7.24 81.024,6.091 L81.202,5.492 z" fill="#000000"/>
    <text transform="matrix(1, 0, -0, 1, 101.296, 10.394)">
      <tspan x="-13.479" y="0.886" font-family="TimesNewRomanPSMT" font-size="12" fill="#000000">cos</tspan>
      <tspan x="2.517" y="0.886" font-family="TimesNewRomanPSMT" font-size="12" fill="#000000">(</tspan>
    </text>
    <path d="M113.779,3.22 C115.251,3.22 115.979,4.223 115.979,6.23 C115.979,7.444 115.688,8.787 115.089,10.259 C114.491,11.732 113.811,12.832 113.05,13.56 C112.29,14.288 111.513,14.644 110.704,14.644 C110.041,14.644 109.507,14.369 109.102,13.803 C108.681,13.253 108.471,12.541 108.471,11.716 C108.471,11.165 108.6,10.421 108.827,9.483 C109.07,8.528 109.426,7.573 109.895,6.602 C110.38,5.647 110.963,4.838 111.675,4.191 C112.403,3.544 113.099,3.22 113.779,3.22 z M114.264,8.593 C114.62,7.492 114.798,6.408 114.798,5.356 C114.798,4.159 114.458,3.56 113.779,3.56 C113.18,3.56 112.597,3.997 112.031,4.903 C111.448,5.793 110.931,7.039 110.445,8.593 z M110.3,9.046 C109.814,10.551 109.571,11.716 109.571,12.525 C109.571,13.042 109.685,13.479 109.895,13.819 C110.105,14.143 110.429,14.321 110.85,14.321 C111.206,14.321 111.546,14.175 111.853,13.9 C112.16,13.609 112.533,13.042 112.937,12.169 C113.358,11.311 113.746,10.275 114.118,9.046 z" fill="#000000"/>
    <text transform="matrix(1, 0, -0, 1, 121.272, 9.634)">
      <tspan x="-5.496" y="0.886" font-family="TimesNewRomanPSMT" font-size="12" fill="#000000">) -</tspan>
      <tspan x="5.496" y="0.886" font-family="TimesNewRomanPSMT" font-size="12" fill="#000000"> </tspan>
    </text>
    <path d="M132.98,5.8 L135.261,5.314 C135.423,5.703 135.553,6.091 135.666,6.495 C135.795,7.094 135.909,7.806 136.006,8.615 C136.054,9.036 136.103,9.894 136.184,11.22 C136.831,10.492 137.236,10.055 137.349,9.877 C138.045,8.939 138.449,8.373 138.562,8.211 C138.724,7.936 138.854,7.693 138.918,7.483 C138.983,7.321 139.016,7.175 139.016,7.029 C139.016,6.9 138.886,6.738 138.643,6.56 C138.401,6.382 138.271,6.172 138.271,5.961 C138.271,5.783 138.336,5.638 138.482,5.508 C138.611,5.379 138.773,5.314 138.951,5.314 C139.177,5.314 139.372,5.395 139.533,5.573 C139.711,5.767 139.792,5.994 139.792,6.253 C139.792,6.528 139.744,6.787 139.663,7.029 C139.533,7.434 139.274,7.919 138.902,8.502 C138.53,9.068 137.915,9.845 137.09,10.816 C136.977,10.929 136.394,11.544 135.326,12.644 L135.035,12.644 C134.922,9.311 134.647,7.24 134.258,6.398 C134.113,6.139 133.902,6.01 133.595,6.01 C133.465,6.01 133.271,6.026 133.028,6.075 z" fill="#000000"/>
  </g>
  <defs/>
</svg>
