<?xml version="1.0" encoding="UTF-8"?>
<!DOCTYPE svg PUBLIC "-//W3C//DTD SVG 1.1//EN" "http://www.w3.org/Graphics/SVG/1.1/DTD/svg11.dtd">
<svg version="1.1" xmlns="http://www.w3.org/2000/svg" xmlns:xlink="http://www.w3.org/1999/xlink" x="0px" y="0px" width="283.465" height="201.26" viewBox="0, 0, 283.465, 201.26">
  <g id="Layer 1">
    <path d="M0.199,189.764 L283.664,189.764" fill-opacity="0" stroke="#000000" stroke-width="0.571"/>
    <path d="M241.669,189.764 L231.17,200.263 M220.671,189.764 L210.173,200.263 M199.674,189.764 L189.175,200.263 M178.677,189.764 L168.178,200.263 M157.679,189.764 L147.181,200.263 M136.682,189.764 L126.183,200.263 M115.685,189.764 L105.186,200.263 M94.687,189.764 L84.188,200.263 M73.69,189.764 L63.191,200.263 M52.692,189.764 L42.194,200.263 M31.695,189.764 L21.196,200.263 M10.698,189.764 L0.199,200.263" fill-opacity="0" stroke="#000000" stroke-width="0.581"/>
    <path d="M147.181,126.772 L147.181,84.778 M147.181,137.271 L147.181,189.764 L147.181,137.271 M73.69,189.764 L73.69,0.788 M147.181,74.279 L147.181,0.788" fill-opacity="0" stroke="#000000" stroke-width="0.678"/>
    <path d="M147.181,137.271 L155.577,137.271 M147.181,126.772 L155.577,126.772 M147.181,84.778 L157.679,84.778 M147.181,74.279 L157.679,74.279" fill-opacity="0" stroke="#000000" stroke-width="0.678" stroke-linecap="square"/>
    <path d="M77.895,21.785 L142.989,21.785 M77.955,21.785 C75.637,21.817 73.742,19.982 73.69,17.675" fill-opacity="0" stroke="#000000" stroke-width="0.484"/>
    <path d="M142.926,21.785 C145.233,21.817 147.131,19.982 147.181,17.675" fill-opacity="0" stroke="#000000" stroke-width="0.484"/>
    <path d="M163.986,137.271 L151.385,135.179 L151.385,128.875 L163.986,126.772 z" fill-opacity="0" stroke="#000000" stroke-width="0.678"/>
    <path d="M136.682,78.484 L136.682,23.888" fill-opacity="0" stroke="#000000" stroke-width="0.352"/>
    <path d="M140.784,68.61 L136.703,79.715 L132.622,68.61 C135.031,70.384 138.322,70.373 140.784,68.61" fill="#000000"/>
    <path d="M132.582,33.772 L136.671,22.667 L140.753,33.772 C138.343,31.987 135.042,31.998 132.582,33.772" fill="#000000"/>
    <path d="M136.682,80.586 L208.07,80.586" fill-opacity="0" stroke="#000000" stroke-width="0.352"/>
    <path d="M198.834,80.586 L195.144,84.276 L208.07,80.586 L195.144,76.882" fill="#000000"/>
    <path d="M198.834,80.586 L195.144,84.276 L208.07,80.586 L195.144,76.882 z" fill-opacity="0" stroke="#000000" stroke-width="0.352"/>
    <path d="M262.666,189.764 L252.168,200.263 M283.664,189.764 L273.165,200.263" fill-opacity="0" stroke="#000000" stroke-width="0.581"/>
    <path d="M155.577,80.586 C211.598,91.31 219.811,140.964 229.068,189.764" fill-opacity="0" stroke="#000000" stroke-width="0.352"/>
    <path d="M227.346,180.691 L223.031,177.749 L229.068,189.764 L230.288,176.376" fill="#000000"/>
    <path d="M227.346,180.694 L223.031,177.749 L229.07,189.764 L230.288,176.376 z" fill-opacity="0" stroke="#000000" stroke-width="0.352"/>
    <path d="M126.039,40.813 L123.162,50.766 C124.401,48.897 125.367,47.659 126.06,47.05 C126.774,46.42 127.425,46.126 128.076,46.126 C128.391,46.126 128.664,46.231 128.895,46.462 C129.105,46.672 129.21,46.987 129.21,47.365 C129.21,47.806 129.126,48.352 128.937,49.002 L127.677,53.286 C127.53,53.811 127.446,54.105 127.446,54.147 C127.446,54.252 127.467,54.336 127.53,54.399 C127.593,54.462 127.656,54.483 127.74,54.483 C127.824,54.483 127.929,54.441 128.034,54.357 C128.433,54.042 128.811,53.643 129.189,53.097 L129.503,53.286 C129.272,53.664 128.958,54.063 128.538,54.483 C128.139,54.924 127.782,55.218 127.488,55.386 C127.173,55.554 126.921,55.638 126.69,55.638 C126.438,55.638 126.228,55.554 126.06,55.407 C125.913,55.239 125.829,55.029 125.829,54.777 C125.829,54.483 125.934,53.916 126.186,53.097 L127.362,49.002 C127.509,48.478 127.593,48.079 127.593,47.785 C127.593,47.659 127.551,47.533 127.467,47.47 C127.383,47.386 127.257,47.344 127.131,47.344 C126.921,47.344 126.711,47.407 126.438,47.554 C125.976,47.848 125.451,48.394 124.842,49.17 C124.674,49.38 124.128,50.22 123.204,51.732 C122.91,52.194 122.679,52.719 122.49,53.286 L121.839,55.386 L120.307,55.386 L123.666,43.669 L124.023,42.388 C124.023,42.22 123.96,42.052 123.813,41.926 C123.666,41.779 123.477,41.716 123.267,41.716 C123.141,41.716 122.952,41.737 122.7,41.779 L122.49,41.821 L122.49,41.401 z" fill="#000000"/>
    <path d="M216.916,69.853 L219.876,69.223 C220.086,69.727 220.254,70.231 220.401,70.756 C220.569,71.533 220.716,72.456 220.842,73.506 C220.905,74.052 220.968,75.165 221.073,76.887 C221.913,75.942 222.438,75.375 222.585,75.144 C223.488,73.926 224.013,73.191 224.16,72.981 C224.37,72.624 224.538,72.31 224.622,72.037 C224.706,71.827 224.748,71.638 224.748,71.449 C224.748,71.281 224.58,71.071 224.265,70.84 C223.95,70.609 223.782,70.336 223.782,70.063 C223.782,69.832 223.866,69.643 224.055,69.475 C224.223,69.307 224.433,69.223 224.664,69.223 C224.958,69.223 225.21,69.328 225.419,69.559 C225.65,69.811 225.755,70.105 225.755,70.441 C225.755,70.798 225.692,71.134 225.587,71.449 C225.419,71.974 225.084,72.603 224.601,73.359 C224.118,74.094 223.32,75.102 222.249,76.362 C222.102,76.509 221.346,77.307 219.96,78.735 L219.582,78.735 C219.435,74.409 219.078,71.722 218.574,70.63 C218.385,70.294 218.112,70.126 217.713,70.126 C217.545,70.126 217.293,70.147 216.979,70.21 z" fill="#000000"/>
  </g>
  <defs/>
</svg>
