<?xml version="1.0" encoding="UTF-8"?>
<!DOCTYPE svg PUBLIC "-//W3C//DTD SVG 1.1//EN" "http://www.w3.org/Graphics/SVG/1.1/DTD/svg11.dtd">
<svg version="1.1" xmlns="http://www.w3.org/2000/svg" xmlns:xlink="http://www.w3.org/1999/xlink" x="0px" y="0px" width="255.118" height="124.724" viewBox="0, 0, 255.118, 124.724">
  <g id="Layer 1">
    <path d="M167.437,50.972 C167.437,56.603 162.862,61.177 157.232,61.177 C151.591,61.177 147.027,56.603 147.027,50.972 C147.027,45.331 151.591,40.767 157.232,40.767 C162.862,40.767 167.437,45.331 167.437,50.972" fill="#000000"/>
    <path d="M157.232,50.972 L157.232,91.791" fill-opacity="0" stroke="#000000" stroke-width="0.359"/>
    <path d="M157.232,82.622 L153.563,78.953 L157.232,91.791 L160.898,78.953" fill="#000000"/>
    <path d="M157.232,82.622 L153.563,78.956 L157.232,91.791 L160.898,78.956 z" fill-opacity="0" stroke="#000000" stroke-width="0.359"/>
    <path d="M147.033,16.273 L144.437,8.411 C143.824,8.411 143.212,8.362 142.575,8.215 L141.179,13.138 C140.983,13.775 140.91,14.313 140.91,14.754 C140.91,15.073 141.008,15.342 141.253,15.538 C141.424,15.685 141.89,15.783 142.673,15.832 L142.575,16.273 L136.306,16.273 L136.428,15.832 C137.016,15.807 137.408,15.758 137.628,15.66 C137.946,15.538 138.191,15.342 138.338,15.122 C138.583,14.73 138.853,14.069 139.147,13.138 L141.963,3.341 C142.159,2.68 142.257,2.166 142.257,1.823 C142.257,1.456 142.11,1.137 141.816,0.892 C141.522,0.623 141.081,0.5 140.518,0.5 L140.665,0.06 L145.955,0.06 C147.719,0.06 148.992,0.402 149.776,1.064 C150.56,1.749 150.951,2.631 150.951,3.709 C150.951,4.762 150.56,5.717 149.751,6.574 C148.943,7.456 147.865,7.995 146.469,8.215 L148.037,12.966 C148.429,14.142 148.796,14.901 149.188,15.244 C149.58,15.587 150.192,15.783 151.049,15.832 L150.902,16.273 z M142.771,7.554 C143.286,7.603 143.751,7.652 144.143,7.652 C145.514,7.652 146.592,7.26 147.4,6.501 C148.184,5.741 148.6,4.811 148.6,3.66 C148.6,2.778 148.331,2.117 147.841,1.627 C147.351,1.162 146.592,0.941 145.588,0.941 C145.343,0.941 145.049,0.966 144.682,1.015 z" fill="#000000"/>
    <path d="M148.233,97.315 L146.69,102.703 C147.376,101.429 147.963,100.474 148.453,99.837 C149.212,98.858 149.947,98.123 150.657,97.682 C151.098,97.437 151.539,97.315 152.005,97.315 C152.396,97.315 152.715,97.437 152.984,97.682 C153.254,97.951 153.376,98.27 153.376,98.662 C153.376,99.053 153.303,99.568 153.107,100.205 L152.249,103.242 C153.547,100.817 154.797,99.102 155.948,98.123 C156.609,97.584 157.246,97.315 157.858,97.315 C158.225,97.315 158.544,97.437 158.764,97.682 C159.009,97.927 159.131,98.319 159.131,98.858 C159.131,99.298 159.058,99.788 158.911,100.327 L157.589,104.98 C157.295,105.985 157.172,106.548 157.172,106.646 C157.172,106.768 157.197,106.866 157.27,106.94 C157.319,106.989 157.393,107.038 157.466,107.038 C157.54,107.038 157.686,106.94 157.882,106.793 C158.323,106.45 158.764,105.985 159.156,105.421 L159.548,105.666 C159.352,105.985 159.009,106.425 158.495,106.989 C157.98,107.527 157.564,107.919 157.197,108.115 C156.829,108.311 156.511,108.409 156.193,108.409 C155.923,108.409 155.703,108.311 155.507,108.115 C155.311,107.944 155.213,107.699 155.213,107.43 C155.213,107.038 155.384,106.278 155.703,105.103 L156.805,101.282 C157.05,100.401 157.172,99.911 157.197,99.813 C157.221,99.641 157.221,99.494 157.221,99.372 C157.221,99.151 157.197,99.005 157.099,98.907 C157.001,98.784 156.903,98.735 156.78,98.735 C156.437,98.735 156.095,98.907 155.703,99.249 C154.625,100.254 153.596,101.674 152.617,103.511 C152.005,104.711 151.417,106.254 150.853,108.115 L149.066,108.115 L151.098,100.89 C151.319,100.107 151.441,99.592 151.441,99.323 C151.441,99.102 151.392,98.956 151.294,98.858 C151.221,98.735 151.098,98.686 150.976,98.686 C150.706,98.686 150.437,98.784 150.143,98.98 C149.653,99.298 149.041,99.96 148.282,100.988 C147.547,101.992 146.959,102.972 146.543,103.903 C146.347,104.344 145.857,105.74 145.122,108.115 L143.359,108.115 L145.563,100.376 L145.857,99.372 C145.906,99.225 145.931,99.102 145.931,99.029 C145.931,98.858 145.857,98.711 145.686,98.564 C145.539,98.417 145.318,98.368 145.073,98.368 C144.975,98.368 144.682,98.417 144.216,98.49 L144.118,98.049 z" fill="#000000"/>
    <path d="M173.361,98.049 L173.018,99.298 L171.034,99.298 C171.181,99.715 171.255,100.131 171.255,100.498 C171.255,101.552 170.814,102.482 169.908,103.315 C169.026,104.123 167.777,104.589 166.209,104.662 C165.377,104.931 164.74,105.225 164.299,105.568 C164.152,105.715 164.079,105.838 164.079,105.985 C164.079,106.131 164.152,106.278 164.275,106.401 C164.422,106.548 164.789,106.67 165.377,106.817 L167.703,107.356 C168.977,107.65 169.834,108.017 170.251,108.434 C170.642,108.85 170.838,109.34 170.838,109.879 C170.838,110.54 170.618,111.128 170.128,111.691 C169.638,112.23 168.928,112.646 168.022,112.965 C167.091,113.258 166.063,113.405 164.936,113.405 C163.932,113.405 163.05,113.307 162.217,113.063 C161.409,112.818 160.821,112.499 160.479,112.107 C160.136,111.716 159.964,111.299 159.964,110.883 C159.964,110.54 160.062,110.173 160.307,109.805 C160.527,109.438 160.797,109.144 161.14,108.899 C161.36,108.752 161.972,108.385 162.977,107.821 C162.609,107.527 162.438,107.209 162.438,106.866 C162.438,106.548 162.585,106.205 162.903,105.862 C163.246,105.495 163.932,105.103 164.96,104.662 C164.079,104.515 163.393,104.148 162.879,103.56 C162.364,102.997 162.119,102.384 162.119,101.674 C162.119,100.547 162.609,99.543 163.589,98.637 C164.593,97.755 165.916,97.315 167.557,97.315 C168.169,97.315 168.659,97.364 169.026,97.486 C169.418,97.609 169.785,97.78 170.153,98.049 z M169.222,99.935 C169.222,99.274 169.05,98.784 168.683,98.417 C168.34,98.049 167.875,97.878 167.287,97.878 C166.405,97.878 165.646,98.319 165.058,99.225 C164.471,100.131 164.177,101.062 164.177,102.041 C164.177,102.678 164.373,103.168 164.74,103.56 C165.132,103.952 165.573,104.148 166.112,104.148 C166.528,104.148 166.944,104.025 167.336,103.805 C167.728,103.56 168.071,103.242 168.34,102.85 C168.61,102.433 168.83,101.919 168.977,101.282 C169.148,100.645 169.222,100.205 169.222,99.935 z M163.491,108.115 C162.854,108.434 162.364,108.801 162.021,109.266 C161.703,109.732 161.532,110.173 161.532,110.638 C161.532,111.152 161.777,111.593 162.242,111.936 C162.928,112.426 163.932,112.671 165.254,112.671 C166.405,112.671 167.385,112.475 168.193,112.083 C169.001,111.716 169.393,111.201 169.393,110.589 C169.393,110.271 169.246,109.977 168.952,109.707 C168.659,109.438 168.071,109.193 167.214,109.021 C166.748,108.924 165.499,108.63 163.491,108.115 z" fill="#000000"/>
    <path d="M59.06,47.884 L57.15,54.3 L59.256,54.3 C60.235,54.3 60.946,54.154 61.411,53.86 C61.876,53.566 62.366,52.929 62.881,51.974 L63.346,51.974 L61.656,57.876 L61.166,57.876 C61.289,57.386 61.338,56.995 61.338,56.676 C61.338,56.211 61.191,55.819 60.872,55.55 C60.529,55.28 59.942,55.158 59.06,55.158 L56.905,55.158 L55.484,60.056 C55.239,60.913 55.117,61.501 55.117,61.77 C55.117,62.064 55.215,62.309 55.435,62.456 C55.656,62.628 56.194,62.725 57.052,62.774 L56.905,63.215 L50.488,63.215 L50.635,62.774 C51.272,62.774 51.688,62.725 51.884,62.628 C52.202,62.481 52.447,62.309 52.594,62.064 C52.815,61.746 53.059,61.06 53.353,60.056 L56.219,50.284 C56.439,49.476 56.562,48.863 56.562,48.423 C56.562,48.227 56.513,48.031 56.415,47.884 C56.317,47.737 56.145,47.639 55.949,47.565 C55.754,47.492 55.337,47.443 54.725,47.443 L54.872,47.002 L67.46,47.002 L66.26,51.117 L65.819,51.117 C65.893,50.627 65.942,50.21 65.942,49.892 C65.942,49.378 65.795,48.961 65.501,48.643 C65.207,48.349 64.84,48.129 64.374,47.982 C64.056,47.908 63.346,47.884 62.244,47.884 z" fill="#000000"/>
    <path d="M66.9,61.522 L69.575,61.092 L68.46,64.865 C69.368,63.321 70.195,62.239 70.928,61.618 C71.358,61.268 71.692,61.092 71.963,61.092 C72.122,61.092 72.265,61.14 72.361,61.236 C72.456,61.331 72.504,61.49 72.504,61.681 C72.504,62.016 72.424,62.35 72.249,62.653 C72.122,62.891 71.947,63.003 71.708,63.003 C71.596,63.003 71.485,62.971 71.405,62.891 C71.31,62.812 71.262,62.7 71.246,62.525 C71.23,62.43 71.214,62.366 71.167,62.334 C71.135,62.302 71.087,62.271 71.023,62.271 C70.928,62.271 70.848,62.302 70.769,62.334 C70.641,62.414 70.434,62.605 70.164,62.939 C69.734,63.449 69.272,64.117 68.763,64.913 C68.54,65.263 68.365,65.645 68.206,66.075 C67.983,66.664 67.855,67.015 67.823,67.142 L67.585,68.113 L66.391,68.113 L67.823,63.289 C67.999,62.732 68.078,62.334 68.078,62.095 C68.078,62 68.046,61.92 67.967,61.857 C67.855,61.777 67.728,61.745 67.553,61.745 C67.441,61.745 67.234,61.761 66.948,61.809 z" fill="#000000"/>
    <path d="M86.587,61.549 L86.587,55.573 L80.636,55.573 L80.636,54.594 L86.587,54.594 L86.587,48.642 L87.567,48.642 L87.567,54.594 L93.543,54.594 L93.543,55.573 L87.567,55.573 L87.567,61.549 z" fill="#000000"/>
    <path d="M108.972,47.883 L107.062,54.3 L109.168,54.3 C110.148,54.3 110.858,54.153 111.324,53.859 C111.789,53.565 112.279,52.928 112.793,51.973 L113.258,51.973 L111.569,57.876 L111.079,57.876 C111.201,57.386 111.25,56.994 111.25,56.676 C111.25,56.21 111.103,55.818 110.785,55.549 C110.442,55.28 109.854,55.157 108.972,55.157 L106.817,55.157 L105.397,60.055 C105.152,60.913 105.029,61.5 105.029,61.77 C105.029,62.064 105.127,62.309 105.348,62.456 C105.568,62.627 106.107,62.725 106.964,62.774 L106.817,63.215 L100.4,63.215 L100.547,62.774 C101.184,62.774 101.601,62.725 101.796,62.627 C102.115,62.48 102.36,62.309 102.507,62.064 C102.727,61.745 102.972,61.06 103.266,60.055 L106.131,50.283 C106.352,49.475 106.474,48.863 106.474,48.422 C106.474,48.226 106.425,48.03 106.327,47.883 C106.229,47.736 106.058,47.638 105.862,47.565 C105.666,47.491 105.25,47.442 104.637,47.442 L104.784,47.001 L117.373,47.001 L116.173,51.116 L115.732,51.116 C115.806,50.626 115.855,50.21 115.855,49.891 C115.855,49.377 115.708,48.961 115.414,48.642 C115.12,48.349 114.752,48.128 114.287,47.981 C113.969,47.908 113.258,47.883 112.156,47.883 z" fill="#000000"/>
    <path d="M120.199,57.065 L118.671,62.446 C119.165,61.92 119.595,61.57 119.977,61.379 C120.343,61.188 120.725,61.092 121.139,61.092 C121.696,61.092 122.173,61.268 122.54,61.65 C122.89,62.032 123.081,62.541 123.081,63.194 C123.081,64.022 122.842,64.865 122.365,65.677 C121.887,66.505 121.282,67.158 120.566,67.62 C119.849,68.081 119.133,68.304 118.432,68.304 C117.652,68.304 116.856,68.018 116.029,67.428 L118.385,59.294 C118.576,58.657 118.655,58.291 118.655,58.179 C118.655,58.052 118.623,57.956 118.544,57.877 C118.416,57.797 118.241,57.749 118.003,57.749 C117.907,57.749 117.732,57.765 117.509,57.797 L117.509,57.511 z M117.191,67.508 C117.716,67.795 118.162,67.938 118.56,67.938 C119.021,67.938 119.483,67.779 119.977,67.444 C120.47,67.11 120.9,66.537 121.25,65.757 C121.616,64.961 121.791,64.149 121.791,63.353 C121.791,62.875 121.68,62.493 121.441,62.223 C121.202,61.952 120.932,61.825 120.597,61.825 C120.12,61.825 119.658,62.016 119.197,62.398 C118.735,62.796 118.401,63.321 118.209,64.022 z" fill="#000000"/>
    <path d="M255.192,124.449 L0.074,124.449 L255.192,22.401" fill-opacity="0" stroke="#000000" stroke-width="0.391"/>
    <path d="M157.232,50.972 L144.984,20.358" fill-opacity="0" stroke="#000000" stroke-width="0.4"/>
    <path d="M148.77,29.833 L154.081,32.106 L144.984,20.358 L146.499,35.137" fill="#000000"/>
    <path d="M148.77,29.836 L154.084,32.106 L144.984,20.358 L146.499,35.134 z" fill-opacity="0" stroke="#000000" stroke-width="0.4"/>
    <path d="M153.145,63.22 L102.121,83.63" fill-opacity="0" stroke="#000000" stroke-width="0.48"/>
    <path d="M113.492,79.073 L116.224,72.706 L102.121,83.627 L119.86,81.803" fill="#000000"/>
    <path d="M113.492,79.073 L116.222,72.706 L102.121,83.627 L119.862,81.806 z" fill-opacity="0" stroke="#000000" stroke-width="0.48"/>
    <path d="M53.032,124.318 C53.032,117.691 50.84,111.164 46.654,105.325" fill-opacity="0" stroke="#000000" stroke-width="0.38"/>
    <path d="M68.709,102.791 C70.938,102.791 72.04,104.31 72.04,107.347 C72.04,109.183 71.599,111.216 70.693,113.445 C69.787,115.674 68.758,117.339 67.607,118.441 C66.456,119.543 65.281,120.082 64.056,120.082 C63.052,120.082 62.244,119.666 61.631,118.809 C60.995,117.976 60.676,116.898 60.676,115.649 C60.676,114.816 60.872,113.69 61.215,112.269 C61.582,110.824 62.121,109.379 62.832,107.91 C63.566,106.465 64.448,105.24 65.526,104.261 C66.628,103.281 67.681,102.791 68.709,102.791 z M69.444,110.922 C69.983,109.257 70.252,107.616 70.252,106.024 C70.252,104.212 69.738,103.306 68.709,103.306 C67.803,103.306 66.922,103.967 66.064,105.338 C65.183,106.685 64.399,108.571 63.664,110.922 z M63.444,111.608 C62.709,113.886 62.342,115.649 62.342,116.874 C62.342,117.657 62.513,118.319 62.832,118.833 C63.15,119.323 63.64,119.592 64.277,119.592 C64.815,119.592 65.33,119.372 65.795,118.956 C66.26,118.515 66.824,117.657 67.436,116.335 C68.073,115.037 68.66,113.469 69.224,111.608 z" fill="#000000"/>
  </g>
  <defs/>
</svg>
