<?xml version="1.0" encoding="UTF-8"?>
<!DOCTYPE svg PUBLIC "-//W3C//DTD SVG 1.1//EN" "http://www.w3.org/Graphics/SVG/1.1/DTD/svg11.dtd">
<svg version="1.1" xmlns="http://www.w3.org/2000/svg" xmlns:xlink="http://www.w3.org/1999/xlink" x="0px" y="0px" width="368.504" height="155.906" viewBox="0, 0, 368.504, 155.906">
  <g id="Layer 1">
    <path d="M0.398,70.283 L368.902,70.283 L368.902,88.708 L0.398,88.708 z" fill-opacity="0" stroke="#000000" stroke-width="0.8"/>
    <path d="M0.398,97.921 L368.902,97.921 M0.398,102.087 L0.398,93.757 M368.902,102.087 L368.902,93.757" fill-opacity="0" stroke="#000000" stroke-width="0.4"/>
    <path d="M258.351,79.496 L258.351,134.771" fill-opacity="0" stroke="#000000" stroke-width="0.8"/>
    <path d="M258.351,127.403 L254.673,123.716 L258.351,136.616 L262.04,123.716" fill="#000000"/>
    <path d="M258.351,127.403 L254.673,123.716 L258.351,136.616 L262.04,123.716 z" fill-opacity="0" stroke="#000000" stroke-width="0.4"/>
    <path d="M18.823,79.496 L18.823,42.645" fill-opacity="0" stroke="#000000" stroke-width="0.8"/>
    <path d="M18.823,50.015 L22.513,53.703 L18.823,40.803 L15.145,53.703" fill="#000000"/>
    <path d="M18.823,50.015 L22.513,53.703 L18.823,40.803 L15.145,53.703 z" fill-opacity="0" stroke="#000000" stroke-width="0.4"/>
    <path d="M350.477,79.496 L350.477,24.22" fill-opacity="0" stroke="#000000" stroke-width="0.8"/>
    <path d="M350.477,31.59 L354.166,35.277 L350.477,22.377 L346.799,35.277" fill="#000000"/>
    <path d="M350.477,31.59 L354.166,35.277 L350.477,22.377 L346.799,35.277 z" fill-opacity="0" stroke="#000000" stroke-width="0.4"/>
    <path d="M180.166,102.846 L176.474,115.693 C176.297,116.334 176.208,116.732 176.208,116.864 C176.208,116.975 176.231,117.063 176.297,117.152 C176.363,117.218 176.452,117.262 176.562,117.262 C176.695,117.262 176.85,117.196 177.004,117.063 C177.38,116.776 177.756,116.312 178.176,115.693 L178.508,116.024 C177.822,116.997 177.181,117.66 176.606,118.058 C176.186,118.324 175.788,118.456 175.412,118.456 C175.125,118.456 174.904,118.368 174.727,118.191 C174.528,117.992 174.44,117.771 174.44,117.528 C174.44,117.284 174.55,116.732 174.793,115.936 L177.712,105.809 C177.955,104.991 178.066,104.505 178.066,104.372 C178.066,104.217 177.999,104.063 177.867,103.952 C177.734,103.841 177.513,103.797 177.226,103.797 C177.071,103.797 176.805,103.819 176.474,103.864 L176.474,103.466 z" fill="#000000"/>
    <path d="M363.333,122.166 L362.746,125.201 L362.362,125.201 C362.341,124.311 362.159,123.664 361.815,123.259 C361.471,122.854 361.047,122.672 360.541,122.672 C360.116,122.672 359.792,122.773 359.57,122.996 C359.327,123.219 359.205,123.502 359.205,123.805 C359.205,124.028 359.246,124.23 359.347,124.432 C359.448,124.635 359.651,124.898 359.974,125.262 C360.824,126.193 361.37,126.901 361.633,127.366 C361.876,127.852 361.997,128.297 361.997,128.722 C361.997,129.409 361.714,130.016 361.148,130.542 C360.581,131.068 359.853,131.331 358.983,131.331 C358.518,131.331 357.971,131.23 357.344,131.008 C357.142,130.927 356.96,130.886 356.838,130.886 C356.555,130.886 356.333,131.028 356.171,131.331 L355.807,131.331 L356.414,128.135 L356.778,128.135 C356.818,129.126 357.02,129.834 357.405,130.259 C357.769,130.684 358.295,130.886 358.942,130.886 C359.448,130.886 359.833,130.745 360.136,130.461 C360.419,130.178 360.581,129.834 360.581,129.43 C360.581,129.167 360.521,128.924 360.419,128.701 C360.237,128.297 359.853,127.75 359.246,127.063 C358.659,126.354 358.295,125.828 358.113,125.484 C357.951,125.141 357.87,124.797 357.87,124.432 C357.87,123.805 358.093,123.259 358.558,122.814 C359.023,122.389 359.63,122.166 360.359,122.166 C360.561,122.166 360.763,122.166 360.925,122.207 C361.026,122.227 361.229,122.308 361.573,122.43 C361.917,122.551 362.139,122.632 362.26,122.632 C362.544,122.632 362.766,122.47 362.969,122.166 z" fill="#000000"/>
    <path d="M323.75,32.831 L320.036,45.566 C319.814,46.274 319.726,46.716 319.726,46.937 C319.726,47.003 319.748,47.07 319.814,47.136 C319.881,47.202 319.947,47.247 320.013,47.247 C320.102,47.247 320.212,47.18 320.345,47.092 C320.588,46.915 320.986,46.495 321.561,45.809 L321.937,46.031 C321.428,46.738 320.898,47.335 320.367,47.777 C319.837,48.219 319.35,48.441 318.886,48.441 C318.643,48.441 318.444,48.352 318.267,48.175 C318.112,48.02 318.046,47.777 318.046,47.446 C318.046,47.048 318.156,46.495 318.355,45.809 L318.775,44.461 C317.736,46.075 316.785,47.18 315.923,47.799 C315.348,48.242 314.773,48.441 314.243,48.441 C313.69,48.441 313.226,48.197 312.805,47.711 C312.408,47.224 312.208,46.561 312.208,45.743 C312.208,44.66 312.54,43.51 313.226,42.294 C313.911,41.078 314.818,40.105 315.923,39.331 C316.83,38.712 317.626,38.425 318.377,38.425 C318.753,38.425 319.107,38.491 319.372,38.646 C319.66,38.823 319.925,39.066 320.212,39.442 L321.274,35.683 C321.34,35.418 321.406,35.197 321.451,35.042 C321.539,34.754 321.583,34.511 321.583,34.334 C321.583,34.179 321.539,34.069 321.428,33.958 C321.274,33.826 321.075,33.781 320.854,33.781 C320.677,33.781 320.411,33.804 320.036,33.848 L320.036,33.45 z M319.726,40.503 C319.726,40.039 319.593,39.663 319.328,39.397 C319.063,39.11 318.731,38.977 318.311,38.977 C317.404,38.977 316.476,39.707 315.481,41.211 C314.508,42.714 314.022,44.151 314.022,45.5 C314.022,46.053 314.132,46.451 314.375,46.738 C314.596,47.025 314.884,47.18 315.215,47.18 C315.967,47.18 316.918,46.362 318.046,44.748 C319.173,43.112 319.726,41.719 319.726,40.503 z" fill="#000000"/>
    <path d="M0.398,116.346 L18.823,116.346 M0.398,120.512 L0.398,112.182 M18.823,120.512 L18.823,112.182" fill-opacity="0" stroke="#000000" stroke-width="0.4"/>
    <path d="M11.411,120.324 L10.825,123.359 L10.44,123.359 C10.42,122.469 10.238,121.821 9.894,121.416 C9.55,121.012 9.125,120.83 8.62,120.83 C8.195,120.83 7.871,120.931 7.648,121.153 C7.406,121.376 7.284,121.659 7.284,121.963 C7.284,122.185 7.325,122.388 7.426,122.59 C7.527,122.792 7.729,123.055 8.053,123.419 C8.903,124.35 9.449,125.058 9.712,125.523 C9.955,126.009 10.076,126.454 10.076,126.879 C10.076,127.567 9.793,128.174 9.226,128.7 C8.66,129.226 7.932,129.489 7.062,129.489 C6.596,129.489 6.05,129.388 5.423,129.165 C5.221,129.084 5.039,129.044 4.917,129.044 C4.634,129.044 4.411,129.185 4.25,129.489 L3.885,129.489 L4.492,126.292 L4.856,126.292 C4.897,127.284 5.099,127.992 5.484,128.417 C5.848,128.841 6.374,129.044 7.021,129.044 C7.527,129.044 7.911,128.902 8.215,128.619 C8.498,128.336 8.66,127.992 8.66,127.587 C8.66,127.324 8.599,127.081 8.498,126.859 C8.316,126.454 7.932,125.908 7.325,125.22 C6.738,124.512 6.374,123.986 6.192,123.642 C6.03,123.298 5.949,122.954 5.949,122.59 C5.949,121.963 6.171,121.416 6.637,120.971 C7.102,120.547 7.709,120.324 8.437,120.324 C8.64,120.324 8.842,120.324 9.004,120.364 C9.105,120.385 9.307,120.466 9.651,120.587 C9.995,120.708 10.218,120.789 10.339,120.789 C10.622,120.789 10.845,120.627 11.047,120.324 z" fill="#000000"/>
    <path d="M250.234,141.606 L248.841,146.47 C249.46,145.32 249.99,144.458 250.433,143.883 C251.118,142.999 251.781,142.335 252.422,141.937 C252.82,141.716 253.218,141.606 253.638,141.606 C253.992,141.606 254.28,141.716 254.523,141.937 C254.766,142.181 254.877,142.468 254.877,142.822 C254.877,143.176 254.81,143.64 254.633,144.215 L253.86,146.956 C255.031,144.767 256.159,143.22 257.198,142.335 C257.795,141.849 258.37,141.606 258.923,141.606 C259.254,141.606 259.542,141.716 259.741,141.937 C259.962,142.158 260.073,142.512 260.073,142.999 C260.073,143.397 260.006,143.839 259.874,144.325 L258.68,148.526 C258.414,149.433 258.304,149.941 258.304,150.03 C258.304,150.14 258.326,150.229 258.392,150.295 C258.436,150.339 258.503,150.383 258.569,150.383 C258.635,150.383 258.768,150.295 258.945,150.162 C259.343,149.853 259.741,149.433 260.095,148.924 L260.448,149.145 C260.272,149.433 259.962,149.831 259.498,150.339 C259.033,150.826 258.658,151.179 258.326,151.356 C257.994,151.533 257.707,151.622 257.419,151.622 C257.176,151.622 256.977,151.533 256.8,151.356 C256.623,151.202 256.535,150.98 256.535,150.737 C256.535,150.383 256.69,149.698 256.977,148.637 L257.972,145.188 C258.193,144.392 258.304,143.949 258.326,143.861 C258.348,143.706 258.348,143.574 258.348,143.463 C258.348,143.264 258.326,143.131 258.237,143.043 C258.149,142.932 258.061,142.888 257.95,142.888 C257.64,142.888 257.331,143.043 256.977,143.352 C256.004,144.259 255.076,145.541 254.191,147.2 C253.638,148.283 253.108,149.676 252.599,151.356 L250.985,151.356 L252.82,144.834 C253.019,144.126 253.13,143.662 253.13,143.419 C253.13,143.22 253.086,143.087 252.997,142.999 C252.931,142.888 252.82,142.844 252.71,142.844 C252.467,142.844 252.223,142.932 251.958,143.109 C251.516,143.397 250.963,143.994 250.278,144.922 C249.614,145.829 249.084,146.713 248.708,147.553 C248.531,147.951 248.089,149.212 247.426,151.356 L245.834,151.356 L247.824,144.369 L248.089,143.463 C248.133,143.33 248.155,143.22 248.155,143.153 C248.155,142.999 248.089,142.866 247.934,142.733 C247.801,142.601 247.602,142.556 247.381,142.556 C247.293,142.556 247.028,142.601 246.607,142.667 L246.519,142.269 z" fill="#000000"/>
    <path d="M272.919,142.269 L272.609,143.397 L270.818,143.397 C270.951,143.773 271.017,144.148 271.017,144.48 C271.017,145.431 270.619,146.271 269.801,147.023 C269.005,147.752 267.878,148.172 266.462,148.239 C265.711,148.482 265.136,148.747 264.738,149.057 C264.605,149.19 264.539,149.3 264.539,149.433 C264.539,149.565 264.605,149.698 264.716,149.809 C264.848,149.941 265.18,150.052 265.711,150.184 L267.811,150.671 C268.961,150.936 269.735,151.268 270.111,151.644 C270.464,152.02 270.641,152.462 270.641,152.948 C270.641,153.545 270.442,154.076 270,154.584 C269.558,155.071 268.917,155.447 268.099,155.734 C267.258,155.999 266.33,156.132 265.313,156.132 C264.406,156.132 263.61,156.044 262.858,155.823 C262.129,155.602 261.598,155.314 261.289,154.96 C260.979,154.607 260.824,154.231 260.824,153.855 C260.824,153.545 260.913,153.214 261.134,152.882 C261.333,152.55 261.576,152.285 261.886,152.064 C262.085,151.931 262.637,151.6 263.544,151.091 C263.212,150.826 263.057,150.538 263.057,150.229 C263.057,149.941 263.19,149.632 263.478,149.322 C263.787,148.991 264.406,148.637 265.335,148.239 C264.539,148.106 263.92,147.774 263.455,147.244 C262.991,146.735 262.77,146.183 262.77,145.541 C262.77,144.524 263.212,143.618 264.097,142.8 C265.003,142.004 266.197,141.606 267.678,141.606 C268.231,141.606 268.673,141.65 269.005,141.76 C269.359,141.871 269.691,142.026 270.022,142.269 z M269.182,143.972 C269.182,143.375 269.027,142.932 268.696,142.601 C268.386,142.269 267.966,142.114 267.435,142.114 C266.639,142.114 265.954,142.512 265.423,143.33 C264.893,144.148 264.627,144.989 264.627,145.873 C264.627,146.448 264.804,146.89 265.136,147.244 C265.49,147.598 265.888,147.774 266.374,147.774 C266.75,147.774 267.126,147.664 267.479,147.465 C267.833,147.244 268.143,146.956 268.386,146.603 C268.629,146.227 268.828,145.762 268.961,145.188 C269.116,144.613 269.182,144.215 269.182,143.972 z M264.008,151.356 C263.433,151.644 262.991,151.975 262.682,152.396 C262.394,152.816 262.239,153.214 262.239,153.634 C262.239,154.098 262.46,154.496 262.881,154.806 C263.5,155.248 264.406,155.469 265.6,155.469 C266.639,155.469 267.524,155.292 268.253,154.938 C268.983,154.607 269.337,154.142 269.337,153.589 C269.337,153.302 269.204,153.037 268.939,152.793 C268.673,152.55 268.143,152.329 267.369,152.174 C266.949,152.086 265.821,151.821 264.008,151.356 z" fill="#000000"/>
    <path d="M17.985,19.38 L29.107,19.38 L27.913,23.272 L27.493,23.272 C27.625,22.697 27.692,22.21 27.692,21.746 C27.692,21.238 27.537,20.84 27.205,20.574 C26.962,20.353 26.343,20.265 25.326,20.265 L24.176,20.265 L21.28,30.347 C20.904,31.607 20.727,32.403 20.727,32.691 C20.727,32.956 20.838,33.177 21.081,33.354 C21.302,33.531 21.7,33.619 22.297,33.619 L22.783,33.619 L22.651,34.017 L16.283,34.017 L16.416,33.619 L16.681,33.619 C17.256,33.619 17.676,33.531 17.985,33.354 C18.184,33.243 18.383,33.022 18.56,32.691 C18.715,32.381 18.958,31.696 19.268,30.657 L22.297,20.265 L21.412,20.265 C20.572,20.265 19.887,20.375 19.378,20.596 C18.87,20.795 18.45,21.127 18.14,21.525 C17.809,21.945 17.565,22.52 17.366,23.272 L16.968,23.272 z" fill="#000000"/>
    <path d="M33.058,28.738 L30.801,36.6 C30.672,37.059 30.6,37.404 30.6,37.606 C30.6,37.778 30.658,37.907 30.787,37.994 C30.902,38.094 31.175,38.152 31.62,38.18 L31.549,38.439 L27.941,38.439 L28.027,38.18 C28.416,38.18 28.674,38.152 28.789,38.094 C28.99,38.008 29.134,37.893 29.235,37.764 C29.393,37.548 29.551,37.16 29.709,36.6 L31.333,30.951 C31.434,30.606 31.477,30.42 31.491,30.362 C31.505,30.262 31.52,30.175 31.52,30.089 C31.52,29.931 31.462,29.802 31.376,29.701 C31.29,29.615 31.175,29.557 31.017,29.557 C30.887,29.557 30.701,29.586 30.442,29.644 L30.356,29.399 L32.727,28.738 z" fill="#000000"/>
    <path d="M344.497,0.373 L355.618,0.373 L354.424,4.264 L354.004,4.264 C354.137,3.689 354.203,3.203 354.203,2.739 C354.203,2.23 354.048,1.832 353.717,1.567 C353.474,1.346 352.854,1.257 351.837,1.257 L350.688,1.257 L347.791,11.34 C347.415,12.6 347.238,13.396 347.238,13.683 C347.238,13.949 347.349,14.17 347.592,14.347 C347.813,14.523 348.211,14.612 348.808,14.612 L349.295,14.612 L349.162,15.01 L342.794,15.01 L342.927,14.612 L343.192,14.612 C343.767,14.612 344.187,14.523 344.497,14.347 C344.696,14.236 344.895,14.015 345.072,13.683 C345.226,13.374 345.47,12.688 345.779,11.649 L348.808,1.257 L347.924,1.257 C347.084,1.257 346.398,1.368 345.89,1.589 C345.381,1.788 344.961,2.12 344.652,2.518 C344.32,2.938 344.077,3.513 343.878,4.264 L343.48,4.264 z" fill="#000000"/>
    <path d="M358.534,19.432 L353.792,19.432 L353.792,19.173 C356.206,17.061 357.801,15.408 358.577,14.201 C358.937,13.654 359.124,13.065 359.124,12.447 C359.124,11.959 358.966,11.571 358.664,11.254 C358.376,10.953 357.988,10.794 357.5,10.794 C356.853,10.794 356.307,11.111 355.876,11.743 L355.631,11.642 C355.876,11.039 356.22,10.564 356.68,10.234 C357.14,9.889 357.629,9.731 358.161,9.731 C358.764,9.731 359.282,9.932 359.684,10.349 C360.101,10.766 360.302,11.269 360.302,11.858 C360.302,12.26 360.23,12.648 360.087,12.993 C359.857,13.539 359.454,14.157 358.851,14.833 C357.931,15.868 356.709,17.075 355.171,18.426 L357.557,18.426 C357.945,18.426 358.261,18.34 358.506,18.182 C358.764,18.023 358.937,17.808 359.037,17.549 L359.325,17.549 z" fill="#000000"/>
    <path d="M258.351,51.858 L368.902,51.858 M258.351,56.024 L258.351,47.694 M368.902,56.024 L368.902,47.694 M258.351,51.858 L368.902,51.858 M258.351,56.024 L258.351,47.694 M368.902,56.024 L368.902,47.694 M350.477,116.346 L368.902,116.346 M350.477,120.512 L350.477,112.182 M368.902,120.512 L368.902,112.182 M368.902,116.346 L350.477,116.346" fill-opacity="0" stroke="#000000" stroke-width="0.4"/>
    <path d="M368.902,112.182 L368.902,120.512 M350.477,112.182 L350.477,120.512" fill-opacity="0" stroke="#000000" stroke-width="0.4"/>
  </g>
  <defs/>
</svg>
