<?xml version="1.0" encoding="UTF-8"?>
<!DOCTYPE svg PUBLIC "-//W3C//DTD SVG 1.1//EN" "http://www.w3.org/Graphics/SVG/1.1/DTD/svg11.dtd">
<svg version="1.1" xmlns="http://www.w3.org/2000/svg" xmlns:xlink="http://www.w3.org/1999/xlink" x="0px" y="0px" width="410.793" height="249.449" viewBox="0, 0, 410.793, 249.449">
  <g id="Layer 1">
    <path d="M250.5,168.5 L160.265,8.5" fill-opacity="0" stroke="#000000" stroke-width="1"/>
    <path d="M169.328,168.5 L79.093,8.5" fill-opacity="0" stroke="#000000" stroke-width="1"/>
    <path d="M330.5,168.5 L240.265,8.5" fill-opacity="0" stroke="#000000" stroke-width="1"/>
    <text transform="matrix(1, 0, 0, 1, 92.477, 57.958)">
      <tspan x="-5.412" y="6.5" font-family="TimesNewRomanPS-ItalicMT" font-size="20" fill="#000000">θ </tspan>
    </text>
    <g>
      <path d="M60.5,8.515 L60.5,168.5" fill-opacity="0" stroke="#000000" stroke-width="1"/>
      <g>
        <path d="M60.5,11.515 L64.5,15.515 L60.5,1.515 L56.5,15.515 L60.5,11.515 z" fill="#000000"/>
        <path d="M60.5,11.515 L64.5,15.515 L60.5,1.515 L56.5,15.515 L60.5,11.515 z" fill-opacity="0" stroke="#000000" stroke-width="1"/>
      </g>
      <g>
        <path d="M60.5,165.5 L56.5,161.5 L60.5,175.5 L64.5,161.5 L60.5,165.5 z" fill="#000000"/>
        <path d="M60.5,165.5 L56.5,161.5 L60.5,175.5 L64.5,161.5 L60.5,165.5 z" fill-opacity="0" stroke="#000000" stroke-width="1"/>
      </g>
    </g>
    <text transform="matrix(1, 0, 0, 1, 24.921, 86.8)">
      <tspan x="-21.521" y="6.5" font-family="TimesNewRomanPS-ItalicMT" font-size="20" fill="#000000">lcos</tspan>
      <tspan x="10.696" y="6.5" font-family="TimesNewRomanPS-ItalicMT" font-size="20" fill="#000000">θ </tspan>
    </text>
    <g>
      <path d="M90.5,168.5 L410.5,168.5 L410.5,228.5 L90.5,228.5 z" fill="#636363"/>
      <path d="M90.5,168.5 L410.5,168.5 L410.5,228.5 L90.5,228.5 z" fill-opacity="0" stroke="#000000" stroke-width="0.586"/>
    </g>
    <path d="M0.5,188.5 L320.5,188.5 L320.5,248.5 L0.5,248.5 z" fill-opacity="0" stroke="#000000" stroke-width="1" stroke-dasharray="3,3"/>
    <path d="M160.5,188.5 L160.5,8.5" fill-opacity="0" stroke="#000000" stroke-width="1" stroke-dasharray="3,3"/>
    <path d="M80.5,188.5 L80.5,8.5" fill-opacity="0" stroke="#000000" stroke-width="1" stroke-dasharray="3,3"/>
    <path d="M240.5,188.5 L240.5,8.5" fill-opacity="0" stroke="#000000" stroke-width="1" stroke-dasharray="3,3"/>
  </g>
  <defs/>
</svg>
