<?xml version="1.0" encoding="UTF-8"?>
<!DOCTYPE svg PUBLIC "-//W3C//DTD SVG 1.1//EN" "http://www.w3.org/Graphics/SVG/1.1/DTD/svg11.dtd">
<svg version="1.1" xmlns="http://www.w3.org/2000/svg" xmlns:xlink="http://www.w3.org/1999/xlink" x="0px" y="0px" width="185.102" height="255.118" viewBox="0, 0, 185.102, 255.118">
  <g id="Layer 1">
    <path d="M110.966,19.275 C110.966,29.493 102.68,37.761 92.48,37.761 C82.262,37.761 73.994,29.493 73.994,19.275 C73.994,9.075 82.262,0.789 92.48,0.789 C102.68,0.789 110.966,9.075 110.966,19.275 z" fill-opacity="0" stroke="#000000" stroke-width="0.16" stroke-linecap="square"/>
    <path d="M0.051,130.19 L184.909,130.19" fill-opacity="0" stroke="#000000" stroke-width="0.2" stroke-dasharray="0.2,0.2"/>
    <path d="M110.966,19.275 L110.966,241.105" fill-opacity="0" stroke="#000000" stroke-width="0.6"/>
    <path d="M81.375,22.977 C81.375,27.053 78.075,30.376 73.994,30.376 C69.895,30.376 66.591,27.053 66.591,22.977 C66.591,18.896 69.895,15.592 73.994,15.592 C78.075,15.592 81.375,18.896 81.375,22.977" fill="#000000"/>
    <path d="M125.75,241.105 C125.75,249.28 119.123,255.907 110.966,255.907 C102.786,255.907 96.163,249.28 96.163,241.105 C96.163,232.943 102.786,226.321 110.966,226.321 C119.123,226.321 125.75,232.943 125.75,241.105" fill="#000000"/>
    <path d="M53.991,1.822 L52.127,8.329 C52.956,6.791 53.665,5.637 54.257,4.868 C55.174,3.685 56.061,2.798 56.919,2.265 C57.451,1.97 57.984,1.822 58.546,1.822 C59.019,1.822 59.403,1.97 59.729,2.265 C60.054,2.591 60.202,2.975 60.202,3.449 C60.202,3.922 60.113,4.543 59.877,5.312 L58.841,8.98 C60.409,6.051 61.917,3.981 63.308,2.798 C64.106,2.147 64.875,1.822 65.615,1.822 C66.058,1.822 66.443,1.97 66.709,2.265 C67.005,2.561 67.153,3.034 67.153,3.685 C67.153,4.218 67.064,4.809 66.886,5.46 L65.289,11.08 C64.934,12.292 64.786,12.972 64.786,13.091 C64.786,13.239 64.816,13.357 64.905,13.446 C64.964,13.505 65.053,13.564 65.141,13.564 C65.23,13.564 65.408,13.446 65.644,13.268 C66.177,12.854 66.709,12.292 67.182,11.612 L67.655,11.908 C67.419,12.292 67.005,12.825 66.384,13.505 C65.763,14.156 65.26,14.629 64.816,14.865 C64.372,15.102 63.988,15.22 63.603,15.22 C63.278,15.22 63.012,15.102 62.775,14.865 C62.539,14.658 62.42,14.363 62.42,14.037 C62.42,13.564 62.627,12.647 63.012,11.227 L64.343,6.613 C64.639,5.549 64.786,4.957 64.816,4.839 C64.846,4.632 64.846,4.454 64.846,4.306 C64.846,4.04 64.816,3.863 64.698,3.744 C64.579,3.596 64.461,3.537 64.313,3.537 C63.899,3.537 63.485,3.744 63.012,4.158 C61.71,5.371 60.468,7.087 59.285,9.305 C58.546,10.754 57.836,12.618 57.156,14.865 L54.996,14.865 L57.451,6.14 C57.718,5.194 57.865,4.573 57.865,4.247 C57.865,3.981 57.806,3.803 57.688,3.685 C57.599,3.537 57.451,3.478 57.303,3.478 C56.978,3.478 56.653,3.596 56.298,3.833 C55.706,4.218 54.967,5.016 54.05,6.258 C53.163,7.471 52.453,8.654 51.95,9.778 C51.713,10.31 51.122,11.996 50.234,14.865 L48.105,14.865 L50.767,5.519 L51.122,4.306 C51.181,4.129 51.21,3.981 51.21,3.892 C51.21,3.685 51.122,3.508 50.915,3.33 C50.737,3.153 50.471,3.094 50.175,3.094 C50.057,3.094 49.702,3.153 49.14,3.242 L49.022,2.709 z" fill="#000000"/>
    <path d="M62.107,237.482 L62.107,237.068 C64.443,236.683 66.188,236.003 67.342,234.968 C68.17,234.228 68.584,233.37 68.584,232.365 C68.584,231.596 68.318,230.975 67.845,230.472 C67.372,229.969 66.78,229.732 66.1,229.732 C65.035,229.732 64.059,230.413 63.231,231.744 L62.698,231.566 C63.201,230.472 63.852,229.614 64.621,229.052 C65.419,228.461 66.277,228.194 67.194,228.194 C68.348,228.194 69.264,228.52 69.945,229.2 C70.655,229.88 71.01,230.738 71.01,231.773 C71.01,232.661 70.684,233.518 70.033,234.346 C69.353,235.145 68.229,235.884 66.632,236.535 C67.638,236.949 68.377,237.541 68.88,238.31 C69.412,239.079 69.649,240.025 69.649,241.12 C69.649,242.303 69.294,243.515 68.614,244.728 C67.934,245.941 66.957,246.858 65.774,247.538 C64.562,248.189 63.29,248.514 61.959,248.514 C60.746,248.514 59.829,248.307 59.208,247.893 C58.794,247.597 58.587,247.272 58.587,246.887 C58.587,246.532 58.705,246.237 58.942,246 C59.179,245.763 59.504,245.645 59.859,245.645 C60.096,245.645 60.362,245.675 60.598,245.763 C60.746,245.822 61.131,246 61.722,246.325 C62.343,246.68 62.817,246.887 63.142,247.006 C63.467,247.124 63.822,247.183 64.177,247.183 C65.035,247.183 65.774,246.68 66.336,245.675 C66.898,244.669 67.164,243.604 67.164,242.451 C67.164,241.534 66.987,240.706 66.603,239.996 C66.218,239.256 65.626,238.665 64.798,238.221 C63.97,237.777 63.083,237.541 62.107,237.482 z" fill="#000000"/>
    <path d="M78.788,235.115 L76.925,241.622 C77.753,240.084 78.463,238.931 79.055,238.162 C79.971,236.979 80.859,236.092 81.717,235.559 C82.249,235.263 82.781,235.115 83.343,235.115 C83.817,235.115 84.201,235.263 84.526,235.559 C84.852,235.884 85,236.269 85,236.742 C85,237.215 84.911,237.837 84.674,238.606 L83.639,242.273 C85.207,239.345 86.715,237.275 88.105,236.092 C88.904,235.441 89.673,235.115 90.412,235.115 C90.856,235.115 91.24,235.263 91.507,235.559 C91.802,235.855 91.95,236.328 91.95,236.979 C91.95,237.511 91.862,238.103 91.684,238.753 L90.087,244.373 C89.732,245.586 89.584,246.266 89.584,246.384 C89.584,246.532 89.614,246.651 89.702,246.739 C89.762,246.799 89.85,246.858 89.939,246.858 C90.028,246.858 90.205,246.739 90.442,246.562 C90.974,246.148 91.507,245.586 91.98,244.906 L92.453,245.201 C92.216,245.586 91.802,246.118 91.181,246.799 C90.56,247.449 90.057,247.922 89.614,248.159 C89.17,248.396 88.785,248.514 88.401,248.514 C88.076,248.514 87.809,248.396 87.573,248.159 C87.336,247.952 87.218,247.656 87.218,247.331 C87.218,246.858 87.425,245.941 87.809,244.521 L89.14,239.907 C89.436,238.842 89.584,238.251 89.614,238.132 C89.643,237.925 89.643,237.748 89.643,237.6 C89.643,237.334 89.614,237.156 89.495,237.038 C89.377,236.89 89.259,236.831 89.111,236.831 C88.697,236.831 88.283,237.038 87.809,237.452 C86.508,238.665 85.266,240.38 84.083,242.599 C83.343,244.048 82.633,245.911 81.953,248.159 L79.794,248.159 L82.249,239.434 C82.515,238.487 82.663,237.866 82.663,237.541 C82.663,237.275 82.604,237.097 82.486,236.979 C82.397,236.831 82.249,236.772 82.101,236.772 C81.776,236.772 81.45,236.89 81.095,237.127 C80.504,237.511 79.764,238.31 78.848,239.552 C77.96,240.765 77.25,241.948 76.748,243.072 C76.511,243.604 75.919,245.29 75.032,248.159 L72.902,248.159 L75.564,238.813 L75.919,237.6 C75.979,237.423 76.008,237.275 76.008,237.186 C76.008,236.979 75.919,236.801 75.712,236.624 C75.535,236.446 75.269,236.387 74.973,236.387 C74.855,236.387 74.5,236.446 73.938,236.535 L73.819,236.003 z" fill="#000000"/>
    <path d="M37.023,129.737 L37.023,19.275" fill-opacity="0" stroke="#000000" stroke-width="0.2"/>
    <path d="M41.191,129.737 L32.836,129.737 M41.191,19.275 L32.836,19.275" fill-opacity="0" stroke="#000000" stroke-width="0.2"/>
    <path d="M32.402,69.089 L29.592,78.88 L29.267,80.181 C29.237,80.299 29.208,80.418 29.208,80.506 C29.208,80.654 29.267,80.802 29.356,80.92 C29.444,80.98 29.533,81.039 29.651,81.039 C29.77,81.039 29.947,80.95 30.154,80.802 C30.509,80.536 31.012,79.944 31.633,79.057 L32.136,79.412 C31.456,80.418 30.775,81.187 30.095,81.719 C29.385,82.222 28.735,82.488 28.143,82.488 C27.729,82.488 27.404,82.399 27.196,82.192 C26.989,81.985 26.901,81.689 26.901,81.275 C26.901,80.802 26.989,80.181 27.196,79.412 L27.522,78.347 C26.25,79.974 25.097,81.127 24.032,81.778 C23.263,82.251 22.523,82.488 21.784,82.488 C21.104,82.488 20.482,82.192 19.98,81.63 C19.477,81.039 19.211,80.24 19.211,79.205 C19.211,77.696 19.654,76.07 20.601,74.384 C21.518,72.668 22.671,71.308 24.091,70.302 C25.185,69.474 26.25,69.089 27.226,69.089 C27.818,69.089 28.291,69.237 28.675,69.533 C29.089,69.858 29.385,70.361 29.592,71.071 L30.095,69.415 z M27.256,69.829 C26.635,69.829 25.984,70.125 25.304,70.687 C24.298,71.515 23.44,72.727 22.671,74.325 C21.902,75.951 21.518,77.401 21.518,78.702 C21.518,79.353 21.695,79.856 22.02,80.24 C22.346,80.625 22.701,80.832 23.144,80.832 C24.18,80.832 25.333,80.033 26.546,78.495 C28.202,76.425 29.03,74.325 29.03,72.166 C29.03,71.337 28.882,70.746 28.557,70.391 C28.232,70.006 27.788,69.829 27.256,69.829 z" fill="#000000"/>
    <path d="M73.994,19.275 C73.994,9.075 82.262,0.789 92.48,0.789 C102.68,0.789 110.966,9.075 110.966,19.275" fill-opacity="0" stroke="#000000" stroke-width="0.6" stroke-linecap="square"/>
    <path d="M140.534,240.652 L140.534,130.19" fill-opacity="0" stroke="#000000" stroke-width="0.2"/>
    <path d="M144.721,240.652 L136.365,240.652 M144.721,130.19 L136.365,130.19" fill-opacity="0" stroke="#000000" stroke-width="0.2"/>
    <path d="M159.016,179.658 L156.206,189.448 L155.88,190.749 C155.851,190.868 155.821,190.986 155.821,191.075 C155.821,191.222 155.88,191.37 155.969,191.489 C156.058,191.548 156.147,191.607 156.265,191.607 C156.383,191.607 156.561,191.518 156.768,191.37 C157.123,191.104 157.625,190.513 158.247,189.625 L158.749,189.98 C158.069,190.986 157.389,191.755 156.709,192.287 C155.999,192.79 155.348,193.056 154.756,193.056 C154.342,193.056 154.017,192.968 153.81,192.76 C153.603,192.553 153.514,192.258 153.514,191.844 C153.514,191.37 153.603,190.749 153.81,189.98 L154.135,188.915 C152.864,190.542 151.71,191.696 150.645,192.346 C149.876,192.82 149.137,193.056 148.397,193.056 C147.717,193.056 147.096,192.76 146.593,192.199 C146.09,191.607 145.824,190.808 145.824,189.773 C145.824,188.265 146.268,186.638 147.214,184.952 C148.131,183.237 149.285,181.876 150.704,180.87 C151.799,180.042 152.864,179.658 153.84,179.658 C154.431,179.658 154.904,179.806 155.289,180.101 C155.703,180.427 155.999,180.93 156.206,181.639 L156.709,179.983 z M153.869,180.397 C153.248,180.397 152.597,180.693 151.917,181.255 C150.911,182.083 150.054,183.296 149.285,184.893 C148.516,186.52 148.131,187.969 148.131,189.27 C148.131,189.921 148.309,190.424 148.634,190.808 C148.959,191.193 149.314,191.4 149.758,191.4 C150.793,191.4 151.947,190.601 153.159,189.063 C154.816,186.993 155.644,184.893 155.644,182.734 C155.644,181.906 155.496,181.314 155.171,180.959 C154.845,180.575 154.402,180.397 153.869,180.397 z" fill="#000000"/>
    <path d="M122.048,74.732 L122.048,111.704" fill-opacity="0" stroke="#000000" stroke-width="0.4"/>
    <path d="M122.048,93.218 L118.346,89.535 L122.048,102.461 L125.75,89.535" fill="#000000"/>
    <path d="M122.048,93.218 L118.346,89.535 L122.048,102.461 L125.75,89.535 z" fill-opacity="0" stroke="#000000" stroke-width="0.2"/>
    <path d="M129.431,88.116 L133.601,87.229 C133.897,87.939 134.134,88.648 134.341,89.388 C134.577,90.482 134.784,91.784 134.962,93.262 C135.051,94.031 135.139,95.599 135.287,98.024 C136.47,96.693 137.21,95.895 137.417,95.569 C138.689,93.854 139.428,92.819 139.635,92.523 C139.931,92.02 140.167,91.577 140.286,91.192 C140.404,90.896 140.463,90.63 140.463,90.364 C140.463,90.127 140.227,89.831 139.783,89.506 C139.339,89.181 139.103,88.796 139.103,88.412 C139.103,88.086 139.221,87.82 139.487,87.584 C139.724,87.347 140.02,87.229 140.345,87.229 C140.759,87.229 141.114,87.377 141.41,87.702 C141.735,88.057 141.883,88.471 141.883,88.944 C141.883,89.447 141.794,89.92 141.646,90.364 C141.41,91.103 140.936,91.991 140.256,93.055 C139.576,94.091 138.452,95.51 136.944,97.285 C136.737,97.492 135.672,98.616 133.72,100.627 L133.187,100.627 C132.98,94.534 132.477,90.748 131.768,89.21 C131.501,88.737 131.117,88.5 130.555,88.5 C130.318,88.5 129.963,88.53 129.52,88.619 z" fill="#000000"/>
  </g>
  <defs/>
</svg>
