<?xml version="1.0" encoding="UTF-8"?>
<!DOCTYPE svg PUBLIC "-//W3C//DTD SVG 1.1//EN" "http://www.w3.org/Graphics/SVG/1.1/DTD/svg11.dtd">
<svg version="1.1" xmlns="http://www.w3.org/2000/svg" xmlns:xlink="http://www.w3.org/1999/xlink" x="0px" y="0px" width="350" height="212" viewBox="0, 0, 350, 212">
  <g id="Layer 1">
    <path d="M13.016,160.415 L45.016,160.415 L45.016,176.415 L13.016,176.415 z" fill="#000000"/>
    <path d="M13.016,160.414 L45.016,160.414 L45.016,176.414 L13.016,176.414 z" fill-opacity="0" stroke="#000000" stroke-width="0.8"/>
    <path d="M93.016,144.415 L349.016,144.415 L349.016,192.415 L93.016,192.415 z" fill="#767676"/>
    <path d="M93.016,144.414 L349.016,144.414 L349.016,192.414 L93.016,192.414 z" fill-opacity="0" stroke="#000000" stroke-width="0.468"/>
    <path d="M221.016,144.414 L221.016,0.414 M157.016,144.414 L157.016,0.414 M285.016,144.414 L285.016,0.414" fill-opacity="0" stroke="#000000" stroke-width="0.8"/>
    <path d="M297.769,67.712 L295.097,77.008 C294.969,77.472 294.905,77.76 294.905,77.856 C294.905,77.936 294.921,78 294.969,78.064 C295.017,78.112 295.081,78.144 295.161,78.144 C295.257,78.144 295.369,78.096 295.481,78 C295.753,77.792 296.025,77.456 296.329,77.008 L296.569,77.248 C296.073,77.952 295.609,78.432 295.193,78.72 C294.889,78.912 294.601,79.008 294.329,79.008 C294.121,79.008 293.961,78.944 293.833,78.816 C293.689,78.672 293.625,78.512 293.625,78.336 C293.625,78.16 293.705,77.76 293.881,77.184 L295.993,69.856 C296.169,69.264 296.249,68.912 296.249,68.816 C296.249,68.704 296.201,68.592 296.105,68.512 C296.009,68.432 295.849,68.4 295.641,68.4 C295.529,68.4 295.337,68.416 295.097,68.448 L295.097,68.16 z" fill="#000000"/>
    <path d="M299.001,71.92 L307.433,71.92 L307.433,72.56 L299.001,72.56 z M299.001,74.48 L307.433,74.48 L307.433,75.12 L299.001,75.12 z" fill="#000000"/>
    <path d="M310.665,73.04 L310.665,72.816 C311.929,72.608 312.873,72.24 313.497,71.68 C313.945,71.28 314.169,70.816 314.169,70.272 C314.169,69.856 314.025,69.52 313.769,69.248 C313.513,68.976 313.193,68.848 312.825,68.848 C312.249,68.848 311.721,69.216 311.273,69.936 L310.985,69.84 C311.257,69.248 311.609,68.784 312.025,68.48 C312.457,68.16 312.921,68.016 313.417,68.016 C314.041,68.016 314.537,68.192 314.905,68.56 C315.289,68.928 315.481,69.392 315.481,69.952 C315.481,70.432 315.305,70.896 314.953,71.344 C314.585,71.776 313.977,72.176 313.113,72.528 C313.657,72.752 314.057,73.072 314.329,73.488 C314.617,73.904 314.745,74.416 314.745,75.008 C314.745,75.648 314.553,76.304 314.185,76.96 C313.817,77.616 313.289,78.112 312.649,78.48 C311.993,78.832 311.305,79.008 310.585,79.008 C309.929,79.008 309.433,78.896 309.097,78.672 C308.873,78.512 308.761,78.336 308.761,78.128 C308.761,77.936 308.825,77.776 308.953,77.648 C309.081,77.52 309.257,77.456 309.449,77.456 C309.577,77.456 309.721,77.472 309.849,77.52 C309.929,77.552 310.137,77.648 310.457,77.824 C310.793,78.016 311.049,78.128 311.225,78.192 C311.401,78.256 311.593,78.288 311.785,78.288 C312.249,78.288 312.649,78.016 312.953,77.472 C313.257,76.928 313.401,76.352 313.401,75.728 C313.401,75.232 313.305,74.784 313.097,74.4 C312.889,74 312.569,73.68 312.121,73.44 C311.673,73.2 311.193,73.072 310.665,73.04 z" fill="#000000"/>
    <path d="M323.689,71.76 L322.681,75.28 C323.129,74.448 323.513,73.824 323.833,73.408 C324.329,72.768 324.809,72.288 325.273,72 C325.561,71.84 325.849,71.76 326.153,71.76 C326.409,71.76 326.617,71.84 326.793,72 C326.969,72.176 327.049,72.384 327.049,72.64 C327.049,72.896 327.001,73.232 326.873,73.648 L326.313,75.632 C327.161,74.048 327.977,72.928 328.729,72.288 C329.161,71.936 329.577,71.76 329.977,71.76 C330.217,71.76 330.425,71.84 330.569,72 C330.729,72.16 330.809,72.416 330.809,72.768 C330.809,73.056 330.761,73.376 330.665,73.728 L329.801,76.768 C329.609,77.424 329.529,77.792 329.529,77.856 C329.529,77.936 329.545,78 329.593,78.048 C329.625,78.08 329.673,78.112 329.721,78.112 C329.769,78.112 329.865,78.048 329.993,77.952 C330.281,77.728 330.569,77.424 330.825,77.056 L331.081,77.216 C330.953,77.424 330.729,77.712 330.393,78.08 C330.057,78.432 329.785,78.688 329.545,78.816 C329.305,78.944 329.097,79.008 328.889,79.008 C328.713,79.008 328.569,78.944 328.441,78.816 C328.313,78.704 328.249,78.544 328.249,78.368 C328.249,78.112 328.361,77.616 328.569,76.848 L329.289,74.352 C329.449,73.776 329.529,73.456 329.545,73.392 C329.561,73.28 329.561,73.184 329.561,73.104 C329.561,72.96 329.545,72.864 329.481,72.8 C329.417,72.72 329.353,72.688 329.273,72.688 C329.049,72.688 328.825,72.8 328.569,73.024 C327.865,73.68 327.193,74.608 326.553,75.808 C326.153,76.592 325.769,77.6 325.401,78.816 L324.233,78.816 L325.561,74.096 C325.705,73.584 325.785,73.248 325.785,73.072 C325.785,72.928 325.753,72.832 325.689,72.768 C325.641,72.688 325.561,72.656 325.481,72.656 C325.305,72.656 325.129,72.72 324.937,72.848 C324.617,73.056 324.217,73.488 323.721,74.16 C323.241,74.816 322.857,75.456 322.585,76.064 C322.457,76.352 322.137,77.264 321.657,78.816 L320.505,78.816 L321.945,73.76 L322.137,73.104 C322.169,73.008 322.185,72.928 322.185,72.88 C322.185,72.768 322.137,72.672 322.025,72.576 C321.929,72.48 321.785,72.448 321.625,72.448 C321.561,72.448 321.369,72.48 321.065,72.528 L321.001,72.24 z" fill="#000000"/>
    <path d="M13.016,144.414 L45.016,144.414" fill-opacity="0" stroke="#000000" stroke-width="0.8"/>
    <path d="M36.465,140.868 L46.078,144.403 L36.465,147.938 C38,145.852 37.992,142.993 36.465,140.868" fill="#000000"/>
    <path d="M7.051,129.307 L5.691,133.964 C5.499,134.667 5.387,135.1 5.387,135.275 C5.387,135.372 5.403,135.451 5.435,135.484 C5.467,135.531 5.515,135.548 5.579,135.548 C5.659,135.548 5.771,135.516 5.867,135.436 C5.979,135.355 6.251,135.036 6.683,134.475 L6.907,134.652 C6.507,135.307 6.075,135.771 5.643,136.092 C5.355,136.283 5.083,136.38 4.827,136.38 C4.619,136.38 4.459,136.331 4.347,136.204 C4.235,136.092 4.171,135.947 4.171,135.771 C4.171,135.596 4.203,135.355 4.267,135.068 C4.363,134.684 4.587,133.835 4.987,132.54 C4.091,133.995 3.355,135.003 2.763,135.548 C2.171,136.107 1.611,136.38 1.099,136.38 C0.859,136.38 0.651,136.299 0.491,136.139 C0.331,135.964 0.235,135.755 0.235,135.499 C0.235,135.115 0.363,134.508 0.587,133.708 L1.259,131.292 C1.435,130.715 1.515,130.348 1.515,130.204 C1.515,130.156 1.499,130.092 1.451,130.044 C1.403,130.012 1.355,129.98 1.307,129.98 C1.195,129.98 1.083,130.027 0.971,130.107 C0.859,130.188 0.619,130.475 0.235,130.971 L-0.005,130.796 C0.379,130.188 0.795,129.755 1.227,129.467 C1.563,129.243 1.867,129.132 2.155,129.132 C2.347,129.132 2.507,129.18 2.635,129.307 C2.747,129.436 2.811,129.596 2.811,129.788 C2.811,130.059 2.715,130.572 2.507,131.292 L1.771,133.82 C1.563,134.508 1.467,134.939 1.467,135.115 C1.467,135.212 1.499,135.292 1.563,135.355 C1.627,135.419 1.707,135.451 1.819,135.451 C1.995,135.451 2.219,135.355 2.491,135.195 C2.763,135.02 3.131,134.635 3.595,134.044 C4.059,133.451 4.443,132.891 4.731,132.38 C5.035,131.867 5.355,131.036 5.691,129.9 L5.867,129.307 z" fill="#000000"/>
    <path d="M9.083,129.292 L17.515,129.292 L17.515,129.932 L9.083,129.932 z M9.083,131.852 L17.515,131.852 L17.515,132.492 L9.083,132.492 z" fill="#000000"/>
    <path d="M20.747,130.411 L20.747,130.188 C22.011,129.98 22.955,129.611 23.579,129.051 C24.027,128.652 24.251,128.188 24.251,127.644 C24.251,127.228 24.107,126.892 23.851,126.619 C23.595,126.348 23.275,126.219 22.907,126.219 C22.331,126.219 21.803,126.588 21.355,127.308 L21.067,127.212 C21.339,126.619 21.691,126.156 22.107,125.852 C22.539,125.532 23.003,125.387 23.499,125.387 C24.123,125.387 24.619,125.563 24.987,125.932 C25.371,126.299 25.563,126.763 25.563,127.324 C25.563,127.803 25.387,128.268 25.035,128.715 C24.667,129.148 24.059,129.548 23.195,129.9 C23.739,130.124 24.139,130.443 24.411,130.859 C24.699,131.275 24.827,131.788 24.827,132.38 C24.827,133.02 24.635,133.676 24.267,134.331 C23.899,134.988 23.371,135.484 22.731,135.852 C22.075,136.204 21.387,136.38 20.667,136.38 C20.011,136.38 19.515,136.268 19.179,136.044 C18.955,135.883 18.843,135.708 18.843,135.499 C18.843,135.307 18.907,135.148 19.035,135.02 C19.163,134.891 19.339,134.827 19.531,134.827 C19.659,134.827 19.803,134.844 19.931,134.891 C20.011,134.923 20.219,135.02 20.539,135.195 C20.875,135.387 21.131,135.499 21.307,135.564 C21.483,135.628 21.675,135.66 21.867,135.66 C22.331,135.66 22.731,135.387 23.035,134.844 C23.339,134.299 23.483,133.723 23.483,133.1 C23.483,132.604 23.387,132.156 23.179,131.771 C22.971,131.372 22.651,131.051 22.203,130.811 C21.755,130.572 21.275,130.443 20.747,130.411 z" fill="#000000"/>
    <path d="M31.835,125.387 C32.507,125.387 33.067,125.66 33.515,126.219 C33.979,126.78 34.203,127.66 34.203,128.859 C34.203,129.883 34.043,130.939 33.691,132.012 C33.355,133.083 32.875,134.012 32.267,134.811 C31.771,135.419 31.259,135.867 30.731,136.156 C30.411,136.299 30.059,136.38 29.643,136.38 C28.971,136.38 28.395,136.107 27.947,135.548 C27.483,134.988 27.259,134.107 27.259,132.891 C27.259,131.708 27.483,130.508 27.947,129.307 C28.491,127.899 29.163,126.827 29.995,126.107 C30.555,125.628 31.163,125.387 31.835,125.387 z M31.851,125.787 C31.547,125.787 31.243,125.915 30.923,126.14 C30.619,126.38 30.299,126.876 29.963,127.628 C29.643,128.38 29.323,129.339 29.019,130.523 C28.635,132.076 28.427,133.387 28.427,134.475 C28.427,135.02 28.555,135.419 28.779,135.691 C29.019,135.964 29.307,136.092 29.643,136.092 C29.947,136.092 30.219,135.995 30.443,135.788 C31.051,135.212 31.563,134.251 31.979,132.891 C32.683,130.667 33.019,128.859 33.019,127.483 C33.019,126.892 32.907,126.476 32.667,126.203 C32.443,125.932 32.171,125.787 31.851,125.787 z" fill="#000000"/>
    <path d="M39.835,125.387 C40.507,125.387 41.067,125.66 41.515,126.219 C41.979,126.78 42.203,127.66 42.203,128.859 C42.203,129.883 42.043,130.939 41.691,132.012 C41.355,133.083 40.875,134.012 40.267,134.811 C39.771,135.419 39.259,135.867 38.731,136.156 C38.411,136.299 38.059,136.38 37.643,136.38 C36.971,136.38 36.395,136.107 35.947,135.548 C35.483,134.988 35.259,134.107 35.259,132.891 C35.259,131.708 35.483,130.508 35.947,129.307 C36.491,127.899 37.163,126.827 37.995,126.107 C38.555,125.628 39.163,125.387 39.835,125.387 z M39.851,125.787 C39.547,125.787 39.243,125.915 38.923,126.14 C38.619,126.38 38.299,126.876 37.963,127.628 C37.643,128.38 37.323,129.339 37.019,130.523 C36.635,132.076 36.427,133.387 36.427,134.475 C36.427,135.02 36.555,135.419 36.779,135.691 C37.019,135.964 37.307,136.092 37.643,136.092 C37.947,136.092 38.219,135.995 38.443,135.788 C39.051,135.212 39.563,134.251 39.979,132.891 C40.683,130.667 41.019,128.859 41.019,127.483 C41.019,126.892 40.907,126.476 40.667,126.203 C40.443,125.932 40.171,125.787 39.851,125.787 z" fill="#000000"/>
    <path d="M49.771,129.132 L48.763,132.652 C49.211,131.82 49.595,131.195 49.915,130.779 C50.411,130.139 50.891,129.66 51.355,129.372 C51.643,129.212 51.931,129.132 52.235,129.132 C52.491,129.132 52.699,129.212 52.875,129.372 C53.051,129.548 53.131,129.755 53.131,130.012 C53.131,130.268 53.083,130.604 52.955,131.02 L52.395,133.003 C53.243,131.419 54.059,130.299 54.811,129.66 C55.243,129.307 55.659,129.132 56.059,129.132 C56.299,129.132 56.507,129.212 56.651,129.372 C56.811,129.531 56.891,129.788 56.891,130.139 C56.891,130.428 56.843,130.747 56.747,131.1 L55.883,134.139 C55.691,134.796 55.611,135.163 55.611,135.227 C55.611,135.307 55.627,135.372 55.675,135.419 C55.707,135.451 55.755,135.484 55.803,135.484 C55.851,135.484 55.947,135.419 56.075,135.324 C56.363,135.1 56.651,134.796 56.907,134.428 L57.163,134.587 C57.035,134.796 56.811,135.083 56.475,135.451 C56.139,135.803 55.867,136.059 55.627,136.188 C55.387,136.316 55.179,136.38 54.971,136.38 C54.795,136.38 54.651,136.316 54.523,136.188 C54.395,136.076 54.331,135.915 54.331,135.74 C54.331,135.484 54.443,134.988 54.651,134.219 L55.371,131.723 C55.531,131.148 55.611,130.827 55.627,130.764 C55.643,130.652 55.643,130.555 55.643,130.475 C55.643,130.331 55.627,130.236 55.563,130.171 C55.499,130.092 55.435,130.059 55.355,130.059 C55.131,130.059 54.907,130.171 54.651,130.395 C53.947,131.051 53.275,131.98 52.635,133.18 C52.235,133.964 51.851,134.971 51.483,136.188 L50.315,136.188 L51.643,131.467 C51.787,130.956 51.867,130.62 51.867,130.443 C51.867,130.299 51.835,130.204 51.771,130.139 C51.723,130.059 51.643,130.027 51.563,130.027 C51.387,130.027 51.211,130.092 51.019,130.219 C50.699,130.428 50.299,130.859 49.803,131.531 C49.323,132.188 48.939,132.827 48.667,133.436 C48.539,133.723 48.219,134.635 47.739,136.188 L46.587,136.188 L48.027,131.132 L48.219,130.475 C48.251,130.38 48.267,130.299 48.267,130.251 C48.267,130.139 48.219,130.044 48.107,129.947 C48.011,129.852 47.867,129.82 47.707,129.82 C47.643,129.82 47.451,129.852 47.147,129.9 L47.083,129.611 z" fill="#000000"/>
    <path d="M63.659,129.132 L63.195,131.531 L62.891,131.531 C62.875,130.827 62.731,130.316 62.459,129.995 C62.187,129.676 61.851,129.531 61.451,129.531 C61.115,129.531 60.859,129.611 60.683,129.788 C60.491,129.964 60.395,130.188 60.395,130.428 C60.395,130.604 60.427,130.764 60.507,130.923 C60.587,131.083 60.747,131.292 61.003,131.579 C61.675,132.316 62.107,132.876 62.315,133.243 C62.507,133.628 62.603,133.98 62.603,134.316 C62.603,134.859 62.379,135.339 61.931,135.755 C61.483,136.171 60.907,136.38 60.219,136.38 C59.851,136.38 59.419,136.299 58.923,136.124 C58.763,136.059 58.619,136.027 58.523,136.027 C58.299,136.027 58.123,136.139 57.995,136.38 L57.707,136.38 L58.187,133.852 L58.475,133.852 C58.507,134.635 58.667,135.195 58.971,135.531 C59.259,135.867 59.675,136.027 60.187,136.027 C60.587,136.027 60.891,135.915 61.131,135.691 C61.355,135.467 61.483,135.195 61.483,134.876 C61.483,134.667 61.435,134.475 61.355,134.299 C61.211,133.98 60.907,133.548 60.427,133.003 C59.963,132.443 59.675,132.027 59.531,131.755 C59.403,131.484 59.339,131.212 59.339,130.923 C59.339,130.428 59.515,129.995 59.883,129.643 C60.251,129.307 60.731,129.132 61.307,129.132 C61.467,129.132 61.627,129.132 61.755,129.163 C61.835,129.18 61.995,129.243 62.267,129.339 C62.539,129.436 62.715,129.499 62.811,129.499 C63.035,129.499 63.211,129.372 63.371,129.132 z" fill="#000000"/>
    <path d="M67.474,126.999 L67.25,127.727 L64.416,127.727 L64.64,126.999 z" fill="#000000"/>
    <path d="M72.525,122.228 L70.767,128.354 C70.666,128.712 70.61,128.981 70.61,129.138 C70.61,129.272 70.655,129.373 70.755,129.44 C70.845,129.519 71.058,129.564 71.405,129.586 L71.349,129.788 L68.538,129.788 L68.605,129.586 C68.907,129.586 69.109,129.564 69.199,129.519 C69.355,129.452 69.467,129.362 69.546,129.261 C69.669,129.093 69.792,128.791 69.915,128.354 L71.181,123.952 C71.259,123.684 71.293,123.538 71.304,123.493 C71.315,123.415 71.327,123.348 71.327,123.28 C71.327,123.157 71.282,123.056 71.215,122.978 C71.147,122.911 71.058,122.866 70.935,122.866 C70.834,122.866 70.688,122.888 70.487,122.933 L70.419,122.743 L72.267,122.228 z" fill="#000000"/>
    <path d="M8.473,185.36 L7.465,188.88 C7.913,188.048 8.297,187.424 8.617,187.008 C9.113,186.368 9.593,185.888 10.057,185.6 C10.345,185.44 10.633,185.36 10.937,185.36 C11.193,185.36 11.401,185.44 11.577,185.6 C11.753,185.776 11.833,185.984 11.833,186.24 C11.833,186.496 11.785,186.832 11.657,187.248 L11.097,189.232 C11.945,187.648 12.761,186.528 13.513,185.888 C13.945,185.536 14.361,185.36 14.761,185.36 C15.001,185.36 15.209,185.44 15.353,185.6 C15.513,185.76 15.593,186.016 15.593,186.368 C15.593,186.656 15.545,186.976 15.449,187.328 L14.585,190.368 C14.393,191.024 14.313,191.392 14.313,191.456 C14.313,191.536 14.329,191.6 14.377,191.648 C14.409,191.68 14.457,191.712 14.505,191.712 C14.553,191.712 14.649,191.648 14.777,191.552 C15.065,191.328 15.353,191.024 15.609,190.656 L15.865,190.816 C15.737,191.024 15.513,191.312 15.177,191.68 C14.841,192.032 14.569,192.288 14.329,192.416 C14.089,192.544 13.881,192.608 13.673,192.608 C13.497,192.608 13.353,192.544 13.225,192.416 C13.097,192.304 13.033,192.144 13.033,191.968 C13.033,191.712 13.145,191.216 13.353,190.448 L14.073,187.952 C14.233,187.376 14.313,187.056 14.329,186.992 C14.345,186.88 14.345,186.784 14.345,186.704 C14.345,186.56 14.329,186.464 14.265,186.4 C14.201,186.32 14.137,186.288 14.057,186.288 C13.833,186.288 13.609,186.4 13.353,186.624 C12.649,187.28 11.977,188.208 11.337,189.408 C10.937,190.192 10.553,191.2 10.185,192.416 L9.017,192.416 L10.345,187.696 C10.489,187.184 10.569,186.848 10.569,186.672 C10.569,186.528 10.537,186.432 10.473,186.368 C10.425,186.288 10.345,186.256 10.265,186.256 C10.089,186.256 9.913,186.32 9.721,186.448 C9.401,186.656 9.001,187.088 8.505,187.76 C8.025,188.416 7.641,189.056 7.369,189.664 C7.241,189.952 6.921,190.864 6.441,192.416 L5.289,192.416 L6.729,187.36 L6.921,186.704 C6.953,186.608 6.969,186.528 6.969,186.48 C6.969,186.368 6.921,186.272 6.809,186.176 C6.713,186.08 6.569,186.048 6.409,186.048 C6.345,186.048 6.153,186.08 5.849,186.128 L5.785,185.84 z" fill="#000000"/>
    <path d="M18.121,185.52 L26.553,185.52 L26.553,186.16 L18.121,186.16 z M18.121,188.08 L26.553,188.08 L26.553,188.72 L18.121,188.72 z" fill="#000000"/>
    <path d="M34.025,181.616 L31.513,190.368 C31.369,190.88 31.289,191.264 31.289,191.488 C31.289,191.68 31.353,191.824 31.497,191.92 C31.625,192.032 31.929,192.096 32.425,192.128 L32.345,192.416 L28.329,192.416 L28.425,192.128 C28.857,192.128 29.145,192.096 29.273,192.032 C29.497,191.936 29.657,191.808 29.769,191.664 C29.945,191.424 30.121,190.992 30.297,190.368 L32.105,184.08 C32.217,183.696 32.265,183.488 32.281,183.424 C32.297,183.312 32.313,183.216 32.313,183.12 C32.313,182.944 32.249,182.8 32.153,182.688 C32.057,182.592 31.929,182.528 31.753,182.528 C31.609,182.528 31.401,182.56 31.113,182.624 L31.017,182.352 L33.657,181.616 z" fill="#000000"/>
    <path d="M40.873,181.616 C41.545,181.616 42.105,181.888 42.553,182.448 C43.017,183.008 43.241,183.888 43.241,185.088 C43.241,186.112 43.081,187.168 42.729,188.24 C42.393,189.312 41.913,190.24 41.305,191.04 C40.809,191.648 40.297,192.096 39.769,192.384 C39.449,192.528 39.097,192.608 38.681,192.608 C38.009,192.608 37.433,192.336 36.985,191.776 C36.521,191.216 36.297,190.336 36.297,189.12 C36.297,187.936 36.521,186.736 36.985,185.536 C37.529,184.128 38.201,183.056 39.033,182.336 C39.593,181.856 40.201,181.616 40.873,181.616 z M40.889,182.016 C40.585,182.016 40.281,182.144 39.961,182.368 C39.657,182.608 39.337,183.104 39.001,183.856 C38.681,184.608 38.361,185.568 38.057,186.752 C37.673,188.304 37.465,189.616 37.465,190.704 C37.465,191.248 37.593,191.648 37.817,191.92 C38.057,192.192 38.345,192.32 38.681,192.32 C38.985,192.32 39.257,192.224 39.481,192.016 C40.089,191.44 40.601,190.48 41.017,189.12 C41.721,186.896 42.057,185.088 42.057,183.712 C42.057,183.12 41.945,182.704 41.705,182.432 C41.481,182.16 41.209,182.016 40.889,182.016 z" fill="#000000"/>
    <path d="M55.673,185.84 L55.449,186.656 L54.153,186.656 C54.249,186.928 54.297,187.2 54.297,187.44 C54.297,188.128 54.009,188.736 53.417,189.28 C52.841,189.808 52.025,190.112 51.001,190.16 C50.457,190.336 50.041,190.528 49.753,190.752 C49.657,190.848 49.609,190.928 49.609,191.024 C49.609,191.12 49.657,191.216 49.737,191.296 C49.833,191.392 50.073,191.472 50.457,191.568 L51.977,191.92 C52.809,192.112 53.369,192.352 53.641,192.624 C53.897,192.896 54.025,193.216 54.025,193.568 C54.025,194 53.881,194.384 53.561,194.752 C53.241,195.104 52.777,195.376 52.185,195.584 C51.577,195.776 50.905,195.872 50.169,195.872 C49.513,195.872 48.937,195.808 48.393,195.648 C47.865,195.488 47.481,195.28 47.257,195.024 C47.033,194.768 46.921,194.496 46.921,194.224 C46.921,194 46.985,193.76 47.145,193.52 C47.289,193.28 47.465,193.088 47.689,192.928 C47.833,192.832 48.233,192.592 48.889,192.224 C48.649,192.032 48.537,191.824 48.537,191.6 C48.537,191.392 48.633,191.168 48.841,190.944 C49.065,190.704 49.513,190.448 50.185,190.16 C49.609,190.064 49.161,189.824 48.825,189.44 C48.489,189.072 48.329,188.672 48.329,188.208 C48.329,187.472 48.649,186.816 49.289,186.224 C49.945,185.648 50.809,185.36 51.881,185.36 C52.281,185.36 52.601,185.392 52.841,185.472 C53.097,185.552 53.337,185.664 53.577,185.84 z M52.969,187.072 C52.969,186.64 52.857,186.32 52.617,186.08 C52.393,185.84 52.089,185.728 51.705,185.728 C51.129,185.728 50.633,186.016 50.249,186.608 C49.865,187.2 49.673,187.808 49.673,188.448 C49.673,188.864 49.801,189.184 50.041,189.44 C50.297,189.696 50.585,189.824 50.937,189.824 C51.209,189.824 51.481,189.744 51.737,189.6 C51.993,189.44 52.217,189.232 52.393,188.976 C52.569,188.704 52.713,188.368 52.809,187.952 C52.921,187.536 52.969,187.248 52.969,187.072 z M49.225,192.416 C48.809,192.624 48.489,192.864 48.265,193.168 C48.057,193.472 47.945,193.76 47.945,194.064 C47.945,194.4 48.105,194.688 48.409,194.912 C48.857,195.232 49.513,195.392 50.377,195.392 C51.129,195.392 51.769,195.264 52.297,195.008 C52.825,194.768 53.081,194.432 53.081,194.032 C53.081,193.824 52.985,193.632 52.793,193.456 C52.601,193.28 52.217,193.12 51.657,193.008 C51.353,192.944 50.537,192.752 49.225,192.416 z" fill="#000000"/>
    <path d="M193.233,196.955 L194.209,205.499 L200.369,196.955 L202.945,196.955 L202.945,197.243 C202.385,197.291 202.049,197.323 201.953,197.355 C201.793,197.435 201.633,197.563 201.489,197.771 C201.345,197.963 201.185,198.363 201.025,198.939 L199.057,205.659 C198.945,206.043 198.881,206.347 198.881,206.571 C198.881,206.779 198.961,206.939 199.105,207.035 C199.297,207.195 199.617,207.259 200.033,207.259 L200.225,207.259 L200.161,207.547 L195.697,207.547 L195.777,207.259 L195.985,207.259 C196.385,207.259 196.673,207.211 196.881,207.099 C197.057,207.003 197.201,206.859 197.329,206.619 C197.441,206.395 197.633,205.883 197.857,205.083 L199.601,198.939 L193.425,207.547 L193.121,207.547 L192.129,198.939 L190.225,205.499 C190.065,206.043 189.985,206.427 189.985,206.619 C189.985,206.811 190.065,206.955 190.193,207.051 C190.337,207.163 190.689,207.227 191.217,207.259 L191.137,207.547 L187.649,207.547 L187.729,207.259 L187.937,207.259 C188.465,207.259 188.833,207.131 189.057,206.875 C189.233,206.683 189.393,206.283 189.585,205.659 L191.889,197.755 C191.713,197.579 191.553,197.467 191.393,197.403 C191.233,197.339 190.945,197.291 190.529,197.243 L190.609,196.955 z" fill="#000000"/>
    <path d="M203.057,200.651 L211.489,200.651 L211.489,201.291 L203.057,201.291 z M203.057,203.211 L211.489,203.211 L211.489,203.851 L203.057,203.851 z" fill="#000000"/>
    <path d="M217.809,207.547 L212.529,207.547 L212.529,207.259 C215.217,204.907 216.993,203.067 217.857,201.723 C218.257,201.115 218.465,200.459 218.465,199.771 C218.465,199.227 218.289,198.795 217.953,198.443 C217.633,198.107 217.201,197.931 216.657,197.931 C215.937,197.931 215.329,198.283 214.849,198.987 L214.577,198.875 C214.849,198.203 215.233,197.675 215.745,197.307 C216.257,196.923 216.801,196.747 217.393,196.747 C218.065,196.747 218.641,196.971 219.089,197.435 C219.553,197.899 219.777,198.459 219.777,199.115 C219.777,199.563 219.697,199.995 219.537,200.379 C219.281,200.987 218.833,201.675 218.161,202.427 C217.137,203.579 215.777,204.923 214.065,206.427 L216.721,206.427 C217.153,206.427 217.505,206.331 217.777,206.155 C218.065,205.979 218.257,205.739 218.369,205.451 L218.689,205.451 z" fill="#000000"/>
    <path d="M221.617,206.155 C221.841,206.155 222.017,206.235 222.177,206.395 C222.337,206.539 222.401,206.731 222.401,206.939 C222.401,207.163 222.321,207.355 222.177,207.499 C222.017,207.659 221.825,207.739 221.617,207.739 C221.393,207.739 221.201,207.659 221.057,207.499 C220.897,207.355 220.817,207.163 220.817,206.939 C220.817,206.731 220.897,206.539 221.057,206.395 C221.201,206.235 221.393,206.155 221.617,206.155 z" fill="#000000"/>
    <path d="M228.401,196.955 L231.953,196.955 L231.585,198.251 L228.401,198.251 L227.825,199.547 C228.657,199.691 229.313,199.947 229.793,200.347 C230.513,200.955 230.881,201.803 230.881,202.891 C230.881,203.627 230.737,204.283 230.465,204.859 C230.209,205.451 229.873,205.947 229.489,206.331 C229.105,206.731 228.689,207.051 228.241,207.275 C227.633,207.579 227.025,207.739 226.417,207.739 C225.889,207.739 225.473,207.627 225.169,207.403 C224.961,207.243 224.849,207.051 224.849,206.811 C224.849,206.619 224.913,206.459 225.057,206.331 C225.185,206.187 225.361,206.123 225.553,206.123 C225.825,206.123 226.145,206.267 226.481,206.539 C226.689,206.715 226.849,206.827 226.993,206.891 C227.105,206.923 227.233,206.955 227.377,206.955 C227.969,206.955 228.513,206.667 229.009,206.075 C229.505,205.483 229.745,204.731 229.745,203.787 C229.745,203.131 229.617,202.587 229.361,202.123 C229.089,201.659 228.753,201.339 228.353,201.163 C227.953,200.971 227.409,200.843 226.721,200.763 z" fill="#000000"/>
    <path d="M240.865,196.443 L238.641,204.123 L239.537,203.371 C240.497,202.539 241.137,201.931 241.425,201.547 C241.521,201.403 241.569,201.307 241.569,201.243 C241.569,201.195 241.553,201.147 241.521,201.115 C241.489,201.067 241.425,201.035 241.345,201.003 C241.249,200.987 241.089,200.971 240.865,200.971 L240.593,200.971 L240.673,200.667 L244.081,200.667 L244.001,200.971 C243.617,200.987 243.281,201.051 242.993,201.147 C242.705,201.259 242.433,201.403 242.177,201.595 C241.649,201.995 241.297,202.267 241.137,202.411 L240.465,203.003 C240.577,203.387 240.721,203.899 240.881,204.571 C241.169,205.691 241.361,206.347 241.457,206.555 C241.553,206.779 241.649,206.875 241.761,206.875 C241.841,206.875 241.953,206.827 242.065,206.747 C242.337,206.539 242.625,206.235 242.945,205.803 L243.217,205.995 C242.641,206.699 242.209,207.179 241.905,207.403 C241.601,207.627 241.329,207.739 241.073,207.739 C240.865,207.739 240.689,207.659 240.577,207.483 C240.369,207.179 240.017,205.963 239.537,203.851 L238.465,204.779 L237.649,207.547 L236.433,207.547 L239.025,198.635 L239.249,197.883 C239.281,197.755 239.281,197.643 239.281,197.547 C239.281,197.419 239.233,197.307 239.137,197.227 C239.041,197.147 238.913,197.099 238.721,197.099 C238.609,197.099 238.417,197.131 238.161,197.179 L238.161,196.907 z" fill="#000000"/>
    <path d="M251.697,200.971 L251.473,201.787 L250.177,201.787 C250.273,202.059 250.321,202.331 250.321,202.571 C250.321,203.259 250.033,203.867 249.441,204.411 C248.865,204.939 248.049,205.243 247.025,205.291 C246.481,205.467 246.065,205.659 245.777,205.883 C245.681,205.979 245.633,206.059 245.633,206.155 C245.633,206.251 245.681,206.347 245.761,206.427 C245.857,206.523 246.097,206.603 246.481,206.699 L248.001,207.051 C248.833,207.243 249.393,207.483 249.665,207.755 C249.921,208.027 250.049,208.347 250.049,208.699 C250.049,209.131 249.905,209.515 249.585,209.883 C249.265,210.235 248.801,210.507 248.209,210.715 C247.601,210.907 246.929,211.003 246.193,211.003 C245.537,211.003 244.961,210.939 244.417,210.779 C243.889,210.619 243.505,210.411 243.281,210.155 C243.057,209.899 242.945,209.627 242.945,209.355 C242.945,209.131 243.009,208.891 243.169,208.651 C243.313,208.411 243.489,208.219 243.713,208.059 C243.857,207.963 244.257,207.723 244.913,207.355 C244.673,207.163 244.561,206.955 244.561,206.731 C244.561,206.523 244.657,206.299 244.865,206.075 C245.089,205.835 245.537,205.579 246.209,205.291 C245.633,205.195 245.185,204.955 244.849,204.571 C244.513,204.203 244.353,203.803 244.353,203.339 C244.353,202.603 244.673,201.947 245.313,201.355 C245.969,200.779 246.833,200.491 247.905,200.491 C248.305,200.491 248.625,200.523 248.865,200.603 C249.121,200.683 249.361,200.795 249.601,200.971 z M248.993,202.203 C248.993,201.771 248.881,201.451 248.641,201.211 C248.417,200.971 248.113,200.859 247.729,200.859 C247.153,200.859 246.657,201.147 246.273,201.739 C245.889,202.331 245.697,202.939 245.697,203.579 C245.697,203.995 245.825,204.315 246.065,204.571 C246.321,204.827 246.609,204.955 246.961,204.955 C247.233,204.955 247.505,204.875 247.761,204.731 C248.017,204.571 248.241,204.363 248.417,204.107 C248.593,203.835 248.737,203.499 248.833,203.083 C248.945,202.667 248.993,202.379 248.993,202.203 z M245.249,207.547 C244.833,207.755 244.513,207.995 244.289,208.299 C244.081,208.603 243.969,208.891 243.969,209.195 C243.969,209.531 244.129,209.819 244.433,210.043 C244.881,210.363 245.537,210.523 246.401,210.523 C247.153,210.523 247.793,210.395 248.321,210.139 C248.849,209.899 249.105,209.563 249.105,209.163 C249.105,208.955 249.009,208.763 248.817,208.587 C248.625,208.411 248.241,208.251 247.681,208.139 C247.377,208.075 246.561,207.883 245.249,207.547 z" fill="#000000"/>
  </g>
  <defs/>
</svg>
