<?xml version="1.0" encoding="UTF-8"?>
<!DOCTYPE svg PUBLIC "-//W3C//DTD SVG 1.1//EN" "http://www.w3.org/Graphics/SVG/1.1/DTD/svg11.dtd">
<svg version="1.1" xmlns="http://www.w3.org/2000/svg" xmlns:xlink="http://www.w3.org/1999/xlink" x="0px" y="0px" width="238.11" height="255.118" viewBox="0, 0, 238.11, 255.118">
  <g id="Layer 1">
    <path d="M0.398,255.72 L239.352,255.72" fill-opacity="0" stroke="#000000" stroke-width="0.8"/>
    <path d="M112.788,14.775 L112.788,241.547 M126.961,14.775 L126.961,241.547" fill-opacity="0" stroke="#000000" stroke-width="0.2"/>
    <path d="M84.442,227.374 L155.308,227.374 L155.308,255.72 L84.442,255.72 z" fill="#000000"/>
    <path d="M84.442,85.641 L84.442,142.334" fill-opacity="0" stroke="#000000" stroke-width="0.4"/>
    <path d="M84.442,113.988 L78.783,108.311 L84.442,128.161 L90.118,108.311" fill="#000000"/>
    <path d="M84.442,113.988 L78.783,108.311 L84.442,128.161 L90.118,108.311 z" fill-opacity="0" stroke="#000000" stroke-width="0.4"/>
    <path d="M56.814,111.339 L61.61,110.318 C61.951,111.135 62.223,111.951 62.461,112.802 C62.733,114.06 62.971,115.557 63.175,117.258 C63.277,118.142 63.379,119.945 63.549,122.734 C64.91,121.203 65.76,120.285 65.998,119.911 C67.461,117.938 68.312,116.747 68.55,116.407 C68.89,115.829 69.162,115.319 69.298,114.876 C69.434,114.536 69.502,114.23 69.502,113.924 C69.502,113.652 69.23,113.312 68.72,112.938 C68.209,112.563 67.937,112.121 67.937,111.679 C67.937,111.305 68.073,110.999 68.38,110.727 C68.652,110.454 68.992,110.318 69.366,110.318 C69.842,110.318 70.25,110.488 70.591,110.863 C70.965,111.271 71.135,111.747 71.135,112.291 C71.135,112.87 71.033,113.414 70.863,113.924 C70.591,114.774 70.046,115.795 69.264,117.019 C68.482,118.21 67.189,119.843 65.454,121.884 C65.216,122.122 63.992,123.414 61.746,125.728 L61.134,125.728 C60.896,118.72 60.318,114.366 59.501,112.597 C59.195,112.053 58.753,111.781 58.107,111.781 C57.835,111.781 57.426,111.815 56.916,111.917 z" fill="#000000"/>
    <path d="M112.788,14.775 L112.788,0.602 M126.961,14.775 L126.961,0.602" fill-opacity="0" stroke="#000000" stroke-width="0.2" stroke-dasharray="0.6,0.2"/>
    <path d="M112.788,85.641 L126.961,85.641 M112.788,113.988 L126.961,113.988" fill-opacity="0" stroke="#000000" stroke-width="0.2"/>
    <path d="M113.15,99.854 L113.15,86.18 L126.561,86.18 L126.561,113.517 L113.15,113.517" fill="#929292"/>
    <path d="M113.15,99.854 L113.15,86.18 L126.561,86.18 L126.561,113.517 L113.15,113.517 z" fill-opacity="0" stroke="#929292" stroke-width="0.12"/>
    <text transform="matrix(1, 0, -0, 1, 140.72, 101.225)">
      <tspan x="-5.25" y="4.827" font-family="TimesNewRomanPSMT" font-size="21" fill="#000000">d</tspan>
    </text>
    <path d="M151.707,98.311 L150.278,103.3 C150.913,102.121 151.457,101.236 151.911,100.647 C152.614,99.739 153.294,99.059 153.952,98.651 C154.36,98.424 154.768,98.311 155.199,98.311 C155.562,98.311 155.857,98.424 156.106,98.651 C156.356,98.9 156.469,99.195 156.469,99.558 C156.469,99.921 156.401,100.397 156.22,100.987 L155.426,103.799 C156.628,101.554 157.784,99.966 158.85,99.059 C159.462,98.56 160.052,98.311 160.619,98.311 C160.959,98.311 161.254,98.424 161.458,98.651 C161.685,98.878 161.798,99.241 161.798,99.739 C161.798,100.148 161.73,100.601 161.594,101.1 L160.369,105.409 C160.097,106.339 159.984,106.86 159.984,106.951 C159.984,107.064 160.007,107.155 160.075,107.223 C160.12,107.268 160.188,107.314 160.256,107.314 C160.324,107.314 160.46,107.223 160.642,107.087 C161.05,106.769 161.458,106.339 161.821,105.817 L162.184,106.044 C162.002,106.339 161.685,106.747 161.209,107.268 C160.732,107.767 160.347,108.13 160.007,108.311 C159.666,108.493 159.372,108.584 159.077,108.584 C158.827,108.584 158.623,108.493 158.442,108.311 C158.26,108.153 158.17,107.926 158.17,107.676 C158.17,107.314 158.329,106.611 158.623,105.522 L159.644,101.985 C159.871,101.168 159.984,100.715 160.007,100.624 C160.029,100.465 160.029,100.329 160.029,100.216 C160.029,100.012 160.007,99.876 159.916,99.785 C159.825,99.671 159.734,99.626 159.621,99.626 C159.304,99.626 158.986,99.785 158.623,100.102 C157.626,101.032 156.673,102.347 155.766,104.048 C155.199,105.159 154.655,106.588 154.133,108.311 L152.478,108.311 L154.36,101.622 C154.564,100.896 154.677,100.42 154.677,100.17 C154.677,99.966 154.632,99.83 154.541,99.739 C154.473,99.626 154.36,99.581 154.247,99.581 C153.997,99.581 153.748,99.671 153.476,99.853 C153.022,100.148 152.455,100.76 151.752,101.712 C151.072,102.642 150.528,103.549 150.142,104.411 C149.961,104.819 149.507,106.112 148.827,108.311 L147.194,108.311 L149.235,101.145 L149.507,100.216 C149.552,100.08 149.575,99.966 149.575,99.898 C149.575,99.739 149.507,99.603 149.348,99.467 C149.212,99.331 149.008,99.286 148.781,99.286 C148.691,99.286 148.419,99.331 147.988,99.399 L147.897,98.991 z" fill="#000000"/>
    <path d="M91.612,206.685 L92.996,218.795 L101.726,206.685 L105.377,206.685 L105.377,207.093 C104.584,207.161 104.107,207.207 103.971,207.252 C103.745,207.365 103.518,207.547 103.314,207.842 C103.11,208.114 102.883,208.681 102.656,209.497 L99.867,219.021 C99.708,219.566 99.617,219.996 99.617,220.314 C99.617,220.609 99.731,220.836 99.935,220.972 C100.207,221.198 100.66,221.289 101.25,221.289 L101.522,221.289 L101.432,221.697 L95.105,221.697 L95.218,221.289 L95.513,221.289 C96.08,221.289 96.488,221.221 96.783,221.062 C97.032,220.926 97.236,220.722 97.418,220.382 C97.576,220.065 97.849,219.339 98.166,218.205 L100.638,209.497 L91.884,221.697 L91.454,221.697 L90.048,209.497 L87.349,218.795 C87.122,219.566 87.009,220.11 87.009,220.382 C87.009,220.654 87.122,220.858 87.304,220.994 C87.508,221.153 88.007,221.244 88.755,221.289 L88.642,221.697 L83.698,221.697 L83.811,221.289 L84.106,221.289 C84.854,221.289 85.376,221.108 85.694,220.745 C85.943,220.473 86.17,219.906 86.442,219.021 L89.707,207.819 C89.458,207.569 89.231,207.411 89.004,207.32 C88.778,207.229 88.369,207.161 87.78,207.093 L87.893,206.685 z" fill="#000000"/>
  </g>
  <defs/>
</svg>
