<?xml version="1.0" encoding="UTF-8"?>
<!DOCTYPE svg PUBLIC "-//W3C//DTD SVG 1.1//EN" "http://www.w3.org/Graphics/SVG/1.1/DTD/svg11.dtd">
<svg version="1.1" xmlns="http://www.w3.org/2000/svg" xmlns:xlink="http://www.w3.org/1999/xlink" x="0px" y="0px" width="141.732" height="102.047" viewBox="0, 0, 141.732, 102.047">
  <g id="Layer 1">
    <g>
      <path d="M68.655,76.523 L130.955,76.523" fill-opacity="0" stroke="#000000" stroke-width="1"/>
      <g>
        <path d="M126.282,76.523 L120.052,82.753 L141.857,76.523 L120.052,70.293 L126.282,76.523 z" fill="#000000"/>
        <path d="M126.282,76.523 L120.052,82.753 L141.857,76.523 L120.052,70.293 L126.282,76.523 z" fill-opacity="0" stroke="#000000" stroke-width="1"/>
      </g>
    </g>
    <g>
      <path d="M6.355,39.028 L6.355,17.223" fill-opacity="0" stroke="#000000" stroke-width="0.25"/>
      <g>
        <path d="M6.355,18.392 L7.912,19.949 L6.355,14.498 L4.797,19.949 L6.355,18.392 z" fill="#000000"/>
        <path d="M6.355,18.392 L7.912,19.949 L6.355,14.498 L4.797,19.949 L6.355,18.392 z" fill-opacity="0" stroke="#000000" stroke-width="1"/>
      </g>
    </g>
    <g>
      <path d="M0.125,31.798 L21.93,31.798" fill-opacity="0" stroke="#000000" stroke-width="0.25"/>
      <g>
        <path d="M20.762,31.798 L19.204,33.356 L24.656,31.798 L19.204,30.241 L20.762,31.798 z" fill="#000000"/>
        <path d="M20.762,31.798 L19.204,33.356 L24.656,31.798 L19.204,30.241 L20.762,31.798 z" fill-opacity="0" stroke="#000000" stroke-width="1"/>
      </g>
    </g>
    <text transform="matrix(1, 0, 0, 1, 7.048, 7.993)">
      <tspan x="-5.055" y="2.655" font-family="TimesNewRomanPSMT" font-size="14" fill="#000000">N</tspan>
    </text>
    <text transform="matrix(1, 0, 0, 1, 31.321, 32.388)">
      <tspan x="-4.276" y="4" font-family="TimesNewRomanPSMT" font-size="14" fill="#000000">E</tspan>
    </text>
    <text transform="matrix(1, 0, 0, 1, 52.668, 59.391)">
      <tspan x="-19.987" y="1.098" font-family="TimesNewRomanPSMT" font-size="14" fill="#000000">15 N</tspan>
    </text>
    <text transform="matrix(1, 0, 0, 1, 101.102, 93.656)">
      <tspan x="-19.987" y="1.098" font-family="TimesNewRomanPSMT" font-size="14" fill="#000000">20 N</tspan>
    </text>
    <g>
      <path d="M68.655,76.523 L117.716,39.143 L134.07,26.683" fill-opacity="0" stroke="#000000" stroke-width="0.75"/>
      <g>
        <path d="M131.282,28.807 L130.397,35.356 L140.574,21.728 L124.734,27.922 L131.282,28.807 z" fill="#000000"/>
        <path d="M131.282,28.807 L130.397,35.356 L140.574,21.728 L124.734,27.922 L131.282,28.807 z" fill-opacity="0" stroke="#000000" stroke-width="1"/>
      </g>
      <g>
        <path d="M98.575,53.727 L97.69,60.276 L107.867,46.648 L92.027,52.842 L98.575,53.727 z" fill="#000000"/>
        <path d="M98.575,53.727 L97.69,60.276 L107.867,46.648 L92.027,52.842 L98.575,53.727 z" fill-opacity="0" stroke="#000000" stroke-width="1"/>
      </g>
    </g>
    <path d="M68.655,23.568 L137.185,23.568 L137.185,76.523" fill-opacity="0" stroke="#000000" stroke-width="0.25" stroke-dasharray="0.5,1"/>
    <path d="M68.655,57.833 C74.282,57.833 79.61,60.369 83.159,64.736" fill-opacity="0" stroke="#000000" stroke-width="0.3"/>
    <g>
      <path d="M68.655,76.523 L68.655,29.798" fill-opacity="0" stroke="#000000" stroke-width="1"/>
      <g>
        <path d="M68.655,34.471 L74.885,40.701 L68.655,18.896 L62.425,40.701 L68.655,34.471 z" fill="#000000"/>
        <path d="M68.655,34.471 L74.885,40.701 L68.655,18.896 L62.425,40.701 L68.655,34.471 z" fill-opacity="0" stroke="#000000" stroke-width="1"/>
      </g>
    </g>
  </g>
  <defs/>
</svg>
