<?xml version="1.0" encoding="UTF-8"?>
<!DOCTYPE svg PUBLIC "-//W3C//DTD SVG 1.1//EN" "http://www.w3.org/Graphics/SVG/1.1/DTD/svg11.dtd">
<svg version="1.1" xmlns="http://www.w3.org/2000/svg" xmlns:xlink="http://www.w3.org/1999/xlink" x="0px" y="0px" width="255.118" height="235.276" viewBox="0, 0, 255.118, 235.276">
  <g id="Layer 1">
    <path d="M153.173,25.638 C153.173,39.714 141.737,51.15 127.661,51.15 C113.559,51.15 102.149,39.714 102.149,25.638 C102.149,11.536 113.559,0.126 127.661,0.126 C141.737,0.126 153.173,11.536 153.173,25.638 z" fill-opacity="0" stroke="#000000" stroke-width="0.16" stroke-linecap="square"/>
    <path d="M0.102,178.709 L255.22,178.709" fill-opacity="0" stroke="#000000" stroke-width="0.2" stroke-dasharray="0.2,0.2"/>
    <path d="M102.149,25.638 L102.149,178.709 M153.173,25.638 L153.173,178.709" fill-opacity="0" stroke="#000000" stroke-width="0.6"/>
    <path d="M112.335,178.709 C112.335,184.34 107.775,188.894 102.149,188.894 C96.492,188.894 91.932,184.34 91.932,178.709 C91.932,173.077 96.492,168.491 102.149,168.491 C107.775,168.491 112.335,173.077 112.335,178.709" fill="#000000"/>
    <path d="M173.576,178.709 C173.576,189.966 164.43,199.112 153.173,199.112 C141.884,199.112 132.738,189.966 132.738,178.709 C132.738,167.42 141.884,158.306 153.173,158.306 C164.43,158.306 173.576,167.42 173.576,178.709" fill="#000000"/>
    <path d="M95.646,196.418 L93.075,205.398 C94.218,203.275 95.197,201.683 96.014,200.622 C97.279,198.989 98.504,197.765 99.687,197.03 C100.422,196.622 101.157,196.418 101.932,196.418 C102.585,196.418 103.116,196.622 103.565,197.03 C104.014,197.479 104.218,198.01 104.218,198.663 C104.218,199.316 104.096,200.173 103.769,201.234 L102.341,206.296 C104.504,202.255 106.586,199.397 108.504,197.765 C109.606,196.867 110.668,196.418 111.688,196.418 C112.3,196.418 112.831,196.622 113.198,197.03 C113.607,197.438 113.811,198.091 113.811,198.989 C113.811,199.724 113.688,200.54 113.443,201.438 L111.239,209.194 C110.749,210.868 110.545,211.806 110.545,211.97 C110.545,212.174 110.586,212.337 110.708,212.46 C110.79,212.541 110.913,212.623 111.035,212.623 C111.157,212.623 111.402,212.46 111.729,212.215 C112.464,211.643 113.198,210.868 113.852,209.929 L114.505,210.337 C114.178,210.868 113.607,211.602 112.749,212.541 C111.892,213.439 111.198,214.092 110.586,214.419 C109.974,214.745 109.443,214.909 108.912,214.909 C108.463,214.909 108.096,214.745 107.769,214.419 C107.443,214.133 107.28,213.725 107.28,213.276 C107.28,212.623 107.565,211.357 108.096,209.398 L109.933,203.03 C110.341,201.561 110.545,200.745 110.586,200.581 C110.627,200.296 110.627,200.051 110.627,199.846 C110.627,199.479 110.586,199.234 110.423,199.071 C110.259,198.867 110.096,198.785 109.892,198.785 C109.321,198.785 108.749,199.071 108.096,199.642 C106.3,201.316 104.586,203.683 102.953,206.745 C101.932,208.745 100.953,211.317 100.014,214.419 L97.034,214.419 L100.422,202.377 C100.789,201.071 100.994,200.214 100.994,199.765 C100.994,199.397 100.912,199.153 100.749,198.989 C100.626,198.785 100.422,198.704 100.218,198.704 C99.769,198.704 99.32,198.867 98.83,199.193 C98.014,199.724 96.993,200.826 95.728,202.541 C94.503,204.214 93.524,205.847 92.83,207.398 C92.503,208.133 91.687,210.459 90.462,214.419 L87.523,214.419 L91.197,201.52 L91.687,199.846 C91.768,199.602 91.809,199.397 91.809,199.275 C91.809,198.989 91.687,198.744 91.401,198.499 C91.156,198.255 90.789,198.173 90.381,198.173 C90.217,198.173 89.728,198.255 88.952,198.377 L88.789,197.642 z" fill="#000000"/>
    <path d="M138.955,220.093 L138.955,219.521 C142.18,218.991 144.588,218.052 146.18,216.623 C147.323,215.603 147.894,214.419 147.894,213.031 C147.894,211.97 147.527,211.113 146.874,210.419 C146.221,209.725 145.405,209.398 144.466,209.398 C142.996,209.398 141.649,210.337 140.506,212.174 L139.772,211.929 C140.465,210.419 141.363,209.235 142.425,208.459 C143.527,207.643 144.711,207.276 145.976,207.276 C147.568,207.276 148.833,207.725 149.772,208.663 C150.752,209.602 151.242,210.786 151.242,212.215 C151.242,213.439 150.793,214.623 149.895,215.766 C148.956,216.868 147.405,217.888 145.2,218.786 C146.588,219.358 147.609,220.174 148.303,221.236 C149.037,222.297 149.364,223.603 149.364,225.113 C149.364,226.746 148.874,228.42 147.935,230.093 C146.996,231.767 145.649,233.032 144.017,233.971 C142.343,234.869 140.588,235.318 138.751,235.318 C137.077,235.318 135.812,235.032 134.955,234.461 C134.383,234.053 134.098,233.604 134.098,233.073 C134.098,232.583 134.261,232.175 134.588,231.849 C134.914,231.522 135.363,231.359 135.853,231.359 C136.179,231.359 136.547,231.4 136.873,231.522 C137.077,231.604 137.608,231.849 138.424,232.298 C139.282,232.787 139.935,233.073 140.384,233.236 C140.833,233.4 141.323,233.481 141.812,233.481 C142.996,233.481 144.017,232.787 144.792,231.4 C145.568,230.012 145.935,228.542 145.935,226.95 C145.935,225.685 145.69,224.542 145.16,223.562 C144.629,222.542 143.813,221.725 142.67,221.113 C141.527,220.501 140.302,220.174 138.955,220.093 z" fill="#000000"/>
    <path d="M161.977,216.827 L159.405,225.807 C160.548,223.685 161.528,222.093 162.344,221.032 C163.61,219.399 164.834,218.174 166.018,217.439 C166.753,217.031 167.488,216.827 168.263,216.827 C168.916,216.827 169.447,217.031 169.896,217.439 C170.345,217.888 170.549,218.419 170.549,219.072 C170.549,219.725 170.426,220.582 170.1,221.644 L168.671,226.705 C170.835,222.664 172.916,219.807 174.835,218.174 C175.937,217.276 176.998,216.827 178.019,216.827 C178.631,216.827 179.162,217.031 179.529,217.439 C179.937,217.848 180.141,218.501 180.141,219.399 C180.141,220.133 180.019,220.95 179.774,221.848 L177.57,229.603 C177.08,231.277 176.876,232.216 176.876,232.379 C176.876,232.583 176.917,232.747 177.039,232.869 C177.121,232.951 177.243,233.032 177.366,233.032 C177.488,233.032 177.733,232.869 178.06,232.624 C178.794,232.053 179.529,231.277 180.182,230.338 L180.835,230.746 C180.509,231.277 179.937,232.012 179.08,232.951 C178.223,233.849 177.529,234.502 176.917,234.828 C176.304,235.155 175.774,235.318 175.243,235.318 C174.794,235.318 174.427,235.155 174.1,234.828 C173.774,234.543 173.61,234.134 173.61,233.685 C173.61,233.032 173.896,231.767 174.427,229.808 L176.264,223.44 C176.672,221.97 176.876,221.154 176.917,220.991 C176.958,220.705 176.958,220.46 176.958,220.256 C176.958,219.889 176.917,219.644 176.753,219.48 C176.59,219.276 176.427,219.195 176.223,219.195 C175.651,219.195 175.08,219.48 174.427,220.052 C172.631,221.725 170.916,224.093 169.284,227.154 C168.263,229.154 167.283,231.726 166.345,234.828 L163.365,234.828 L166.753,222.787 C167.12,221.481 167.324,220.623 167.324,220.174 C167.324,219.807 167.243,219.562 167.079,219.399 C166.957,219.195 166.753,219.113 166.549,219.113 C166.1,219.113 165.651,219.276 165.161,219.603 C164.344,220.133 163.324,221.236 162.059,222.95 C160.834,224.624 159.854,226.256 159.16,227.807 C158.834,228.542 158.018,230.869 156.793,234.828 L153.854,234.828 L157.528,221.93 L158.018,220.256 C158.099,220.011 158.14,219.807 158.14,219.684 C158.14,219.399 158.018,219.154 157.732,218.909 C157.487,218.664 157.12,218.582 156.711,218.582 C156.548,218.582 156.058,218.664 155.283,218.786 L155.119,218.052 z" fill="#000000"/>
    <path d="M51.126,178.058 L51.126,25.638" fill-opacity="0" stroke="#000000" stroke-width="0.2"/>
    <path d="M56.879,178.058 L45.341,178.058 M56.879,25.638 L45.341,25.638" fill-opacity="0" stroke="#000000" stroke-width="0.2"/>
    <path d="M44.745,94.37 L40.867,107.882 L40.418,109.678 C40.377,109.841 40.337,110.004 40.337,110.127 C40.337,110.331 40.418,110.535 40.541,110.698 C40.663,110.78 40.786,110.861 40.949,110.861 C41.112,110.861 41.357,110.739 41.643,110.535 C42.133,110.167 42.827,109.351 43.684,108.126 L44.378,108.616 C43.439,110.004 42.5,111.065 41.561,111.8 C40.582,112.494 39.684,112.861 38.867,112.861 C38.296,112.861 37.847,112.739 37.561,112.453 C37.275,112.168 37.153,111.759 37.153,111.188 C37.153,110.535 37.275,109.678 37.561,108.616 L38.01,107.147 C36.255,109.392 34.663,110.984 33.193,111.882 C32.132,112.535 31.112,112.861 30.091,112.861 C29.152,112.861 28.295,112.453 27.601,111.678 C26.907,110.861 26.54,109.759 26.54,108.331 C26.54,106.249 27.152,104.004 28.458,101.677 C29.724,99.31 31.316,97.432 33.275,96.044 C34.785,94.901 36.255,94.37 37.602,94.37 C38.418,94.37 39.071,94.575 39.602,94.983 C40.173,95.432 40.582,96.126 40.867,97.105 L41.561,94.819 z M37.643,95.391 C36.785,95.391 35.887,95.799 34.949,96.575 C33.561,97.718 32.377,99.391 31.316,101.595 C30.254,103.84 29.724,105.841 29.724,107.637 C29.724,108.535 29.969,109.229 30.418,109.759 C30.867,110.29 31.357,110.576 31.969,110.576 C33.397,110.576 34.989,109.473 36.663,107.351 C38.949,104.494 40.092,101.595 40.092,98.616 C40.092,97.473 39.888,96.656 39.439,96.166 C38.99,95.636 38.377,95.391 37.643,95.391 z" fill="#000000"/>
    <path d="M102.149,25.638 C102.149,11.536 113.559,0.126 127.661,0.126 C141.737,0.126 153.173,11.536 153.173,25.638" fill-opacity="0" stroke="#000000" stroke-width="0.6" stroke-linecap="square"/>
  </g>
  <defs/>
</svg>
