<?xml version="1.0" encoding="UTF-8"?>
<!DOCTYPE svg PUBLIC "-//W3C//DTD SVG 1.1//EN" "http://www.w3.org/Graphics/SVG/1.1/DTD/svg11.dtd">
<svg version="1.1" xmlns="http://www.w3.org/2000/svg" xmlns:xlink="http://www.w3.org/1999/xlink" x="0px" y="0px" width="232.441" height="246.614" viewBox="0, 0, 232.441, 246.614">
  <g id="Layer 1">
    <path d="M161.908,244.027 C161.908,228.437 168.112,213.478 179.138,202.453" fill-opacity="0" stroke="#000000" stroke-width="0.4" stroke-linecap="square"/>
    <path d="M152.997,213.009 C155.138,213.009 156.196,214.468 156.196,217.384 C156.196,219.149 155.773,221.101 154.903,223.241 C154.032,225.382 153.045,226.981 151.939,228.04 C150.833,229.098 149.704,229.616 148.528,229.616 C147.564,229.616 146.788,229.216 146.2,228.392 C145.588,227.593 145.282,226.558 145.282,225.358 C145.282,224.558 145.471,223.476 145.8,222.112 C146.153,220.724 146.67,219.337 147.352,217.925 C148.058,216.538 148.905,215.362 149.94,214.421 C150.998,213.48 152.01,213.009 152.997,213.009 z M153.703,220.819 C154.221,219.219 154.479,217.643 154.479,216.114 C154.479,214.374 153.985,213.503 152.997,213.503 C152.127,213.503 151.28,214.139 150.457,215.456 C149.61,216.749 148.858,218.561 148.152,220.819 z M147.94,221.477 C147.235,223.665 146.882,225.358 146.882,226.534 C146.882,227.287 147.047,227.922 147.352,228.416 C147.658,228.886 148.129,229.145 148.74,229.145 C149.258,229.145 149.752,228.933 150.198,228.534 C150.645,228.11 151.186,227.287 151.774,226.017 C152.386,224.77 152.95,223.265 153.491,221.477 z" fill="#000000"/>
    <path d="M220.712,244.027 L29.601,52.916" fill-opacity="0" stroke="#000000" stroke-width="0.4"/>
    <path d="M223.656,155.822 L223.656,8.813" fill-opacity="0" stroke="#000000" stroke-width="0.2"/>
    <path d="M226.971,155.822 L220.341,155.822 M226.971,8.813 L220.341,8.813" fill-opacity="0" stroke="#000000" stroke-width="0.2"/>
    <path d="M132.507,8.813 L132.507,155.822 L200.142,155.822" fill-opacity="0" stroke="#000000" stroke-width="0.2" stroke-dasharray="0.2,0.4"/>
    <path d="M101.613,124.928 C109.809,116.747 120.922,112.138 132.507,112.138 M176.436,155.822 C176.436,167.479 171.817,178.648 163.573,186.892" fill-opacity="0" stroke="#000000" stroke-width="0.2" stroke-linecap="square"/>
    <path d="M114.375,104.952 C114.375,106.74 113.74,108.316 112.47,109.704 C111.247,111.044 109.812,111.774 108.189,111.938 L106.849,116.76 L105.649,116.76 L107.013,111.962 C106.049,111.962 105.273,111.632 104.685,111.021 C104.097,110.362 103.791,109.492 103.791,108.41 C103.791,106.622 104.426,105.023 105.72,103.635 C106.966,102.271 108.377,101.542 110,101.424 L111.717,95.403 L112.894,95.403 L111.176,101.401 C112.117,101.471 112.894,101.8 113.458,102.388 C114.07,103.024 114.375,103.87 114.375,104.952 z M112.494,104.411 C112.494,103.87 112.376,103.4 112.094,102.953 C111.812,102.506 111.435,102.224 110.988,102.083 L108.377,111.303 C109.577,111.044 110.588,110.174 111.388,108.716 C112.141,107.351 112.494,105.94 112.494,104.411 z M109.836,102.036 C108.613,102.294 107.601,103.165 106.801,104.647 C106.049,105.987 105.672,107.422 105.672,108.927 C105.672,109.492 105.79,109.962 106.049,110.386 C106.331,110.833 106.707,111.115 107.201,111.256 z" fill="#000000"/>
    <path d="M180.729,184.384 L179.553,184.384 L180.941,179.633 C179.835,179.633 178.965,179.303 178.354,178.621 C177.765,177.963 177.46,177.069 177.46,175.916 C177.46,174.152 178.001,172.553 179.083,171.141 C180.188,169.73 181.552,169.025 183.199,168.977 L183.058,169.377 C182.046,169.542 181.153,170.389 180.376,171.894 C179.624,173.399 179.247,174.881 179.247,176.34 C179.247,178.08 179.859,178.974 181.105,179.021 L182.658,173.893 C183.034,172.576 183.387,171.588 183.716,170.93 C184.022,170.295 184.422,169.801 184.869,169.471 C185.339,169.142 185.81,168.977 186.351,168.977 C187.08,168.977 187.644,169.283 188.044,169.895 C188.468,170.53 188.656,171.353 188.656,172.388 C188.656,174.223 188.091,175.893 186.939,177.351 C185.81,178.809 184.163,179.562 182.07,179.656 z M182.282,179.021 C183.81,178.927 184.987,178.127 185.833,176.645 C186.657,175.14 187.08,173.635 187.08,172.059 C187.08,170.742 186.727,170.083 186.068,170.083 C185.669,170.083 185.292,170.318 184.963,170.812 C184.657,171.306 184.234,172.412 183.716,174.152 z" fill="#000000"/>
    <path d="M215.847,68.941 L212.624,80.09 C214.012,77.997 215.094,76.609 215.87,75.927 C216.67,75.221 217.399,74.892 218.128,74.892 C218.481,74.892 218.787,75.01 219.045,75.268 C219.281,75.504 219.398,75.856 219.398,76.28 C219.398,76.774 219.304,77.385 219.092,78.114 L217.681,82.913 C217.517,83.501 217.422,83.83 217.422,83.877 C217.422,83.995 217.446,84.089 217.517,84.159 C217.587,84.23 217.658,84.254 217.752,84.254 C217.846,84.254 217.963,84.206 218.081,84.112 C218.528,83.76 218.951,83.313 219.375,82.701 L219.728,82.913 C219.469,83.336 219.116,83.783 218.646,84.254 C218.199,84.747 217.799,85.077 217.47,85.265 C217.117,85.453 216.834,85.547 216.576,85.547 C216.293,85.547 216.058,85.453 215.87,85.288 C215.705,85.1 215.611,84.865 215.611,84.583 C215.611,84.254 215.729,83.618 216.011,82.701 L217.328,78.114 C217.493,77.526 217.587,77.08 217.587,76.75 C217.587,76.609 217.54,76.468 217.446,76.397 C217.352,76.303 217.211,76.256 217.07,76.256 C216.834,76.256 216.599,76.327 216.293,76.491 C215.776,76.821 215.188,77.432 214.506,78.303 C214.318,78.538 213.706,79.479 212.671,81.172 C212.342,81.69 212.083,82.278 211.871,82.913 L211.142,85.265 L209.425,85.265 L213.189,72.14 L213.588,70.705 C213.588,70.517 213.518,70.329 213.353,70.188 C213.189,70.023 212.977,69.953 212.742,69.953 C212.601,69.953 212.389,69.976 212.107,70.023 L211.871,70.07 L211.871,69.6 z" fill="#000000"/>
    <path d="M141.338,8.813 C141.338,13.698 137.387,17.645 132.507,17.645 C127.641,17.645 123.694,13.698 123.694,8.813 C123.694,3.947 127.641,-0 132.507,-0 C137.387,-0 141.338,3.947 141.338,8.813" fill="#000000"/>
    <path d="M138.394,108.794 L138.394,138.195" fill-opacity="0" stroke="#000000" stroke-width="0.4"/>
    <path d="M138.394,123.495 L135.451,120.551 L138.394,130.845 L141.338,120.551" fill="#000000"/>
    <path d="M138.394,123.495 L135.451,120.551 L138.394,130.845 L141.338,120.551 z" fill-opacity="0" stroke="#000000" stroke-width="0.2"/>
    <path d="M155.326,113.373 L153.327,120.218 C153.044,121.253 152.88,121.888 152.88,122.146 C152.88,122.288 152.903,122.405 152.95,122.452 C152.997,122.523 153.068,122.546 153.162,122.546 C153.28,122.546 153.444,122.499 153.585,122.382 C153.75,122.264 154.15,121.794 154.785,120.97 L155.114,121.229 C154.526,122.193 153.891,122.876 153.256,123.346 C152.833,123.628 152.433,123.769 152.057,123.769 C151.751,123.769 151.516,123.699 151.351,123.511 C151.186,123.346 151.092,123.134 151.092,122.876 C151.092,122.617 151.139,122.264 151.233,121.841 C151.374,121.276 151.704,120.03 152.292,118.124 C150.975,120.265 149.893,121.747 149.022,122.546 C148.152,123.37 147.329,123.769 146.576,123.769 C146.223,123.769 145.918,123.652 145.682,123.417 C145.447,123.158 145.306,122.852 145.306,122.476 C145.306,121.911 145.494,121.017 145.823,119.841 L146.811,116.29 C147.07,115.443 147.188,114.902 147.188,114.69 C147.188,114.62 147.164,114.526 147.094,114.455 C147.023,114.408 146.952,114.361 146.882,114.361 C146.717,114.361 146.553,114.431 146.388,114.549 C146.223,114.667 145.87,115.09 145.306,115.819 L144.953,115.56 C145.518,114.667 146.129,114.032 146.764,113.608 C147.258,113.279 147.705,113.114 148.129,113.114 C148.411,113.114 148.646,113.185 148.834,113.373 C148.999,113.561 149.093,113.796 149.093,114.079 C149.093,114.478 148.952,115.231 148.646,116.29 L147.564,120.006 C147.258,121.017 147.117,121.652 147.117,121.911 C147.117,122.052 147.164,122.17 147.258,122.264 C147.352,122.358 147.47,122.405 147.635,122.405 C147.893,122.405 148.223,122.264 148.622,122.029 C149.022,121.77 149.563,121.206 150.245,120.335 C150.928,119.465 151.492,118.642 151.915,117.889 C152.362,117.136 152.833,115.913 153.327,114.243 L153.585,113.373 z" fill="#000000"/>
    <path d="M144.264,149.952 L173.665,149.952" fill-opacity="0" stroke="#000000" stroke-width="0.4"/>
    <path d="M158.965,149.952 L156.039,152.896 L166.315,149.952 L156.039,147.009" fill="#000000"/>
    <path d="M158.965,149.952 L156.039,152.896 L166.315,149.952 L156.039,147.009 z" fill-opacity="0" stroke="#000000" stroke-width="0.2"/>
    <path d="M159.466,134.401 L162.782,133.695 C163.018,134.26 163.206,134.824 163.37,135.412 C163.559,136.283 163.723,137.318 163.864,138.494 C163.935,139.105 164.005,140.352 164.123,142.281 C165.064,141.222 165.652,140.587 165.817,140.328 C166.828,138.964 167.416,138.141 167.581,137.906 C167.816,137.506 168.004,137.153 168.098,136.847 C168.192,136.612 168.239,136.4 168.239,136.189 C168.239,136.001 168.051,135.765 167.698,135.507 C167.345,135.248 167.157,134.942 167.157,134.636 C167.157,134.378 167.251,134.166 167.463,133.978 C167.651,133.79 167.886,133.695 168.145,133.695 C168.475,133.695 168.757,133.813 168.992,134.072 C169.251,134.354 169.368,134.683 169.368,135.06 C169.368,135.46 169.298,135.836 169.18,136.189 C168.992,136.777 168.616,137.482 168.075,138.329 C167.534,139.152 166.64,140.281 165.44,141.693 C165.276,141.857 164.429,142.751 162.876,144.351 L162.453,144.351 C162.288,139.505 161.889,136.494 161.324,135.271 C161.112,134.895 160.807,134.707 160.36,134.707 C160.171,134.707 159.889,134.73 159.536,134.801 z" fill="#000000"/>
    <path d="M149.352,4.328 L147.87,9.503 C148.528,8.28 149.093,7.362 149.563,6.751 C150.292,5.81 150.998,5.104 151.68,4.681 C152.104,4.446 152.527,4.328 152.974,4.328 C153.35,4.328 153.656,4.446 153.915,4.681 C154.174,4.939 154.291,5.245 154.291,5.622 C154.291,5.998 154.221,6.492 154.032,7.103 L153.209,10.02 C154.456,7.691 155.655,6.045 156.761,5.104 C157.396,4.587 158.008,4.328 158.596,4.328 C158.948,4.328 159.254,4.446 159.466,4.681 C159.701,4.916 159.819,5.292 159.819,5.81 C159.819,6.233 159.748,6.704 159.607,7.221 L158.337,11.69 C158.055,12.654 157.937,13.195 157.937,13.29 C157.937,13.407 157.96,13.501 158.031,13.572 C158.078,13.619 158.149,13.666 158.219,13.666 C158.29,13.666 158.431,13.572 158.619,13.431 C159.042,13.101 159.466,12.654 159.842,12.114 L160.219,12.349 C160.03,12.654 159.701,13.078 159.207,13.619 C158.713,14.136 158.313,14.513 157.96,14.701 C157.608,14.889 157.302,14.983 156.996,14.983 C156.737,14.983 156.526,14.889 156.337,14.701 C156.149,14.536 156.055,14.301 156.055,14.042 C156.055,13.666 156.22,12.937 156.526,11.808 L157.584,8.138 C157.819,7.292 157.937,6.821 157.96,6.727 C157.984,6.562 157.984,6.421 157.984,6.304 C157.984,6.092 157.96,5.951 157.866,5.857 C157.772,5.739 157.678,5.692 157.561,5.692 C157.231,5.692 156.902,5.857 156.526,6.186 C155.491,7.15 154.503,8.515 153.562,10.279 C152.974,11.431 152.409,12.913 151.868,14.701 L150.151,14.701 L152.104,7.762 C152.315,7.009 152.433,6.515 152.433,6.257 C152.433,6.045 152.386,5.904 152.292,5.81 C152.221,5.692 152.104,5.645 151.986,5.645 C151.727,5.645 151.469,5.739 151.186,5.927 C150.716,6.233 150.128,6.868 149.399,7.856 C148.693,8.821 148.129,9.761 147.729,10.655 C147.54,11.079 147.07,12.419 146.364,14.701 L144.671,14.701 L146.788,7.268 L147.07,6.304 C147.117,6.163 147.141,6.045 147.141,5.974 C147.141,5.81 147.07,5.669 146.905,5.528 C146.764,5.386 146.553,5.339 146.317,5.339 C146.223,5.339 145.941,5.386 145.494,5.457 L145.4,5.034 z" fill="#000000"/>
    <path d="M220.712,244.027 L0.199,244.027" fill-opacity="0" stroke="#000000" stroke-width="0.4"/>
  </g>
  <defs/>
</svg>
