<?xml version="1.0" encoding="UTF-8"?>
<!DOCTYPE svg PUBLIC "-//W3C//DTD SVG 1.1//EN" "http://www.w3.org/Graphics/SVG/1.1/DTD/svg11.dtd">
<svg version="1.1" xmlns="http://www.w3.org/2000/svg" xmlns:xlink="http://www.w3.org/1999/xlink" x="0px" y="0px" width="198.425" height="147.402" viewBox="0, 0, 198.425, 147.402">
  <g id="Layer 1">
    <path d="M113.839,74.298 C113.839,80.829 108.554,86.114 102.022,86.114 C95.49,86.114 90.205,80.829 90.205,74.298 C90.205,67.778 95.49,62.481 102.022,62.481 C108.554,62.481 113.839,67.778 113.839,74.298" fill="#000000"/>
    <path d="M102.022,74.298 L102.022,27.031" fill-opacity="0" stroke="#000000" stroke-width="0.359"/>
    <path d="M102.022,37.645 L106.27,41.893 L102.022,27.031 L97.777,41.893" fill="#000000"/>
    <path d="M102.022,37.648 L106.27,41.893 L102.022,27.031 L97.777,41.893 z" fill-opacity="0" stroke="#000000" stroke-width="0.359"/>
    <path d="M102.022,74.298 L31.122,74.298" fill-opacity="0" stroke="#000000" stroke-width="0.391"/>
    <path d="M42.684,74.298 L47.313,69.668 L31.122,74.298 L47.313,78.924" fill="#000000"/>
    <path d="M42.684,74.298 L47.313,69.671 L31.122,74.298 L47.313,78.924 z M102.022,74.298 L172.923,74.298" fill-opacity="0" stroke="#000000" stroke-width="0.391"/>
    <path d="M161.36,74.298 L156.734,78.924 L172.923,74.298 L156.734,69.668" fill="#000000"/>
    <path d="M161.36,74.298 L156.734,78.924 L172.923,74.298 L156.734,69.671 z" fill-opacity="0" stroke="#000000" stroke-width="0.391"/>
    <path d="M102.022,74.298 L102.022,121.565" fill-opacity="0" stroke="#000000" stroke-width="0.359"/>
    <path d="M102.022,110.947 L97.777,106.699 L102.022,121.565 L106.27,106.699" fill="#000000"/>
    <path d="M102.022,110.947 L97.777,106.702 L102.022,121.565 L106.27,106.702 z" fill-opacity="0" stroke="#000000" stroke-width="0.359"/>
    <path d="M184.154,67.34 L198.42,67.34 L196.888,72.332 L196.349,72.332 C196.519,71.594 196.605,70.97 196.605,70.375 C196.605,69.722 196.406,69.212 195.981,68.872 C195.669,68.588 194.875,68.475 193.57,68.475 L192.095,68.475 L188.38,81.407 C187.898,83.023 187.671,84.044 187.671,84.413 C187.671,84.753 187.813,85.037 188.125,85.264 C188.408,85.491 188.919,85.604 189.685,85.604 L190.309,85.604 L190.138,86.115 L181.971,86.115 L182.141,85.604 L182.481,85.604 C183.219,85.604 183.757,85.491 184.154,85.264 C184.41,85.122 184.665,84.838 184.892,84.413 C185.09,84.016 185.402,83.137 185.799,81.804 L189.685,68.475 L188.55,68.475 C187.473,68.475 186.593,68.616 185.941,68.9 C185.289,69.155 184.75,69.581 184.353,70.091 C183.928,70.63 183.616,71.367 183.36,72.332 L182.85,72.332 z" fill="#000000"/>
    <path d="M107.426,19.346 L104.42,10.242 C103.711,10.242 103.002,10.186 102.264,10.016 L100.648,15.716 C100.421,16.453 100.336,17.077 100.336,17.588 C100.336,17.956 100.449,18.268 100.733,18.495 C100.931,18.665 101.47,18.779 102.378,18.836 L102.264,19.346 L95.004,19.346 L95.146,18.836 C95.826,18.807 96.28,18.751 96.535,18.637 C96.904,18.495 97.188,18.268 97.358,18.013 C97.641,17.559 97.953,16.794 98.294,15.716 L101.555,4.372 C101.782,3.606 101.895,3.011 101.895,2.614 C101.895,2.188 101.725,1.819 101.385,1.536 C101.045,1.224 100.534,1.082 99.882,1.082 L100.052,0.572 L106.178,0.572 C108.22,0.572 109.695,0.969 110.602,1.734 C111.51,2.528 111.963,3.549 111.963,4.797 C111.963,6.017 111.51,7.123 110.574,8.115 C109.638,9.136 108.39,9.76 106.773,10.016 L108.588,15.517 C109.042,16.879 109.468,17.758 109.921,18.155 C110.375,18.552 111.084,18.779 112.077,18.836 L111.907,19.346 z M102.491,9.25 C103.087,9.307 103.625,9.363 104.079,9.363 C105.667,9.363 106.915,8.91 107.851,8.03 C108.759,7.151 109.241,6.074 109.241,4.741 C109.241,3.72 108.929,2.954 108.362,2.387 C107.794,1.848 106.915,1.593 105.752,1.593 C105.469,1.593 105.129,1.621 104.703,1.678 z" fill="#000000"/>
    <path d="M91.604,127.966 L89.817,134.205 C90.611,132.73 91.292,131.624 91.859,130.887 C92.738,129.753 93.589,128.902 94.411,128.391 C94.922,128.108 95.432,127.966 95.971,127.966 C96.425,127.966 96.793,128.108 97.105,128.391 C97.417,128.703 97.559,129.072 97.559,129.526 C97.559,129.979 97.474,130.575 97.247,131.312 L96.255,134.829 C97.758,132.021 99.204,130.036 100.537,128.902 C101.303,128.278 102.04,127.966 102.749,127.966 C103.175,127.966 103.543,128.108 103.798,128.391 C104.082,128.675 104.224,129.129 104.224,129.753 C104.224,130.263 104.139,130.83 103.969,131.454 L102.437,136.843 C102.097,138.005 101.955,138.658 101.955,138.771 C101.955,138.913 101.983,139.026 102.068,139.111 C102.125,139.168 102.21,139.225 102.295,139.225 C102.38,139.225 102.551,139.111 102.777,138.941 C103.288,138.544 103.798,138.005 104.252,137.353 L104.706,137.637 C104.479,138.005 104.082,138.516 103.486,139.168 C102.891,139.792 102.409,140.246 101.983,140.473 C101.558,140.7 101.189,140.813 100.821,140.813 C100.509,140.813 100.253,140.7 100.027,140.473 C99.8,140.274 99.686,139.991 99.686,139.679 C99.686,139.225 99.885,138.346 100.253,136.984 L101.53,132.56 C101.813,131.539 101.955,130.972 101.983,130.859 C102.012,130.66 102.012,130.49 102.012,130.348 C102.012,130.093 101.983,129.923 101.87,129.809 C101.757,129.668 101.643,129.611 101.501,129.611 C101.104,129.611 100.707,129.809 100.253,130.206 C99.006,131.369 97.814,133.014 96.68,135.141 C95.971,136.531 95.29,138.317 94.638,140.473 L92.568,140.473 L94.922,132.106 C95.177,131.199 95.319,130.603 95.319,130.291 C95.319,130.036 95.262,129.866 95.149,129.753 C95.063,129.611 94.922,129.554 94.78,129.554 C94.468,129.554 94.156,129.668 93.816,129.894 C93.248,130.263 92.539,131.029 91.66,132.22 C90.809,133.383 90.129,134.517 89.647,135.595 C89.42,136.105 88.853,137.722 88.002,140.473 L85.96,140.473 L88.512,131.511 L88.853,130.348 C88.909,130.178 88.938,130.036 88.938,129.951 C88.938,129.753 88.853,129.582 88.654,129.412 C88.484,129.242 88.229,129.185 87.945,129.185 C87.832,129.185 87.491,129.242 86.952,129.327 L86.839,128.817 z" fill="#000000"/>
    <path d="M120.701,128.817 L120.304,130.263 L118.007,130.263 C118.177,130.745 118.262,131.227 118.262,131.653 C118.262,132.872 117.752,133.95 116.702,134.914 C115.681,135.85 114.235,136.389 112.42,136.474 C111.456,136.786 110.718,137.126 110.208,137.523 C110.038,137.693 109.953,137.835 109.953,138.005 C109.953,138.176 110.038,138.346 110.179,138.488 C110.35,138.658 110.775,138.8 111.456,138.97 L114.15,139.594 C115.625,139.934 116.617,140.359 117.099,140.841 C117.553,141.324 117.78,141.891 117.78,142.515 C117.78,143.28 117.525,143.961 116.958,144.613 C116.39,145.237 115.568,145.719 114.519,146.088 C113.441,146.428 112.25,146.599 110.945,146.599 C109.782,146.599 108.761,146.485 107.797,146.202 C106.861,145.918 106.181,145.549 105.784,145.095 C105.387,144.642 105.188,144.16 105.188,143.677 C105.188,143.28 105.302,142.855 105.585,142.43 C105.84,142.004 106.152,141.664 106.549,141.38 C106.805,141.21 107.514,140.785 108.676,140.132 C108.251,139.792 108.052,139.423 108.052,139.026 C108.052,138.658 108.223,138.261 108.591,137.864 C108.988,137.438 109.782,136.984 110.974,136.474 C109.953,136.304 109.159,135.878 108.563,135.198 C107.967,134.545 107.684,133.836 107.684,133.014 C107.684,131.709 108.251,130.547 109.385,129.497 C110.548,128.476 112.08,127.966 113.98,127.966 C114.689,127.966 115.256,128.023 115.681,128.164 C116.135,128.306 116.561,128.505 116.986,128.817 z M115.908,131 C115.908,130.235 115.71,129.668 115.284,129.242 C114.887,128.817 114.348,128.618 113.668,128.618 C112.647,128.618 111.768,129.129 111.087,130.178 C110.406,131.227 110.066,132.305 110.066,133.439 C110.066,134.177 110.293,134.744 110.718,135.198 C111.172,135.652 111.683,135.878 112.307,135.878 C112.789,135.878 113.271,135.737 113.725,135.481 C114.178,135.198 114.575,134.829 114.887,134.375 C115.199,133.893 115.455,133.298 115.625,132.56 C115.823,131.823 115.908,131.312 115.908,131 z M109.272,140.473 C108.535,140.841 107.967,141.267 107.57,141.806 C107.202,142.345 107.003,142.855 107.003,143.394 C107.003,143.989 107.287,144.5 107.826,144.897 C108.62,145.464 109.782,145.748 111.314,145.748 C112.647,145.748 113.781,145.521 114.717,145.067 C115.653,144.642 116.107,144.046 116.107,143.337 C116.107,142.968 115.937,142.628 115.596,142.316 C115.256,142.004 114.575,141.721 113.583,141.522 C113.044,141.409 111.598,141.068 109.272,140.473 z" fill="#000000"/>
    <path d="M9.92,63.76 L7.708,71.19 L10.147,71.19 C11.282,71.19 12.104,71.02 12.643,70.68 C13.182,70.34 13.749,69.602 14.345,68.496 L14.884,68.496 L12.927,75.331 L12.359,75.331 C12.501,74.764 12.558,74.31 12.558,73.941 C12.558,73.402 12.388,72.949 12.019,72.637 C11.622,72.325 10.941,72.183 9.92,72.183 L7.425,72.183 L5.78,77.855 C5.496,78.848 5.354,79.528 5.354,79.84 C5.354,80.181 5.468,80.464 5.723,80.634 C5.978,80.833 6.602,80.946 7.595,81.003 L7.425,81.514 L-0.006,81.514 L0.165,81.003 C0.902,81.003 1.384,80.946 1.611,80.833 C1.98,80.663 2.263,80.464 2.433,80.181 C2.689,79.812 2.972,79.018 3.313,77.855 L6.631,66.539 C6.886,65.603 7.028,64.894 7.028,64.384 C7.028,64.157 6.971,63.93 6.858,63.76 C6.744,63.59 6.546,63.476 6.319,63.391 C6.092,63.306 5.61,63.25 4.901,63.25 L5.071,62.739 L19.648,62.739 L18.258,67.504 L17.748,67.504 C17.833,66.936 17.89,66.454 17.89,66.086 C17.89,65.49 17.72,65.008 17.379,64.639 C17.039,64.299 16.614,64.044 16.075,63.873 C15.706,63.788 14.884,63.76 13.607,63.76 z" fill="#000000"/>
    <path d="M18.999,79.554 L22.096,79.056 L20.806,83.425 C21.857,81.637 22.815,80.383 23.663,79.664 C24.161,79.259 24.548,79.056 24.861,79.056 C25.046,79.056 25.212,79.111 25.322,79.222 C25.433,79.332 25.488,79.517 25.488,79.738 C25.488,80.125 25.396,80.512 25.193,80.863 C25.046,81.139 24.843,81.268 24.566,81.268 C24.437,81.268 24.308,81.231 24.216,81.139 C24.106,81.047 24.05,80.918 24.032,80.715 C24.013,80.604 23.995,80.531 23.94,80.494 C23.903,80.457 23.848,80.42 23.774,80.42 C23.663,80.42 23.571,80.457 23.479,80.494 C23.331,80.586 23.092,80.807 22.778,81.194 C22.281,81.784 21.746,82.559 21.156,83.48 C20.898,83.886 20.695,84.328 20.511,84.826 C20.253,85.508 20.105,85.914 20.068,86.061 L19.792,87.186 L18.409,87.186 L20.068,81.6 C20.271,80.955 20.363,80.494 20.363,80.217 C20.363,80.107 20.327,80.015 20.234,79.941 C20.105,79.849 19.958,79.812 19.755,79.812 C19.626,79.812 19.386,79.83 19.055,79.886 z" fill="#000000"/>
  </g>
  <defs/>
</svg>
