<?xml version="1.0" encoding="UTF-8"?>
<!DOCTYPE svg PUBLIC "-//W3C//DTD SVG 1.1//EN" "http://www.w3.org/Graphics/SVG/1.1/DTD/svg11.dtd">
<svg version="1.1" xmlns="http://www.w3.org/2000/svg" xmlns:xlink="http://www.w3.org/1999/xlink" x="0px" y="0px" width="311.811" height="141.732" viewBox="0, 0, 311.811, 141.732">
  <g id="Layer 1">
    <path d="M0.184,120.164 L311.995,120.164" fill-opacity="0" stroke="#000000" stroke-width="0.371"/>
    <path d="M60.148,120.164 L60.148,24.223 L252.031,24.223 L252.031,120.164" fill-opacity="0" stroke="#000000" stroke-width="0.391"/>
    <path d="M67.349,24.223 C67.349,28.192 64.129,31.412 60.148,31.412 C56.175,31.412 52.955,28.192 52.955,24.223 C52.955,20.238 56.175,17.018 60.148,17.018 C64.129,17.018 67.349,20.238 67.349,24.223 z M259.233,24.223 C259.233,28.192 256.013,31.412 252.031,31.412 C248.059,31.412 244.839,28.192 244.839,24.223 C244.839,20.238 248.059,17.018 252.031,17.018 C256.013,17.018 259.233,20.238 259.233,24.223 z" fill-opacity="0" stroke="#000000" stroke-width="0.2"/>
    <path d="M52.955,24.223 L52.955,84.186 M60.148,17.018 L252.031,17.018" fill-opacity="0" stroke="#000000" stroke-width="0.16"/>
    <path d="M96.126,9.828 L110.52,9.828 L110.52,24.223 L96.126,24.223 z" fill="#000000"/>
    <path d="M48.155,84.186 L57.758,84.186 L57.758,93.777 L48.155,93.777 z" fill="#000000"/>
    <path d="M254.43,60.201 L264.021,60.201 L264.021,69.792 L254.43,69.792 z" fill="#000000"/>
    <path d="M259.233,24.223 L259.233,60.201" fill-opacity="0" stroke="#000000" stroke-width="0.16"/>
    <path d="M269.535,51.453 L268.628,54.619 C269.031,53.87 269.377,53.309 269.665,52.935 C270.111,52.359 270.542,51.928 270.96,51.669 C271.219,51.525 271.478,51.453 271.751,51.453 C271.982,51.453 272.169,51.525 272.327,51.669 C272.485,51.827 272.557,52.014 272.557,52.244 C272.557,52.474 272.514,52.777 272.399,53.151 L271.895,54.935 C272.658,53.511 273.392,52.503 274.068,51.928 C274.457,51.611 274.831,51.453 275.191,51.453 C275.407,51.453 275.594,51.525 275.723,51.669 C275.867,51.812 275.939,52.043 275.939,52.359 C275.939,52.618 275.896,52.906 275.81,53.223 L275.033,55.957 C274.86,56.547 274.788,56.878 274.788,56.936 C274.788,57.008 274.802,57.065 274.845,57.108 C274.874,57.137 274.917,57.166 274.961,57.166 C275.004,57.166 275.09,57.108 275.205,57.022 C275.464,56.821 275.723,56.547 275.954,56.216 L276.184,56.36 C276.069,56.547 275.867,56.806 275.565,57.137 C275.263,57.454 275.018,57.684 274.802,57.799 C274.586,57.914 274.399,57.972 274.212,57.972 C274.054,57.972 273.924,57.914 273.809,57.799 C273.694,57.698 273.637,57.555 273.637,57.396 C273.637,57.166 273.737,56.72 273.924,56.029 L274.572,53.784 C274.716,53.266 274.788,52.978 274.802,52.921 C274.817,52.82 274.817,52.733 274.817,52.662 C274.817,52.532 274.802,52.446 274.745,52.388 C274.687,52.316 274.63,52.287 274.558,52.287 C274.356,52.287 274.155,52.388 273.924,52.59 C273.291,53.18 272.687,54.014 272.111,55.094 C271.751,55.799 271.406,56.705 271.075,57.799 L270.024,57.799 L271.219,53.554 C271.348,53.093 271.42,52.791 271.42,52.633 C271.42,52.503 271.392,52.417 271.334,52.359 C271.291,52.287 271.219,52.259 271.147,52.259 C270.989,52.259 270.83,52.316 270.658,52.431 C270.37,52.618 270.01,53.007 269.564,53.611 C269.132,54.201 268.787,54.777 268.542,55.324 C268.427,55.583 268.139,56.403 267.707,57.799 L266.671,57.799 L267.966,53.252 L268.139,52.662 C268.168,52.575 268.182,52.503 268.182,52.46 C268.182,52.359 268.139,52.273 268.038,52.187 C267.952,52.1 267.823,52.071 267.679,52.071 C267.621,52.071 267.448,52.1 267.175,52.143 L267.117,51.884 z" fill="#000000"/>
    <path d="M280.054,60.677 L276.967,60.677 L276.967,60.509 C278.538,59.134 279.577,58.058 280.082,57.273 C280.316,56.917 280.437,56.534 280.437,56.131 C280.437,55.813 280.335,55.561 280.138,55.355 C279.951,55.158 279.698,55.056 279.38,55.056 C278.959,55.056 278.604,55.261 278.323,55.673 L278.164,55.607 C278.323,55.215 278.548,54.906 278.847,54.691 C279.147,54.466 279.465,54.363 279.811,54.363 C280.204,54.363 280.54,54.494 280.802,54.766 C281.074,55.037 281.204,55.364 281.204,55.748 C281.204,56.01 281.158,56.262 281.064,56.487 C280.914,56.842 280.653,57.244 280.26,57.684 C279.661,58.358 278.866,59.143 277.865,60.023 L279.418,60.023 C279.67,60.023 279.876,59.967 280.035,59.864 C280.204,59.761 280.316,59.62 280.381,59.452 L280.568,59.452 z" fill="#000000"/>
    <path d="M113.63,1.083 L112.723,4.249 C113.126,3.501 113.471,2.94 113.759,2.566 C114.205,1.99 114.637,1.558 115.054,1.299 C115.313,1.155 115.572,1.083 115.846,1.083 C116.076,1.083 116.263,1.155 116.421,1.299 C116.58,1.457 116.652,1.644 116.652,1.875 C116.652,2.105 116.609,2.407 116.493,2.781 L115.99,4.566 C116.752,3.141 117.486,2.134 118.163,1.558 C118.551,1.242 118.926,1.083 119.285,1.083 C119.501,1.083 119.688,1.155 119.818,1.299 C119.962,1.443 120.034,1.673 120.034,1.99 C120.034,2.249 119.99,2.537 119.904,2.853 L119.127,5.588 C118.954,6.178 118.882,6.509 118.882,6.566 C118.882,6.638 118.897,6.696 118.94,6.739 C118.969,6.768 119.012,6.797 119.055,6.797 C119.098,6.797 119.185,6.739 119.3,6.653 C119.559,6.451 119.818,6.178 120.048,5.847 L120.278,5.991 C120.163,6.178 119.962,6.437 119.659,6.768 C119.357,7.084 119.113,7.315 118.897,7.43 C118.681,7.545 118.494,7.602 118.307,7.602 C118.148,7.602 118.019,7.545 117.904,7.43 C117.789,7.329 117.731,7.185 117.731,7.027 C117.731,6.797 117.832,6.35 118.019,5.66 L118.666,3.415 C118.81,2.897 118.882,2.609 118.897,2.551 C118.911,2.45 118.911,2.364 118.911,2.292 C118.911,2.163 118.897,2.076 118.839,2.019 C118.782,1.947 118.724,1.918 118.652,1.918 C118.451,1.918 118.249,2.019 118.019,2.22 C117.386,2.81 116.781,3.645 116.206,4.724 C115.846,5.429 115.5,6.336 115.169,7.43 L114.119,7.43 L115.313,3.184 C115.443,2.724 115.515,2.422 115.515,2.263 C115.515,2.134 115.486,2.047 115.428,1.99 C115.385,1.918 115.313,1.889 115.241,1.889 C115.083,1.889 114.925,1.947 114.752,2.062 C114.464,2.249 114.104,2.637 113.658,3.242 C113.227,3.832 112.881,4.408 112.637,4.954 C112.521,5.213 112.234,6.034 111.802,7.43 L110.766,7.43 L112.061,2.882 L112.234,2.292 C112.262,2.206 112.277,2.134 112.277,2.091 C112.277,1.99 112.234,1.904 112.133,1.817 C112.047,1.731 111.917,1.702 111.773,1.702 C111.715,1.702 111.543,1.731 111.269,1.774 L111.212,1.515 z" fill="#000000"/>
    <path d="M122.343,6.931 L122.343,6.8 C123.082,6.679 123.634,6.463 123.999,6.136 C124.261,5.902 124.392,5.631 124.392,5.313 C124.392,5.07 124.307,4.873 124.158,4.714 C124.008,4.555 123.821,4.48 123.606,4.48 C123.269,4.48 122.96,4.695 122.698,5.116 L122.53,5.06 C122.689,4.714 122.895,4.443 123.138,4.265 C123.391,4.078 123.662,3.994 123.952,3.994 C124.317,3.994 124.607,4.097 124.822,4.312 C125.046,4.527 125.159,4.798 125.159,5.126 C125.159,5.406 125.056,5.678 124.85,5.94 C124.635,6.192 124.279,6.426 123.774,6.632 C124.092,6.763 124.326,6.95 124.485,7.193 C124.654,7.436 124.728,7.736 124.728,8.082 C124.728,8.456 124.616,8.839 124.401,9.223 C124.186,9.606 123.877,9.896 123.503,10.112 C123.119,10.317 122.717,10.42 122.296,10.42 C121.913,10.42 121.623,10.355 121.426,10.224 C121.295,10.13 121.23,10.027 121.23,9.906 C121.23,9.794 121.267,9.7 121.342,9.625 C121.417,9.55 121.52,9.513 121.632,9.513 C121.707,9.513 121.791,9.522 121.866,9.55 C121.913,9.569 122.034,9.625 122.221,9.728 C122.418,9.84 122.567,9.906 122.67,9.943 C122.773,9.981 122.886,9.999 122.998,9.999 C123.269,9.999 123.503,9.84 123.681,9.522 C123.858,9.204 123.943,8.867 123.943,8.503 C123.943,8.213 123.886,7.951 123.765,7.726 C123.643,7.492 123.456,7.305 123.194,7.165 C122.932,7.025 122.652,6.95 122.343,6.931 z" fill="#000000"/>
    <path d="M34.478,73.04 L33.571,76.206 C33.974,75.457 34.319,74.896 34.607,74.522 C35.053,73.946 35.485,73.515 35.902,73.255 C36.161,73.112 36.42,73.04 36.694,73.04 C36.924,73.04 37.111,73.112 37.269,73.255 C37.428,73.414 37.5,73.601 37.5,73.831 C37.5,74.061 37.457,74.364 37.341,74.738 L36.838,76.522 C37.6,75.098 38.334,74.09 39.011,73.515 C39.399,73.198 39.774,73.04 40.133,73.04 C40.349,73.04 40.536,73.112 40.666,73.255 C40.81,73.399 40.882,73.63 40.882,73.946 C40.882,74.205 40.838,74.493 40.752,74.81 L39.975,77.544 C39.802,78.134 39.73,78.465 39.73,78.523 C39.73,78.595 39.745,78.652 39.788,78.695 C39.817,78.724 39.86,78.753 39.903,78.753 C39.946,78.753 40.033,78.695 40.148,78.609 C40.407,78.408 40.666,78.134 40.896,77.803 L41.126,77.947 C41.011,78.134 40.81,78.393 40.507,78.724 C40.205,79.041 39.961,79.271 39.745,79.386 C39.529,79.501 39.342,79.559 39.155,79.559 C38.996,79.559 38.867,79.501 38.752,79.386 C38.637,79.285 38.579,79.141 38.579,78.983 C38.579,78.753 38.68,78.307 38.867,77.616 L39.514,75.371 C39.658,74.853 39.73,74.565 39.745,74.507 C39.759,74.407 39.759,74.32 39.759,74.248 C39.759,74.119 39.745,74.033 39.687,73.975 C39.63,73.903 39.572,73.874 39.5,73.874 C39.299,73.874 39.097,73.975 38.867,74.176 C38.234,74.767 37.629,75.601 37.054,76.681 C36.694,77.386 36.348,78.292 36.017,79.386 L34.967,79.386 L36.161,75.141 C36.291,74.68 36.363,74.378 36.363,74.22 C36.363,74.09 36.334,74.004 36.276,73.946 C36.233,73.874 36.161,73.846 36.089,73.846 C35.931,73.846 35.773,73.903 35.6,74.018 C35.312,74.205 34.952,74.594 34.506,75.198 C34.075,75.788 33.729,76.364 33.485,76.911 C33.369,77.17 33.082,77.99 32.65,79.386 L31.614,79.386 L32.909,74.839 L33.082,74.248 C33.11,74.162 33.125,74.09 33.125,74.047 C33.125,73.946 33.082,73.86 32.981,73.774 C32.894,73.687 32.765,73.658 32.621,73.658 C32.563,73.658 32.391,73.687 32.117,73.73 L32.06,73.471 z" fill="#000000"/>
    <path d="M45.67,75.95 L44.201,81.067 C44.117,81.366 44.07,81.591 44.07,81.722 C44.07,81.834 44.108,81.918 44.192,81.974 C44.267,82.04 44.444,82.077 44.734,82.096 L44.688,82.264 L42.34,82.264 L42.396,82.096 C42.648,82.096 42.817,82.077 42.892,82.04 C43.023,81.984 43.116,81.909 43.182,81.825 C43.284,81.684 43.387,81.432 43.49,81.067 L44.547,77.391 C44.613,77.166 44.641,77.045 44.65,77.007 C44.66,76.942 44.669,76.886 44.669,76.83 C44.669,76.727 44.632,76.642 44.575,76.577 C44.519,76.521 44.444,76.483 44.342,76.483 C44.257,76.483 44.136,76.502 43.967,76.54 L43.911,76.381 L45.455,75.95 z" fill="#000000"/>
    <text transform="matrix(1, 0, -0, 1, 60.404, 127.261)">
      <tspan x="-3.611" y="2.5" font-family="TimesNewRomanPSMT" font-size="10" fill="#000000">A</tspan>
    </text>
    <text transform="matrix(1, 0, -0, 1, 162.212, 14.732)">
      <tspan x="-104.459" y="-3.117" font-family="TimesNewRomanPSMT" font-size="10" fill="#000000">B  </tspan>
      <tspan x="92.808" y="-3.117" font-family="TimesNewRomanPSMT" font-size="10" fill="#000000">C</tspan>
    </text>
    <text transform="matrix(1, 0, -0, 1, 253.248, 128.257)">
      <tspan x="-3.611" y="1.505" font-family="TimesNewRomanPSMT" font-size="10" fill="#000000">D</tspan>
    </text>
    <path d="M242.437,118.452 L242.437,65.376" fill-opacity="0" stroke="#000000" stroke-width="0.253"/>
    <path d="M244.161,118.452 L240.728,118.452 M244.161,65.376 L240.728,65.376" fill-opacity="0" stroke="#000000" stroke-width="0.127"/>
    <path d="M230.828,85.708 L228.856,92.53 C229.705,91.249 230.367,90.4 230.842,89.982 C231.332,89.551 231.778,89.349 232.224,89.349 C232.44,89.349 232.627,89.421 232.785,89.579 C232.929,89.723 233.001,89.939 233.001,90.198 C233.001,90.5 232.943,90.875 232.814,91.321 L231.95,94.257 C231.85,94.616 231.792,94.818 231.792,94.847 C231.792,94.919 231.807,94.976 231.85,95.019 C231.893,95.062 231.936,95.077 231.994,95.077 C232.051,95.077 232.123,95.048 232.195,94.99 C232.469,94.775 232.728,94.501 232.987,94.127 L233.202,94.257 C233.044,94.516 232.828,94.789 232.54,95.077 C232.267,95.379 232.022,95.581 231.821,95.696 C231.605,95.811 231.432,95.868 231.274,95.868 C231.101,95.868 230.957,95.811 230.842,95.71 C230.742,95.595 230.684,95.451 230.684,95.278 C230.684,95.077 230.756,94.688 230.929,94.127 L231.735,91.321 C231.835,90.961 231.893,90.688 231.893,90.486 C231.893,90.4 231.864,90.313 231.807,90.27 C231.749,90.213 231.663,90.184 231.576,90.184 C231.432,90.184 231.288,90.227 231.101,90.328 C230.785,90.529 230.425,90.903 230.008,91.436 C229.892,91.58 229.518,92.155 228.885,93.192 C228.684,93.508 228.525,93.868 228.396,94.257 L227.95,95.696 L226.899,95.696 L229.202,87.665 L229.446,86.787 C229.446,86.672 229.403,86.557 229.302,86.471 C229.202,86.37 229.072,86.327 228.928,86.327 C228.842,86.327 228.712,86.341 228.54,86.37 L228.396,86.399 L228.396,86.111 z" fill="#000000"/>
    <path d="M237.034,92.26 C237.427,92.26 237.754,92.419 238.016,92.746 C238.288,93.074 238.419,93.588 238.419,94.29 C238.419,94.888 238.325,95.506 238.119,96.132 C237.923,96.759 237.642,97.302 237.287,97.769 C236.997,98.125 236.697,98.387 236.389,98.555 C236.202,98.639 235.996,98.686 235.753,98.686 C235.36,98.686 235.023,98.527 234.761,98.2 C234.49,97.872 234.359,97.358 234.359,96.647 C234.359,95.955 234.49,95.253 234.761,94.552 C235.079,93.728 235.472,93.102 235.958,92.681 C236.286,92.4 236.641,92.26 237.034,92.26 z M237.044,92.494 C236.866,92.494 236.688,92.568 236.501,92.699 C236.323,92.84 236.136,93.13 235.94,93.569 C235.753,94.009 235.566,94.57 235.388,95.262 C235.163,96.17 235.042,96.937 235.042,97.573 C235.042,97.891 235.117,98.125 235.247,98.284 C235.388,98.443 235.556,98.518 235.753,98.518 C235.93,98.518 236.089,98.462 236.22,98.34 C236.576,98.003 236.875,97.442 237.118,96.647 C237.53,95.347 237.726,94.29 237.726,93.485 C237.726,93.139 237.661,92.896 237.521,92.737 C237.39,92.578 237.231,92.494 237.044,92.494 z" fill="#000000"/>
  </g>
  <defs/>
</svg>
