<?xml version="1.0" encoding="UTF-8"?>
<!DOCTYPE svg PUBLIC "-//W3C//DTD SVG 1.1//EN" "http://www.w3.org/Graphics/SVG/1.1/DTD/svg11.dtd">
<svg version="1.1" xmlns="http://www.w3.org/2000/svg" xmlns:xlink="http://www.w3.org/1999/xlink" x="0px" y="0px" width="198.425" height="45.78" viewBox="0, 0, 198.425, 45.78">
  <g id="Layer 1">
    <path d="M17.781,25.263 C17.781,29.416 14.415,32.789 10.254,32.789 C6.102,32.789 2.728,29.416 2.728,25.263 C2.728,21.102 6.102,17.736 10.254,17.736 C14.415,17.736 17.781,21.102 17.781,25.263" fill="#000000"/>
    <path d="M62.942,25.263 C62.942,29.416 59.576,32.789 55.415,32.789 C51.262,32.789 47.888,29.416 47.888,25.263 C47.888,21.102 51.262,17.736 55.415,17.736 C59.576,17.736 62.942,21.102 62.942,25.263" fill="#000000"/>
    <path d="M138.21,25.263 C138.21,29.416 134.843,32.789 130.683,32.789 C126.53,32.789 123.156,29.416 123.156,25.263 C123.156,21.102 126.53,17.736 130.683,17.736 C134.843,17.736 138.21,21.102 138.21,25.263" fill="#000000"/>
    <path d="M198.424,25.263 C198.424,29.416 195.058,32.789 190.897,32.789 C186.744,32.789 183.37,29.416 183.37,25.263 C183.37,21.102 186.744,17.736 190.897,17.736 C195.058,17.736 198.424,21.102 198.424,25.263" fill="#000000"/>
    <path d="M77.995,25.263 L108.103,25.263" fill-opacity="0" stroke="#000000" stroke-width="1.2"/>
    <path d="M99.069,25.263 L94.556,29.777 L110.359,25.263 L94.556,20.743" fill="#000000"/>
    <path d="M99.069,25.263 L94.556,29.775 L110.359,25.263 L94.556,20.743 z" fill-opacity="0" stroke="#000000" stroke-width="0.6"/>
    <path d="M2.728,13.216 L17.781,13.216" fill-opacity="0" stroke="#000000" stroke-width="0.4"/>
    <path d="M10.254,13.216 L8.747,14.723 L14.018,13.216 L8.747,11.716" fill="#000000"/>
    <path d="M10.254,13.216 L8.747,14.721 L14.018,13.216 L8.747,11.716 z" fill-opacity="0" stroke="#000000" stroke-width="0.2"/>
    <path d="M4.108,2.723 L2.97,6.661 L3.684,6.661 L3.521,7.203 L2.799,7.203 L2.338,8.81 L1.688,8.81 L2.157,7.203 L-0.001,7.203 L0.179,6.589 L3.774,2.723 z M3.133,3.861 L0.559,6.661 L2.329,6.661 z" fill="#000000"/>
    <text transform="matrix(1, 0, -0, 1, 10.086, 6.82)">
      <tspan x="-5.851" y="2.355" font-family="TimesNewRomanPSMT" font-size="4.8" fill="#000000"> </tspan>
      <tspan x="-4.651" y="2.355" font-family="TimesNewRomanPSMT" font-size="9" fill="#000000">m</tspan>
      <tspan x="2.349" y="2.355" font-family="TimesNewRomanPSMT" font-size="9" fill="#000000">s</tspan>
    </text>
    <text transform="matrix(1, 0, -0, 1, 19.94, 4.148)">
      <tspan x="-2.916" y="1.296" font-family="TimesNewRomanPSMT" font-size="7" fill="#000000">-</tspan>
      <tspan x="-0.584" y="1.296" font-family="TimesNewRomanPSMT" font-size="7" fill="#000000">1</tspan>
    </text>
    <path d="M5.846,41.82 L2.865,41.82 L2.865,41.657 C4.382,40.33 5.385,39.291 5.873,38.532 C6.099,38.189 6.216,37.819 6.216,37.43 C6.216,37.123 6.117,36.879 5.927,36.681 C5.746,36.491 5.502,36.392 5.195,36.392 C4.789,36.392 4.446,36.59 4.175,36.988 L4.021,36.924 C4.175,36.545 4.391,36.247 4.68,36.039 C4.969,35.823 5.277,35.723 5.611,35.723 C5.99,35.723 6.315,35.85 6.568,36.112 C6.83,36.374 6.957,36.69 6.957,37.06 C6.957,37.313 6.911,37.557 6.821,37.773 C6.677,38.117 6.424,38.505 6.044,38.93 C5.466,39.58 4.699,40.339 3.732,41.188 L5.231,41.188 C5.475,41.188 5.674,41.133 5.828,41.034 C5.99,40.935 6.099,40.799 6.162,40.637 L6.342,40.637 z" fill="#000000"/>
    <text transform="matrix(1, 0, -0, 1, 14.004, 39.793)">
      <tspan x="-4.5" y="2.5" font-family="TimesNewRomanPSMT" font-size="9" fill="#000000">k</tspan>
      <tspan x="0" y="2.5" font-family="TimesNewRomanPSMT" font-size="9" fill="#000000">g</tspan>
    </text>
    <path d="M54.357,36.331 L53.788,38.318 C54.041,37.848 54.258,37.496 54.439,37.261 C54.719,36.9 54.989,36.629 55.251,36.467 C55.414,36.376 55.577,36.331 55.748,36.331 C55.893,36.331 56.01,36.376 56.109,36.467 C56.209,36.566 56.254,36.683 56.254,36.828 C56.254,36.972 56.227,37.162 56.155,37.397 L55.838,38.517 C56.317,37.623 56.778,36.99 57.202,36.629 C57.446,36.43 57.681,36.331 57.907,36.331 C58.042,36.331 58.16,36.376 58.241,36.467 C58.331,36.557 58.377,36.701 58.377,36.9 C58.377,37.063 58.349,37.243 58.295,37.442 L57.808,39.158 C57.699,39.528 57.654,39.736 57.654,39.772 C57.654,39.817 57.663,39.854 57.69,39.881 C57.708,39.899 57.735,39.917 57.762,39.917 C57.789,39.917 57.844,39.881 57.916,39.826 C58.078,39.7 58.241,39.528 58.386,39.321 L58.53,39.411 C58.458,39.528 58.331,39.691 58.142,39.899 C57.952,40.097 57.798,40.242 57.663,40.314 C57.528,40.386 57.41,40.423 57.293,40.423 C57.193,40.423 57.112,40.386 57.04,40.314 C56.968,40.251 56.931,40.161 56.931,40.061 C56.931,39.917 56.995,39.637 57.112,39.203 L57.518,37.794 C57.609,37.469 57.654,37.288 57.663,37.252 C57.672,37.189 57.672,37.135 57.672,37.09 C57.672,37.008 57.663,36.954 57.627,36.918 C57.591,36.873 57.555,36.855 57.509,36.855 C57.383,36.855 57.257,36.918 57.112,37.045 C56.715,37.415 56.335,37.939 55.974,38.616 C55.748,39.059 55.531,39.628 55.324,40.314 L54.664,40.314 L55.414,37.65 C55.495,37.361 55.54,37.171 55.54,37.072 C55.54,36.99 55.522,36.936 55.486,36.9 C55.459,36.855 55.414,36.837 55.369,36.837 C55.269,36.837 55.17,36.873 55.062,36.945 C54.881,37.063 54.655,37.307 54.375,37.686 C54.104,38.056 53.888,38.417 53.734,38.761 C53.662,38.923 53.481,39.438 53.21,40.314 L52.56,40.314 L53.373,37.46 L53.481,37.09 C53.499,37.036 53.508,36.99 53.508,36.963 C53.508,36.9 53.481,36.846 53.418,36.792 C53.364,36.738 53.282,36.719 53.192,36.719 C53.156,36.719 53.048,36.738 52.876,36.765 L52.84,36.602 z" fill="#000000"/>
    <path d="M138.21,13.216 L123.156,13.216" fill-opacity="0" stroke="#000000" stroke-width="0.4"/>
    <path d="M130.683,13.216 L132.19,11.716 L126.92,13.216 L132.19,14.723" fill="#000000"/>
    <path d="M130.683,13.216 L132.19,11.716 L126.92,13.216 L132.19,14.721 z" fill-opacity="0" stroke="#000000" stroke-width="0.2"/>
    <path d="M183.37,13.216 L198.424,13.216" fill-opacity="0" stroke="#000000" stroke-width="0.4"/>
    <path d="M190.897,13.216 L189.39,14.723 L194.661,13.216 L189.39,11.716" fill="#000000"/>
    <path d="M190.897,13.216 L189.39,14.721 L194.661,13.216 L189.39,11.716 z" fill-opacity="0" stroke="#000000" stroke-width="0.2"/>
    <path d="M123.026,6.947 L123.026,6.82 C123.739,6.703 124.272,6.495 124.624,6.179 C124.877,5.953 125.004,5.691 125.004,5.384 C125.004,5.149 124.922,4.96 124.778,4.806 C124.633,4.653 124.453,4.58 124.245,4.58 C123.92,4.58 123.622,4.788 123.369,5.195 L123.206,5.14 C123.36,4.806 123.558,4.544 123.793,4.373 C124.037,4.192 124.299,4.111 124.579,4.111 C124.931,4.111 125.211,4.21 125.419,4.418 C125.636,4.626 125.744,4.887 125.744,5.204 C125.744,5.475 125.645,5.736 125.446,5.989 C125.238,6.233 124.895,6.459 124.407,6.658 C124.715,6.784 124.94,6.965 125.094,7.2 C125.257,7.435 125.329,7.724 125.329,8.058 C125.329,8.419 125.22,8.789 125.013,9.16 C124.805,9.53 124.507,9.81 124.146,10.018 C123.775,10.216 123.387,10.316 122.98,10.316 C122.61,10.316 122.33,10.253 122.14,10.126 C122.014,10.036 121.951,9.936 121.951,9.819 C121.951,9.711 121.987,9.62 122.059,9.548 C122.131,9.476 122.231,9.44 122.339,9.44 C122.411,9.44 122.493,9.449 122.565,9.476 C122.61,9.494 122.728,9.548 122.908,9.647 C123.098,9.756 123.242,9.819 123.342,9.855 C123.441,9.891 123.549,9.909 123.658,9.909 C123.92,9.909 124.146,9.756 124.317,9.449 C124.489,9.142 124.57,8.816 124.57,8.464 C124.57,8.184 124.516,7.931 124.398,7.715 C124.281,7.489 124.1,7.308 123.847,7.173 C123.595,7.037 123.324,6.965 123.026,6.947 z" fill="#000000"/>
    <text transform="matrix(1, 0, -0, 1, 133.678, 8.326)">
      <tspan x="-5.251" y="2.355" font-family="TimesNewRomanPSMT" font-size="9" fill="#000000">m</tspan>
      <tspan x="1.749" y="2.355" font-family="TimesNewRomanPSMT" font-size="9" fill="#000000">s</tspan>
    </text>
    <text transform="matrix(1, 0, -0, 1, 141.874, 5.654)">
      <tspan x="-2.916" y="1.296" font-family="TimesNewRomanPSMT" font-size="7" fill="#000000">-</tspan>
      <tspan x="-0.584" y="1.296" font-family="TimesNewRomanPSMT" font-size="7" fill="#000000">1</tspan>
    </text>
    <path d="M190.487,5.32 L191.761,5.049 C191.851,5.265 191.923,5.482 191.987,5.708 C192.059,6.042 192.122,6.439 192.176,6.891 C192.203,7.126 192.231,7.605 192.276,8.345 C192.637,7.939 192.863,7.695 192.926,7.596 C193.314,7.072 193.54,6.756 193.603,6.665 C193.694,6.512 193.766,6.376 193.802,6.259 C193.838,6.169 193.856,6.087 193.856,6.006 C193.856,5.934 193.784,5.843 193.649,5.744 C193.513,5.645 193.441,5.527 193.441,5.41 C193.441,5.31 193.477,5.229 193.558,5.157 C193.631,5.085 193.721,5.049 193.82,5.049 C193.947,5.049 194.055,5.094 194.145,5.193 C194.245,5.301 194.29,5.428 194.29,5.572 C194.29,5.726 194.263,5.87 194.218,6.006 C194.145,6.232 194.001,6.503 193.793,6.828 C193.585,7.144 193.242,7.578 192.782,8.119 C192.718,8.183 192.393,8.526 191.797,9.14 L191.634,9.14 C191.571,7.279 191.418,6.123 191.201,5.654 C191.12,5.509 191.002,5.437 190.831,5.437 C190.758,5.437 190.65,5.446 190.514,5.473 z" fill="#000000"/>
  </g>
  <defs/>
</svg>
