<?xml version="1.0" encoding="UTF-8"?>
<!DOCTYPE svg PUBLIC "-//W3C//DTD SVG 1.1//EN" "http://www.w3.org/Graphics/SVG/1.1/DTD/svg11.dtd">
<svg version="1.1" xmlns="http://www.w3.org/2000/svg" xmlns:xlink="http://www.w3.org/1999/xlink" x="0px" y="0px" width="141.732" height="80.787" viewBox="0, 0, 141.732, 80.787">
  <g id="Layer 1">
    <path d="M-0,46.04 L141.732,46.04" fill-opacity="0" stroke="#000000" stroke-width="0.684"/>
    <path d="M52.217,38.58 C52.217,42.703 48.881,46.04 44.758,46.04 C40.634,46.04 37.298,42.703 37.298,38.58 C37.298,34.457 40.634,31.12 44.758,31.12 C48.881,31.12 52.217,34.457 52.217,38.58" fill="#000000"/>
    <path d="M104.434,38.58 C104.434,42.703 101.098,46.04 96.975,46.04 C92.851,46.04 89.515,42.703 89.515,38.58 C89.515,34.457 92.851,31.12 96.975,31.12 C101.098,31.12 104.434,34.457 104.434,38.58" fill="#000000"/>
    <text transform="matrix(1, 0, -0, 1, 84.296, 32.985)">
      <tspan x="-32.079" y="-2.189" font-family="TimesNewRomanPSMT" font-size="9.6" fill="#000000">A</tspan>
      <tspan x="-4.079" y="-2.189" font-family="TimesNewRomanPSMT" font-size="9.6" fill="#000000">B</tspan>
    </text>
    <path d="M29.838,16.201 L59.677,16.201" fill-opacity="0" stroke="#000000" stroke-width="0.391"/>
    <path d="M44.918,16.201 L41.998,19.122 L52.217,16.201 L41.998,13.281" fill="#000000"/>
    <path d="M44.918,16.201 L41.998,19.124 L52.217,16.201 L41.998,13.281 z" fill-opacity="0" stroke="#000000" stroke-width="0.391"/>
    <path d="M82.056,60.959 L111.894,60.959" fill-opacity="0" stroke="#000000" stroke-width="0.391"/>
    <path d="M97.135,60.959 L94.215,63.879 L104.434,60.959 L94.215,58.038" fill="#000000"/>
    <path d="M97.135,60.959 L94.215,63.881 L104.434,60.959 L94.215,58.038 z" fill-opacity="0" stroke="#000000" stroke-width="0.391"/>
    <path d="M50.188,1.043 L48.666,6.253 C48.452,7.041 48.326,7.524 48.326,7.721 C48.326,7.829 48.344,7.918 48.38,7.954 C48.416,8.008 48.469,8.026 48.541,8.026 C48.631,8.026 48.756,7.99 48.863,7.9 C48.989,7.811 49.293,7.453 49.776,6.826 L50.027,7.023 C49.579,7.757 49.096,8.276 48.613,8.634 C48.29,8.849 47.986,8.956 47.7,8.956 C47.467,8.956 47.288,8.903 47.163,8.76 C47.037,8.634 46.966,8.473 46.966,8.276 C46.966,8.079 47.001,7.811 47.073,7.488 C47.18,7.059 47.431,6.11 47.879,4.66 C46.876,6.289 46.053,7.417 45.39,8.026 C44.728,8.652 44.101,8.956 43.528,8.956 C43.26,8.956 43.027,8.867 42.848,8.688 C42.669,8.491 42.561,8.258 42.561,7.972 C42.561,7.542 42.705,6.862 42.955,5.967 L43.707,3.263 C43.904,2.619 43.994,2.207 43.994,2.046 C43.994,1.992 43.976,1.921 43.922,1.867 C43.868,1.831 43.815,1.795 43.761,1.795 C43.636,1.795 43.51,1.849 43.385,1.938 C43.26,2.028 42.991,2.35 42.561,2.905 L42.293,2.708 C42.723,2.028 43.188,1.545 43.671,1.222 C44.047,0.972 44.388,0.846 44.71,0.846 C44.925,0.846 45.104,0.9 45.247,1.043 C45.372,1.187 45.444,1.366 45.444,1.58 C45.444,1.885 45.336,2.458 45.104,3.263 L44.28,6.092 C44.047,6.862 43.94,7.345 43.94,7.542 C43.94,7.65 43.976,7.739 44.047,7.811 C44.119,7.882 44.209,7.918 44.334,7.918 C44.531,7.918 44.781,7.811 45.086,7.632 C45.39,7.435 45.802,7.005 46.321,6.343 C46.84,5.68 47.27,5.054 47.592,4.481 C47.932,3.908 48.29,2.977 48.666,1.706 L48.863,1.043 z" fill="#000000"/>
    <path d="M29.838,60.959 L59.677,60.959" fill-opacity="0" stroke="#000000" stroke-width="0.391"/>
    <path d="M44.918,60.959 L41.998,63.879 L52.217,60.959 L41.998,58.038" fill="#000000"/>
    <path d="M44.918,60.959 L41.998,63.881 L52.217,60.959 L41.998,58.038 z" fill-opacity="0" stroke="#000000" stroke-width="0.391"/>
    <path d="M40.658,68.52 L43.182,67.983 C43.361,68.412 43.504,68.842 43.63,69.29 C43.773,69.952 43.898,70.74 44.006,71.635 C44.059,72.1 44.113,73.049 44.203,74.517 C44.919,73.712 45.366,73.228 45.492,73.031 C46.261,71.993 46.709,71.366 46.834,71.187 C47.013,70.883 47.157,70.614 47.228,70.382 C47.3,70.203 47.336,70.042 47.336,69.88 C47.336,69.737 47.192,69.558 46.924,69.361 C46.655,69.164 46.512,68.932 46.512,68.699 C46.512,68.502 46.584,68.341 46.745,68.198 C46.888,68.054 47.067,67.983 47.264,67.983 C47.515,67.983 47.729,68.072 47.908,68.269 C48.105,68.484 48.195,68.735 48.195,69.021 C48.195,69.325 48.141,69.612 48.052,69.88 C47.908,70.328 47.622,70.865 47.21,71.51 C46.799,72.136 46.118,72.996 45.205,74.07 C45.08,74.195 44.435,74.875 43.254,76.093 L42.931,76.093 C42.806,72.405 42.502,70.113 42.072,69.182 C41.911,68.896 41.678,68.753 41.338,68.753 C41.195,68.753 40.98,68.77 40.711,68.824 z" fill="#000000"/>
    <path d="M53.072,71.604 L51.245,77.969 C51.14,78.341 51.082,78.621 51.082,78.784 C51.082,78.923 51.129,79.028 51.233,79.098 C51.326,79.179 51.548,79.226 51.908,79.249 L51.85,79.459 L48.929,79.459 L48.999,79.249 C49.313,79.249 49.523,79.226 49.616,79.179 C49.779,79.109 49.895,79.016 49.977,78.912 C50.105,78.737 50.233,78.423 50.361,77.969 L51.676,73.396 C51.757,73.116 51.792,72.965 51.804,72.919 C51.815,72.837 51.827,72.767 51.827,72.697 C51.827,72.569 51.78,72.465 51.711,72.383 C51.641,72.313 51.548,72.267 51.42,72.267 C51.315,72.267 51.164,72.29 50.954,72.337 L50.884,72.139 L52.804,71.604 z" fill="#000000"/>
    <path d="M92.4,68.52 L94.924,67.983 C95.103,68.412 95.246,68.842 95.372,69.29 C95.515,69.952 95.64,70.74 95.748,71.635 C95.801,72.1 95.855,73.049 95.945,74.517 C96.661,73.712 97.108,73.228 97.234,73.031 C98.003,71.993 98.451,71.366 98.576,71.187 C98.755,70.883 98.899,70.614 98.97,70.382 C99.042,70.203 99.078,70.042 99.078,69.88 C99.078,69.737 98.934,69.558 98.666,69.361 C98.397,69.164 98.254,68.932 98.254,68.699 C98.254,68.502 98.326,68.341 98.487,68.198 C98.63,68.054 98.809,67.983 99.006,67.983 C99.257,67.983 99.471,68.072 99.65,68.269 C99.847,68.484 99.937,68.735 99.937,69.021 C99.937,69.325 99.883,69.612 99.794,69.88 C99.65,70.328 99.364,70.865 98.952,71.51 C98.54,72.136 97.86,72.996 96.947,74.07 C96.822,74.195 96.177,74.875 94.996,76.093 L94.673,76.093 C94.548,72.405 94.244,70.113 93.814,69.182 C93.653,68.896 93.42,68.753 93.08,68.753 C92.937,68.753 92.722,68.77 92.453,68.824 z" fill="#000000"/>
    <path d="M103.976,79.459 L100.136,79.459 L100.136,79.249 C102.091,77.538 103.382,76.2 104.011,75.223 C104.302,74.78 104.453,74.303 104.453,73.803 C104.453,73.407 104.325,73.093 104.081,72.837 C103.848,72.593 103.534,72.465 103.138,72.465 C102.614,72.465 102.172,72.721 101.823,73.233 L101.625,73.151 C101.823,72.662 102.102,72.278 102.475,72.011 C102.847,71.732 103.243,71.604 103.673,71.604 C104.162,71.604 104.581,71.766 104.907,72.104 C105.244,72.441 105.407,72.849 105.407,73.326 C105.407,73.652 105.349,73.966 105.233,74.245 C105.047,74.687 104.721,75.188 104.232,75.735 C103.487,76.573 102.498,77.55 101.253,78.644 L103.185,78.644 C103.499,78.644 103.755,78.574 103.953,78.446 C104.162,78.318 104.302,78.144 104.383,77.934 L104.616,77.934 z" fill="#000000"/>
  </g>
  <defs/>
</svg>
