<?xml version="1.0" encoding="UTF-8"?>
<!DOCTYPE svg PUBLIC "-//W3C//DTD SVG 1.1//EN" "http://www.w3.org/Graphics/SVG/1.1/DTD/svg11.dtd">
<svg version="1.1" xmlns="http://www.w3.org/2000/svg" xmlns:xlink="http://www.w3.org/1999/xlink" x="0px" y="0px" width="184.252" height="255.118" viewBox="0, 0, 184.252, 255.118">
  <g id="Layer 1">
    <path d="M141.563,84.425 C141.563,65.084 145.479,49.399 150.319,49.399 C155.151,49.399 159.076,65.084 159.076,84.425" fill-opacity="0" stroke="#000000" stroke-width="0.4" stroke-linecap="square"/>
    <path d="M141.563,84.425 L141.563,224.533 M159.076,84.425 L159.076,224.533 M141.563,224.533 L176.589,224.533 L159.076,180.75 M141.563,180.75 L124.049,224.533 L141.563,224.533" fill-opacity="0" stroke="#000000" stroke-width="0.4"/>
    <path d="M150.319,144.852 L150.319,13.501" fill-opacity="0" stroke="#000000" stroke-width="0.8"/>
    <path d="M150.319,20.506 L153.818,24.011 L150.319,11.75 L146.814,24.011" fill="#000000"/>
    <path d="M150.319,20.504 L153.818,24.011 L150.319,11.747 L146.814,24.011 z" fill-opacity="0" stroke="#000000" stroke-width="0.4"/>
    <path d="M158.638,0.464 L169.209,0.464 L168.074,4.162 L167.675,4.162 C167.801,3.616 167.864,3.154 167.864,2.712 C167.864,2.229 167.717,1.851 167.402,1.598 C167.171,1.388 166.582,1.304 165.615,1.304 L164.523,1.304 L161.77,10.887 C161.412,12.085 161.244,12.842 161.244,13.115 C161.244,13.367 161.349,13.577 161.58,13.745 C161.791,13.914 162.169,13.998 162.736,13.998 L163.199,13.998 L163.073,14.376 L157.02,14.376 L157.146,13.998 L157.398,13.998 C157.945,13.998 158.344,13.914 158.638,13.745 C158.827,13.64 159.017,13.43 159.185,13.115 C159.332,12.821 159.563,12.169 159.857,11.182 L162.736,1.304 L161.896,1.304 C161.097,1.304 160.446,1.409 159.962,1.619 C159.479,1.809 159.08,2.124 158.785,2.502 C158.47,2.901 158.239,3.448 158.05,4.162 L157.672,4.162 z" fill="#000000"/>
    <path d="M150.319,146.603 L150.319,251.685" fill-opacity="0" stroke="#000000" stroke-width="0.8"/>
    <path d="M150.319,244.67 L146.814,241.174 L150.319,253.427 L153.818,241.174" fill="#000000"/>
    <path d="M150.319,244.67 L146.814,241.172 L150.319,253.429 L153.818,241.172 z" fill-opacity="0" stroke="#000000" stroke-width="0.4"/>
    <path d="M163.5,243.28 L164.355,250.762 L169.749,243.28 L172.004,243.28 L172.004,243.533 C171.514,243.575 171.22,243.603 171.136,243.631 C170.996,243.701 170.855,243.813 170.729,243.995 C170.603,244.163 170.463,244.513 170.323,245.018 L168.6,250.902 C168.502,251.238 168.446,251.505 168.446,251.701 C168.446,251.883 168.516,252.023 168.642,252.107 C168.81,252.247 169.09,252.303 169.454,252.303 L169.622,252.303 L169.566,252.555 L165.658,252.555 L165.728,252.303 L165.91,252.303 C166.26,252.303 166.512,252.261 166.694,252.163 C166.848,252.079 166.975,251.953 167.087,251.743 C167.185,251.547 167.353,251.098 167.549,250.398 L169.076,245.018 L163.668,252.555 L163.402,252.555 L162.533,245.018 L160.866,250.762 C160.726,251.238 160.656,251.575 160.656,251.743 C160.656,251.911 160.726,252.037 160.838,252.121 C160.964,252.219 161.272,252.275 161.735,252.303 L161.665,252.555 L158.61,252.555 L158.68,252.303 L158.862,252.303 C159.325,252.303 159.647,252.191 159.843,251.967 C159.997,251.799 160.137,251.449 160.305,250.902 L162.323,243.981 C162.169,243.827 162.029,243.729 161.889,243.673 C161.749,243.617 161.496,243.575 161.132,243.533 L161.202,243.28 z" fill="#000000"/>
    <path d="M173.899,249.21 C174.282,249.21 174.6,249.365 174.855,249.684 C175.119,250.003 175.247,250.503 175.247,251.186 C175.247,251.769 175.156,252.37 174.955,252.981 C174.764,253.591 174.491,254.119 174.145,254.574 C173.863,254.92 173.571,255.175 173.271,255.339 C173.089,255.421 172.888,255.467 172.651,255.467 C172.269,255.467 171.941,255.312 171.686,254.993 C171.422,254.674 171.294,254.174 171.294,253.481 C171.294,252.807 171.422,252.124 171.686,251.441 C171.996,250.64 172.378,250.03 172.852,249.62 C173.171,249.347 173.517,249.21 173.899,249.21 z M173.908,249.438 C173.735,249.438 173.562,249.511 173.38,249.638 C173.207,249.775 173.025,250.057 172.834,250.485 C172.651,250.913 172.469,251.46 172.296,252.134 C172.078,253.017 171.959,253.764 171.959,254.383 C171.959,254.693 172.032,254.92 172.16,255.075 C172.296,255.23 172.46,255.303 172.651,255.303 C172.824,255.303 172.979,255.248 173.107,255.13 C173.453,254.802 173.744,254.256 173.981,253.481 C174.382,252.216 174.573,251.186 174.573,250.403 C174.573,250.066 174.509,249.829 174.373,249.675 C174.245,249.52 174.09,249.438 173.908,249.438 z" fill="#000000"/>
    <path d="M182.596,246.797 L182.4,247.512 L181.265,247.512 C181.349,247.75 181.391,247.988 181.391,248.198 C181.391,248.801 181.139,249.333 180.621,249.809 C180.116,250.272 179.402,250.538 178.505,250.58 C178.029,250.734 177.664,250.902 177.412,251.098 C177.328,251.182 177.286,251.252 177.286,251.336 C177.286,251.421 177.328,251.505 177.398,251.575 C177.482,251.659 177.692,251.729 178.029,251.813 L179.36,252.121 C180.088,252.289 180.579,252.499 180.817,252.737 C181.041,252.976 181.153,253.256 181.153,253.564 C181.153,253.942 181.027,254.279 180.747,254.601 C180.466,254.909 180.06,255.147 179.542,255.329 C179.009,255.498 178.421,255.582 177.776,255.582 C177.202,255.582 176.698,255.526 176.221,255.385 C175.759,255.245 175.423,255.063 175.227,254.839 C175.03,254.615 174.932,254.377 174.932,254.139 C174.932,253.942 174.988,253.732 175.128,253.522 C175.255,253.312 175.409,253.144 175.605,253.004 C175.731,252.92 176.081,252.709 176.656,252.387 C176.445,252.219 176.347,252.037 176.347,251.841 C176.347,251.659 176.431,251.463 176.614,251.266 C176.81,251.056 177.202,250.832 177.79,250.58 C177.286,250.496 176.894,250.286 176.6,249.949 C176.305,249.627 176.165,249.277 176.165,248.871 C176.165,248.226 176.445,247.652 177.006,247.133 C177.58,246.629 178.337,246.377 179.276,246.377 C179.626,246.377 179.906,246.405 180.116,246.475 C180.34,246.545 180.551,246.643 180.761,246.797 z M180.228,247.876 C180.228,247.498 180.13,247.217 179.92,247.007 C179.724,246.797 179.458,246.699 179.121,246.699 C178.617,246.699 178.183,246.951 177.846,247.47 C177.51,247.988 177.342,248.52 177.342,249.081 C177.342,249.445 177.454,249.725 177.664,249.949 C177.889,250.174 178.141,250.286 178.449,250.286 C178.687,250.286 178.925,250.216 179.149,250.089 C179.374,249.949 179.57,249.767 179.724,249.543 C179.878,249.305 180.004,249.011 180.088,248.646 C180.186,248.282 180.228,248.03 180.228,247.876 z M176.95,252.555 C176.586,252.737 176.305,252.948 176.109,253.214 C175.927,253.48 175.829,253.732 175.829,253.998 C175.829,254.293 175.969,254.545 176.235,254.741 C176.628,255.021 177.202,255.161 177.959,255.161 C178.617,255.161 179.177,255.049 179.64,254.825 C180.102,254.615 180.326,254.321 180.326,253.97 C180.326,253.788 180.242,253.62 180.074,253.466 C179.906,253.312 179.57,253.172 179.079,253.074 C178.813,253.018 178.099,252.85 176.95,252.555 z" fill="#000000"/>
    <path d="M18.97,171.555 L53.997,171.555 L36.484,127.772 M18.97,127.772 L1.457,171.555 L18.97,171.555 M18.97,171.991 L18.97,128.208 M36.484,171.991 L36.484,128.208" fill-opacity="0" stroke="#000000" stroke-width="0.4"/>
    <path d="M18.97,180.75 L36.484,180.75 L36.484,198.263 L18.97,198.263 z" fill="#929292"/>
    <path d="M27.727,189.506 L27.727,239.607" fill-opacity="0" stroke="#000000" stroke-width="0.8"/>
    <path d="M27.727,232.604 L24.222,229.108 L27.727,241.36 L31.225,229.108" fill="#000000"/>
    <path d="M27.727,232.606 L24.22,229.106 L27.727,241.361 L31.225,229.106 z" fill-opacity="0" stroke="#000000" stroke-width="0.4"/>
    <path d="M27.727,154.48 L27.727,104.386" fill-opacity="0" stroke="#000000" stroke-width="0.8"/>
    <path d="M27.727,111.389 L31.225,114.896 L27.727,102.632 L24.222,114.896" fill="#000000"/>
    <path d="M27.727,111.389 L31.225,114.893 L27.727,102.632 L24.222,114.893 z" fill-opacity="0" stroke="#000000" stroke-width="0.4"/>
    <path d="M18.97,128.208 L18.97,119.451 M36.484,128.208 L36.484,119.451" fill-opacity="0" stroke="#000000" stroke-width="0.4" stroke-dasharray="1.2,0.4"/>
    <text transform="matrix(1, 0, -0, 1, 39.98, 221.907)">
      <tspan x="-3.5" y="3.243" font-family="TimesNewRomanPSMT" font-size="14" fill="#000000">d</tspan>
    </text>
    <path d="M46.582,220.107 L46.106,221.676 C46.596,221.088 47.044,220.681 47.437,220.457 C47.829,220.219 48.221,220.107 48.627,220.107 C49.034,220.107 49.384,220.261 49.664,220.583 C49.958,220.906 50.099,221.326 50.099,221.844 C50.099,222.839 49.692,223.862 48.88,224.899 C48.053,225.935 47.114,226.454 46.022,226.454 C45.797,226.454 45.587,226.426 45.419,226.384 C45.237,226.328 45.041,226.244 44.831,226.117 L44.326,227.883 C44.228,228.233 44.172,228.457 44.172,228.555 C44.172,228.653 44.2,228.737 44.256,228.807 C44.312,228.878 44.396,228.934 44.508,228.976 C44.634,229.018 44.859,229.032 45.223,229.032 L45.153,229.284 L41.93,229.284 L42,229.032 C42.421,229.018 42.715,228.948 42.855,228.821 C43.009,228.695 43.163,228.331 43.331,227.757 L45.055,221.76 C45.167,221.382 45.223,221.144 45.223,221.06 C45.223,220.934 45.181,220.835 45.111,220.765 C45.041,220.709 44.929,220.667 44.789,220.667 C44.648,220.667 44.466,220.681 44.228,220.723 L44.228,220.457 z M44.985,225.571 C45.265,225.907 45.643,226.075 46.12,226.075 C46.358,226.075 46.61,226.019 46.848,225.879 C47.1,225.753 47.339,225.557 47.577,225.291 C47.801,225.039 48.025,224.73 48.207,224.394 C48.389,224.058 48.557,223.652 48.712,223.189 C48.852,222.727 48.936,222.279 48.936,221.83 C48.936,221.466 48.852,221.186 48.684,220.99 C48.515,220.793 48.319,220.695 48.095,220.695 C47.605,220.695 47.114,220.976 46.638,221.55 C46.148,222.11 45.797,222.769 45.573,223.526 z" fill="#000000"/>
    <text transform="matrix(1, 0, -0, 1, 39.98, 239.432)">
      <tspan x="-3.5" y="3.243" font-family="TimesNewRomanPSMT" font-size="14" fill="#000000">d</tspan>
    </text>
    <path d="M47.114,235.936 L46.582,237.785 L47.661,237.785 L47.549,238.22 L46.47,238.22 L45.293,242.255 C45.167,242.689 45.111,242.969 45.111,243.095 C45.111,243.179 45.125,243.236 45.167,243.278 C45.195,243.32 45.237,243.334 45.293,243.334 C45.405,243.334 45.559,243.264 45.741,243.095 C45.853,243.011 46.092,242.731 46.47,242.255 L46.694,242.423 C46.288,243.039 45.881,243.474 45.517,243.726 C45.251,243.894 44.999,243.978 44.733,243.978 C44.536,243.978 44.368,243.922 44.242,243.796 C44.116,243.67 44.06,243.502 44.06,243.306 C44.06,243.067 44.13,242.689 44.27,242.185 L45.419,238.22 L44.382,238.22 L44.452,237.954 C44.957,237.813 45.363,237.617 45.699,237.337 C46.036,237.071 46.4,236.595 46.82,235.936 z" fill="#000000"/>
    <path d="M36.466,231.536 L49.645,231.536" fill-opacity="0" stroke="#000000" stroke-width="0.28"/>
    <text transform="matrix(1, 0, -0, 1, 38.229, 90.807)">
      <tspan x="-3.5" y="3.243" font-family="TimesNewRomanPSMT" font-size="14" fill="#000000">d</tspan>
    </text>
    <path d="M44.831,87.007 L44.354,88.576 C44.845,87.987 45.293,87.581 45.685,87.357 C46.078,87.119 46.47,87.007 46.876,87.007 C47.282,87.007 47.633,87.161 47.913,87.483 C48.207,87.805 48.347,88.226 48.347,88.744 C48.347,89.739 47.941,90.761 47.128,91.798 C46.302,92.835 45.363,93.353 44.27,93.353 C44.046,93.353 43.836,93.325 43.668,93.283 C43.486,93.227 43.289,93.143 43.079,93.017 L42.575,94.782 C42.477,95.133 42.421,95.357 42.421,95.455 C42.421,95.553 42.449,95.637 42.505,95.707 C42.561,95.777 42.645,95.833 42.757,95.875 C42.883,95.917 43.107,95.931 43.472,95.931 L43.402,96.184 L40.179,96.184 L40.249,95.931 C40.669,95.917 40.964,95.847 41.104,95.721 C41.258,95.595 41.412,95.231 41.58,94.656 L43.303,88.66 C43.416,88.282 43.472,88.043 43.472,87.959 C43.472,87.833 43.43,87.735 43.36,87.665 C43.289,87.609 43.177,87.567 43.037,87.567 C42.897,87.567 42.715,87.581 42.477,87.623 L42.477,87.357 z M43.233,92.471 C43.514,92.807 43.892,92.975 44.368,92.975 C44.606,92.975 44.859,92.919 45.097,92.779 C45.349,92.653 45.587,92.457 45.825,92.19 C46.05,91.938 46.274,91.63 46.456,91.294 C46.638,90.958 46.806,90.551 46.96,90.089 C47.1,89.627 47.184,89.178 47.184,88.73 C47.184,88.366 47.1,88.085 46.932,87.889 C46.764,87.693 46.568,87.595 46.344,87.595 C45.853,87.595 45.363,87.875 44.887,88.45 C44.396,89.01 44.046,89.669 43.822,90.425 z" fill="#000000"/>
    <text transform="matrix(1, 0, -0, 1, 38.229, 106.331)">
      <tspan x="-3.5" y="3.243" font-family="TimesNewRomanPSMT" font-size="14" fill="#000000">d</tspan>
    </text>
    <path d="M45.363,102.836 L44.831,104.685 L45.909,104.685 L45.797,105.119 L44.719,105.119 L43.542,109.154 C43.416,109.589 43.36,109.869 43.36,109.995 C43.36,110.079 43.374,110.135 43.416,110.177 C43.444,110.219 43.486,110.233 43.542,110.233 C43.654,110.233 43.808,110.163 43.99,109.995 C44.102,109.911 44.34,109.631 44.719,109.154 L44.943,109.323 C44.536,109.939 44.13,110.373 43.766,110.626 C43.5,110.794 43.247,110.878 42.981,110.878 C42.785,110.878 42.617,110.822 42.491,110.696 C42.365,110.57 42.309,110.401 42.309,110.205 C42.309,109.967 42.379,109.589 42.519,109.084 L43.668,105.119 L42.631,105.119 L42.701,104.853 C43.205,104.713 43.612,104.517 43.948,104.237 C44.284,103.971 44.648,103.494 45.069,102.836 z" fill="#000000"/>
    <path d="M34.713,98.442 L47.891,98.442" fill-opacity="0" stroke="#000000" stroke-width="0.28"/>
    <path d="M10.214,180.75 L10.214,198.261" fill-opacity="0" stroke="#000000" stroke-width="0.4"/>
    <path d="M10.214,189.506 L8.46,187.753 L10.214,193.884 L11.959,187.753" fill="#000000"/>
    <path d="M10.214,189.506 L8.46,187.753 L10.214,193.884 L11.959,187.753 z" fill-opacity="0" stroke="#000000" stroke-width="0.2"/>
    <path d="M-0.003,187.272 L2.067,186.832 C2.213,187.184 2.331,187.536 2.433,187.903 C2.551,188.447 2.654,189.092 2.742,189.826 C2.786,190.208 2.83,190.986 2.903,192.189 C3.49,191.529 3.857,191.133 3.96,190.971 C4.591,190.12 4.958,189.606 5.061,189.459 C5.208,189.21 5.325,188.99 5.384,188.799 C5.443,188.652 5.472,188.52 5.472,188.388 C5.472,188.27 5.354,188.124 5.134,187.962 C4.914,187.801 4.797,187.61 4.797,187.419 C4.797,187.258 4.855,187.125 4.987,187.008 C5.105,186.891 5.252,186.832 5.413,186.832 C5.619,186.832 5.795,186.905 5.942,187.067 C6.103,187.243 6.176,187.448 6.176,187.683 C6.176,187.933 6.132,188.168 6.059,188.388 C5.942,188.755 5.707,189.195 5.369,189.724 C5.032,190.237 4.474,190.942 3.725,191.822 C3.622,191.925 3.094,192.483 2.125,193.481 L1.861,193.481 C1.758,190.457 1.509,188.579 1.156,187.815 C1.024,187.58 0.834,187.463 0.555,187.463 C0.437,187.463 0.261,187.478 0.041,187.522 z" fill="#000000"/>
  </g>
  <defs/>
</svg>
