<?xml version="1.0" encoding="UTF-8"?>
<!DOCTYPE svg PUBLIC "-//W3C//DTD SVG 1.1//EN" "http://www.w3.org/Graphics/SVG/1.1/DTD/svg11.dtd">
<svg version="1.1" xmlns="http://www.w3.org/2000/svg" xmlns:xlink="http://www.w3.org/1999/xlink" x="0px" y="0px" width="364" height="299" viewBox="0, 0, 364, 299">
  <g id="Layer 1">
    <path d="M83.004,250.14 L336.348,107.261 L363.137,154.761 L109.793,297.64" fill="#777777"/>
    <path d="M83.004,250.139 L336.347,107.26 L363.137,154.761 L109.792,297.639 z" fill-opacity="0" stroke="#000000" stroke-width="0.532"/>
    <path d="M209.676,178.698 L129.305,36.195 M146.34,214.421 L65.969,71.913 M273.012,142.98 L192.641,0.472" fill-opacity="0" stroke="#000000" stroke-width="0.909"/>
    <path d="M65.867,71.921 L65.867,203.921" fill-opacity="0" stroke="#000000" stroke-width="1.115" stroke-dasharray="3.344,3.344"/>
    <path d="M74.204,92.817 C75.66,92.817 76.38,93.81 76.38,95.794 C76.38,96.993 76.092,98.322 75.5,99.777 C74.908,101.233 74.236,102.322 73.484,103.041 C72.732,103.761 71.964,104.114 71.164,104.114 C70.508,104.114 69.98,103.841 69.58,103.282 C69.164,102.738 68.956,102.034 68.956,101.217 C68.956,100.674 69.084,99.938 69.308,99.009 C69.548,98.065 69.9,97.121 70.364,96.161 C70.844,95.217 71.42,94.418 72.124,93.777 C72.844,93.137 73.532,92.817 74.204,92.817 z M74.684,98.13 C75.036,97.041 75.212,95.969 75.212,94.929 C75.212,93.745 74.876,93.154 74.204,93.154 C73.612,93.154 73.036,93.586 72.476,94.481 C71.9,95.362 71.388,96.593 70.908,98.13 z M70.764,98.577 C70.284,100.065 70.044,101.217 70.044,102.018 C70.044,102.53 70.156,102.962 70.364,103.298 C70.572,103.618 70.892,103.794 71.308,103.794 C71.66,103.794 71.996,103.649 72.3,103.378 C72.604,103.09 72.972,102.53 73.372,101.665 C73.788,100.817 74.172,99.794 74.54,98.577 z" fill="#000000"/>
    <path d="M225.867,203.921 L65.867,203.921" fill-opacity="0" stroke="#000000" stroke-width="0.8" stroke-dasharray="2.4,2.4"/>
    <path d="M41.867,71.921 L41.867,203.921" fill-opacity="0" stroke="#000000" stroke-width="0.8"/>
    <path d="M41.867,79.921 L45.066,83.12 L41.867,71.921 L38.668,83.12" fill="#000000"/>
    <path d="M41.867,79.921 L45.066,83.12 L41.867,71.921 L38.668,83.12 z" fill-opacity="0" stroke="#000000" stroke-width="0.8"/>
    <path d="M41.867,195.921 L38.668,192.722 L41.867,203.921 L45.066,192.722" fill="#000000"/>
    <path d="M41.867,195.921 L38.668,192.722 L41.867,203.921 L45.066,192.722 z" fill-opacity="0" stroke="#000000" stroke-width="0.8"/>
    <path d="M4.135,127.688 L1.463,136.984 C1.335,137.448 1.271,137.736 1.271,137.832 C1.271,137.912 1.287,137.976 1.335,138.04 C1.383,138.088 1.447,138.12 1.527,138.12 C1.623,138.12 1.735,138.072 1.847,137.976 C2.119,137.768 2.391,137.432 2.695,136.984 L2.935,137.224 C2.439,137.928 1.975,138.408 1.559,138.696 C1.255,138.888 0.967,138.984 0.695,138.984 C0.487,138.984 0.327,138.92 0.199,138.792 C0.055,138.648 -0.009,138.488 -0.009,138.312 C-0.009,138.136 0.071,137.736 0.247,137.16 L2.359,129.832 C2.535,129.24 2.615,128.888 2.615,128.792 C2.615,128.68 2.567,128.568 2.471,128.488 C2.375,128.408 2.215,128.376 2.007,128.376 C1.895,128.376 1.703,128.392 1.463,128.424 L1.463,128.136 z" fill="#000000"/>
    <path d="M9.991,137.096 C9.447,137.752 8.903,138.232 8.343,138.536 C7.799,138.84 7.207,138.984 6.599,138.984 C5.863,138.984 5.287,138.776 4.871,138.36 C4.455,137.944 4.247,137.384 4.247,136.68 C4.247,135.88 4.471,135.096 4.919,134.328 C5.351,133.56 5.959,132.936 6.711,132.456 C7.463,131.976 8.199,131.736 8.919,131.736 C9.495,131.736 9.911,131.848 10.199,132.088 C10.471,132.328 10.615,132.616 10.615,132.952 C10.615,133.272 10.519,133.56 10.327,133.784 C10.183,133.96 9.991,134.056 9.783,134.056 C9.623,134.056 9.495,133.992 9.383,133.896 C9.271,133.784 9.223,133.656 9.223,133.496 C9.223,133.4 9.239,133.32 9.287,133.224 C9.319,133.144 9.399,133.048 9.527,132.936 C9.639,132.808 9.719,132.728 9.751,132.68 C9.767,132.616 9.783,132.568 9.783,132.504 C9.783,132.408 9.735,132.312 9.639,132.232 C9.479,132.136 9.271,132.088 8.999,132.088 C8.487,132.088 7.975,132.264 7.479,132.616 C6.983,132.984 6.551,133.496 6.199,134.152 C5.767,134.952 5.559,135.752 5.559,136.552 C5.559,137.096 5.703,137.512 6.007,137.816 C6.311,138.136 6.727,138.28 7.239,138.28 C7.639,138.28 8.039,138.184 8.439,137.976 C8.823,137.784 9.271,137.416 9.767,136.888 z" fill="#000000"/>
    <path d="M18.295,134.168 C18.295,134.952 18.087,135.736 17.671,136.488 C17.255,137.256 16.679,137.864 15.943,138.312 C15.207,138.76 14.487,138.984 13.783,138.984 C13.079,138.984 12.487,138.76 12.039,138.296 C11.591,137.848 11.367,137.256 11.367,136.536 C11.367,135.768 11.591,135 12.023,134.232 C12.471,133.464 13.047,132.856 13.783,132.408 C14.519,131.96 15.239,131.736 15.927,131.736 C16.615,131.736 17.175,131.96 17.623,132.408 C18.071,132.856 18.295,133.448 18.295,134.168 z M16.999,133.64 C16.999,133.144 16.871,132.776 16.647,132.52 C16.407,132.264 16.103,132.136 15.719,132.136 C14.951,132.136 14.247,132.68 13.607,133.784 C12.967,134.872 12.647,135.96 12.647,137.048 C12.647,137.544 12.775,137.928 13.015,138.2 C13.271,138.456 13.591,138.6 13.959,138.6 C14.695,138.6 15.383,138.056 16.039,136.968 C16.679,135.864 16.999,134.76 16.999,133.64 z" fill="#000000"/>
    <path d="M24.695,131.736 L24.231,134.136 L23.927,134.136 C23.911,133.432 23.767,132.92 23.495,132.6 C23.223,132.28 22.887,132.136 22.487,132.136 C22.151,132.136 21.895,132.216 21.719,132.392 C21.527,132.568 21.431,132.792 21.431,133.032 C21.431,133.208 21.463,133.368 21.543,133.528 C21.623,133.688 21.783,133.896 22.039,134.184 C22.711,134.92 23.143,135.48 23.351,135.848 C23.543,136.232 23.639,136.584 23.639,136.92 C23.639,137.464 23.415,137.944 22.967,138.36 C22.519,138.776 21.943,138.984 21.255,138.984 C20.887,138.984 20.455,138.904 19.959,138.728 C19.799,138.664 19.655,138.632 19.559,138.632 C19.335,138.632 19.159,138.744 19.031,138.984 L18.743,138.984 L19.223,136.456 L19.511,136.456 C19.543,137.24 19.703,137.8 20.007,138.136 C20.295,138.472 20.711,138.632 21.223,138.632 C21.623,138.632 21.927,138.52 22.167,138.296 C22.391,138.072 22.519,137.8 22.519,137.48 C22.519,137.272 22.471,137.08 22.391,136.904 C22.247,136.584 21.943,136.152 21.463,135.608 C20.999,135.048 20.711,134.632 20.567,134.36 C20.439,134.088 20.375,133.816 20.375,133.528 C20.375,133.032 20.551,132.6 20.919,132.248 C21.287,131.912 21.767,131.736 22.343,131.736 C22.503,131.736 22.663,131.736 22.791,131.768 C22.871,131.784 23.031,131.848 23.303,131.944 C23.575,132.04 23.751,132.104 23.847,132.104 C24.071,132.104 24.247,131.976 24.407,131.736 z" fill="#000000"/>
    <path d="M31.069,127.688 C32.525,127.688 33.245,128.68 33.245,130.664 C33.245,131.864 32.957,133.192 32.365,134.648 C31.773,136.104 31.101,137.192 30.349,137.912 C29.597,138.632 28.829,138.984 28.029,138.984 C27.373,138.984 26.845,138.712 26.445,138.152 C26.029,137.608 25.821,136.904 25.821,136.088 C25.821,135.544 25.949,134.808 26.173,133.88 C26.413,132.936 26.765,131.992 27.229,131.032 C27.709,130.088 28.285,129.288 28.989,128.648 C29.709,128.008 30.397,127.688 31.069,127.688 z M31.549,133 C31.901,131.912 32.077,130.84 32.077,129.8 C32.077,128.616 31.741,128.024 31.069,128.024 C30.477,128.024 29.901,128.456 29.341,129.352 C28.765,130.232 28.253,131.464 27.773,133 z M27.629,133.448 C27.149,134.936 26.909,136.088 26.909,136.888 C26.909,137.4 27.021,137.832 27.229,138.168 C27.437,138.488 27.757,138.664 28.173,138.664 C28.525,138.664 28.861,138.52 29.165,138.248 C29.469,137.96 29.837,137.4 30.237,136.536 C30.653,135.688 31.037,134.664 31.405,133.448 z" fill="#000000"/>
  </g>
  <defs/>
</svg>
