<?xml version="1.0" encoding="UTF-8"?>
<!DOCTYPE svg PUBLIC "-//W3C//DTD SVG 1.1//EN" "http://www.w3.org/Graphics/SVG/1.1/DTD/svg11.dtd">
<svg version="1.1" xmlns="http://www.w3.org/2000/svg" xmlns:xlink="http://www.w3.org/1999/xlink" x="0px" y="0px" width="368.504" height="130.677" viewBox="0, 0, 368.504, 130.677">
  <g id="Layer 1">
    <path d="M162.341,35.947 L309.742,35.947 L309.742,94.907 L162.341,94.907 z M0.199,94.907 L368.703,94.907" fill-opacity="0" stroke="#000000" stroke-width="0.4"/>
    <path d="M121.072,58.057 C121.072,62.129 119.749,65.427 118.12,65.427 C116.495,65.427 115.169,62.129 115.169,58.057 C115.169,53.981 116.495,50.687 118.12,50.687 C119.749,50.687 121.072,53.981 121.072,58.057 z" fill-opacity="0" stroke="#000000" stroke-width="0.2" stroke-linecap="square"/>
    <path d="M118.12,50.687 L14.939,50.687 M118.12,65.427 L14.939,65.427" fill-opacity="0" stroke="#000000" stroke-width="0.2"/>
    <path d="M14.939,50.687 L0.199,50.687 M14.939,65.427 L0.199,65.427" fill-opacity="0" stroke="#000000" stroke-width="0.2" stroke-dasharray="1.2,0.2"/>
    <path d="M118.12,55.105 L148.249,55.105 L148.249,49.202 L161.162,58.057 L148.249,66.894 L148.249,61.009 L118.12,61.009" fill="#000000"/>
    <path d="M118.12,55.105 L148.249,55.105 L148.249,49.202 L161.162,58.057 L148.249,66.894 L148.249,61.009 L118.12,61.009 z" fill-opacity="0" stroke="#000000" stroke-width="0.2"/>
    <path d="M44.419,65.427 C43.612,65.427 42.953,62.129 42.953,58.057 C42.953,53.981 43.612,50.687 44.419,50.687 M73.9,65.427 C73.093,65.427 72.433,62.129 72.433,58.057 C72.433,53.981 73.093,50.687 73.9,50.687" fill-opacity="0" stroke="#000000" stroke-width="0.2" stroke-dasharray="1.2,0.2" stroke-linecap="square"/>
    <path d="M44.232,64.605 C43.34,62.719 43.097,56.745 43.76,53.163 C43.874,52.599 44.062,51.925 44.176,51.652 L44.405,51.148 L58.644,51.148 C66.474,51.148 72.894,51.162 72.894,51.177 C72.894,51.192 72.82,51.391 72.75,51.608 C72.319,52.832 72.043,55.278 72.043,58.028 C72.043,60.762 72.275,62.921 72.706,64.288 C72.805,64.605 72.879,64.893 72.879,64.937 C72.894,64.981 66.489,65.011 58.658,65.011 L44.419,65.011" fill="#929292"/>
    <path d="M44.232,64.605 C43.34,62.719 43.097,56.745 43.76,53.163 C43.874,52.599 44.062,51.925 44.176,51.652 L44.405,51.148 L58.644,51.148 C66.474,51.148 72.894,51.162 72.894,51.177 C72.894,51.192 72.82,51.391 72.75,51.608 C72.319,52.832 72.043,55.278 72.043,58.028 C72.043,60.762 72.275,62.921 72.706,64.288 C72.805,64.605 72.879,64.893 72.879,64.937 C72.894,64.981 66.489,65.011 58.658,65.011 L44.419,65.011 z" fill-opacity="0" stroke="#929292" stroke-width="0.2" stroke-dasharray="1.2,0.2" stroke-linecap="square"/>
    <path d="M44.419,41.832 L73.9,41.832 M44.419,45.174 L44.419,38.508 M73.9,45.174 L73.9,38.508" fill-opacity="0" stroke="#000000" stroke-width="0.2"/>
    <text transform="matrix(1, 0, -0, 1, 50.871, 76.479)">
      <tspan x="-3.5" y="0.945" font-family="TimesNewRomanPSMT" font-size="14" fill="#000000">d</tspan>
    </text>
    <path d="M60.036,71.363 L58.922,75.255 C59.417,74.335 59.841,73.645 60.195,73.185 C60.743,72.478 61.274,71.947 61.787,71.629 C62.105,71.452 62.424,71.363 62.76,71.363 C63.043,71.363 63.273,71.452 63.467,71.629 C63.662,71.823 63.75,72.053 63.75,72.336 C63.75,72.619 63.697,72.991 63.556,73.451 L62.937,75.644 C63.874,73.893 64.776,72.655 65.608,71.947 C66.085,71.558 66.545,71.363 66.987,71.363 C67.253,71.363 67.483,71.452 67.642,71.629 C67.819,71.806 67.907,72.089 67.907,72.478 C67.907,72.796 67.854,73.15 67.748,73.539 L66.793,76.9 C66.581,77.625 66.492,78.032 66.492,78.103 C66.492,78.191 66.51,78.262 66.563,78.315 C66.598,78.35 66.651,78.386 66.704,78.386 C66.757,78.386 66.864,78.315 67.005,78.209 C67.323,77.961 67.642,77.625 67.925,77.218 L68.208,77.395 C68.066,77.625 67.819,77.943 67.447,78.35 C67.076,78.739 66.775,79.022 66.51,79.164 C66.244,79.305 66.015,79.376 65.785,79.376 C65.59,79.376 65.431,79.305 65.289,79.164 C65.148,79.04 65.077,78.863 65.077,78.669 C65.077,78.386 65.201,77.837 65.431,76.988 L66.227,74.229 C66.404,73.592 66.492,73.238 66.51,73.168 C66.528,73.044 66.528,72.938 66.528,72.849 C66.528,72.69 66.51,72.584 66.439,72.513 C66.368,72.425 66.298,72.389 66.209,72.389 C65.961,72.389 65.714,72.513 65.431,72.761 C64.653,73.486 63.91,74.512 63.202,75.839 C62.76,76.705 62.335,77.82 61.929,79.164 L60.637,79.164 L62.105,73.946 C62.265,73.38 62.353,73.008 62.353,72.814 C62.353,72.655 62.318,72.549 62.247,72.478 C62.194,72.389 62.105,72.354 62.017,72.354 C61.822,72.354 61.628,72.425 61.416,72.566 C61.062,72.796 60.62,73.274 60.071,74.017 C59.541,74.742 59.116,75.449 58.815,76.122 C58.674,76.44 58.32,77.448 57.79,79.164 L56.516,79.164 L58.108,73.574 L58.32,72.849 C58.356,72.743 58.373,72.655 58.373,72.602 C58.373,72.478 58.32,72.372 58.196,72.266 C58.09,72.159 57.931,72.124 57.754,72.124 C57.683,72.124 57.471,72.159 57.135,72.212 L57.064,71.894 z" fill="#000000"/>
    <path d="M46.563,28.674 L49.057,28.143 C49.234,28.567 49.375,28.992 49.499,29.434 C49.641,30.089 49.764,30.867 49.871,31.751 C49.924,32.211 49.977,33.149 50.065,34.599 C50.773,33.803 51.215,33.326 51.339,33.131 C52.099,32.105 52.541,31.486 52.665,31.309 C52.842,31.008 52.984,30.743 53.054,30.513 C53.125,30.336 53.161,30.177 53.161,30.018 C53.161,29.876 53.019,29.699 52.754,29.505 C52.488,29.31 52.347,29.08 52.347,28.85 C52.347,28.656 52.418,28.497 52.577,28.355 C52.718,28.214 52.895,28.143 53.09,28.143 C53.337,28.143 53.55,28.231 53.727,28.426 C53.921,28.638 54.01,28.886 54.01,29.169 C54.01,29.47 53.957,29.753 53.868,30.018 C53.727,30.46 53.444,30.991 53.037,31.628 C52.63,32.247 51.958,33.096 51.056,34.157 C50.932,34.281 50.295,34.953 49.128,36.156 L48.809,36.156 C48.685,32.512 48.385,30.248 47.96,29.328 C47.801,29.045 47.571,28.904 47.235,28.904 C47.093,28.904 46.881,28.921 46.616,28.974 z" fill="#000000"/>
    <text transform="matrix(1, 0, -0, 1, 62.956, 34.258)">
      <tspan x="-3.5" y="0.945" font-family="TimesNewRomanPSMT" font-size="14" fill="#000000">d</tspan>
    </text>
    <path d="M71.882,26.003 L71.21,28.338 L72.572,28.338 L72.43,28.886 L71.068,28.886 L69.582,33.98 C69.423,34.528 69.352,34.882 69.352,35.041 C69.352,35.147 69.37,35.218 69.423,35.271 C69.458,35.324 69.511,35.342 69.582,35.342 C69.724,35.342 69.918,35.254 70.148,35.041 C70.29,34.935 70.59,34.581 71.068,33.98 L71.351,34.192 C70.838,34.971 70.325,35.519 69.865,35.837 C69.529,36.05 69.211,36.156 68.875,36.156 C68.627,36.156 68.415,36.085 68.256,35.926 C68.096,35.767 68.026,35.554 68.026,35.307 C68.026,35.006 68.114,34.528 68.291,33.892 L69.741,28.886 L68.433,28.886 L68.521,28.55 C69.158,28.373 69.671,28.125 70.095,27.771 C70.52,27.435 70.98,26.834 71.51,26.003 z" fill="#000000"/>
    <path d="M236.042,68.379 L236.042,127.339" fill-opacity="0" stroke="#000000" stroke-width="0.8"/>
    <path d="M236.042,115.533 L230.156,109.648 L236.042,130.273 L241.945,109.648" fill="#000000"/>
    <path d="M236.042,115.533 L230.156,109.648 L236.042,130.273 L241.945,109.648 z" fill-opacity="0" stroke="#000000" stroke-width="0.4"/>
    <path d="M236.042,62.475 L236.042,3.515" fill-opacity="0" stroke="#000000" stroke-width="0.8"/>
    <path d="M236.042,15.303 L241.945,21.207 L236.042,0.563 L230.156,21.207" fill="#000000"/>
    <path d="M236.042,15.303 L241.945,21.207 L236.042,0.563 L230.156,21.207 z" fill-opacity="0" stroke="#000000" stroke-width="0.4"/>
    <path d="M245.762,119.532 L244.648,123.423 C245.143,122.504 245.567,121.814 245.921,121.354 C246.469,120.646 247,120.116 247.513,119.797 C247.831,119.62 248.15,119.532 248.486,119.532 C248.769,119.532 248.999,119.62 249.193,119.797 C249.388,119.992 249.476,120.222 249.476,120.505 C249.476,120.788 249.423,121.159 249.282,121.619 L248.663,123.812 C249.6,122.061 250.502,120.823 251.334,120.116 C251.811,119.726 252.271,119.532 252.713,119.532 C252.979,119.532 253.209,119.62 253.368,119.797 C253.545,119.974 253.633,120.257 253.633,120.646 C253.633,120.965 253.58,121.318 253.474,121.708 L252.519,125.068 C252.307,125.794 252.218,126.2 252.218,126.271 C252.218,126.36 252.236,126.43 252.289,126.483 C252.324,126.519 252.377,126.554 252.43,126.554 C252.483,126.554 252.59,126.483 252.731,126.377 C253.049,126.13 253.368,125.794 253.651,125.387 L253.934,125.564 C253.792,125.794 253.545,126.112 253.173,126.519 C252.802,126.908 252.501,127.191 252.236,127.332 C251.97,127.474 251.741,127.545 251.511,127.545 C251.316,127.545 251.157,127.474 251.015,127.332 C250.874,127.209 250.803,127.032 250.803,126.837 C250.803,126.554 250.927,126.006 251.157,125.157 L251.953,122.397 C252.13,121.761 252.218,121.407 252.236,121.336 C252.253,121.212 252.253,121.106 252.253,121.018 C252.253,120.859 252.236,120.752 252.165,120.682 C252.094,120.593 252.024,120.558 251.935,120.558 C251.687,120.558 251.44,120.682 251.157,120.929 C250.379,121.654 249.636,122.68 248.928,124.007 C248.486,124.874 248.061,125.988 247.655,127.332 L246.363,127.332 L247.831,122.114 C247.991,121.548 248.079,121.177 248.079,120.982 C248.079,120.823 248.044,120.717 247.973,120.646 C247.92,120.558 247.831,120.522 247.743,120.522 C247.548,120.522 247.354,120.593 247.142,120.735 C246.788,120.965 246.346,121.442 245.797,122.185 C245.267,122.91 244.842,123.618 244.541,124.29 C244.4,124.608 244.046,125.617 243.516,127.332 L242.242,127.332 L243.834,121.743 L244.046,121.018 C244.082,120.912 244.099,120.823 244.099,120.77 C244.099,120.646 244.046,120.54 243.922,120.434 C243.816,120.328 243.657,120.293 243.48,120.293 C243.409,120.293 243.197,120.328 242.861,120.381 L242.79,120.063 z" fill="#000000"/>
    <path d="M263.908,120.063 L263.661,120.965 L262.228,120.965 C262.334,121.265 262.387,121.566 262.387,121.831 C262.387,122.592 262.069,123.264 261.414,123.866 C260.777,124.449 259.875,124.785 258.743,124.838 C258.142,125.033 257.682,125.245 257.364,125.493 C257.257,125.599 257.204,125.687 257.204,125.794 C257.204,125.9 257.257,126.006 257.346,126.094 C257.452,126.2 257.717,126.289 258.142,126.395 L259.822,126.784 C260.742,126.996 261.361,127.262 261.662,127.562 C261.945,127.863 262.086,128.217 262.086,128.606 C262.086,129.084 261.927,129.508 261.573,129.915 C261.22,130.304 260.707,130.605 260.052,130.835 C259.38,131.047 258.637,131.153 257.824,131.153 C257.098,131.153 256.462,131.082 255.86,130.905 C255.276,130.729 254.852,130.499 254.604,130.216 C254.357,129.933 254.233,129.632 254.233,129.331 C254.233,129.084 254.304,128.818 254.48,128.553 C254.64,128.288 254.834,128.075 255.082,127.898 C255.241,127.792 255.683,127.527 256.408,127.12 C256.143,126.908 256.019,126.678 256.019,126.43 C256.019,126.2 256.125,125.953 256.355,125.705 C256.603,125.44 257.098,125.157 257.841,124.838 C257.204,124.732 256.709,124.467 256.338,124.042 C255.966,123.636 255.789,123.193 255.789,122.68 C255.789,121.867 256.143,121.142 256.851,120.487 C257.576,119.85 258.531,119.532 259.716,119.532 C260.158,119.532 260.512,119.567 260.777,119.656 C261.06,119.744 261.326,119.868 261.591,120.063 z M260.919,121.425 C260.919,120.947 260.795,120.593 260.53,120.328 C260.282,120.063 259.946,119.939 259.522,119.939 C258.885,119.939 258.336,120.257 257.912,120.912 C257.487,121.566 257.275,122.238 257.275,122.946 C257.275,123.406 257.417,123.759 257.682,124.042 C257.965,124.325 258.283,124.467 258.673,124.467 C258.973,124.467 259.274,124.378 259.557,124.219 C259.84,124.042 260.088,123.812 260.282,123.529 C260.477,123.229 260.636,122.857 260.742,122.397 C260.866,121.938 260.919,121.619 260.919,121.425 z M256.78,127.332 C256.32,127.562 255.966,127.828 255.719,128.164 C255.489,128.5 255.365,128.818 255.365,129.154 C255.365,129.526 255.542,129.844 255.878,130.092 C256.373,130.446 257.098,130.622 258.053,130.622 C258.885,130.622 259.592,130.481 260.176,130.198 C260.76,129.933 261.043,129.561 261.043,129.119 C261.043,128.889 260.937,128.677 260.724,128.482 C260.512,128.288 260.088,128.111 259.469,127.987 C259.132,127.916 258.23,127.704 256.78,127.332 z" fill="#000000"/>
    <path d="M219.98,17.047 L218.007,11.071 C217.542,11.071 217.076,11.034 216.592,10.922 L215.531,14.664 C215.382,15.148 215.327,15.557 215.327,15.892 C215.327,16.134 215.401,16.339 215.587,16.488 C215.717,16.6 216.071,16.674 216.667,16.711 L216.592,17.047 L211.827,17.047 L211.92,16.711 C212.367,16.693 212.665,16.656 212.832,16.581 C213.074,16.488 213.26,16.339 213.372,16.172 C213.558,15.874 213.763,15.371 213.986,14.664 L216.127,7.218 C216.276,6.715 216.35,6.324 216.35,6.063 C216.35,5.784 216.239,5.542 216.015,5.356 C215.792,5.151 215.457,5.058 215.029,5.058 L215.14,4.723 L219.161,4.723 C220.502,4.723 221.47,4.984 222.065,5.486 C222.661,6.007 222.959,6.678 222.959,7.497 C222.959,8.297 222.661,9.023 222.047,9.675 C221.432,10.345 220.613,10.754 219.552,10.922 L220.744,14.533 C221.042,15.427 221.321,16.004 221.619,16.265 C221.917,16.525 222.382,16.674 223.033,16.711 L222.922,17.047 z M216.741,10.419 C217.132,10.457 217.486,10.494 217.784,10.494 C218.826,10.494 219.645,10.196 220.26,9.619 C220.855,9.042 221.172,8.334 221.172,7.46 C221.172,6.789 220.967,6.287 220.595,5.914 C220.222,5.561 219.645,5.393 218.882,5.393 C218.696,5.393 218.473,5.412 218.193,5.449 z" fill="#000000"/>
    <path d="M206.561,94.907 L132.86,94.907" fill-opacity="0" stroke="#000000" stroke-width="0.8"/>
    <path d="M144.649,94.907 L150.552,89.004 L129.909,94.907 L150.552,100.792" fill="#000000"/>
    <path d="M144.649,94.907 L150.552,89.004 L129.909,94.907 L150.552,100.792 z" fill-opacity="0" stroke="#000000" stroke-width="0.4"/>
    <path d="M144.53,105.154 L143.151,109.788 L144.672,109.788 C145.379,109.788 145.892,109.682 146.228,109.47 C146.564,109.257 146.918,108.797 147.29,108.108 L147.626,108.108 L146.405,112.37 L146.051,112.37 C146.14,112.017 146.175,111.734 146.175,111.504 C146.175,111.168 146.069,110.885 145.839,110.69 C145.591,110.495 145.167,110.407 144.53,110.407 L142.974,110.407 L141.948,113.945 C141.771,114.564 141.682,114.988 141.682,115.183 C141.682,115.395 141.753,115.572 141.912,115.678 C142.072,115.802 142.461,115.873 143.08,115.908 L142.974,116.226 L138.339,116.226 L138.445,115.908 C138.905,115.908 139.206,115.873 139.348,115.802 C139.577,115.696 139.754,115.572 139.861,115.395 C140.02,115.165 140.197,114.67 140.409,113.945 L142.478,106.887 C142.638,106.303 142.726,105.861 142.726,105.543 C142.726,105.401 142.691,105.26 142.62,105.154 C142.549,105.048 142.425,104.977 142.284,104.924 C142.142,104.871 141.842,104.835 141.399,104.835 L141.506,104.517 L150.597,104.517 L149.731,107.488 L149.412,107.488 C149.465,107.135 149.501,106.834 149.501,106.604 C149.501,106.233 149.394,105.932 149.182,105.702 C148.97,105.49 148.705,105.331 148.369,105.224 C148.139,105.171 147.626,105.154 146.83,105.154 z" fill="#000000"/>
    <path d="M150.193,115.004 L152.124,114.694 L151.32,117.419 C151.975,116.303 152.573,115.522 153.102,115.073 C153.412,114.82 153.653,114.694 153.849,114.694 C153.964,114.694 154.067,114.728 154.136,114.797 C154.205,114.866 154.24,114.981 154.24,115.119 C154.24,115.361 154.182,115.602 154.056,115.82 C153.964,115.993 153.837,116.073 153.665,116.073 C153.585,116.073 153.504,116.05 153.447,115.993 C153.378,115.935 153.343,115.855 153.332,115.729 C153.32,115.66 153.309,115.614 153.274,115.591 C153.251,115.568 153.217,115.545 153.171,115.545 C153.102,115.545 153.044,115.568 152.987,115.591 C152.895,115.648 152.745,115.786 152.55,116.027 C152.239,116.395 151.906,116.878 151.538,117.453 C151.377,117.706 151.251,117.982 151.136,118.292 C150.975,118.718 150.883,118.971 150.86,119.063 L150.687,119.764 L149.825,119.764 L150.86,116.28 C150.986,115.878 151.044,115.591 151.044,115.418 C151.044,115.349 151.021,115.292 150.963,115.246 C150.883,115.188 150.791,115.165 150.664,115.165 C150.584,115.165 150.434,115.177 150.227,115.211 z" fill="#000000"/>
    <path d="M132.717,33.715 L131.337,38.349 L132.858,38.349 C133.566,38.349 134.079,38.243 134.415,38.031 C134.751,37.818 135.105,37.358 135.476,36.669 L135.812,36.669 L134.592,40.931 L134.238,40.931 C134.326,40.578 134.362,40.295 134.362,40.065 C134.362,39.729 134.256,39.446 134.026,39.251 C133.778,39.057 133.353,38.968 132.717,38.968 L131.16,38.968 L130.134,42.506 C129.957,43.125 129.869,43.549 129.869,43.744 C129.869,43.956 129.94,44.133 130.099,44.239 C130.258,44.363 130.647,44.434 131.266,44.469 L131.16,44.788 L126.526,44.788 L126.632,44.469 C127.092,44.469 127.393,44.434 127.534,44.363 C127.764,44.257 127.941,44.133 128.047,43.956 C128.206,43.726 128.383,43.231 128.595,42.506 L130.665,35.448 C130.824,34.864 130.913,34.422 130.913,34.104 C130.913,33.962 130.877,33.821 130.806,33.715 C130.736,33.609 130.612,33.538 130.47,33.485 C130.329,33.432 130.028,33.396 129.586,33.396 L129.692,33.078 L138.784,33.078 L137.917,36.05 L137.599,36.05 C137.652,35.696 137.687,35.395 137.687,35.165 C137.687,34.794 137.581,34.493 137.369,34.263 C137.156,34.051 136.891,33.892 136.555,33.785 C136.325,33.732 135.812,33.715 135.016,33.715 z" fill="#000000"/>
    <path d="M142.587,43.255 L142.978,47.463 C143.634,46.693 144.151,45.98 144.542,45.313 C144.772,44.922 144.887,44.635 144.887,44.462 C144.887,44.37 144.864,44.301 144.829,44.244 C144.806,44.209 144.749,44.152 144.645,44.094 C144.542,44.025 144.473,43.956 144.438,43.887 C144.392,43.818 144.369,43.749 144.369,43.669 C144.369,43.554 144.415,43.45 144.496,43.37 C144.588,43.289 144.703,43.255 144.829,43.255 C144.99,43.255 145.117,43.312 145.22,43.416 C145.324,43.531 145.381,43.692 145.381,43.876 C145.381,44.071 145.358,44.255 145.301,44.428 C145.186,44.75 144.967,45.163 144.645,45.669 C144.243,46.279 143.84,46.842 143.415,47.371 C142.99,47.888 142.679,48.256 142.472,48.463 L142.265,48.463 L141.897,44.577 L139.586,48.463 L139.334,48.463 C139.311,46.865 139.23,45.612 139.092,44.681 C139.035,44.301 138.943,44.048 138.816,43.922 C138.724,43.841 138.575,43.795 138.391,43.795 C138.276,43.795 138.138,43.807 137.977,43.83 L137.977,43.623 L139.586,43.255 C139.805,43.876 139.954,44.83 140.023,46.129 C140.046,46.624 140.058,46.934 140.081,47.06 L142.38,43.255 z" fill="#000000"/>
  </g>
  <defs/>
</svg>
