<?xml version="1.0" encoding="UTF-8"?>
<!DOCTYPE svg PUBLIC "-//W3C//DTD SVG 1.1//EN" "http://www.w3.org/Graphics/SVG/1.1/DTD/svg11.dtd">
<svg version="1.1" xmlns="http://www.w3.org/2000/svg" xmlns:xlink="http://www.w3.org/1999/xlink" x="0px" y="0px" width="283.465" height="56.693" viewBox="0, 0, 283.465, 56.693">
  <g id="Layer 1">
    <path d="M75.451,21.795 L134.919,21.795 L134.919,51.529 L75.451,51.529 z" fill-opacity="0" stroke="#000000" stroke-width="0.5" stroke-linecap="square"/>
    <path d="M15.983,36.662 C15.983,39.399 13.764,41.618 11.027,41.618 C8.291,41.618 6.072,39.399 6.072,36.662 C6.072,33.925 8.291,31.707 11.027,31.707 C13.764,31.707 15.983,33.925 15.983,36.662 z" fill="#000000"/>
    <g>
      <path d="M0.125,25.76 L14.001,25.76 L21.93,25.76" fill-opacity="0" stroke="#000000" stroke-width="0.25"/>
      <g>
        <path d="M9.541,25.76 L7.559,27.742 L14.496,25.76 L7.559,23.778 L9.541,25.76 z" fill="#000000"/>
        <path d="M9.541,25.76 L7.559,27.742 L14.496,25.76 L7.559,23.778 L9.541,25.76 z" fill-opacity="0" stroke="#000000" stroke-width="1"/>
      </g>
    </g>
    <text transform="matrix(1, 0, 0, 1, 11.554, 15.884)">
      <tspan x="-3.5" y="4" font-family="TimesNewRomanPS-ItalicMT" font-size="14" fill="#000000">u</tspan>
    </text>
    <text transform="matrix(1, 0, 0, 1, 23.021, 37.724)">
      <tspan x="-5.055" y="4" font-family="TimesNewRomanPS-ItalicMT" font-size="14" fill="#000000">m</tspan>
    </text>
    <text transform="matrix(1, 0, 0, 1, 106.061, 37.724)">
      <tspan x="-5.831" y="4" font-family="TimesNewRomanPS-ItalicMT" font-size="14" fill="#000000">M</tspan>
    </text>
    <g>
      <path d="M121.043,15.849 L101.221,15.849 L91.309,15.849" fill-opacity="0" stroke="#000000" stroke-width="0.25"/>
      <g>
        <path d="M107.663,15.849 L109.645,13.866 L102.707,15.849 L109.645,17.831 L107.663,15.849 z" fill="#000000"/>
        <path d="M107.663,15.849 L109.645,13.866 L102.707,15.849 L109.645,17.831 L107.663,15.849 z" fill-opacity="0" stroke="#000000" stroke-width="1"/>
      </g>
    </g>
    <text transform="matrix(1, 0, 0, 1, 106.276, 6.973)">
      <tspan x="-5.055" y="4" font-family="TimesNewRomanPS-ItalicMT" font-size="14" fill="#000000">U</tspan>
    </text>
    <g>
      <path d="M164.653,37.654 L194.387,37.654" fill-opacity="0" stroke="#000000" stroke-width="1"/>
      <path d="M164.653,46.613 L164.653,28.694" fill-opacity="0" stroke="#000000" stroke-width="1"/>
      <g>
        <path d="M191.414,37.654 L187.449,41.618 L201.325,37.654 L187.449,33.689 L191.414,37.654 z" fill="#000000"/>
        <path d="M191.414,37.654 L187.449,41.618 L201.325,37.654 L187.449,33.689 L191.414,37.654 z" fill-opacity="0" stroke="#000000" stroke-width="1"/>
      </g>
    </g>
    <path d="M224.121,21.795 L283.59,21.795 L283.59,51.529 L224.121,51.529 z" fill-opacity="0" stroke="#000000" stroke-width="0.5" stroke-linecap="square"/>
    <path d="M242.935,36.662 C242.935,39.399 240.717,41.618 237.98,41.618 C235.243,41.618 233.024,39.399 233.024,36.662 C233.024,33.925 235.243,31.707 237.98,31.707 C240.717,31.707 242.935,33.925 242.935,36.662 z" fill="#000000"/>
    <text transform="matrix(1, 0, 0, 1, 265.731, 47.868)">
      <tspan x="-16.94" y="-7.017" font-family="TimesNewRomanPS-ItalicMT" font-size="14" fill="#000000">M+m</tspan>
    </text>
    <g>
      <path d="M237.997,15.849 L259.802,15.849 L269.714,15.849" fill-opacity="0" stroke="#000000" stroke-width="0.25"/>
      <g>
        <path d="M252.369,15.849 L250.387,17.831 L257.324,15.849 L250.387,13.866 L252.369,15.849 z" fill="#000000"/>
        <path d="M252.369,15.849 L250.387,17.831 L257.324,15.849 L250.387,13.866 L252.369,15.849 z" fill-opacity="0" stroke="#000000" stroke-width="1"/>
      </g>
    </g>
    <text transform="matrix(1, 0, 0, 1, 254.98, 6.973)">
      <tspan x="-3.107" y="4" font-family="TimesNewRomanPS-ItalicMT" font-size="14" fill="#000000">v</tspan>
    </text>
  </g>
  <defs/>
</svg>
