<?xml version="1.0" encoding="UTF-8"?>
<!DOCTYPE svg PUBLIC "-//W3C//DTD SVG 1.1//EN" "http://www.w3.org/Graphics/SVG/1.1/DTD/svg11.dtd">
<svg version="1.1" xmlns="http://www.w3.org/2000/svg" xmlns:xlink="http://www.w3.org/1999/xlink" x="0px" y="0px" width="283.465" height="289.134" viewBox="0, 0, 283.465, 289.134">
  <g id="Layer 1">
    <path d="M0.199,218.457 L283.664,218.457" fill-opacity="0" stroke="#000000" stroke-width="0.571"/>
    <path d="M221.656,218.457 L212.797,227.315 M203.939,218.457 L195.081,227.315 M186.223,218.457 L177.364,227.315 M168.506,218.457 L159.648,227.315 M150.79,218.457 L141.931,227.315 M133.073,218.457 L124.215,227.315 M115.356,218.457 L106.498,227.315 M97.64,218.457 L88.782,227.315 M79.923,218.457 L71.065,227.315 M62.207,218.457 L53.349,227.315 M44.49,218.457 L35.632,227.315 M26.774,218.457 L17.916,227.315" fill-opacity="0" stroke="#000000" stroke-width="0.581"/>
    <path d="M141.931,168.844 L141.931,133.411 M141.931,177.702 L141.931,218.457 L141.931,177.702 M44.49,218.457 L44.49,0.537 M141.931,80.261 L141.931,0.537" fill-opacity="0" stroke="#000000" stroke-width="0.678"/>
    <path d="M141.931,177.702 L150.79,177.702 M141.931,168.844 L150.79,168.844 M141.931,133.411 L150.79,133.411 M141.931,124.553 L150.79,124.553" fill-opacity="0" stroke="#000000" stroke-width="0.678" stroke-linecap="square"/>
    <path d="M47.985,39.518 L138.341,39.518 M48.038,39.518 C46.091,39.544 44.481,37.994 44.448,36.048" fill-opacity="0" stroke="#000000" stroke-width="0.484"/>
    <path d="M138.291,39.518 C140.237,39.544 141.845,37.994 141.88,36.048" fill-opacity="0" stroke="#000000" stroke-width="0.484"/>
    <path d="M30.322,216.683 L30.322,174.166" fill-opacity="0" stroke="#000000" stroke-width="0.352"/>
    <path d="M33.781,208.352 L30.33,217.722 L26.887,208.352 C28.92,209.849 31.706,209.84 33.781,208.352" fill="#000000"/>
    <path d="M26.86,182.497 L30.304,173.127 L33.747,182.497 C31.715,181 28.937,181.009 26.86,182.497" fill="#000000"/>
    <path d="M239.372,218.457 L230.514,227.315 M257.089,218.457 L248.23,227.315" fill-opacity="0" stroke="#000000" stroke-width="0.581"/>
    <path d="M22.683,192.926 L21,198.79 L20.806,199.569 C20.788,199.64 20.77,199.711 20.77,199.764 C20.77,199.853 20.806,199.941 20.859,200.012 C20.912,200.048 20.965,200.083 21.036,200.083 C21.107,200.083 21.213,200.03 21.337,199.941 C21.55,199.782 21.851,199.427 22.223,198.896 L22.524,199.109 C22.117,199.711 21.709,200.172 21.302,200.49 C20.876,200.792 20.487,200.951 20.132,200.951 C19.884,200.951 19.689,200.898 19.565,200.774 C19.441,200.65 19.388,200.473 19.388,200.225 C19.388,199.941 19.441,199.569 19.565,199.109 L19.76,198.471 C18.998,199.445 18.308,200.136 17.67,200.526 C17.209,200.809 16.766,200.951 16.323,200.951 C15.916,200.951 15.544,200.774 15.243,200.437 C14.941,200.083 14.782,199.605 14.782,198.985 C14.782,198.081 15.048,197.107 15.615,196.097 C16.164,195.069 16.855,194.254 17.705,193.652 C18.361,193.156 18.998,192.926 19.583,192.926 C19.937,192.926 20.221,193.014 20.451,193.191 C20.699,193.386 20.876,193.687 21,194.113 L21.302,193.12 z M19.601,193.368 C19.229,193.368 18.839,193.546 18.432,193.882 C17.829,194.378 17.315,195.105 16.855,196.061 C16.394,197.036 16.164,197.904 16.164,198.683 C16.164,199.073 16.27,199.374 16.465,199.605 C16.66,199.835 16.872,199.959 17.138,199.959 C17.758,199.959 18.449,199.481 19.176,198.559 C20.168,197.319 20.664,196.061 20.664,194.768 C20.664,194.272 20.575,193.918 20.38,193.705 C20.185,193.475 19.92,193.368 19.601,193.368 z" fill="#000000"/>
    <path d="M171.573,242.532 C171.857,242.833 172.069,243.116 172.211,243.418 C172.317,243.63 172.477,244.179 172.725,245.065 L173.487,243.914 C173.682,243.648 173.93,243.382 174.213,243.134 C174.514,242.868 174.762,242.709 174.975,242.603 C175.117,242.55 175.276,242.532 175.435,242.532 C175.684,242.532 175.878,242.585 176.038,242.727 C176.18,242.851 176.25,243.01 176.25,243.205 C176.25,243.435 176.215,243.577 176.126,243.666 C175.967,243.807 175.772,243.878 175.559,243.878 C175.453,243.878 175.311,243.843 175.17,243.79 C174.904,243.701 174.727,243.666 174.638,243.666 C174.496,243.666 174.337,243.737 174.142,243.896 C173.788,244.197 173.363,244.782 172.867,245.632 L173.575,248.609 C173.682,249.069 173.77,249.335 173.841,249.424 C173.912,249.53 174,249.565 174.071,249.565 C174.195,249.565 174.337,249.494 174.496,249.37 C174.815,249.105 175.081,248.75 175.311,248.325 L175.613,248.485 C175.241,249.158 174.78,249.725 174.231,250.185 C173.912,250.433 173.646,250.557 173.416,250.557 C173.097,250.557 172.849,250.38 172.654,250.008 C172.53,249.796 172.282,248.821 171.892,247.103 C171.006,248.679 170.28,249.672 169.731,250.132 C169.376,250.416 169.04,250.557 168.721,250.557 C168.491,250.557 168.278,250.469 168.083,250.309 C167.941,250.185 167.871,250.008 167.871,249.796 C167.871,249.618 167.941,249.459 168.065,249.317 C168.189,249.193 168.349,249.14 168.526,249.14 C168.721,249.14 168.916,249.229 169.128,249.406 C169.27,249.548 169.394,249.618 169.465,249.618 C169.536,249.618 169.624,249.565 169.731,249.477 C170.014,249.246 170.369,248.786 170.847,248.059 C171.308,247.333 171.609,246.801 171.768,246.483 C171.396,245.083 171.201,244.339 171.184,244.25 C171.042,243.878 170.882,243.613 170.67,243.453 C170.457,243.311 170.138,243.223 169.713,243.223 C169.589,243.223 169.43,243.223 169.252,243.24 L169.252,242.939 z" fill="#000000"/>
    <path d="M181.165,246.115 L179.357,252.414 C179.254,252.783 179.196,253.059 179.196,253.22 C179.196,253.358 179.242,253.462 179.346,253.531 C179.438,253.612 179.657,253.658 180.014,253.681 L179.956,253.888 L177.066,253.888 L177.135,253.681 C177.446,253.681 177.653,253.658 177.745,253.612 C177.906,253.543 178.021,253.451 178.102,253.347 C178.229,253.174 178.355,252.863 178.482,252.414 L179.783,247.888 C179.864,247.612 179.899,247.462 179.91,247.416 C179.922,247.336 179.933,247.266 179.933,247.197 C179.933,247.071 179.887,246.967 179.818,246.886 C179.749,246.817 179.657,246.771 179.53,246.771 C179.426,246.771 179.277,246.794 179.069,246.84 L179,246.645 L180.9,246.115 z" fill="#000000"/>
    <path d="M9.057,218.457 L0.199,227.315" fill-opacity="0" stroke="#000000" stroke-width="0.581"/>
    <path d="M141.931,124.553 L141.931,89.12" fill-opacity="0" stroke="#000000" stroke-width="0.678"/>
    <path d="M141.931,89.12 L150.79,89.12 M141.931,80.261 L150.79,80.261" fill-opacity="0" stroke="#000000" stroke-width="0.678" stroke-linecap="square"/>
    <path d="M30.322,172.392 L30.322,129.874" fill-opacity="0" stroke="#000000" stroke-width="0.352"/>
    <path d="M33.781,164.061 L30.33,173.43 L26.887,164.061 C28.92,165.558 31.706,165.549 33.781,164.061" fill="#000000"/>
    <path d="M26.86,138.206 L30.304,128.836 L33.747,138.206 C31.715,136.709 28.937,136.717 26.86,138.206" fill="#000000"/>
    <path d="M30.322,128.1 L30.322,85.583" fill-opacity="0" stroke="#000000" stroke-width="0.352"/>
    <path d="M33.781,119.769 L30.33,129.139 L26.887,119.769 C28.92,121.266 31.706,121.257 33.781,119.769" fill="#000000"/>
    <path d="M26.86,93.914 L30.304,84.544 L33.747,93.914 C31.715,92.417 28.937,92.426 26.86,93.914" fill="#000000"/>
    <path d="M30.322,83.809 L30.322,41.292" fill-opacity="0" stroke="#000000" stroke-width="0.352"/>
    <path d="M33.781,75.478 L30.33,84.848 L26.887,75.478 C28.92,76.975 31.706,76.966 33.781,75.478" fill="#000000"/>
    <path d="M26.86,49.623 L30.304,40.253 L33.747,49.623 C31.715,48.126 28.937,48.135 26.86,49.623" fill="#000000"/>
    <path d="M20.912,146.863 L19.229,152.727 L19.034,153.506 C19.016,153.577 18.998,153.648 18.998,153.701 C18.998,153.79 19.034,153.878 19.087,153.949 C19.14,153.985 19.193,154.02 19.264,154.02 C19.335,154.02 19.441,153.967 19.565,153.878 C19.778,153.719 20.079,153.364 20.451,152.833 L20.752,153.046 C20.345,153.648 19.937,154.109 19.53,154.427 C19.105,154.729 18.715,154.888 18.361,154.888 C18.113,154.888 17.918,154.835 17.794,154.711 C17.67,154.587 17.617,154.41 17.617,154.162 C17.617,153.878 17.67,153.506 17.794,153.046 L17.989,152.408 C17.227,153.382 16.536,154.073 15.898,154.463 C15.437,154.746 14.995,154.888 14.552,154.888 C14.144,154.888 13.772,154.711 13.471,154.374 C13.17,154.02 13.01,153.542 13.01,152.922 C13.01,152.018 13.276,151.044 13.843,150.034 C14.392,149.006 15.083,148.191 15.933,147.589 C16.589,147.093 17.227,146.863 17.811,146.863 C18.166,146.863 18.449,146.951 18.68,147.128 C18.928,147.323 19.105,147.624 19.229,148.05 L19.53,147.057 z M17.829,147.305 C17.457,147.305 17.067,147.483 16.66,147.819 C16.058,148.315 15.544,149.042 15.083,149.998 C14.622,150.973 14.392,151.841 14.392,152.62 C14.392,153.01 14.498,153.311 14.693,153.542 C14.888,153.772 15.101,153.896 15.367,153.896 C15.987,153.896 16.678,153.418 17.404,152.496 C18.396,151.256 18.892,149.998 18.892,148.705 C18.892,148.209 18.804,147.855 18.609,147.642 C18.414,147.412 18.148,147.305 17.829,147.305 z" fill="#000000"/>
    <path d="M20.912,102.571 L19.229,108.435 L19.034,109.215 C19.016,109.286 18.998,109.357 18.998,109.41 C18.998,109.498 19.034,109.587 19.087,109.658 C19.14,109.693 19.193,109.729 19.264,109.729 C19.335,109.729 19.441,109.676 19.565,109.587 C19.778,109.427 20.079,109.073 20.451,108.542 L20.752,108.754 C20.345,109.357 19.937,109.817 19.53,110.136 C19.105,110.437 18.715,110.597 18.361,110.597 C18.113,110.597 17.918,110.544 17.794,110.42 C17.67,110.296 17.617,110.118 17.617,109.87 C17.617,109.587 17.67,109.215 17.794,108.754 L17.989,108.116 C17.227,109.091 16.536,109.782 15.898,110.172 C15.437,110.455 14.995,110.597 14.552,110.597 C14.144,110.597 13.772,110.42 13.471,110.083 C13.17,109.729 13.01,109.25 13.01,108.63 C13.01,107.727 13.276,106.752 13.843,105.742 C14.392,104.715 15.083,103.9 15.933,103.298 C16.589,102.801 17.227,102.571 17.811,102.571 C18.166,102.571 18.449,102.66 18.68,102.837 C18.928,103.032 19.105,103.333 19.229,103.758 L19.53,102.766 z M17.829,103.014 C17.457,103.014 17.067,103.191 16.66,103.528 C16.058,104.024 15.544,104.75 15.083,105.707 C14.622,106.681 14.392,107.55 14.392,108.329 C14.392,108.719 14.498,109.02 14.693,109.25 C14.888,109.481 15.101,109.605 15.367,109.605 C15.987,109.605 16.678,109.126 17.404,108.205 C18.396,106.965 18.892,105.707 18.892,104.414 C18.892,103.918 18.804,103.563 18.609,103.351 C18.414,103.12 18.148,103.014 17.829,103.014 z" fill="#000000"/>
    <path d="M20.912,63.595 L19.229,69.459 L19.034,70.238 C19.016,70.309 18.998,70.38 18.998,70.433 C18.998,70.522 19.034,70.611 19.087,70.681 C19.14,70.717 19.193,70.752 19.264,70.752 C19.335,70.752 19.441,70.699 19.565,70.611 C19.778,70.451 20.079,70.097 20.451,69.565 L20.752,69.778 C20.345,70.38 19.937,70.841 19.53,71.16 C19.105,71.461 18.715,71.62 18.361,71.62 C18.113,71.62 17.918,71.567 17.794,71.443 C17.67,71.319 17.617,71.142 17.617,70.894 C17.617,70.611 17.67,70.238 17.794,69.778 L17.989,69.14 C17.227,70.114 16.536,70.805 15.898,71.195 C15.437,71.479 14.995,71.62 14.552,71.62 C14.144,71.62 13.772,71.443 13.471,71.107 C13.17,70.752 13.01,70.274 13.01,69.654 C13.01,68.75 13.276,67.776 13.843,66.766 C14.392,65.738 15.083,64.924 15.933,64.321 C16.589,63.825 17.227,63.595 17.811,63.595 C18.166,63.595 18.449,63.683 18.68,63.861 C18.928,64.055 19.105,64.357 19.229,64.782 L19.53,63.79 z M17.829,64.038 C17.457,64.038 17.067,64.215 16.66,64.551 C16.058,65.048 15.544,65.774 15.083,66.731 C14.622,67.705 14.392,68.573 14.392,69.353 C14.392,69.742 14.498,70.044 14.693,70.274 C14.888,70.504 15.101,70.628 15.367,70.628 C15.987,70.628 16.678,70.15 17.404,69.229 C18.396,67.988 18.892,66.731 18.892,65.437 C18.892,64.941 18.804,64.587 18.609,64.374 C18.414,64.144 18.148,64.038 17.829,64.038 z" fill="#000000"/>
    <path d="M21.463,39.518 L44.49,39.518 M21.463,83.809 L152.563,83.809 M21.463,128.1 L152.563,128.1 M152.563,172.392 L21.463,172.392" fill-opacity="0" stroke="#000000" stroke-width="0.32" stroke-dasharray="1.28,2.56"/>
    <path d="M274.805,218.457 L265.947,227.315" fill-opacity="0" stroke="#000000" stroke-width="0.581"/>
    <path d="M141.931,39.518 L152.563,39.518" fill-opacity="0" stroke="#000000" stroke-width="0.32" stroke-dasharray="1.28,2.56"/>
    <path d="M141.931,239.71 L212.797,239.71 M141.931,244.52 L141.931,234.909 M212.797,244.52 L212.797,234.909 M141.931,257.427 L239.372,257.427 M141.931,262.237 L141.931,252.626 M239.372,262.237 L239.372,252.626 M141.931,275.143 L212.797,275.143 M141.931,279.953 L141.931,270.342 M212.797,279.953 L212.797,270.342" fill-opacity="0" stroke="#000000" stroke-width="0.48"/>
    <path d="M141.931,218.457 L141.931,275.143 M239.372,218.457 L239.372,257.427 M212.797,218.457 L212.797,275.143" fill-opacity="0" stroke="#000000" stroke-width="0.32" stroke-dasharray="1.28,2.56"/>
    <path d="M222.951,260.248 C223.235,260.549 223.447,260.833 223.589,261.134 C223.695,261.347 223.855,261.896 224.103,262.782 L224.865,261.63 C225.059,261.364 225.308,261.099 225.591,260.851 C225.892,260.585 226.14,260.426 226.353,260.319 C226.495,260.266 226.654,260.248 226.813,260.248 C227.061,260.248 227.256,260.301 227.416,260.443 C227.558,260.567 227.628,260.727 227.628,260.922 C227.628,261.152 227.593,261.294 227.504,261.382 C227.345,261.524 227.15,261.595 226.937,261.595 C226.831,261.595 226.689,261.559 226.548,261.506 C226.282,261.418 226.105,261.382 226.016,261.382 C225.874,261.382 225.715,261.453 225.52,261.613 C225.166,261.914 224.741,262.498 224.245,263.349 L224.953,266.325 C225.059,266.786 225.148,267.051 225.219,267.14 C225.29,267.246 225.378,267.282 225.449,267.282 C225.573,267.282 225.715,267.211 225.874,267.087 C226.193,266.821 226.459,266.467 226.689,266.042 L226.991,266.201 C226.619,266.874 226.158,267.441 225.609,267.902 C225.29,268.15 225.024,268.274 224.794,268.274 C224.475,268.274 224.227,268.097 224.032,267.725 C223.908,267.512 223.66,266.538 223.27,264.819 C222.384,266.396 221.658,267.388 221.109,267.849 C220.754,268.132 220.418,268.274 220.099,268.274 C219.869,268.274 219.656,268.185 219.461,268.026 C219.319,267.902 219.248,267.725 219.248,267.512 C219.248,267.335 219.319,267.176 219.443,267.034 C219.567,266.91 219.727,266.857 219.904,266.857 C220.099,266.857 220.294,266.945 220.506,267.122 C220.648,267.264 220.772,267.335 220.843,267.335 C220.914,267.335 221.002,267.282 221.109,267.193 C221.392,266.963 221.746,266.502 222.225,265.776 C222.685,265.049 222.987,264.518 223.146,264.199 C222.774,262.799 222.579,262.055 222.561,261.967 C222.42,261.595 222.26,261.329 222.048,261.17 C221.835,261.028 221.516,260.939 221.091,260.939 C220.967,260.939 220.808,260.939 220.63,260.957 L220.63,260.656 z" fill="#000000"/>
    <path d="M231.714,271.605 L227.914,271.605 L227.914,271.397 C229.849,269.704 231.127,268.38 231.749,267.413 C232.037,266.975 232.186,266.503 232.186,266.008 C232.186,265.616 232.06,265.305 231.818,265.052 C231.587,264.81 231.277,264.684 230.885,264.684 C230.367,264.684 229.929,264.937 229.584,265.444 L229.388,265.363 C229.584,264.879 229.86,264.499 230.229,264.234 C230.597,263.958 230.989,263.831 231.415,263.831 C231.898,263.831 232.313,263.993 232.635,264.327 C232.969,264.661 233.131,265.064 233.131,265.536 C233.131,265.858 233.073,266.169 232.958,266.445 C232.774,266.883 232.451,267.378 231.967,267.92 C231.23,268.749 230.252,269.716 229.019,270.799 L230.931,270.799 C231.242,270.799 231.495,270.729 231.691,270.603 C231.898,270.476 232.037,270.303 232.117,270.096 L232.347,270.096 z" fill="#000000"/>
    <path d="M171.573,277.965 C171.857,278.266 172.069,278.55 172.211,278.851 C172.317,279.063 172.477,279.613 172.725,280.498 L173.487,279.347 C173.682,279.081 173.93,278.815 174.213,278.567 C174.514,278.301 174.762,278.142 174.975,278.036 C175.117,277.983 175.276,277.965 175.435,277.965 C175.684,277.965 175.878,278.018 176.038,278.16 C176.18,278.284 176.25,278.443 176.25,278.638 C176.25,278.868 176.215,279.01 176.126,279.099 C175.967,279.24 175.772,279.311 175.559,279.311 C175.453,279.311 175.311,279.276 175.17,279.223 C174.904,279.134 174.727,279.099 174.638,279.099 C174.496,279.099 174.337,279.17 174.142,279.329 C173.788,279.63 173.363,280.215 172.867,281.065 L173.575,284.042 C173.682,284.502 173.77,284.768 173.841,284.857 C173.912,284.963 174,284.998 174.071,284.998 C174.195,284.998 174.337,284.927 174.496,284.803 C174.815,284.538 175.081,284.183 175.311,283.758 L175.613,283.918 C175.241,284.591 174.78,285.158 174.231,285.618 C173.912,285.866 173.646,285.99 173.416,285.99 C173.097,285.99 172.849,285.813 172.654,285.441 C172.53,285.229 172.282,284.254 171.892,282.536 C171.006,284.113 170.28,285.105 169.731,285.565 C169.376,285.849 169.04,285.99 168.721,285.99 C168.491,285.99 168.278,285.902 168.083,285.742 C167.941,285.618 167.871,285.441 167.871,285.229 C167.871,285.051 167.941,284.892 168.065,284.75 C168.189,284.626 168.349,284.573 168.526,284.573 C168.721,284.573 168.916,284.662 169.128,284.839 C169.27,284.981 169.394,285.051 169.465,285.051 C169.536,285.051 169.624,284.998 169.731,284.91 C170.014,284.679 170.369,284.219 170.847,283.492 C171.308,282.766 171.609,282.235 171.768,281.916 C171.396,280.516 171.201,279.772 171.184,279.683 C171.042,279.311 170.882,279.046 170.67,278.886 C170.457,278.744 170.138,278.656 169.713,278.656 C169.589,278.656 169.43,278.656 169.252,278.674 L169.252,278.372 z" fill="#000000"/>
    <path d="M178.114,285.164 L178.114,285.003 C179.023,284.853 179.703,284.588 180.152,284.185 C180.474,283.897 180.636,283.563 180.636,283.172 C180.636,282.872 180.532,282.63 180.348,282.435 C180.163,282.239 179.933,282.147 179.668,282.147 C179.254,282.147 178.874,282.412 178.551,282.93 L178.344,282.861 C178.54,282.435 178.793,282.101 179.092,281.882 C179.403,281.652 179.737,281.548 180.094,281.548 C180.543,281.548 180.9,281.675 181.165,281.939 C181.442,282.204 181.58,282.538 181.58,282.941 C181.58,283.287 181.453,283.621 181.2,283.943 C180.935,284.254 180.497,284.542 179.876,284.795 C180.267,284.957 180.555,285.187 180.751,285.486 C180.958,285.786 181.05,286.154 181.05,286.58 C181.05,287.041 180.912,287.513 180.647,287.985 C180.382,288.457 180.002,288.814 179.542,289.079 C179.069,289.333 178.574,289.459 178.056,289.459 C177.584,289.459 177.227,289.379 176.985,289.218 C176.824,289.102 176.743,288.976 176.743,288.826 C176.743,288.688 176.789,288.573 176.881,288.48 C176.973,288.388 177.1,288.342 177.238,288.342 C177.33,288.342 177.434,288.354 177.526,288.388 C177.584,288.411 177.734,288.48 177.964,288.607 C178.206,288.745 178.39,288.826 178.517,288.872 C178.643,288.918 178.782,288.941 178.92,288.941 C179.254,288.941 179.542,288.745 179.76,288.354 C179.979,287.962 180.083,287.548 180.083,287.099 C180.083,286.742 180.014,286.419 179.864,286.143 C179.714,285.855 179.484,285.625 179.162,285.452 C178.839,285.279 178.494,285.187 178.114,285.164 z" fill="#000000"/>
    <path d="M186.318,184.685 L188.515,185.879" fill-opacity="0" stroke="#000000" stroke-width="0.32"/>
    <path d="M182.296,182.488 L178.447,183.62 L188.515,185.879 L181.162,178.646" fill="#000000"/>
    <path d="M182.296,182.488 L178.445,183.62 L188.517,185.879 L181.162,178.646 z" fill-opacity="0" stroke="#000000" stroke-width="0.32"/>
    <path d="M189.77,113.929 L191.188,115.989" fill-opacity="0" stroke="#000000" stroke-width="0.32"/>
    <path d="M187.175,110.151 L183.231,109.416 L191.188,115.989 L187.91,106.205" fill="#000000"/>
    <path d="M187.175,110.149 L183.229,109.416 L191.188,115.989 L187.912,106.207 z" fill-opacity="0" stroke="#000000" stroke-width="0.32"/>
    <path d="M228.621,175.964 L229.659,178.247" fill-opacity="0" stroke="#000000" stroke-width="0.32"/>
    <path d="M226.716,171.796 L222.962,170.394 L229.659,178.249 L228.118,168.04" fill="#000000"/>
    <path d="M226.718,171.796 L222.96,170.394 L229.657,178.249 L228.118,168.042 z" fill-opacity="0" stroke="#000000" stroke-width="0.32"/>
    <path d="M141.931,83.809 C204.043,91.37 212.797,168.844 212.797,218.457 M141.931,128.1 C224.865,135.869 234.943,181.259 239.372,218.457 M141.931,172.392 C186.223,174.166 209.261,198.967 212.797,218.457" fill-opacity="0" stroke="#000000" stroke-width="0.56"/>
  </g>
  <defs/>
</svg>
