<?xml version="1.0" encoding="UTF-8"?>
<!DOCTYPE svg PUBLIC "-//W3C//DTD SVG 1.1//EN" "http://www.w3.org/Graphics/SVG/1.1/DTD/svg11.dtd">
<svg version="1.1" xmlns="http://www.w3.org/2000/svg" xmlns:xlink="http://www.w3.org/1999/xlink" x="0px" y="0px" width="226.772" height="107.717" viewBox="0, 0, 226.772, 107.717">
  <g id="Layer 1">
    <path d="M0.074,67.874 L217.775,67.874" fill-opacity="0" stroke="#000000" stroke-width="0.8"/>
    <path d="M54.499,31.591 L145.208,31.591 L145.208,67.874 L54.499,67.874 z" fill-opacity="0" stroke="#000000" stroke-width="0.8" stroke-linecap="square"/>
    <path d="M145.208,49.732 L226.846,49.732" fill-opacity="0" stroke="#000000" stroke-width="0.4"/>
    <path d="M187.002,49.732 L185.185,51.54 L191.537,49.732 L185.185,47.916" fill="#000000"/>
    <path d="M187.002,49.732 L185.185,51.54 L191.537,49.732 L185.185,47.916 z" fill-opacity="0" stroke="#000000" stroke-width="0.2"/>
    <path d="M9.145,67.874 L0.074,76.945 M18.216,67.874 L9.145,76.945 M27.287,67.874 L18.216,76.945 M36.357,67.874 L27.287,76.945 M45.428,67.874 L36.357,76.945 M54.499,67.874 L45.428,76.945 M63.57,67.874 L54.499,76.945 M72.641,67.874 L63.57,76.945 M81.712,67.874 L72.641,76.945 M90.783,67.874 L81.712,76.945 M99.854,67.874 L90.783,76.945 M108.924,67.874 L99.854,76.945 M117.995,67.874 L108.924,76.945 M127.066,67.874 L117.995,76.945 M136.137,67.874 L127.066,76.945 M145.208,67.874 L136.137,76.945 M154.279,67.874 L145.208,76.945 M163.35,67.874 L154.279,76.945 M172.42,67.874 L163.35,76.945 M181.491,67.874 L172.42,76.945 M190.562,67.874 L181.491,76.945 M199.633,67.874 L190.562,76.945 M208.704,67.874 L199.633,76.945 M217.775,67.874 L208.704,76.945" fill-opacity="0" stroke="#000000" stroke-width="0.2"/>
    <path d="M99.854,49.732 L99.854,95.087" fill-opacity="0" stroke="#000000" stroke-width="0.4"/>
    <path d="M99.854,91.454 L98.037,89.64 L99.854,95.989 L101.67,89.64" fill="#000000"/>
    <path d="M99.854,91.456 L98.037,89.64 L99.854,95.992 L101.67,89.64 z" fill-opacity="0" stroke="#000000" stroke-width="0.2"/>
    <path d="M93.92,98.662 L93.005,101.855 C93.412,101.1 93.76,100.534 94.05,100.157 C94.5,99.576 94.936,99.141 95.357,98.879 C95.618,98.734 95.879,98.662 96.155,98.662 C96.387,98.662 96.576,98.734 96.735,98.879 C96.895,99.039 96.968,99.228 96.968,99.46 C96.968,99.692 96.924,99.997 96.808,100.374 L96.3,102.174 C97.069,100.737 97.809,99.721 98.492,99.141 C98.883,98.821 99.261,98.662 99.624,98.662 C99.841,98.662 100.03,98.734 100.161,98.879 C100.306,99.024 100.378,99.257 100.378,99.576 C100.378,99.837 100.335,100.128 100.248,100.447 L99.464,103.204 C99.29,103.799 99.217,104.133 99.217,104.191 C99.217,104.264 99.232,104.322 99.275,104.365 C99.304,104.394 99.348,104.423 99.391,104.423 C99.435,104.423 99.522,104.365 99.638,104.278 C99.899,104.075 100.161,103.799 100.393,103.466 L100.625,103.611 C100.509,103.799 100.306,104.061 100.001,104.394 C99.696,104.714 99.449,104.946 99.232,105.062 C99.014,105.178 98.825,105.236 98.637,105.236 C98.477,105.236 98.346,105.178 98.23,105.062 C98.114,104.96 98.056,104.815 98.056,104.656 C98.056,104.423 98.158,103.974 98.346,103.277 L99,101.013 C99.145,100.49 99.217,100.2 99.232,100.142 C99.246,100.04 99.246,99.953 99.246,99.881 C99.246,99.75 99.232,99.663 99.174,99.605 C99.116,99.532 99.058,99.503 98.985,99.503 C98.782,99.503 98.579,99.605 98.346,99.808 C97.708,100.403 97.098,101.245 96.518,102.334 C96.155,103.045 95.807,103.959 95.473,105.062 L94.413,105.062 L95.618,100.781 C95.749,100.316 95.821,100.011 95.821,99.852 C95.821,99.721 95.792,99.634 95.734,99.576 C95.69,99.503 95.618,99.474 95.545,99.474 C95.386,99.474 95.226,99.532 95.052,99.649 C94.762,99.837 94.399,100.229 93.949,100.839 C93.513,101.434 93.165,102.014 92.918,102.566 C92.802,102.827 92.512,103.654 92.077,105.062 L91.032,105.062 L92.338,100.476 L92.512,99.881 C92.541,99.794 92.556,99.721 92.556,99.678 C92.556,99.576 92.512,99.489 92.41,99.402 C92.323,99.315 92.193,99.286 92.048,99.286 C91.99,99.286 91.815,99.315 91.54,99.358 L91.482,99.097 z" fill="#000000"/>
    <path d="M108.809,99.097 L108.606,99.837 L107.43,99.837 C107.517,100.084 107.561,100.331 107.561,100.548 C107.561,101.172 107.3,101.724 106.763,102.217 C106.24,102.696 105.5,102.972 104.571,103.016 C104.078,103.175 103.7,103.349 103.439,103.553 C103.352,103.64 103.309,103.712 103.309,103.799 C103.309,103.886 103.352,103.974 103.425,104.046 C103.512,104.133 103.729,104.206 104.078,104.293 L105.457,104.612 C106.211,104.786 106.719,105.004 106.966,105.251 C107.198,105.497 107.314,105.788 107.314,106.107 C107.314,106.499 107.184,106.847 106.893,107.181 C106.603,107.5 106.182,107.747 105.645,107.936 C105.094,108.11 104.484,108.197 103.817,108.197 C103.221,108.197 102.699,108.139 102.206,107.994 C101.727,107.849 101.378,107.66 101.175,107.428 C100.972,107.196 100.87,106.949 100.87,106.702 C100.87,106.499 100.928,106.281 101.073,106.063 C101.204,105.846 101.364,105.672 101.567,105.526 C101.698,105.439 102.06,105.222 102.655,104.888 C102.438,104.714 102.336,104.525 102.336,104.322 C102.336,104.133 102.423,103.93 102.612,103.727 C102.815,103.509 103.221,103.277 103.831,103.016 C103.309,102.929 102.902,102.711 102.597,102.363 C102.293,102.029 102.147,101.666 102.147,101.245 C102.147,100.577 102.438,99.982 103.018,99.445 C103.613,98.923 104.397,98.662 105.369,98.662 C105.732,98.662 106.023,98.691 106.24,98.763 C106.472,98.836 106.69,98.937 106.908,99.097 z M106.356,100.215 C106.356,99.823 106.255,99.532 106.037,99.315 C105.834,99.097 105.558,98.995 105.21,98.995 C104.687,98.995 104.237,99.257 103.889,99.794 C103.541,100.331 103.367,100.882 103.367,101.463 C103.367,101.84 103.483,102.13 103.7,102.363 C103.933,102.595 104.194,102.711 104.513,102.711 C104.76,102.711 105.007,102.638 105.239,102.508 C105.471,102.363 105.674,102.174 105.834,101.942 C105.994,101.695 106.124,101.39 106.211,101.013 C106.313,100.635 106.356,100.374 106.356,100.215 z M102.96,105.062 C102.583,105.251 102.293,105.468 102.089,105.744 C101.901,106.02 101.799,106.281 101.799,106.557 C101.799,106.862 101.944,107.123 102.22,107.326 C102.626,107.616 103.221,107.762 104.005,107.762 C104.687,107.762 105.268,107.645 105.747,107.413 C106.226,107.196 106.458,106.891 106.458,106.528 C106.458,106.339 106.371,106.165 106.197,106.005 C106.023,105.846 105.674,105.701 105.166,105.599 C104.891,105.541 104.15,105.367 102.96,105.062 z" fill="#000000"/>
    <path d="M99.854,59.477 L99.854,14.123" fill-opacity="0" stroke="#000000" stroke-width="0.4"/>
    <path d="M99.854,17.753 L101.67,19.57 L99.854,13.218 L98.037,19.57" fill="#000000"/>
    <path d="M99.854,17.755 L101.67,19.57 L99.854,13.22 L98.037,19.57 z" fill-opacity="0" stroke="#000000" stroke-width="0.2"/>
    <path d="M100.764,10.125 L99.226,5.467 C98.863,5.467 98.5,5.438 98.123,5.351 L97.295,8.268 C97.179,8.645 97.136,8.964 97.136,9.226 C97.136,9.414 97.194,9.574 97.339,9.69 C97.44,9.777 97.716,9.835 98.181,9.864 L98.123,10.125 L94.407,10.125 L94.48,9.864 C94.828,9.85 95.06,9.821 95.191,9.763 C95.38,9.69 95.525,9.574 95.612,9.443 C95.757,9.211 95.917,8.819 96.091,8.268 L97.76,2.462 C97.876,2.071 97.934,1.766 97.934,1.563 C97.934,1.345 97.847,1.156 97.673,1.011 C97.499,0.851 97.237,0.779 96.903,0.779 L96.991,0.518 L100.125,0.518 C101.17,0.518 101.925,0.721 102.39,1.113 C102.854,1.519 103.086,2.042 103.086,2.68 C103.086,3.304 102.854,3.87 102.375,4.378 C101.896,4.901 101.257,5.22 100.43,5.351 L101.359,8.166 C101.591,8.863 101.809,9.313 102.041,9.516 C102.273,9.719 102.636,9.835 103.144,9.864 L103.057,10.125 z M98.239,4.959 C98.543,4.988 98.819,5.017 99.051,5.017 C99.864,5.017 100.503,4.785 100.982,4.335 C101.446,3.885 101.693,3.333 101.693,2.651 C101.693,2.129 101.533,1.737 101.243,1.446 C100.953,1.171 100.503,1.04 99.908,1.04 C99.763,1.04 99.588,1.055 99.371,1.084 z" fill="#000000"/>
    <path d="M184.884,34.679 L192.184,34.679 L191.4,37.234 L191.124,37.234 C191.211,36.856 191.255,36.537 191.255,36.232 C191.255,35.898 191.153,35.637 190.936,35.463 C190.776,35.318 190.37,35.26 189.702,35.26 L188.947,35.26 L187.046,41.878 C186.799,42.705 186.683,43.228 186.683,43.416 C186.683,43.59 186.756,43.736 186.915,43.852 C187.061,43.968 187.322,44.026 187.714,44.026 L188.033,44.026 L187.946,44.287 L183.766,44.287 L183.853,44.026 L184.027,44.026 C184.405,44.026 184.68,43.968 184.884,43.852 C185.014,43.779 185.145,43.634 185.261,43.416 C185.363,43.213 185.522,42.763 185.725,42.081 L187.714,35.26 L187.133,35.26 C186.582,35.26 186.132,35.332 185.798,35.477 C185.464,35.608 185.188,35.826 184.985,36.087 C184.768,36.363 184.608,36.74 184.477,37.234 L184.216,37.234 z" fill="#000000"/>
    <path d="M54.499,67.874 L9.145,67.874" fill-opacity="0" stroke="#000000" stroke-width="0.32"/>
    <path d="M16.399,67.874 L19.307,64.969 L9.145,67.874 L19.307,70.77" fill="#000000"/>
    <path d="M16.399,67.874 L19.307,64.969 L9.145,67.874 L19.307,70.77 z" fill-opacity="0" stroke="#000000" stroke-width="0.32"/>
    <path d="M16.78,54.467 L15.648,58.27 L16.896,58.27 C17.476,58.27 17.897,58.183 18.173,58.009 C18.449,57.834 18.739,57.457 19.044,56.891 L19.319,56.891 L18.318,60.389 L18.028,60.389 C18.1,60.098 18.129,59.866 18.129,59.678 C18.129,59.402 18.042,59.17 17.854,59.01 C17.65,58.85 17.302,58.778 16.78,58.778 L15.502,58.778 L14.661,61.68 C14.516,62.188 14.443,62.537 14.443,62.696 C14.443,62.871 14.501,63.016 14.632,63.103 C14.762,63.204 15.082,63.262 15.589,63.291 L15.502,63.553 L11.7,63.553 L11.787,63.291 C12.164,63.291 12.411,63.262 12.527,63.204 C12.716,63.117 12.861,63.016 12.948,62.871 C13.079,62.682 13.224,62.275 13.398,61.68 L15.096,55.89 C15.227,55.411 15.299,55.048 15.299,54.787 C15.299,54.67 15.27,54.554 15.212,54.467 C15.154,54.38 15.052,54.322 14.936,54.279 C14.82,54.235 14.574,54.206 14.211,54.206 L14.298,53.945 L21.758,53.945 L21.047,56.383 L20.785,56.383 C20.829,56.093 20.858,55.846 20.858,55.657 C20.858,55.353 20.771,55.106 20.597,54.917 C20.422,54.743 20.205,54.612 19.929,54.525 C19.74,54.482 19.319,54.467 18.666,54.467 z" fill="#000000"/>
  </g>
  <defs/>
</svg>
