<?xml version="1.0" encoding="UTF-8"?>
<!DOCTYPE svg PUBLIC "-//W3C//DTD SVG 1.1//EN" "http://www.w3.org/Graphics/SVG/1.1/DTD/svg11.dtd">
<svg version="1.1" xmlns="http://www.w3.org/2000/svg" xmlns:xlink="http://www.w3.org/1999/xlink" x="0px" y="0px" width="141.732" height="79.37" viewBox="0, 0, 141.732, 79.37">
  <g id="Layer 1">
    <path d="M-0,45.967 L141.732,45.967" fill-opacity="0" stroke="#000000" stroke-width="0.684"/>
    <path d="M52.217,38.507 C52.217,42.63 48.881,45.967 44.758,45.967 C40.634,45.967 37.298,42.63 37.298,38.507 C37.298,34.384 40.634,31.048 44.758,31.048 C48.881,31.048 52.217,34.384 52.217,38.507" fill="#000000"/>
    <path d="M104.434,38.507 C104.434,42.63 101.098,45.967 96.975,45.967 C92.851,45.967 89.515,42.63 89.515,38.507 C89.515,34.384 92.851,31.048 96.975,31.048 C101.098,31.048 104.434,34.384 104.434,38.507" fill="#000000"/>
    <text transform="matrix(1, 0, -0, 1, 84.297, 32.912)">
      <tspan x="-32.079" y="-2.189" font-family="TimesNewRomanPSMT" font-size="9.6" fill="#000000">B</tspan>
      <tspan x="-4.079" y="-2.189" font-family="TimesNewRomanPSMT" font-size="9.6" fill="#000000">C</tspan>
    </text>
    <path d="M29.838,16.128 L59.677,16.128" fill-opacity="0" stroke="#000000" stroke-width="0.391"/>
    <path d="M44.918,16.128 L41.998,19.049 L52.217,16.128 L41.998,13.206" fill="#000000"/>
    <path d="M44.918,16.128 L41.998,19.051 L52.217,16.128 L41.998,13.208 z" fill-opacity="0" stroke="#000000" stroke-width="0.391"/>
    <path d="M82.056,60.886 L111.894,60.886" fill-opacity="0" stroke="#000000" stroke-width="0.391"/>
    <path d="M97.135,60.886 L94.215,63.806 L104.434,60.886 L94.215,57.964" fill="#000000"/>
    <path d="M97.135,60.886 L94.215,63.808 L104.434,60.886 L94.215,57.965 z" fill-opacity="0" stroke="#000000" stroke-width="0.391"/>
    <path d="M42.15,1.31 L44.674,0.773 C44.853,1.203 44.996,1.633 45.122,2.08 C45.265,2.743 45.39,3.53 45.498,4.426 C45.551,4.891 45.605,5.84 45.694,7.308 C46.411,6.502 46.858,6.019 46.984,5.822 C47.753,4.784 48.201,4.157 48.326,3.978 C48.505,3.674 48.648,3.405 48.72,3.172 C48.792,2.993 48.828,2.832 48.828,2.671 C48.828,2.528 48.684,2.349 48.416,2.152 C48.147,1.955 48.004,1.722 48.004,1.489 C48.004,1.292 48.076,1.131 48.237,0.988 C48.38,0.845 48.559,0.773 48.756,0.773 C49.007,0.773 49.221,0.863 49.4,1.06 C49.597,1.275 49.687,1.525 49.687,1.812 C49.687,2.116 49.633,2.402 49.544,2.671 C49.4,3.119 49.114,3.656 48.702,4.3 C48.29,4.927 47.61,5.786 46.697,6.86 C46.572,6.986 45.927,7.666 44.746,8.883 L44.423,8.883 C44.298,5.195 43.994,2.904 43.564,1.973 C43.403,1.686 43.17,1.543 42.83,1.543 C42.687,1.543 42.472,1.561 42.203,1.615 z" fill="#000000"/>
    <path d="M53.726,12.249 L49.886,12.249 L49.886,12.04 C51.841,10.329 53.133,8.991 53.761,8.013 C54.052,7.571 54.203,7.094 54.203,6.593 C54.203,6.198 54.075,5.884 53.831,5.628 C53.598,5.383 53.284,5.255 52.888,5.255 C52.365,5.255 51.922,5.511 51.573,6.023 L51.375,5.942 C51.573,5.453 51.853,5.069 52.225,4.801 C52.597,4.522 52.993,4.394 53.424,4.394 C53.912,4.394 54.331,4.557 54.657,4.894 C54.995,5.232 55.157,5.639 55.157,6.116 C55.157,6.442 55.099,6.756 54.983,7.036 C54.797,7.478 54.471,7.978 53.982,8.525 C53.237,9.363 52.248,10.341 51.003,11.435 L52.935,11.435 C53.249,11.435 53.505,11.365 53.703,11.237 C53.912,11.109 54.052,10.934 54.133,10.725 L54.366,10.725 z" fill="#000000"/>
    <path d="M29.838,60.886 L59.677,60.886" fill-opacity="0" stroke="#000000" stroke-width="0.391"/>
    <path d="M44.918,60.886 L41.998,63.806 L52.217,60.886 L41.998,57.964" fill="#000000"/>
    <path d="M44.918,60.886 L41.998,63.808 L52.217,60.886 L41.998,57.965 z" fill-opacity="0" stroke="#000000" stroke-width="0.391"/>
    <path d="M47.765,67.91 L48.374,74.462 C49.394,73.263 50.2,72.153 50.809,71.114 C51.167,70.506 51.346,70.058 51.346,69.789 C51.346,69.646 51.31,69.539 51.256,69.449 C51.221,69.396 51.131,69.306 50.97,69.217 C50.809,69.109 50.701,69.002 50.648,68.894 C50.576,68.787 50.54,68.679 50.54,68.554 C50.54,68.375 50.612,68.214 50.737,68.089 C50.88,67.963 51.059,67.91 51.256,67.91 C51.507,67.91 51.704,67.999 51.865,68.16 C52.026,68.339 52.116,68.59 52.116,68.876 C52.116,69.181 52.08,69.467 51.99,69.736 C51.811,70.237 51.471,70.882 50.97,71.669 C50.343,72.618 49.717,73.495 49.054,74.319 C48.392,75.125 47.908,75.697 47.586,76.02 L47.264,76.02 L46.691,69.968 L43.093,76.02 L42.699,76.02 C42.663,73.531 42.538,71.58 42.323,70.13 C42.233,69.539 42.09,69.145 41.893,68.948 C41.75,68.823 41.517,68.751 41.231,68.751 C41.052,68.751 40.837,68.769 40.586,68.805 L40.586,68.483 L43.093,67.91 C43.433,68.876 43.665,70.362 43.773,72.385 C43.809,73.155 43.827,73.639 43.862,73.836 L47.443,67.91 z" fill="#000000"/>
    <path d="M56.255,79.385 L52.415,79.385 L52.415,79.176 C54.37,77.465 55.662,76.127 56.29,75.15 C56.581,74.707 56.732,74.23 56.732,73.73 C56.732,73.334 56.604,73.02 56.36,72.764 C56.127,72.52 55.813,72.392 55.417,72.392 C54.894,72.392 54.452,72.648 54.102,73.16 L53.905,73.078 C54.102,72.589 54.382,72.205 54.754,71.938 C55.126,71.658 55.522,71.53 55.953,71.53 C56.441,71.53 56.86,71.693 57.186,72.031 C57.524,72.368 57.687,72.776 57.687,73.253 C57.687,73.579 57.628,73.893 57.512,74.172 C57.326,74.614 57,75.115 56.511,75.662 C55.767,76.499 54.777,77.477 53.532,78.571 L55.464,78.571 C55.778,78.571 56.034,78.501 56.232,78.373 C56.441,78.245 56.581,78.07 56.663,77.861 L56.895,77.861 z" fill="#000000"/>
    <path d="M99.507,67.91 L100.116,74.462 C101.136,73.263 101.942,72.153 102.551,71.114 C102.909,70.506 103.088,70.058 103.088,69.789 C103.088,69.646 103.052,69.539 102.998,69.449 C102.963,69.396 102.873,69.306 102.712,69.217 C102.551,69.109 102.443,69.002 102.39,68.894 C102.318,68.787 102.282,68.679 102.282,68.554 C102.282,68.375 102.354,68.214 102.479,68.089 C102.622,67.963 102.801,67.91 102.998,67.91 C103.249,67.91 103.446,67.999 103.607,68.16 C103.768,68.339 103.858,68.59 103.858,68.876 C103.858,69.181 103.822,69.467 103.732,69.736 C103.553,70.237 103.213,70.882 102.712,71.669 C102.085,72.618 101.459,73.495 100.796,74.319 C100.134,75.125 99.65,75.697 99.328,76.02 L99.006,76.02 L98.433,69.968 L94.835,76.02 L94.441,76.02 C94.405,73.531 94.28,71.58 94.065,70.13 C93.975,69.539 93.832,69.145 93.635,68.948 C93.492,68.823 93.259,68.751 92.973,68.751 C92.794,68.751 92.579,68.769 92.328,68.805 L92.328,68.483 L94.835,67.91 C95.175,68.876 95.407,70.362 95.515,72.385 C95.551,73.155 95.569,73.639 95.604,73.836 L99.185,67.91 z" fill="#000000"/>
    <path d="M105.751,75.184 L105.751,75.022 C106.671,74.87 107.357,74.603 107.811,74.195 C108.137,73.904 108.3,73.567 108.3,73.171 C108.3,72.869 108.195,72.624 108.009,72.426 C107.823,72.229 107.59,72.136 107.322,72.136 C106.903,72.136 106.519,72.403 106.194,72.927 L105.984,72.857 C106.182,72.426 106.438,72.089 106.74,71.868 C107.055,71.635 107.392,71.53 107.753,71.53 C108.207,71.53 108.567,71.658 108.835,71.926 C109.114,72.194 109.254,72.531 109.254,72.939 C109.254,73.288 109.126,73.625 108.87,73.951 C108.602,74.265 108.16,74.556 107.532,74.812 C107.927,74.975 108.218,75.208 108.416,75.51 C108.626,75.813 108.719,76.185 108.719,76.616 C108.719,77.081 108.579,77.558 108.311,78.036 C108.044,78.513 107.66,78.873 107.194,79.141 C106.717,79.397 106.217,79.525 105.693,79.525 C105.216,79.525 104.855,79.444 104.611,79.281 C104.448,79.164 104.366,79.036 104.366,78.885 C104.366,78.745 104.413,78.629 104.506,78.536 C104.599,78.443 104.727,78.396 104.867,78.396 C104.96,78.396 105.065,78.408 105.158,78.443 C105.216,78.466 105.367,78.536 105.6,78.664 C105.844,78.804 106.031,78.885 106.159,78.932 C106.287,78.978 106.426,79.001 106.566,79.001 C106.903,79.001 107.194,78.804 107.415,78.408 C107.637,78.012 107.741,77.593 107.741,77.14 C107.741,76.779 107.671,76.453 107.52,76.174 C107.369,75.883 107.136,75.65 106.81,75.475 C106.484,75.301 106.135,75.208 105.751,75.184 z" fill="#000000"/>
  </g>
  <defs/>
</svg>
