<?xml version="1.0" encoding="UTF-8"?>
<!DOCTYPE svg PUBLIC "-//W3C//DTD SVG 1.1//EN" "http://www.w3.org/Graphics/SVG/1.1/DTD/svg11.dtd">
<svg version="1.1" xmlns="http://www.w3.org/2000/svg" xmlns:xlink="http://www.w3.org/1999/xlink" x="0px" y="0px" width="841.89" height="595.276" viewBox="0, 0, 841.89, 595.276">
  <g id="Layer_x0020_1">
    <path d="M116.845,137.485 L380.907,137.485 L380.907,303.358 L116.845,303.358 z" fill-opacity="0" stroke="#1F1A17" stroke-width="1.4"/>
    <path d="M52.021,306.218 L445.731,306.218 L445.731,365.322 L52.021,365.322 z" fill="#AAA9A9"/>
    <path d="M246.029,250.487 L246.029,220.634 L248.863,220.634 L248.863,250.487 L246.029,250.487 z M247.446,260.459 L238.942,240.617 L239.473,240.874 L240.005,241.115 L240.536,241.339 L241.068,241.547 L241.599,241.738 L242.131,241.912 L242.662,242.07 L243.194,242.211 L243.725,242.336 L244.257,242.444 L244.788,242.535 L245.32,242.61 L245.851,242.668 L246.383,242.71 L246.914,242.735 L247.446,242.743 L247.977,242.735 L248.509,242.71 L249.04,242.668 L249.572,242.61 L250.103,242.535 L250.635,242.444 L251.166,242.336 L251.698,242.211 L252.229,242.07 L252.761,241.912 L253.292,241.738 L253.824,241.547 L254.355,241.339 L254.887,241.115 L255.418,240.874 L255.95,240.617 L255.95,240.617 L247.446,260.459 z" fill="#1F1A17"/>
    <path d="M249.603,279.011 L249.603,302.404 L246.769,302.404 L246.769,279.011 L249.603,279.011 z M248.186,269.039 L256.69,288.882 L256.158,288.624 L255.627,288.383 L255.095,288.159 L254.564,287.952 L254.032,287.76 L253.501,287.586 L252.969,287.428 L252.438,287.287 L251.906,287.163 L251.375,287.055 L250.843,286.963 L250.312,286.889 L249.78,286.83 L249.249,286.789 L248.717,286.764 L248.186,286.756 L247.654,286.764 L247.123,286.789 L246.592,286.83 L246.06,286.889 L245.529,286.963 L244.997,287.055 L244.466,287.163 L243.934,287.287 L243.403,287.428 L242.871,287.586 L242.34,287.76 L241.808,287.952 L241.277,288.159 L240.745,288.383 L240.214,288.624 L239.682,288.882 L239.682,288.882 L248.186,269.039 z" fill="#1F1A17"/>
    <text transform="matrix(2.835, 0, 0, 2.835, 275.24, 208.129)">
      <tspan x="-5.77" y="4" font-family=".LucidaGrandeUI" font-size="11.289" fill="#1F1A17">m</tspan>
    </text>
    <text transform="matrix(2.835, 0, 0, 2.835, 295.17, 208.129)">
      <tspan x="-4.02" y="4" font-family=".LucidaGrandeUI" font-size="11.289" fill="#1F1A17">g</tspan>
    </text>
    <path d="M283.776,222.377 L299.775,222.377 L299.775,223.832 L283.776,223.832 z" fill="#1F1A17"/>
    <text transform="matrix(2.835, 0, 0, 2.835, 276.034, 270.339)">
      <tspan x="-4.069" y="4" font-family=".LucidaGrandeUI" font-size="11.289" fill="#1F1A17">R </tspan>
    </text>
    <text transform="matrix(2.835, 0, 0, 2.835, 369.513, 271.26)">
      <tspan x="-4.02" y="4" font-family=".LucidaGrandeUI" font-size="11.289" fill="#1F1A17">g</tspan>
    </text>
    <text transform="matrix(2.835, 0, 0, 2.835, 327.17, 270.339)">
      <tspan x="-15.308" y="4" font-family=".LucidaGrandeUI" font-size="11.289" fill="#1F1A17">=-m</tspan>
    </text>
    <path d="M264.5,284.054 L294.434,284.054 L294.434,285.508 L264.5,285.508 L264.5,284.054 z M355.178,284.054 L371.5,284.054 L371.5,285.508 L355.178,285.508 L355.178,284.054 z" fill="#1F1A17"/>
    <path d="M453.872,223.745 L380.908,223.745 L380.908,220.91 L453.872,220.91 L453.872,223.745 z M463.844,222.328 L444.002,230.832 L444.259,230.3 L444.5,229.769 L444.724,229.237 L444.932,228.706 L445.123,228.174 L445.297,227.643 L445.455,227.111 L445.596,226.58 L445.721,226.048 L445.829,225.517 L445.92,224.985 L445.995,224.454 L446.053,223.922 L446.095,223.391 L446.12,222.859 L446.128,222.328 L446.12,221.796 L446.095,221.265 L446.053,220.733 L445.995,220.202 L445.92,219.67 L445.829,219.139 L445.721,218.607 L445.596,218.076 L445.455,217.544 L445.297,217.013 L445.123,216.481 L444.932,215.95 L444.724,215.418 L444.5,214.887 L444.259,214.355 L444.002,213.824 L444.002,213.824 L463.844,222.328 z" fill="#1F1A17"/>
    <path d="M62.284,300.461 L135.248,300.461 L135.248,303.296 L62.284,303.296 L62.284,300.461 z M52.311,301.878 L72.154,293.374 L71.897,293.906 L71.656,294.437 L71.431,294.969 L71.224,295.5 L71.033,296.032 L70.858,296.563 L70.701,297.095 L70.559,297.626 L70.435,298.158 L70.327,298.689 L70.235,299.221 L70.161,299.752 L70.103,300.284 L70.061,300.815 L70.036,301.347 L70.028,301.878 L70.036,302.41 L70.061,302.941 L70.103,303.473 L70.161,304.004 L70.235,304.536 L70.327,305.067 L70.435,305.599 L70.559,306.13 L70.701,306.662 L70.858,307.193 L71.033,307.725 L71.224,308.256 L71.431,308.788 L71.656,309.319 L71.897,309.851 L72.154,310.382 L72.154,310.382 L52.311,301.878 z" fill="#1F1A17"/>
    <path d="M299.191,317.367 L338.388,317.367 L338.388,358.94 L299.191,358.94 z" fill="#FFFFFF"/>
    <path d="M332.98,309.127 L260.016,309.127 L260.016,306.292 L332.98,306.292 L332.98,309.127 z M342.952,307.709 L323.11,316.213 L323.367,315.682 L323.608,315.15 L323.832,314.619 L324.04,314.087 L324.231,313.556 L324.405,313.024 L324.563,312.493 L324.704,311.961 L324.829,311.43 L324.937,310.898 L325.028,310.367 L325.103,309.835 L325.161,309.304 L325.203,308.772 L325.228,308.241 L325.236,307.709 L325.228,307.178 L325.203,306.646 L325.161,306.115 L325.103,305.583 L325.028,305.052 L324.937,304.52 L324.829,303.989 L324.704,303.457 L324.563,302.926 L324.405,302.394 L324.231,301.863 L324.04,301.331 L323.832,300.8 L323.608,300.268 L323.367,299.737 L323.11,299.205 L323.11,299.205 L342.952,307.709 z" fill="#1F1A17"/>
    <text transform="matrix(2.835, 0, 0, 2.835, 450.12, 190.11)">
      <tspan x="-3.526" y="4" font-family=".LucidaGrandeUI" font-size="11.289" fill="#1F1A17">F</tspan>
    </text>
    <path d="M440.124,204.358 L457.906,204.358 L457.906,205.812 L440.124,205.812 z" fill="#1F1A17"/>
    <text transform="matrix(2.835, 0, 0, 2.835, 81.923, 271.26)">
      <tspan x="-3.526" y="4" font-family=".LucidaGrandeUI" font-size="11.289" fill="#1F1A17">F</tspan>
    </text>
    <text transform="matrix(2.835, 0, 0, 2.835, 94.987, 276.929)">
      <tspan x="-1.862" y="2" font-family=".LucidaGrandeUI" font-size="7.408" fill="#1F1A17">f</tspan>
    </text>
    <path d="M71.928,285.508 L89.709,285.508 L89.709,286.962 L71.928,286.962 z" fill="#1F1A17"/>
    <text transform="matrix(2.835, 0, 0, 2.835, 310.912, 331.489)">
      <tspan x="-3.97" y="4" font-family=".LucidaGrandeUI" font-size="11.994" fill="#1F1A17">-</tspan>
    </text>
    <text transform="matrix(2.835, 0, 0, 2.835, 320.976, 331.489)">
      <tspan x="-3.526" y="4" font-family=".LucidaGrandeUI" font-size="11.289" fill="#1F1A17">F</tspan>
    </text>
    <text transform="matrix(2.835, 0, 0, 2.835, 334.037, 337.158)">
      <tspan x="-1.862" y="2" font-family=".LucidaGrandeUI" font-size="7.408" fill="#1F1A17">f</tspan>
    </text>
    <path d="M310.98,345.739 L328.759,345.739 L328.759,347.193 L310.98,347.193 z" fill="#1F1A17"/>
  </g>
  <defs/>
</svg>
