<?xml version="1.0" encoding="UTF-8"?>
<!DOCTYPE svg PUBLIC "-//W3C//DTD SVG 1.1//EN" "http://www.w3.org/Graphics/SVG/1.1/DTD/svg11.dtd">
<svg version="1.1" xmlns="http://www.w3.org/2000/svg" xmlns:xlink="http://www.w3.org/1999/xlink" x="0px" y="0px" width="841.89" height="595.276" viewBox="0, 0, 841.89, 595.276">
  <g id="Layer_x0020_1">
    <text transform="matrix(2.835, 0, 0, 2.835, 129.968, 495.95)">
      <tspan x="-3.95" y="4.5" font-family=".LucidaGrandeUI" font-size="13.406" fill="#1F1A17">v</tspan>
    </text>
    <path d="M118.772,512.161 L139.906,512.161 L139.906,513.887 L118.772,513.887 z" fill="#1F1A17"/>
    <text transform="matrix(2.835, 0, 0, 2.835, 389.91, 498.915)">
      <tspan x="-4.333" y="4.5" font-family=".LucidaGrandeUI" font-size="13.406" fill="#1F1A17">x</tspan>
    </text>
    <text transform="matrix(2.835, 0, 0, 2.835, 201.484, 395.833)">
      <tspan x="-3.946" y="4.5" font-family=".LucidaGrandeUI" font-size="13.406" fill="#1F1A17">y</tspan>
    </text>
    <text transform="matrix(2.835, 0, 0, 2.835, 54.416, 424.658)">
      <tspan x="-4.66" y="4.5" font-family=".LucidaGrandeUI" font-size="13.406" fill="#1F1A17">u</tspan>
    </text>
    <path d="M41.207,440.87 L62.341,440.87 L62.341,442.596 L41.207,442.596 z" fill="#1F1A17"/>
    <text transform="matrix(2.835, 0, 0, 2.835, 256.32, 442.684)">
      <tspan x="-4.66" y="4.5" font-family=".LucidaGrandeUI" font-size="13.406" fill="#1F1A17">u</tspan>
    </text>
    <path d="M243.111,458.895 L264.246,458.895 L264.246,460.624 L243.111,460.624 z" fill="#1F1A17"/>
    <text transform="matrix(2.835, 0, 0, 2.835, 695.519, 442.684)">
      <tspan x="-4.66" y="4.5" font-family=".LucidaGrandeUI" font-size="13.406" fill="#1F1A17">u</tspan>
    </text>
    <path d="M682.311,458.895 L703.446,458.895 L703.446,460.624 L682.311,460.624 z" fill="#1F1A17"/>
    <text transform="matrix(2.835, 0, 0, 2.835, 26.885, 513.317)">
      <tspan x="-7.712" y="4" font-family=".LucidaGrandeUI" font-size="11.994" fill="#1F1A17">(a)</tspan>
    </text>
    <text transform="matrix(2.835, 0, 0, 2.835, 240.597, 513.317)">
      <tspan x="-8.175" y="4" font-family=".LucidaGrandeUI" font-size="11.994" fill="#1F1A17">(b)</tspan>
    </text>
    <text transform="matrix(2.835, 0, 0, 2.835, 679.797, 513.317)">
      <tspan x="-8.175" y="4" font-family=".LucidaGrandeUI" font-size="11.994" fill="#1F1A17">(d)</tspan>
    </text>
    <path d="M7.993,481.113 L136.67,406.599" fill-opacity="0" stroke="#1F1A17" stroke-width="1"/>
    <path d="M87.137,436.504 L33.869,467.35 L32.877,465.638 L86.145,434.792 L87.137,436.504 z M92.667,432.158 L83.652,444.241 L83.621,443.829 L83.581,443.424 L83.53,443.024 L83.47,442.631 L83.4,442.243 L83.319,441.86 L83.228,441.484 L83.128,441.113 L83.017,440.749 L82.896,440.39 L82.765,440.036 L82.625,439.689 L82.474,439.348 L82.313,439.012 L82.142,438.682 L81.961,438.358 L81.77,438.04 L81.569,437.727 L81.358,437.421 L81.137,437.12 L80.905,436.825 L80.664,436.536 L80.413,436.252 L80.152,435.975 L79.881,435.703 L79.599,435.437 L79.308,435.177 L79.006,434.922 L78.695,434.674 L78.373,434.431 L78.042,434.194 L77.7,433.963 L77.7,433.963 L92.667,432.158 z" fill="#1F1A17"/>
    <g>
      <path d="M220.901,480.827 L360.819,430.498" fill-opacity="0" stroke="#1F1A17" stroke-width="1"/>
      <path d="M306.751,451.071 L248.819,471.911 L248.153,470.051 L306.084,449.211 L306.751,451.071 z M312.959,447.789 L301.95,458.049 L301.993,457.639 L302.026,457.234 L302.048,456.832 L302.058,456.435 L302.058,456.041 L302.047,455.651 L302.025,455.265 L301.992,454.884 L301.949,454.505 L301.894,454.131 L301.829,453.761 L301.752,453.395 L301.665,453.033 L301.567,452.674 L301.458,452.32 L301.338,451.969 L301.207,451.622 L301.065,451.28 L300.913,450.941 L300.749,450.606 L300.574,450.275 L300.389,449.948 L300.193,449.625 L299.986,449.305 L299.768,448.99 L299.539,448.678 L299.299,448.371 L299.049,448.068 L298.787,447.768 L298.515,447.472 L298.231,447.18 L297.937,446.892 L297.937,446.892 L312.959,447.789 z" fill="#1F1A17"/>
    </g>
    <g>
      <path d="M660.101,480.827 L800.019,430.498" fill-opacity="0" stroke="#1F1A17" stroke-width="1"/>
      <path d="M745.951,451.071 L688.019,471.911 L687.353,470.051 L745.284,449.211 L745.951,451.071 z M752.159,447.789 L741.15,458.049 L741.193,457.639 L741.226,457.234 L741.248,456.832 L741.258,456.435 L741.258,456.041 L741.247,455.651 L741.225,455.265 L741.192,454.884 L741.149,454.505 L741.094,454.131 L741.029,453.761 L740.952,453.395 L740.865,453.033 L740.767,452.674 L740.658,452.32 L740.538,451.969 L740.407,451.622 L740.265,451.28 L740.113,450.941 L739.949,450.606 L739.775,450.275 L739.589,449.948 L739.393,449.625 L739.186,449.305 L738.968,448.99 L738.739,448.678 L738.499,448.371 L738.249,448.068 L737.987,447.768 L737.715,447.472 L737.431,447.18 L737.137,446.892 L737.137,446.892 L752.159,447.789 z" fill="#1F1A17"/>
    </g>
    <path d="M7.57,482.431 L185.592,482.431" fill-opacity="0" stroke="#1F1A17" stroke-width="1"/>
    <path d="M388.02,483.848 L219.97,483.848 L219.97,481.014 L388.02,481.014 L388.02,483.848 z M397.993,482.431 L378.15,490.935 L378.408,490.404 L378.649,489.872 L378.873,489.341 L379.08,488.809 L379.271,488.278 L379.446,487.746 L379.604,487.215 L379.745,486.683 L379.869,486.152 L379.977,485.62 L380.069,485.089 L380.143,484.557 L380.201,484.026 L380.243,483.494 L380.268,482.963 L380.276,482.431 L380.268,481.9 L380.243,481.368 L380.201,480.837 L380.143,480.305 L380.069,479.774 L379.977,479.242 L379.869,478.711 L379.745,478.179 L379.604,477.648 L379.446,477.116 L379.271,476.585 L379.08,476.053 L378.873,475.522 L378.649,474.99 L378.408,474.459 L378.15,473.927 L378.15,473.927 L397.993,482.431 z" fill="#1F1A17"/>
    <path d="M827.221,483.848 L659.171,483.848 L659.171,481.014 L827.221,481.014 L827.221,483.848 z M837.193,482.431 L817.35,490.935 L817.608,490.404 L817.849,489.872 L818.073,489.341 L818.28,488.809 L818.471,488.278 L818.646,487.746 L818.804,487.215 L818.945,486.683 L819.069,486.152 L819.177,485.62 L819.269,485.089 L819.343,484.557 L819.401,484.026 L819.443,483.494 L819.468,482.963 L819.476,482.431 L819.468,481.9 L819.443,481.368 L819.401,480.837 L819.343,480.305 L819.269,479.774 L819.177,479.242 L819.069,478.711 L818.945,478.179 L818.804,477.648 L818.646,477.116 L818.471,476.585 L818.28,476.053 L818.073,475.522 L817.849,474.99 L817.608,474.459 L817.35,473.927 L817.35,473.927 L837.193,482.431 z" fill="#1F1A17"/>
    <path d="M112.954,483.423 L32.507,483.423 L32.507,481.439 L112.954,481.439 L112.954,483.423 z M119.934,482.431 L106.045,488.384 L106.225,488.012 L106.393,487.64 L106.55,487.268 L106.696,486.896 L106.83,486.524 L106.951,486.152 L107.062,485.78 L107.161,485.408 L107.248,485.036 L107.324,484.663 L107.387,484.292 L107.44,483.919 L107.48,483.547 L107.51,483.175 L107.527,482.803 L107.533,482.431 L107.527,482.059 L107.51,481.687 L107.48,481.315 L107.44,480.943 L107.387,480.571 L107.324,480.199 L107.248,479.827 L107.161,479.455 L107.062,479.083 L106.951,478.711 L106.83,478.339 L106.696,477.967 L106.55,477.594 L106.393,477.223 L106.225,476.85 L106.045,476.478 L106.045,476.478 L119.934,482.431 z" fill="#1F1A17"/>
    <path d="M136.83,407.543 L136.83,481.759" fill-opacity="0" stroke="#1F1A17" stroke-width="0.7" stroke-dasharray="1.4,0.7"/>
    <path d="M360.649,430.543 L360.649,481.442" fill-opacity="0" stroke="#1F1A17" stroke-width="0.7" stroke-dasharray="1.4,0.7"/>
    <path d="M799.849,430.543 L799.849,481.442" fill-opacity="0" stroke="#1F1A17" stroke-width="0.7" stroke-dasharray="1.4,0.7"/>
    <text transform="matrix(2.835, 0, 0, 2.835, 67.036, 465.653)">
      <tspan x="-4.401" y="4" font-family=".LucidaGrandeUI" font-size="12.7" fill="#1F1A17">θ</tspan>
    </text>
    <text transform="matrix(2.835, 0, 0, 2.835, 309.658, 467.464)">
      <tspan x="-4.401" y="4" font-family=".LucidaGrandeUI" font-size="12.7" fill="#1F1A17">θ</tspan>
    </text>
    <text transform="matrix(2.835, 0, 0, 2.835, 748.858, 467.464)">
      <tspan x="-4.401" y="4" font-family=".LucidaGrandeUI" font-size="12.7" fill="#1F1A17">θ</tspan>
    </text>
    <path d="M221.573,403.415 L221.573,483.391 L218.739,483.391 L218.739,403.415 L221.573,403.415 z M220.156,393.443 L228.66,413.286 L228.129,413.028 L227.597,412.787 L227.066,412.563 L226.534,412.356 L226.003,412.165 L225.471,411.99 L224.94,411.832 L224.408,411.691 L223.877,411.567 L223.345,411.459 L222.814,411.367 L222.282,411.293 L221.751,411.234 L221.219,411.193 L220.688,411.168 L220.156,411.16 L219.625,411.168 L219.093,411.193 L218.562,411.234 L218.03,411.293 L217.499,411.367 L216.967,411.459 L216.436,411.567 L215.904,411.691 L215.373,411.832 L214.841,411.99 L214.31,412.165 L213.778,412.356 L213.247,412.563 L212.715,412.787 L212.184,413.028 L211.652,413.286 L211.652,413.286 L220.156,393.443 z" fill="#1F1A17"/>
    <path d="M660.773,403.415 L660.773,483.391 L657.938,483.391 L657.938,403.415 L660.773,403.415 z M659.356,393.443 L667.86,413.286 L667.328,413.028 L666.797,412.787 L666.265,412.563 L665.734,412.356 L665.202,412.165 L664.671,411.99 L664.139,411.832 L663.608,411.691 L663.076,411.567 L662.545,411.459 L662.013,411.367 L661.482,411.293 L660.95,411.234 L660.419,411.193 L659.887,411.168 L659.356,411.16 L658.824,411.168 L658.293,411.193 L657.761,411.234 L657.23,411.293 L656.698,411.367 L656.167,411.459 L655.635,411.567 L655.104,411.691 L654.572,411.832 L654.041,411.99 L653.509,412.165 L652.978,412.356 L652.446,412.563 L651.915,412.787 L651.383,413.028 L650.852,413.286 L650.852,413.286 L659.356,393.443 z" fill="#1F1A17"/>
    <path d="M359.79,429.908 L220.542,429.908" fill-opacity="0" stroke="#1F1A17" stroke-width="0.7" stroke-dasharray="1.4,0.7"/>
    <path d="M798.99,429.908 L659.741,429.908" fill-opacity="0" stroke="#1F1A17" stroke-width="0.7" stroke-dasharray="1.4,0.7"/>
    <text transform="matrix(2.835, 0, 0, 2.835, 382.594, 409.816)">
      <tspan x="-9.946" y="2.5" font-family=".LucidaGrandeUI" font-size="8.467" fill="#1F1A17">(3,1)</tspan>
    </text>
    <text transform="matrix(2.835, 0, 0, 2.835, 363.007, 498.243)">
      <tspan x="-3.177" y="2.5" font-family=".LucidaGrandeUI" font-size="8.467" fill="#1F1A17">3</tspan>
    </text>
    <text transform="matrix(2.835, 0, 0, 2.835, 213.526, 431.076)">
      <tspan x="-3.177" y="2.5" font-family=".LucidaGrandeUI" font-size="8.467" fill="#1F1A17">1</tspan>
    </text>
    <text transform="matrix(2.835, 0, 0, 2.835, 589.971, 482.474)">
      <tspan x="-4.719" y="4.5" font-family=".LucidaGrandeUI" font-size="13.406" fill="#1F1A17">d</tspan>
    </text>
    <path d="M576.595,498.685 L597.73,498.685 L597.73,500.411 L576.595,500.411 z" fill="#1F1A17"/>
    <text transform="matrix(2.835, 0, 0, 2.835, 470.81, 424.658)">
      <tspan x="-2.964" y="4.5" font-family=".LucidaGrandeUI" font-size="13.406" fill="#1F1A17">f</tspan>
    </text>
    <path d="M462.407,440.87 L475.061,440.87 L475.061,442.596 L462.407,442.596 z" fill="#1F1A17"/>
    <text transform="matrix(2.835, 0, 0, 2.835, 681.831, 396.547)">
      <tspan x="-2.539" y="4.5" font-family=".LucidaGrandeUI" font-size="13.406" fill="#1F1A17">j</tspan>
    </text>
    <path d="M674.634,412.758 L687.288,412.758 L687.288,414.485 L674.634,414.485 z" fill="#1F1A17"/>
    <text transform="matrix(2.835, 0, 0, 2.835, 821.757, 506.333)">
      <tspan x="-2.438" y="4.5" font-family=".LucidaGrandeUI" font-size="13.406" fill="#1F1A17">i</tspan>
    </text>
    <path d="M814.847,522.544 L827.501,522.544 L827.501,524.271 L814.847,524.271 z" fill="#1F1A17"/>
    <text transform="matrix(2.835, 0, 0, 2.835, 443.804, 513.317)">
      <tspan x="-7.472" y="4" font-family=".LucidaGrandeUI" font-size="11.994" fill="#1F1A17">(c)</tspan>
    </text>
    <g>
      <path d="M425.098,482.329 L523.76,425.197" fill-opacity="0" stroke="#1F1A17" stroke-width="1"/>
      <path d="M484.492,449.141 L445.056,471.978 L444.064,470.265 L483.5,447.428 L484.492,449.141 z M490.022,444.795 L481.007,456.878 L480.977,456.466 L480.936,456.061 L480.886,455.661 L480.825,455.268 L480.755,454.88 L480.674,454.497 L480.584,454.121 L480.483,453.75 L480.372,453.385 L480.251,453.027 L480.121,452.673 L479.98,452.326 L479.829,451.984 L479.668,451.649 L479.497,451.319 L479.316,450.995 L479.125,450.677 L478.924,450.364 L478.713,450.058 L478.492,449.757 L478.261,449.462 L478.02,449.172 L477.768,448.889 L477.507,448.611 L477.236,448.34 L476.954,448.074 L476.663,447.814 L476.362,447.559 L476.05,447.311 L475.729,447.068 L475.397,446.831 L475.055,446.6 L475.055,446.6 L490.022,444.795 z" fill="#1F1A17"/>
    </g>
    <g>
      <path d="M483.063,482.329 L581.723,425.197" fill-opacity="0" stroke="#1F1A17" stroke-width="1"/>
      <path d="M542.455,449.141 L503.019,471.978 L502.027,470.265 L541.463,447.428 L542.455,449.141 z M547.985,444.795 L538.97,456.878 L538.94,456.466 L538.899,456.061 L538.849,455.661 L538.788,455.268 L538.718,454.88 L538.637,454.497 L538.546,454.121 L538.446,453.75 L538.335,453.385 L538.214,453.027 L538.083,452.673 L537.943,452.326 L537.792,451.984 L537.631,451.649 L537.46,451.319 L537.279,450.995 L537.088,450.677 L536.887,450.364 L536.676,450.058 L536.455,449.757 L536.223,449.462 L535.982,449.172 L535.731,448.889 L535.47,448.611 L535.198,448.34 L534.917,448.074 L534.626,447.814 L534.325,447.559 L534.013,447.311 L533.692,447.068 L533.36,446.831 L533.018,446.6 L533.018,446.6 L547.985,444.795 z" fill="#1F1A17"/>
    </g>
    <g>
      <path d="M541.029,482.329 L639.689,425.197" fill-opacity="0" stroke="#1F1A17" stroke-width="1"/>
      <path d="M600.42,449.141 L560.985,471.978 L559.992,470.265 L599.428,447.428 L600.42,449.141 z M605.951,444.795 L596.936,456.878 L596.905,456.466 L596.865,456.061 L596.814,455.661 L596.754,455.268 L596.683,454.88 L596.602,454.497 L596.512,454.121 L596.411,453.75 L596.301,453.385 L596.18,453.027 L596.049,452.673 L595.908,452.326 L595.758,451.984 L595.596,451.649 L595.426,451.319 L595.245,450.995 L595.054,450.677 L594.853,450.364 L594.641,450.058 L594.42,449.757 L594.189,449.462 L593.948,449.172 L593.697,448.889 L593.436,448.611 L593.164,448.34 L592.883,448.074 L592.591,447.814 L592.29,447.559 L591.979,447.311 L591.657,447.068 L591.326,446.831 L590.984,446.6 L590.984,446.6 L605.951,444.795 z" fill="#1F1A17"/>
    </g>
    <path d="M424.775,483.341 L561.268,483.341" fill-opacity="0" stroke="#1F1A17" stroke-width="1"/>
    <path d="M503.974,484.328 L443.894,484.328 L443.894,482.351 L503.974,482.351 L503.974,484.328 z M510.927,483.339 L497.093,489.268 L497.272,488.898 L497.44,488.527 L497.597,488.157 L497.741,487.786 L497.874,487.416 L497.996,487.045 L498.106,486.674 L498.205,486.304 L498.291,485.933 L498.367,485.563 L498.43,485.192 L498.482,484.822 L498.523,484.451 L498.552,484.081 L498.569,483.71 L498.575,483.339 L498.569,482.969 L498.552,482.598 L498.523,482.228 L498.482,481.857 L498.43,481.487 L498.367,481.116 L498.291,480.745 L498.205,480.375 L498.106,480.004 L497.996,479.634 L497.874,479.263 L497.741,478.893 L497.597,478.522 L497.44,478.151 L497.272,477.781 L497.093,477.41 L497.093,477.41 L510.927,483.339 z" fill="#1F1A17"/>
    <text transform="matrix(2.835, 0, 0, 2.835, 488.235, 465.653)">
      <tspan x="-4.401" y="4" font-family=".LucidaGrandeUI" font-size="12.7" fill="#1F1A17">θ</tspan>
    </text>
    <g>
      <path d="M429.538,483.296 C429.538,484.97 428.181,486.327 426.506,486.327 C424.832,486.327 423.475,484.97 423.475,483.296 C423.475,481.621 424.832,480.264 426.506,480.264 C428.181,480.264 429.538,481.621 429.538,483.296 z" fill="#000000"/>
      <path d="M429.538,483.296 C429.538,484.97 428.181,486.327 426.506,486.327 C424.832,486.327 423.475,484.97 423.475,483.296 C423.475,481.621 424.832,480.264 426.506,480.264 C428.181,480.264 429.538,481.621 429.538,483.296 z" fill-opacity="0" stroke="#000000" stroke-width="0.076"/>
    </g>
    <g>
      <path d="M484.743,483.296 C484.743,484.97 483.385,486.327 481.711,486.327 C480.037,486.327 478.68,484.97 478.68,483.296 C478.68,481.621 480.037,480.264 481.711,480.264 C483.385,480.264 484.743,481.621 484.743,483.296 z" fill="#000000"/>
      <path d="M484.743,483.296 C484.743,484.97 483.385,486.327 481.711,486.327 C480.037,486.327 478.68,484.97 478.68,483.296 C478.68,481.621 480.037,480.264 481.711,480.264 C483.385,480.264 484.743,481.621 484.743,483.296 z" fill-opacity="0" stroke="#000000" stroke-width="0.076"/>
    </g>
    <g>
      <path d="M542.708,483.296 C542.708,484.97 541.351,486.327 539.677,486.327 C538.003,486.327 536.645,484.97 536.645,483.296 C536.645,481.621 538.003,480.264 539.677,480.264 C541.351,480.264 542.708,481.621 542.708,483.296 z" fill="#000000"/>
      <path d="M542.708,483.296 C542.708,484.97 541.351,486.327 539.677,486.327 C538.003,486.327 536.645,484.97 536.645,483.296 C536.645,481.621 538.003,480.264 539.677,480.264 C541.351,480.264 542.708,481.621 542.708,483.296 z" fill-opacity="0" stroke="#000000" stroke-width="0.076"/>
    </g>
    <path d="M504.264,436.462 L562.105,436.462" fill-opacity="0" stroke="#1F1A17" stroke-width="0.5" stroke-dasharray="0.5,0.5"/>
    <path d="M562.229,436.462 L620.07,436.462" fill-opacity="0" stroke="#1F1A17" stroke-width="0.5" stroke-dasharray="0.5,0.5"/>
  </g>
  <defs/>
</svg>
