<?xml version="1.0" encoding="UTF-8" standalone="no"?>
<svg
   xmlns:dc="http://purl.org/dc/elements/1.1/"
   xmlns:cc="http://creativecommons.org/ns#"
   xmlns:rdf="http://www.w3.org/1999/02/22-rdf-syntax-ns#"
   xmlns:svg="http://www.w3.org/2000/svg"
   xmlns="http://www.w3.org/2000/svg"
   xmlns:sodipodi="http://sodipodi.sourceforge.net/DTD/sodipodi-0.dtd"
   xmlns:inkscape="http://www.inkscape.org/namespaces/inkscape"
   version="1.1"
   x="0px"
   y="0px"
   width="744.09003"
   height="1052.36"
   viewBox="0 0 744.09001 1052.36"
   id="svg2"
   inkscape:version="0.48.3.1 r9886"
   sodipodi:docname="project-vectors_n.svg">
  <metadata
     id="metadata191">
    <rdf:RDF>
      <cc:Work
         rdf:about="">
        <dc:format>image/svg+xml</dc:format>
        <dc:type
           rdf:resource="http://purl.org/dc/dcmitype/StillImage" />
      </cc:Work>
    </rdf:RDF>
  </metadata>
  <sodipodi:namedview
     pagecolor="#ffffff"
     bordercolor="#666666"
     borderopacity="1"
     objecttolerance="10"
     gridtolerance="10"
     guidetolerance="10"
     inkscape:pageopacity="0"
     inkscape:pageshadow="2"
     inkscape:window-width="1983"
     inkscape:window-height="1024"
     id="namedview189"
     showgrid="false"
     inkscape:zoom="1.3873546"
     inkscape:cx="405.09494"
     inkscape:cy="168.65373"
     inkscape:window-x="65"
     inkscape:window-y="24"
     inkscape:window-maximized="1"
     inkscape:current-layer="svg2" />
  <g
     id="Layer_x0020_1"
     transform="matrix(0.86801831,0,0,0.86801831,7.4202769,528.36235)">
    <text
       transform="matrix(2.835,0,0,2.835,129.968,495.95)"
       id="text5">
      <tspan
         x="-3.95"
         y="4.5"
         font-size="13.406"
         id="tspan7"
         style="font-size:13.40600014px;fill:#1f1a17;font-family:'.LucidaGrandeUI'">v</tspan>
    </text>
    <path
       d="m 118.772,512.161 21.134,0 0,1.726 -21.134,0 z"
       id="path9"
       inkscape:connector-curvature="0"
       style="fill:#1f1a17" />
    <text
       transform="matrix(2.835,0,0,2.835,389.91,498.915)"
       id="text11">
      <tspan
         x="-4.3330002"
         y="4.5"
         font-size="13.406"
         id="tspan13"
         style="font-size:13.40600014px;fill:#1f1a17;font-family:'.LucidaGrandeUI'">x</tspan>
    </text>
    <text
       transform="matrix(2.835,0,0,2.835,201.484,395.833)"
       id="text15">
      <tspan
         x="-3.9460001"
         y="4.5"
         font-size="13.406"
         id="tspan17"
         style="font-size:13.40600014px;fill:#1f1a17;font-family:'.LucidaGrandeUI'">y</tspan>
    </text>
    <text
       transform="matrix(2.835,0,0,2.835,54.416,424.658)"
       id="text19">
      <tspan
         x="-4.6599998"
         y="4.5"
         font-size="13.406"
         id="tspan21"
         style="font-size:13.40600014px;fill:#1f1a17;font-family:'.LucidaGrandeUI'">u</tspan>
    </text>
    <path
       d="m 41.207,440.87 21.134,0 0,1.726 -21.134,0 z"
       id="path23"
       inkscape:connector-curvature="0"
       style="fill:#1f1a17" />
    <text
       transform="matrix(2.835,0,0,2.835,256.32,442.684)"
       id="text25">
      <tspan
         x="-4.6599998"
         y="4.5"
         font-size="13.406"
         id="tspan27"
         style="font-size:13.40600014px;fill:#1f1a17;font-family:'.LucidaGrandeUI'">u</tspan>
    </text>
    <path
       d="m 243.111,458.895 21.135,0 0,1.729 -21.135,0 z"
       id="path29"
       inkscape:connector-curvature="0"
       style="fill:#1f1a17" />
    <text
       transform="matrix(2.835,0,0,2.835,695.519,442.684)"
       id="text31">
      <tspan
         x="-4.6599998"
         y="4.5"
         font-size="13.406"
         id="tspan33"
         style="font-size:13.40600014px;fill:#1f1a17;font-family:'.LucidaGrandeUI'">u</tspan>
    </text>
    <path
       d="m 682.311,458.895 21.135,0 0,1.729 -21.135,0 z"
       id="path35"
       inkscape:connector-curvature="0"
       style="fill:#1f1a17" />
    <text
       transform="matrix(2.835,0,0,2.835,26.885,513.317)"
       id="text37">
      <tspan
         x="-7.7119999"
         y="4"
         font-size="11.994"
         id="tspan39"
         style="font-size:11.99400043px;fill:#1f1a17;font-family:'.LucidaGrandeUI'">(a)</tspan>
    </text>
    <text
       transform="matrix(2.835,0,0,2.835,240.597,513.317)"
       id="text41">
      <tspan
         x="-8.1750002"
         y="4"
         font-size="11.994"
         id="tspan43"
         style="font-size:11.99400043px;fill:#1f1a17;font-family:'.LucidaGrandeUI'">(b)</tspan>
    </text>
    <text
       transform="matrix(2.835,0,0,2.835,679.797,513.317)"
       id="text45">
      <tspan
         x="-8.1750002"
         y="4"
         font-size="11.994"
         id="tspan47"
         style="font-size:11.99400043px;fill:#1f1a17;font-family:'.LucidaGrandeUI'">(d)</tspan>
    </text>
    <path
       d="M 7.993,481.113 136.67,406.599"
       id="path49"
       inkscape:connector-curvature="0"
       style="fill-opacity:0;stroke:#1f1a17;stroke-width:1" />
    <path
       d="m 87.137,436.504 -53.268,30.846 -0.992,-1.712 53.268,-30.846 0.992,1.712 z m 5.53,-4.346 -9.015,12.083 -0.031,-0.412 -0.04,-0.405 -0.051,-0.4 -0.06,-0.393 -0.07,-0.388 -0.081,-0.383 -0.091,-0.376 -0.1,-0.371 -0.111,-0.364 -0.121,-0.359 -0.131,-0.354 -0.14,-0.347 -0.151,-0.341 -0.161,-0.336 -0.171,-0.33 -0.181,-0.324 -0.191,-0.318 -0.201,-0.313 -0.211,-0.306 -0.221,-0.301 -0.232,-0.295 -0.241,-0.289 -0.251,-0.284 -0.261,-0.277 -0.271,-0.272 -0.282,-0.266 -0.291,-0.26 -0.302,-0.255 -0.311,-0.248 -0.322,-0.243 -0.331,-0.237 -0.342,-0.231 0,0 14.967,-1.805 z"
       id="path51"
       inkscape:connector-curvature="0"
       style="fill:#1f1a17" />
    <g
       id="g53">
      <path
         d="M 220.901,480.827 360.819,430.498"
         id="path55"
         inkscape:connector-curvature="0"
         style="fill-opacity:0;stroke:#1f1a17;stroke-width:1" />
      <path
         d="m 306.751,451.071 -57.932,20.84 -0.666,-1.86 57.931,-20.84 0.667,1.86 z m 6.208,-3.282 -11.009,10.26 0.043,-0.41 0.033,-0.405 0.022,-0.402 0.01,-0.397 0,-0.394 -0.011,-0.39 -0.022,-0.386 -0.033,-0.381 -0.043,-0.379 -0.055,-0.374 -0.065,-0.37 -0.077,-0.366 -0.087,-0.362 -0.098,-0.359 -0.109,-0.354 -0.12,-0.351 -0.131,-0.347 -0.142,-0.342 -0.152,-0.339 -0.164,-0.335 -0.175,-0.331 -0.185,-0.327 -0.196,-0.323 -0.207,-0.32 -0.218,-0.315 -0.229,-0.312 -0.24,-0.307 -0.25,-0.303 -0.262,-0.3 -0.272,-0.296 -0.284,-0.292 -0.294,-0.288 0,0 15.022,0.897 z"
         id="path57"
         inkscape:connector-curvature="0"
         style="fill:#1f1a17" />
    </g>
    <g
       id="g59">
      <path
         d="M 660.101,480.827 800.019,430.498"
         id="path61"
         inkscape:connector-curvature="0"
         style="fill-opacity:0;stroke:#1f1a17;stroke-width:1" />
      <path
         d="m 745.951,451.071 -57.932,20.84 -0.666,-1.86 57.931,-20.84 0.667,1.86 z m 6.208,-3.282 -11.009,10.26 0.043,-0.41 0.033,-0.405 0.022,-0.402 0.01,-0.397 0,-0.394 -0.011,-0.39 -0.022,-0.386 -0.033,-0.381 -0.043,-0.379 -0.055,-0.374 -0.065,-0.37 -0.077,-0.366 -0.087,-0.362 -0.098,-0.359 -0.109,-0.354 -0.12,-0.351 -0.131,-0.347 -0.142,-0.342 -0.152,-0.339 -0.164,-0.335 -0.174,-0.331 -0.186,-0.327 -0.196,-0.323 -0.207,-0.32 -0.218,-0.315 -0.229,-0.312 -0.24,-0.307 -0.25,-0.303 -0.262,-0.3 -0.272,-0.296 -0.284,-0.292 -0.294,-0.288 0,0 15.022,0.897 z"
         id="path63"
         inkscape:connector-curvature="0"
         style="fill:#1f1a17" />
    </g>
    <path
       d="m 7.57,482.431 178.022,0"
       id="path65"
       inkscape:connector-curvature="0"
       style="fill-opacity:0;stroke:#1f1a17;stroke-width:1" />
    <path
       d="m 388.02,483.848 -168.05,0 0,-2.834 168.05,0 0,2.834 z m 9.973,-1.417 -19.843,8.504 0.258,-0.531 0.241,-0.532 0.224,-0.531 0.207,-0.532 0.191,-0.531 0.175,-0.532 0.158,-0.531 0.141,-0.532 0.124,-0.531 0.108,-0.532 0.092,-0.531 0.074,-0.532 0.058,-0.531 0.042,-0.532 0.025,-0.531 0.008,-0.532 -0.008,-0.531 -0.025,-0.532 -0.042,-0.531 -0.058,-0.532 -0.074,-0.531 -0.092,-0.532 -0.108,-0.531 -0.124,-0.532 -0.141,-0.531 -0.158,-0.532 -0.175,-0.531 -0.191,-0.532 -0.207,-0.531 -0.224,-0.532 -0.241,-0.531 -0.258,-0.532 0,0 19.843,8.504 z"
       id="path67"
       inkscape:connector-curvature="0"
       style="fill:#1f1a17" />
    <path
       d="m 827.221,483.848 -168.05,0 0,-2.834 168.05,0 0,2.834 z m 9.972,-1.417 -19.843,8.504 0.258,-0.531 0.241,-0.532 0.224,-0.531 0.207,-0.532 0.191,-0.531 0.175,-0.532 0.158,-0.531 0.141,-0.532 0.124,-0.531 0.108,-0.532 0.092,-0.531 0.074,-0.532 0.058,-0.531 0.042,-0.532 0.025,-0.531 0.008,-0.532 -0.008,-0.531 -0.025,-0.532 -0.042,-0.531 -0.058,-0.532 -0.074,-0.531 -0.092,-0.532 -0.108,-0.531 -0.124,-0.532 -0.141,-0.531 -0.158,-0.532 -0.175,-0.531 -0.191,-0.532 -0.207,-0.531 -0.224,-0.532 -0.241,-0.531 -0.258,-0.532 0,0 19.843,8.504 z"
       id="path69"
       inkscape:connector-curvature="0"
       style="fill:#1f1a17" />
    <path
       d="m 112.954,483.423 -80.447,0 0,-1.984 80.447,0 0,1.984 z m 6.98,-0.992 -13.889,5.953 0.18,-0.372 0.168,-0.372 0.157,-0.372 0.146,-0.372 0.134,-0.372 0.121,-0.372 0.111,-0.372 0.099,-0.372 0.087,-0.372 0.076,-0.373 0.063,-0.371 0.053,-0.373 0.04,-0.372 0.03,-0.372 0.017,-0.372 0.006,-0.372 -0.006,-0.372 -0.017,-0.372 -0.03,-0.372 -0.04,-0.372 -0.053,-0.372 -0.063,-0.372 -0.076,-0.372 -0.087,-0.372 -0.099,-0.372 -0.111,-0.372 -0.121,-0.372 -0.134,-0.372 -0.146,-0.373 -0.157,-0.371 -0.168,-0.373 -0.18,-0.372 0,0 13.889,5.953 z"
       id="path71"
       inkscape:connector-curvature="0"
       style="fill:#1f1a17" />
    <path
       d="m 136.83,407.543 0,74.216"
       id="path73"
       inkscape:connector-curvature="0"
       style="fill-opacity:0;stroke:#1f1a17;stroke-width:0.69999999;stroke-dasharray:1.4, 0.7" />
    <path
       d="m 360.649,430.543 0,50.899"
       id="path75"
       inkscape:connector-curvature="0"
       style="fill-opacity:0;stroke:#1f1a17;stroke-width:0.69999999;stroke-dasharray:1.4, 0.7" />
    <path
       d="m 799.849,430.543 0,50.899"
       id="path77"
       inkscape:connector-curvature="0"
       style="fill-opacity:0;stroke:#1f1a17;stroke-width:0.69999999;stroke-dasharray:1.4, 0.7" />
    <text
       transform="matrix(2.835,0,0,2.835,67.036,465.653)"
       id="text79">
      <tspan
         x="-4.401"
         y="4"
         font-size="12.7"
         id="tspan81"
         style="font-size:12.69999981px;fill:#1f1a17;font-family:'.LucidaGrandeUI'">θ</tspan>
    </text>
    <text
       transform="matrix(2.835,0,0,2.835,309.658,467.464)"
       id="text83">
      <tspan
         x="-4.401"
         y="4"
         font-size="12.7"
         id="tspan85"
         style="font-size:12.69999981px;fill:#1f1a17;font-family:'.LucidaGrandeUI'">θ</tspan>
    </text>
    <text
       transform="matrix(2.835,0,0,2.835,748.858,467.464)"
       id="text87">
      <tspan
         x="-4.401"
         y="4"
         font-size="12.7"
         id="tspan89"
         style="font-size:12.69999981px;fill:#1f1a17;font-family:'.LucidaGrandeUI'">θ</tspan>
    </text>
    <path
       d="m 221.573,403.415 0,79.976 -2.834,0 0,-79.976 2.834,0 z m -1.417,-9.972 8.504,19.843 -0.531,-0.258 -0.532,-0.241 -0.531,-0.224 -0.532,-0.207 -0.531,-0.191 -0.532,-0.175 -0.531,-0.158 -0.532,-0.141 -0.531,-0.124 -0.532,-0.108 -0.531,-0.092 -0.532,-0.074 -0.531,-0.059 -0.532,-0.041 -0.531,-0.025 -0.532,-0.008 -0.531,0.008 -0.532,0.025 -0.531,0.041 -0.532,0.059 -0.531,0.074 -0.532,0.092 -0.531,0.108 -0.532,0.124 -0.531,0.141 -0.532,0.158 -0.531,0.175 -0.532,0.191 -0.531,0.207 -0.532,0.224 -0.531,0.241 -0.532,0.258 0,0 8.504,-19.843 z"
       id="path91"
       inkscape:connector-curvature="0"
       style="fill:#1f1a17" />
    <path
       d="m 660.773,403.415 0,79.976 -2.835,0 0,-79.976 2.835,0 z m -1.417,-9.972 8.504,19.843 -0.532,-0.258 -0.531,-0.241 -0.532,-0.224 -0.531,-0.207 -0.532,-0.191 -0.531,-0.175 -0.532,-0.158 -0.531,-0.141 -0.532,-0.124 -0.531,-0.108 -0.532,-0.092 -0.531,-0.074 -0.532,-0.059 -0.531,-0.041 -0.532,-0.025 -0.531,-0.008 -0.532,0.008 -0.531,0.025 -0.532,0.041 -0.531,0.059 -0.532,0.074 -0.531,0.092 -0.532,0.108 -0.531,0.124 -0.532,0.141 -0.531,0.158 -0.532,0.175 -0.531,0.191 -0.532,0.207 -0.531,0.224 -0.532,0.241 -0.531,0.258 0,0 8.504,-19.843 z"
       id="path93"
       inkscape:connector-curvature="0"
       style="fill:#1f1a17" />
    <path
       d="m 359.79,429.908 -139.248,0"
       id="path95"
       inkscape:connector-curvature="0"
       style="fill-opacity:0;stroke:#1f1a17;stroke-width:0.69999999;stroke-dasharray:1.4, 0.7" />
    <path
       d="m 798.99,429.908 -139.249,0"
       id="path97"
       inkscape:connector-curvature="0"
       style="fill-opacity:0;stroke:#1f1a17;stroke-width:0.69999999;stroke-dasharray:1.4, 0.7" />
    <text
       transform="matrix(2.835,0,0,2.835,382.594,409.816)"
       id="text99">
      <tspan
         x="-9.9460001"
         y="2.5"
         font-size="8.467"
         id="tspan101"
         style="font-size:8.46700001px;fill:#1f1a17;font-family:'.LucidaGrandeUI'">(3,1)</tspan>
    </text>
    <text
       transform="matrix(2.835,0,0,2.835,363.007,498.243)"
       id="text103">
      <tspan
         x="-3.177"
         y="2.5"
         font-size="8.467"
         id="tspan105"
         style="font-size:8.46700001px;fill:#1f1a17;font-family:'.LucidaGrandeUI'">3</tspan>
    </text>
    <text
       transform="matrix(2.835,0,0,2.835,213.526,431.076)"
       id="text107">
      <tspan
         x="-3.177"
         y="2.5"
         font-size="8.467"
         id="tspan109"
         style="font-size:8.46700001px;fill:#1f1a17;font-family:'.LucidaGrandeUI'">1</tspan>
    </text>
    <text
       transform="matrix(2.835,0,0,2.835,589.971,482.474)"
       id="text111">
      <tspan
         x="-4.7189999"
         y="4.5"
         font-size="13.406"
         id="tspan113"
         style="font-size:13.40600014px;fill:#1f1a17;font-family:'.LucidaGrandeUI'">d</tspan>
    </text>
    <path
       d="m 576.595,498.685 21.135,0 0,1.726 -21.135,0 z"
       id="path115"
       inkscape:connector-curvature="0"
       style="fill:#1f1a17" />
    <text
       transform="matrix(2.835,0,0,2.835,470.81,424.658)"
       id="text117">
      <tspan
         x="-2.964"
         y="4.5"
         font-size="13.406"
         id="tspan119"
         style="font-size:13.40600014px;fill:#1f1a17;font-family:'.LucidaGrandeUI'">f</tspan>
    </text>
    <path
       d="m 462.407,440.87 12.654,0 0,1.726 -12.654,0 z"
       id="path121"
       inkscape:connector-curvature="0"
       style="fill:#1f1a17" />
    <text
       transform="matrix(2.835,0,0,2.835,681.831,396.547)"
       id="text123">
      <tspan
         x="-2.539"
         y="4.5"
         font-size="13.406"
         id="tspan125"
         style="font-size:13.40600014px;fill:#1f1a17;font-family:'.LucidaGrandeUI'">j</tspan>
    </text>
    <path
       d="m 674.634,412.758 12.654,0 0,1.727 -12.654,0 z"
       id="path127"
       inkscape:connector-curvature="0"
       style="fill:#1f1a17" />
    <text
       transform="matrix(2.835,0,0,2.835,821.757,506.333)"
       id="text129">
      <tspan
         x="-2.438"
         y="4.5"
         font-size="13.406"
         id="tspan131"
         style="font-size:13.40600014px;fill:#1f1a17;font-family:'.LucidaGrandeUI'">i</tspan>
    </text>
    <path
       d="m 814.847,522.544 12.654,0 0,1.727 -12.654,0 z"
       id="path133"
       inkscape:connector-curvature="0"
       style="fill:#1f1a17" />
    <text
       transform="matrix(2.835,0,0,2.835,443.804,513.317)"
       id="text135">
      <tspan
         x="-7.4720001"
         y="4"
         font-size="11.994"
         id="tspan137"
         style="font-size:11.99400043px;fill:#1f1a17;font-family:'.LucidaGrandeUI'">(c)</tspan>
    </text>
    <g
       id="g139">
      <path
         d="M 425.098,482.329 523.76,425.197"
         id="path141"
         inkscape:connector-curvature="0"
         style="fill-opacity:0;stroke:#1f1a17;stroke-width:1" />
      <path
         d="m 484.492,449.141 -39.436,22.837 -0.992,-1.713 39.436,-22.837 0.992,1.713 z m 5.53,-4.346 -9.015,12.083 -0.03,-0.412 -0.041,-0.405 -0.05,-0.4 -0.061,-0.393 -0.07,-0.388 -0.081,-0.383 -0.09,-0.376 -0.101,-0.371 -0.111,-0.365 -0.121,-0.358 -0.13,-0.354 -0.141,-0.347 -0.151,-0.342 -0.161,-0.335 -0.171,-0.33 -0.181,-0.324 -0.191,-0.318 -0.201,-0.313 -0.211,-0.306 -0.221,-0.301 -0.231,-0.295 -0.241,-0.29 -0.252,-0.283 -0.261,-0.278 -0.271,-0.271 -0.282,-0.266 -0.291,-0.26 -0.301,-0.255 -0.312,-0.248 -0.321,-0.243 -0.332,-0.237 -0.342,-0.231 0,0 14.967,-1.805 z"
         id="path143"
         inkscape:connector-curvature="0"
         style="fill:#1f1a17" />
    </g>
    <g
       id="g145">
      <path
         d="m 483.063,482.329 98.66,-57.132"
         id="path147"
         inkscape:connector-curvature="0"
         style="fill-opacity:0;stroke:#1f1a17;stroke-width:1" />
      <path
         d="m 542.455,449.141 -39.436,22.837 -0.992,-1.713 39.436,-22.837 0.992,1.713 z m 5.53,-4.346 -9.015,12.083 -0.03,-0.412 -0.041,-0.405 -0.05,-0.4 -0.061,-0.393 -0.07,-0.388 -0.081,-0.383 -0.091,-0.376 -0.1,-0.371 -0.111,-0.365 -0.121,-0.358 -0.131,-0.354 -0.14,-0.347 -0.151,-0.342 -0.161,-0.335 -0.171,-0.33 -0.181,-0.324 -0.191,-0.318 -0.201,-0.313 -0.211,-0.306 -0.221,-0.301 -0.232,-0.295 -0.241,-0.29 -0.251,-0.283 -0.261,-0.278 -0.272,-0.271 -0.281,-0.266 -0.291,-0.26 -0.301,-0.255 -0.312,-0.248 -0.321,-0.243 -0.332,-0.237 -0.342,-0.231 0,0 14.967,-1.805 z"
         id="path149"
         inkscape:connector-curvature="0"
         style="fill:#1f1a17" />
    </g>
    <g
       id="g151">
      <path
         d="m 541.029,482.329 98.66,-57.132"
         id="path153"
         inkscape:connector-curvature="0"
         style="fill-opacity:0;stroke:#1f1a17;stroke-width:1" />
      <path
         d="m 600.42,449.141 -39.435,22.837 -0.993,-1.713 39.436,-22.837 0.992,1.713 z m 5.531,-4.346 -9.015,12.083 -0.031,-0.412 -0.04,-0.405 -0.051,-0.4 -0.06,-0.393 -0.071,-0.388 -0.081,-0.383 -0.09,-0.376 -0.101,-0.371 -0.11,-0.365 -0.121,-0.358 -0.131,-0.354 -0.141,-0.347 -0.15,-0.342 -0.162,-0.335 -0.17,-0.33 -0.181,-0.324 -0.191,-0.318 -0.201,-0.313 -0.212,-0.306 -0.221,-0.301 -0.231,-0.295 -0.241,-0.29 -0.251,-0.283 -0.261,-0.278 -0.272,-0.271 -0.281,-0.266 -0.292,-0.26 -0.301,-0.255 -0.311,-0.248 -0.322,-0.243 -0.331,-0.237 -0.342,-0.231 0,0 14.967,-1.805 z"
         id="path155"
         inkscape:connector-curvature="0"
         style="fill:#1f1a17" />
    </g>
    <path
       d="m 424.775,483.341 136.493,0"
       id="path157"
       inkscape:connector-curvature="0"
       style="fill-opacity:0;stroke:#1f1a17;stroke-width:1" />
    <path
       d="m 503.974,484.328 -60.08,0 0,-1.977 60.08,0 0,1.977 z m 6.953,-0.989 -13.834,5.929 0.179,-0.37 0.168,-0.371 0.157,-0.37 0.144,-0.371 0.133,-0.37 0.122,-0.371 0.11,-0.371 0.099,-0.37 0.086,-0.371 0.076,-0.37 0.063,-0.371 0.052,-0.37 0.041,-0.371 0.029,-0.37 0.017,-0.371 0.006,-0.371 -0.006,-0.37 -0.017,-0.371 -0.029,-0.37 -0.041,-0.371 -0.052,-0.37 -0.063,-0.371 -0.076,-0.371 -0.086,-0.37 -0.099,-0.371 -0.11,-0.37 -0.122,-0.371 -0.133,-0.37 -0.144,-0.371 -0.157,-0.371 -0.168,-0.37 -0.179,-0.371 0,0 13.834,5.929 z"
       id="path159"
       inkscape:connector-curvature="0"
       style="fill:#1f1a17" />
    <text
       transform="matrix(2.835,0,0,2.835,488.235,465.653)"
       id="text161">
      <tspan
         x="-4.401"
         y="4"
         font-size="12.7"
         id="tspan163"
         style="font-size:12.69999981px;fill:#1f1a17;font-family:'.LucidaGrandeUI'">θ</tspan>
    </text>
    <g
       id="g165">
      <path
         d="m 429.538,483.296 c 0,1.674 -1.357,3.031 -3.032,3.031 -1.674,0 -3.031,-1.357 -3.031,-3.031 0,-1.675 1.357,-3.032 3.031,-3.032 1.675,0 3.032,1.357 3.032,3.032 z"
         id="path167"
         inkscape:connector-curvature="0"
         style="fill:#000000" />
      <path
         d="m 429.538,483.296 c 0,1.674 -1.357,3.031 -3.032,3.031 -1.674,0 -3.031,-1.357 -3.031,-3.031 0,-1.675 1.357,-3.032 3.031,-3.032 1.675,0 3.032,1.357 3.032,3.032 z"
         id="path169"
         inkscape:connector-curvature="0"
         style="fill-opacity:0;stroke:#000000;stroke-width:0.076" />
    </g>
    <g
       id="g171">
      <path
         d="m 484.743,483.296 c 0,1.674 -1.358,3.031 -3.032,3.031 -1.674,0 -3.031,-1.357 -3.031,-3.031 0,-1.675 1.357,-3.032 3.031,-3.032 1.674,0 3.032,1.357 3.032,3.032 z"
         id="path173"
         inkscape:connector-curvature="0"
         style="fill:#000000" />
      <path
         d="m 484.743,483.296 c 0,1.674 -1.358,3.031 -3.032,3.031 -1.674,0 -3.031,-1.357 -3.031,-3.031 0,-1.675 1.357,-3.032 3.031,-3.032 1.674,0 3.032,1.357 3.032,3.032 z"
         id="path175"
         inkscape:connector-curvature="0"
         style="fill-opacity:0;stroke:#000000;stroke-width:0.076" />
    </g>
    <g
       id="g177">
      <path
         d="m 542.708,483.296 c 0,1.674 -1.357,3.031 -3.031,3.031 -1.674,0 -3.032,-1.357 -3.032,-3.031 0,-1.675 1.358,-3.032 3.032,-3.032 1.674,0 3.031,1.357 3.031,3.032 z"
         id="path179"
         inkscape:connector-curvature="0"
         style="fill:#000000" />
      <path
         d="m 542.708,483.296 c 0,1.674 -1.357,3.031 -3.031,3.031 -1.674,0 -3.032,-1.357 -3.032,-3.031 0,-1.675 1.358,-3.032 3.032,-3.032 1.674,0 3.031,1.357 3.031,3.032 z"
         id="path181"
         inkscape:connector-curvature="0"
         style="fill-opacity:0;stroke:#000000;stroke-width:0.076" />
    </g>
    <path
       d="m 504.264,436.462 57.841,0"
       id="path183"
       inkscape:connector-curvature="0"
       style="fill-opacity:0;stroke:#1f1a17;stroke-width:0.5;stroke-dasharray:0.5, 0.5" />
    <path
       d="m 562.229,436.462 57.841,0"
       id="path185"
       inkscape:connector-curvature="0"
       style="fill-opacity:0;stroke:#1f1a17;stroke-width:0.5;stroke-dasharray:0.5, 0.5" />
  </g>
  <defs
     id="defs187" />
</svg>
