<?xml version="1.0" encoding="UTF-8"?>
<!DOCTYPE svg PUBLIC "-//W3C//DTD SVG 1.1//EN" "http://www.w3.org/Graphics/SVG/1.1/DTD/svg11.dtd">
<svg version="1.1" xmlns="http://www.w3.org/2000/svg" xmlns:xlink="http://www.w3.org/1999/xlink" x="0px" y="0px" width="841.89" height="595.276" viewBox="0, 0, 841.89, 595.276">
  <g id="Layer_x0020_1">
    <path d="M206.196,169.74 L443.565,286.994 L206.196,286.994 z" fill="#B2B2B2"/>
    <path d="M303.06,165.341 L388.422,207.779 L368.477,247.899 L283.115,205.461 z" fill-opacity="0" stroke="#000000" stroke-width="1.4"/>
    <path d="M334.93,250.619 L334.93,206.203 L336.915,206.203 L336.915,250.619 L334.93,250.619 z M335.923,257.6 L329.97,243.71 L330.342,243.89 L330.714,244.058 L331.086,244.215 L331.458,244.361 L331.83,244.495 L332.202,244.617 L332.574,244.727 L332.946,244.826 L333.318,244.913 L333.69,244.989 L334.062,245.053 L334.434,245.105 L334.806,245.146 L335.178,245.175 L335.55,245.192 L335.923,245.198 L336.295,245.192 L336.667,245.175 L337.039,245.146 L337.411,245.105 L337.783,245.053 L338.155,244.989 L338.527,244.913 L338.899,244.826 L339.271,244.727 L339.643,244.617 L340.015,244.495 L340.387,244.361 L340.759,244.215 L341.131,244.058 L341.503,243.89 L341.875,243.71 L341.875,243.71 L335.923,257.6 z" fill="#000000"/>
    <path d="M461.923,188.203 L461.923,287.152" fill-opacity="0" stroke="#000000" stroke-width="0.7"/>
    <path d="M460.868,241.549 L460.868,220.22 L462.852,220.22 L462.852,241.549 L460.868,241.549 z M461.86,248.53 L455.907,234.64 L456.279,234.821 L456.652,234.989 L457.023,235.146 L457.396,235.291 L457.768,235.425 L458.14,235.547 L458.512,235.658 L458.884,235.756 L459.256,235.844 L459.628,235.919 L460,235.983 L460.372,236.036 L460.744,236.076 L461.116,236.105 L461.488,236.123 L461.86,236.129 L462.232,236.123 L462.604,236.105 L462.976,236.076 L463.348,236.036 L463.721,235.983 L464.092,235.919 L464.465,235.844 L464.837,235.756 L465.209,235.658 L465.581,235.547 L465.953,235.425 L466.325,235.291 L466.697,235.146 L467.069,234.989 L467.441,234.821 L467.813,234.64 L467.813,234.64 L461.86,248.53 z" fill="#000000"/>
    <path d="M460.93,233.371 L460.93,217.599 L462.915,217.599 L462.915,233.371 L460.93,233.371 z M461.923,240.352 L455.97,226.462 L456.342,226.642 L456.714,226.81 L457.086,226.968 L457.458,227.113 L457.83,227.247 L458.202,227.369 L458.574,227.479 L458.946,227.578 L459.318,227.665 L459.69,227.741 L460.062,227.805 L460.434,227.857 L460.806,227.898 L461.178,227.927 L461.55,227.944 L461.923,227.95 L462.295,227.944 L462.667,227.927 L463.039,227.898 L463.411,227.857 L463.783,227.805 L464.155,227.741 L464.527,227.665 L464.899,227.578 L465.271,227.479 L465.643,227.369 L466.015,227.247 L466.387,227.113 L466.759,226.968 L467.131,226.81 L467.503,226.642 L467.875,226.462 L467.875,226.462 L461.923,240.352 z" fill="#000000"/>
    <text transform="matrix(2.835, 0, 0, 2.835, 318.218, 190.456)">
      <tspan x="-4.452" y="2.5" font-family=".LucidaGrandeUI" font-size="8.467" fill="#1F1A17">m</tspan>
    </text>
    <text transform="matrix(2.835, 0, 0, 2.835, 333.163, 190.456)">
      <tspan x="-3.14" y="2.5" font-family=".LucidaGrandeUI" font-size="8.467" fill="#1F1A17">g</tspan>
    </text>
    <path d="M324.264,199.724 L336.266,199.724 L336.266,200.815 L324.264,200.815 z" fill="#1F1A17"/>
    <text transform="matrix(2.835, 0, 0, 2.835, 438.22, 207.727)">
      <tspan x="-4.452" y="2.5" font-family=".LucidaGrandeUI" font-size="8.467" fill="#000000">m</tspan>
    </text>
    <text transform="matrix(2.835, 0, 0, 2.835, 453.165, 207.727)">
      <tspan x="-3.14" y="2.5" font-family=".LucidaGrandeUI" font-size="8.467" fill="#000000">g</tspan>
    </text>
    <path d="M444.266,216.996 L456.267,216.996 L456.267,218.087 L444.266,218.087 z" fill="#000000"/>
    <path d="M495.139,206.147 L462.575,190.119 L463.451,188.344 L496.015,204.372 L495.139,206.147 z M501.825,208.334 L486.77,207.543 L487.096,207.29 L487.411,207.031 L487.715,206.767 L488.009,206.498 L488.292,206.224 L488.566,205.945 L488.828,205.661 L489.081,205.371 L489.323,205.077 L489.554,204.777 L489.775,204.472 L489.986,204.162 L490.186,203.847 L490.376,203.527 L490.556,203.202 L490.725,202.871 L490.884,202.535 L491.032,202.195 L491.17,201.849 L491.297,201.498 L491.414,201.142 L491.521,200.781 L491.617,200.415 L491.703,200.043 L491.778,199.667 L491.844,199.285 L491.898,198.898 L491.942,198.506 L491.976,198.109 L492,197.707 L492.013,197.3 L492.015,196.888 L492.015,196.888 L501.825,208.334 z" fill="#000000"/>
    <path d="M464.576,280.926 L500.746,208.49 L502.521,209.373 L466.351,281.81 L464.576,280.926 z M462.347,287.609 L463.226,272.534 L463.478,272.861 L463.735,273.178 L463.998,273.484 L464.266,273.78 L464.539,274.066 L464.817,274.341 L465.1,274.606 L465.388,274.86 L465.682,275.104 L465.981,275.338 L466.285,275.561 L466.594,275.774 L466.909,275.976 L467.228,276.168 L467.553,276.35 L467.883,276.521 L468.219,276.682 L468.559,276.833 L468.905,276.973 L469.255,277.103 L469.612,277.222 L469.973,277.331 L470.339,277.429 L470.71,277.517 L471.087,277.595 L471.469,277.663 L471.856,277.72 L472.249,277.766 L472.646,277.802 L473.049,277.828 L473.457,277.843 L473.87,277.848 L473.87,277.848 L462.347,287.609 z" fill="#000000"/>
    <path d="M417.132,258.553 L415.225,279.846" fill-opacity="0" stroke="#000000" stroke-width="0.5"/>
    <path d="M436.198,252.218 L467.657,262.366" fill-opacity="0" stroke="#000000" stroke-width="0.5"/>
    <text transform="matrix(2.835, 0, 0, 2.835, 425.463, 243.683)">
      <tspan x="-3.534" y="3.5" font-family=".LucidaGrandeUI" font-size="9.878" fill="#000000">θ</tspan>
    </text>
  </g>
  <defs/>
</svg>
